<svg id="cart-icon" xmlns="http://www.w3.org/2000/svg" width="29.976" height="27.901" viewBox="0 0 29.976 27.901">
  <path id="Path_266" data-name="Path 266" d="M188.423,96.765c-.456-.608-6.7,3.423-7.55,4.621-1.755,2.475-.643,5.6.672,8.126,1.653-1.569,4.668-4.553,5.51-8.339,0,0,1.005,3.8-5.872,10.775l-.968,2.172a.2.2,0,0,0,.317.219c4.276-3.981,6.73-6.153,7.74-8.605,2.149-5.216.79-8.12.152-8.969" transform="translate(-166.449 -96.703)" fill="#84bd00"/>
  <g id="Group_229" data-name="Group 229" transform="translate(0 1.17)">
    <path id="Path_267" data-name="Path 267" d="M137.645,108.621a.934.934,0,0,0-.74-.366h0l-2.358.01a.939.939,0,0,0,0,1.878h0l1.244-.005-2.913,10.357H118.069l-2.824-9.346-.283-1.008,3.359-.008a.939.939,0,0,0,0-1.877h0l-3.882.009-1.3-4.637c0-.011-.009-.02-.012-.031a.919.919,0,0,0-.053-.134l-.017-.031a.966.966,0,0,0-.084-.129l-.013-.016a.959.959,0,0,0-.117-.12l0,0a.931.931,0,0,0-.606-.227h0l-3.32.01a.939.939,0,0,0,0,1.877h0l2.605-.008,1.928,6.857,3.031,10.031a.939.939,0,0,0,.9.667h16.223a.939.939,0,0,0,.9-.685l3.412-12.13A.935.935,0,0,0,137.645,108.621Z" transform="translate(-107.968 -102.937)" fill="#503629"/>
    <path id="Path_268" data-name="Path 268" d="M230.269,209.547a3.357,3.357,0,1,0,3.358,3.357A3.361,3.361,0,0,0,230.269,209.547Zm0,4.837a1.48,1.48,0,1,1,1.48-1.48A1.482,1.482,0,0,1,230.269,214.384Z" transform="translate(-204.58 -189.531)" fill="#503629"/>
    <path id="Path_269" data-name="Path 269" d="M141.269,209.547a3.357,3.357,0,1,0,3.357,3.357A3.361,3.361,0,0,0,141.269,209.547Zm0,4.837a1.48,1.48,0,1,1,1.48-1.48A1.482,1.482,0,0,1,141.269,214.384Z" transform="translate(-132.29 -189.531)" fill="#503629"/>
  </g>
</svg>
