<svg xmlns="http://www.w3.org/2000/svg" width="49.521" height="33.848" viewBox="0 0 49.521 33.848">
  <g id="countdown-icon" transform="translate(-1335.223 -240.914)">
    <path id="Path_9186" data-name="Path 9186" d="M4.051,1.581A1.781,1.781,0,0,0,2.266,0C-.054,2.83-.348,2.986.3,3.656l-.014.15c-.371,3.888.073,9.686.153,13.68a1.781,1.781,0,0,0,.92,1.546,1.915,1.915,0,0,0,.923.234A1.891,1.891,0,0,0,3.254,19a1.75,1.75,0,0,0,.838-1.556c-.077-3.87,1.09-4.588,1.456-8.415.057-.6-1.5-6.214-1.448-6.812A1.817,1.817,0,0,0,4.051,1.581Z" transform="translate(1379.714 254.251) rotate(25)" fill="#8fba39"/>
    <path id="Path_9187" data-name="Path 9187" d="M7.9.163A22.2,22.2,0,0,0,.547.5c-.958.2-.553,1.672.4,1.469A20.964,20.964,0,0,1,7.9,1.686C8.866,1.806,8.858.282,7.9.163Z" transform="matrix(0.978, 0.208, -0.208, 0.978, 1364.95, 247.6)" fill="#f57120"/>
    <g id="Group_227" data-name="Group 227" transform="translate(1335.223 240.914)">
      <g id="Group_212" data-name="Group 212" transform="translate(0 13.415)">
        <g id="Group_211" data-name="Group 211">
          <g id="Group_210" data-name="Group 210">
            <path id="Path_258" data-name="Path 258" d="M237.64,530.944h-27.15c-5.845,1.1-10.3-16.152-10.479-19.51a.756.756,0,0,1,.743-.866h46.623a.757.757,0,0,1,.743.867C247.957,514.739,243.422,532.135,237.64,530.944Zm-36-18.872c.977,5.557,4.051,17.368,8.85,17.368h27.15c4.8,0,7.873-11.811,8.849-17.368Z" transform="translate(-200 -510.569)" fill="#503629"/>
          </g>
        </g>
      </g>
      <g id="Group_214" data-name="Group 214" transform="translate(8.612 2.426)">
        <g id="Group_213" data-name="Group 213">
          <path id="Path_259" data-name="Path 259" d="M215.469,507.771a34.2,34.2,0,0,0-5.312-1.277.757.757,0,0,1-.582-1.022c.988-2.16,2.547-6.685,4.236-7.048h.051c.432,0,1.086,0,3.629,4.484.454.975-.657,1.229-1.348,1.1a14.786,14.786,0,0,0,.068,2.874A.754.754,0,0,1,215.469,507.771Zm-4.144-2.605a30.292,30.292,0,0,1,3.309.778c-.04-2.858-.068-2.843.927-3.363a18.464,18.464,0,0,0-1.672-2.462A28.354,28.354,0,0,0,211.325,505.165Z" transform="translate(-209.52 -498.422)" fill="#503629"/>
        </g>
      </g>
      <g id="Group_216" data-name="Group 216" transform="translate(13.691 6.513)">
        <g id="Group_215" data-name="Group 215">
          <path id="Path_260" data-name="Path 260" d="M221.914,511.345c-.481-.114-4.41.3-4.63-.312a.756.756,0,0,1-.1-.679c.312-.931.2-1.219.194-1.232s-.185-.413-1.64-.971a.753.753,0,0,1-.48-.634c-.312-3.429.055-3.894.232-4.117,1.887-1.449,7,.918,9.319,1.639.928.43.237,1.329-.156,1.913C223.6,508.208,222.779,511.433,221.914,511.345Zm-3.055-1.5h2.549a29.175,29.175,0,0,1,1.991-3.729,24.23,24.23,0,0,0-6.722-1.68,13.332,13.332,0,0,0,.036,2.493C218.4,507.712,219.068,508.252,218.859,509.841Z" transform="translate(-215.134 -502.94)" fill="#503629"/>
        </g>
      </g>
      <g id="Group_218" data-name="Group 218" transform="translate(19.717 4.132)">
        <g id="Group_217" data-name="Group 217">
          <path id="Path_261" data-name="Path 261" d="M232.294,511.094h-9.745a.757.757,0,0,1-.7-1.023,33.255,33.255,0,0,1,4.828-7.943c2.244-2.577,2.746-2.509,4.086.783a65.268,65.268,0,0,1,2.24,7.174A.756.756,0,0,1,232.294,511.094Zm-8.6-1.5h7.626a46.7,46.7,0,0,0-2.565-7.51A31.315,31.315,0,0,0,223.692,509.59Z" transform="translate(-221.795 -500.307)" fill="#503629"/>
        </g>
      </g>
      <g id="Group_220" data-name="Group 220" transform="translate(27.235 4.122)">
        <g id="Group_219" data-name="Group 219">
          <path id="Path_262" data-name="Path 262" d="M236.188,511.093h-3.1a.752.752,0,0,1-.729-.568c-.6-2.662-1.66-5.347-2.249-7.408.314-4.594,6.551-2.435,10.033-1.4,3.61,1.542,5.12,1.725,3.856,4.649a.752.752,0,0,1-.5.437,23.074,23.074,0,0,0-6.765,2.784C237,510.112,237.048,511.092,236.188,511.093Zm-2.521-1.5h1.542c-.425-1.652,5.567-3.583,7.534-4.14a4.085,4.085,0,0,0,.213-.685c-.66-.692-8.48-4.226-11.189-2.387a3.052,3.052,0,0,0-.146.7A64.845,64.845,0,0,1,233.667,509.589Z" transform="translate(-230.105 -500.297)" fill="#503629"/>
        </g>
      </g>
      <g id="Group_222" data-name="Group 222" transform="translate(32.33 8.619)">
        <g id="Group_221" data-name="Group 221">
          <path id="Path_263" data-name="Path 263" d="M248.037,511.567h-5.488c-3.792-.247-5.666.574-6.527-.476-.53-1.8-.653-1.877,2.685-3.539a25.521,25.521,0,0,1,8.323-2.284c2.326.228,2.669.733,1.741,5.71A.752.752,0,0,1,248.037,511.567Zm-10.773-1.5h10.164c.474-2.365.276-3.078.223-3.212-2.6-.512-9.587,2.4-10.387,3.211Z" transform="translate(-235.737 -505.268)" fill="#503629"/>
        </g>
      </g>
      <g id="Group_224" data-name="Group 224" transform="translate(17.654)">
        <g id="Group_223" data-name="Group 223">
          <path id="Path_264" data-name="Path 264" d="M224.946,505.805c-1.621-.5-3.331-1.214-4.87-1.566a.752.752,0,0,1-.546-.88c.45-1.889,1.469-7.629,3.676-7.619.884,0,2.042.741,4.517,6.115a.752.752,0,0,1-.1.792C226.829,503.289,226.02,505.51,224.946,505.805Zm-3.8-2.832c1.132.32,2.34.72,3.5,1.162.5-.745,1.02-1.457,1.505-2.072-1.857-3.955-2.742-4.676-2.952-4.8C222.849,497.507,222.037,498.956,221.151,502.973Z" transform="translate(-219.514 -495.74)" fill="#503629"/>
        </g>
      </g>
      <g id="Group_226" data-name="Group 226" transform="translate(2.281 8.578)">
        <g id="Group_225" data-name="Group 225">
          <path id="Path_265" data-name="Path 265" d="M216.692,511.563H203.874a.752.752,0,0,1-.734-.585c-.931-4.108-.577-4.7-.426-4.957,1.938-1.927,9.966.136,12.354.943,2.441,1,3.085,1.722,2.337,4.086A.752.752,0,0,1,216.692,511.563Zm-12.214-1.5h11.647c1.083-2.353-10.508-3.661-12.1-3.183A15.514,15.514,0,0,0,204.479,510.059Z" transform="translate(-202.521 -505.222)" fill="#503629"/>
        </g>
      </g>
    </g>
  </g>
</svg>
