<svg xmlns="http://www.w3.org/2000/svg" width="17.448" height="26.844" viewBox="0 0 17.448 26.844">
  <g id="drinks-icon" transform="translate(0)">
    <g id="Group_2424" data-name="Group 2424" transform="translate(0 4.899)">
      <path id="Path_7465" data-name="Path 7465" d="M245.691,264.355h-7.514a.761.761,0,0,1-.748-.623l-3.757-20.424a.76.76,0,0,1,.748-.9h15.029a.76.76,0,0,1,.748.9l-3.758,20.424A.76.76,0,0,1,245.691,264.355Zm-6.881-1.521h6.248l3.478-18.9h-13.2Z" transform="translate(-233.659 -242.41)" fill="#fff"/>
    </g>
    <g id="Group_2425" data-name="Group 2425" transform="translate(2.095 13.91)">
      <path id="Path_7466" data-name="Path 7466" d="M250.874,267.624H239.9a.761.761,0,0,1,0-1.521h10.977a.761.761,0,0,1,0,1.521Z" transform="translate(-239.167 -266.103)" fill="#fff"/>
    </g>
    <g id="Group_2426" data-name="Group 2426" transform="translate(7.625 1.571)">
      <path id="Path_7467" data-name="Path 7467" d="M254.469,254.252a.787.787,0,0,1-.142-.013.761.761,0,0,1-.607-.889l3.59-19.07a.761.761,0,1,1,1.495.281l-3.59,19.07A.761.761,0,0,1,254.469,254.252Z" transform="translate(-253.707 -233.661)" fill="#fff"/>
    </g>
    <g id="Group_2427" data-name="Group 2427" transform="translate(11.215)">
      <path id="Path_7468" data-name="Path 7468" d="M263.906,232.622a.761.761,0,0,1-.24-1.483l4.711-1.57a.761.761,0,0,1,.481,1.443l-4.712,1.57A.758.758,0,0,1,263.906,232.622Z" transform="translate(-263.145 -229.53)" fill="#fff"/>
    </g>
  </g>
</svg>
