<svg xmlns="http://www.w3.org/2000/svg" width="30.092" height="30.091" viewBox="0 0 30.092 30.091">
  <g id="erbert-refresh-icon" transform="translate(-1059.167 -89.178)">
    <g id="Group_831" data-name="Group 831" transform="translate(1059.167 89.156)">
      <path id="Path_708" data-name="Path 708" d="M.272,12.28q-.028-.028-.053-.058l-.008-.009q-.024-.03-.046-.062l-.008-.012q-.021-.031-.039-.064L.11,12.059q-.017-.033-.032-.066l-.007-.016c-.01-.023-.018-.047-.026-.071l0-.013q-.012-.039-.02-.079l0-.008q-.009-.044-.014-.089h0a.934.934,0,0,1,0-.137V3.47a.94.94,0,1,1,1.881,0V7.116A15.75,15.75,0,0,1,15.046.022,15.046,15.046,0,1,1,4.409,25.7a.941.941,0,0,1,1.33-1.33A13.164,13.164,0,1,0,15.046,1.9,13.649,13.649,0,0,0,2.206,10.679H9.091a.94.94,0,0,1,0,1.881H.921l-.044,0-.053,0-.037-.006-.058-.011-.014,0-.021-.006L.64,12.51.6,12.495l-.041-.017-.05-.024-.028-.015L.424,12.4l-.017-.011q-.031-.021-.06-.044l-.01-.008q-.03-.025-.058-.053Z" transform="translate(0 0)" fill="#137163"/>
      <path id="Path_709" data-name="Path 709" d="M193.056,102.427c-.137.427-.3.875-.491,1.341-.993,2.408-3.405,4.545-7.607,8.456a.193.193,0,0,1-.312-.214c.267-.6.63-1.413.952-2.135a22.2,22.2,0,0,0,5.3-7.532,5.6,5.6,0,0,0,.468-3.059,11.357,11.357,0,0,1-1.185,3.044,22.126,22.126,0,0,1-4.229,5.152,11.531,11.531,0,0,1-1.552-5.1,4.882,4.882,0,0,1,.89-2.889c.837-1.178,6.973-5.141,7.421-4.543C193.284,95.709,194.441,98.138,193.056,102.427Z" transform="translate(-172.892 -88.035)" fill="#80bc00"/>
    </g>
  </g>
</svg>
