<svg xmlns="http://www.w3.org/2000/svg" width="39.945" height="40.701" viewBox="0 0 39.945 40.701">
  <g id="fb-icon" transform="translate(-117.03 -783.358)">
    <g id="Group_180" data-name="Group 180">
      <path id="Path_213" data-name="Path 213" d="M138.955,823.579c.194-.095.931-.13,1.181-.256C138.93,823.413,138.93,823.366,138.955,823.579Z" fill="#fff" fill-rule="evenodd"/>
      <path id="Path_214" data-name="Path 214" d="M117.488,802.478a5.165,5.165,0,0,0-.012,1.767C117.419,803.726,117.575,802.954,117.488,802.478Z" fill="#fff" fill-rule="evenodd"/>
      <path id="Path_215" data-name="Path 215" d="M136.706,823.559a.383.383,0,0,0,.216.044l.307-.019-.236-.045C136.842,823.522,136.71,823.521,136.706,823.559Z" fill="#fff" fill-rule="evenodd"/>
      <path id="Path_216" data-name="Path 216" d="M137.908,823.555l-.111.045.241.03c0-.019.111-.036.066-.051A1.547,1.547,0,0,0,137.908,823.555Z" fill="#fff" fill-rule="evenodd"/>
      <path id="Path_217" data-name="Path 217" d="M139.849,783.7l2.111.468.8.242a13.17,13.17,0,0,1,1.694.615l-.039-.035.812.365c.254.082.555.288.8.382.439.251.9.47,1.277.728a2.365,2.365,0,0,0,.523.3l1.021.7c.135.06.351.26.464.311a2.907,2.907,0,0,0,.259.15,2.891,2.891,0,0,0-.645-.563l-1.208-.827a3.742,3.742,0,0,0-1.052-.606l-.793-.422a11.42,11.42,0,0,0-1.373-.6l-.512-.218a3.2,3.2,0,0,0-.868-.3l-.322-.1a1.173,1.173,0,0,0-.278-.084l-.256-.07a13.327,13.327,0,0,0-2.418-.592c-.216-.031-.34-.023-.348.021S139.636,783.666,139.849,783.7Zm7.591,2.789.018.012a1.3,1.3,0,0,1,.263.174l-.263-.174-.021-.008Z" fill="#fff" fill-rule="evenodd"/>
      <path id="Path_218" data-name="Path 218" d="M154.124,815.478l-.009.014c-.011.015-.017.034-.028.049Z" fill="#fff" fill-rule="evenodd"/>
      <path id="Path_219" data-name="Path 219" d="M156.842,807.006v-.035a6.8,6.8,0,0,0,.122-1.608,1.334,1.334,0,0,0-.047.13,1.689,1.689,0,0,0-.006-.328l-.016-.073.009-.1c0-.434.01-.869.015-1.329l-.049-.262a22.3,22.3,0,0,0-.674-3.767l-.1-.271c-.308-1.05-.651-2.007-1.075-3.061l-.15-.218-.116-.285a1.265,1.265,0,0,0-.241-.511,8.371,8.371,0,0,0-1.064-1.807,30.542,30.542,0,0,0-1.987-2.408c-.351-.372-.554-.758-.913-1.1-.35-.312-.409-.189-.909-.6-.537-.4-1.057-.868-1.638-1.287l-.034.046c-.008-.029-.032-.072.034-.046l-.226-.158-.034.046-.7-.486-.26-.1-.083-.039-.052-.047c-.2-.159-.488-.255-.594-.39.134,0,.57.256.609.193a3.3,3.3,0,0,0-1.649-.673c-.158-.091-.383-.206-.366-.24.13-.107-.224-.227-.683-.382-.373-.12-.484-.089-.472,0l-.251-.105a.971.971,0,0,0-.275-.11l.036.031a2.509,2.509,0,0,0-.272-.117c-.321-.115-.833-.242-.662-.326.138-.057-.073-.151-.448-.267a2.525,2.525,0,0,0-.95-.191c.375.117.813.335.672.413-.162-.029-.348-.077-.538-.122a1.829,1.829,0,0,0-.366-.3c-.041-.053-.084-.1-.267-.144a.582.582,0,0,0-.312-.373c.178.013.371.031.562.05a6.036,6.036,0,0,1,1.657.523,3.714,3.714,0,0,0,1.093.342l1.528.648a35.352,35.352,0,0,1,3.592,1.945l-.023-.01c.647.4,1.209.99,1.836,1.46a5.308,5.308,0,0,1,.813.732l.293.28c.2.176.4.408.6.618.6.74,1.174,1.384,1.677,2.085l-.045-.11.025.039.02.071a4.23,4.23,0,0,0,.5.68l.085.118.07.124a9.754,9.754,0,0,0,.716,1.282,2.3,2.3,0,0,1,.134.23c.136.307.282.611.412.843.028.069.032.067.046.062.022.017.022-.009.007-.084a7.113,7.113,0,0,0-1.018-2.276c-.131-.206-.314-.493-.456-.718a12.467,12.467,0,0,0-3.261-3.788,2.039,2.039,0,0,0-.444-.371,2.117,2.117,0,0,0-.455-.32l-.427-.346-.691-.592a13.412,13.412,0,0,0-3.353-2.054c-.538-.253-1.133-.433-1.7-.732-.419-.235-.974-.459-.792-.181.027.061-.336-.046-.562-.117-.431-.122-.922-.3-1.387-.394a.634.634,0,0,1-.184-.045.845.845,0,0,0-.322-.068.614.614,0,0,1-.209-.043,12.414,12.414,0,0,0-1.223-.331,3.009,3.009,0,0,0-.531-.112c-.026-.051-.1-.092-.32-.118a2.129,2.129,0,0,0-.3-.044l-.073.012-.025,0,.1-.014c-.05-.045-.149-.071-.4-.072l-.025-.008v.005c-.025-.032-.124-.041-.3-.044a.543.543,0,0,1-.2.01c-.461.036-.922.1-1.381.182a4.122,4.122,0,0,0-.792.023,20.973,20.973,0,0,0-3.288.472l0,.01,0,.009,0-.019a8.573,8.573,0,0,0-1.665.4,2.838,2.838,0,0,0-.832.219,3.386,3.386,0,0,0-.643.191c-.292.107-.175.142-.346.227a.918.918,0,0,0-.282.187c-.077.061-.445.225-.351.26.042.032.122.038.307-.007.078.055.3.027.615-.06l.059-.037,0,.005a.21.21,0,0,0-.061.032l.668.114c.028.075.119.122.408.062-.157.1-.31.2-.454.3a4.316,4.316,0,0,0-1.226.754,12.283,12.283,0,0,0-1.7,1.3l.037-.029c-.268.286-.711.548-.9.815l0,0a5.3,5.3,0,0,0-.448.442l-.04.062-.074.062-.785.767a4.436,4.436,0,0,0-.961.964c-.359.486-1.054,1.249-1.446,1.863a10.306,10.306,0,0,0-1.222,1.97l.032-.029c-.016.038-.02.036-.02.036l-.012-.007a18.564,18.564,0,0,0-1.085,2.189,7.313,7.313,0,0,0-.542,1.486c-.041.13-.082.26-.119.391a13.2,13.2,0,0,0-.744,3.176,4.864,4.864,0,0,0-.034,1.561.262.262,0,0,1-.011.17,1.643,1.643,0,0,0-.061.514,5.78,5.78,0,0,0,.038,1.606l.015.019h0s-.01,0-.015-.019a2.391,2.391,0,0,0,.047.86h0a6.511,6.511,0,0,0,.088.837.405.405,0,0,1,.024.171,1.453,1.453,0,0,0,.052.541,2.4,2.4,0,0,0,.284.953h0a2.491,2.491,0,0,0,.228.692l.262.86a11.618,11.618,0,0,0,.547,1.4l.207.516a3.245,3.245,0,0,0,.4.824c.056.108.111.216.155.3a1.185,1.185,0,0,0,.137.255l.132.231a13.249,13.249,0,0,0,1.291,2.128c.131.175.224.257.261.231s-.025-.16-.149-.338c-.374-.587-.8-1.252-1.161-1.823l-.4-.74a13.115,13.115,0,0,1-.763-1.631l0,.052-.316-.833c-.121-.237-.188-.6-.3-.838-.036-.132-.074-.263-.113-.393a.639.639,0,0,0,.037.068l0,0,.085.151-.034-.16v0a1.475,1.475,0,0,0-.017-.229,1.846,1.846,0,0,0-.09-.529l-.012,0,0,0,.016-.005a.9.9,0,0,0-.013-.176,16.64,16.64,0,0,0,.581,1.809c.2.56.5,1.107.685,1.72.13.463.365,1.014.433.689.024-.063.205.269.315.479.217.392.441.863.7,1.26a.629.629,0,0,1,.1.161.826.826,0,0,0,.18.276.616.616,0,0,1,.117.179,8.794,8.794,0,0,0,2.349,3.027,3.875,3.875,0,0,1,.41.427,3.338,3.338,0,0,0,.745.77,20.854,20.854,0,0,0,2.659,1.99l.005-.008,0-.008-.01.016a8.52,8.52,0,0,0,1.456.9,2.894,2.894,0,0,0,.743.434,3.472,3.472,0,0,0,.59.318c.282.132.224.023.4.085a.935.935,0,0,0,.333.067c.1.011.474.156.432.064-.007-.052-.06-.113-.223-.212-.016-.094-.19-.229-.476-.392l-.069-.016,0-.005a.209.209,0,0,0,.067.021l-.392-.553c.039-.087-.009-.206-.4-.429-.037-.078-.118-.171-.152-.258.286.133.6.259.876.355.3.1.471.092.493.037.072-.062-.261-.183-.459-.285-.238-.118-.421-.251-.434-.322-.027-.095.316.05.49.089a19.7,19.7,0,0,0,2.043.629,3.526,3.526,0,0,0,1,.223L134,822.9l.021.005,0,.009a7.017,7.017,0,0,0,1.343.236.6.6,0,0,1-.1-.043l.021,0,.081.039a5.035,5.035,0,0,0,1.291.11l-.042-.014.043.005v.009a8.735,8.735,0,0,0,2.151.074c.6-.091,1.628-.139,2.34-.295a10.319,10.319,0,0,0,2.257-.529l-.043,0c.038-.016.039-.012.039-.012l0,.014a18.1,18.1,0,0,0,4.11-1.64,13.721,13.721,0,0,0,2.458-1.481h0c.031.033.111.016.266-.1l.077-.093,0,0-.081.09a.711.711,0,0,0,.267-.055,4.166,4.166,0,0,1-.6.446l.018-.014c-.211.117-.5.343-.7.426-.465.157-.943.6-1.453.84l-.425.208c-.287.094-.643.347-.954.435l-.4.162a7.189,7.189,0,0,1-1.574.6l-.079.034-.061.015c-1.615.394-2.791.821-4.036,1.111a20.414,20.414,0,0,0,6.782-1.986l.466-.235a4.165,4.165,0,0,0,1.208-.639l.646-.406c.216-.108.474-.306.683-.429a1.438,1.438,0,0,1,.195-.139,3.314,3.314,0,0,0,.675-.486l.211-.161c.091-.059.212-.122.281-.176l.3-.293a.911.911,0,0,0,.285-.219l.024-.013,0,0c.04.005.117-.059.243-.181a.537.537,0,0,1,.132-.147,19.507,19.507,0,0,0,1.752-2.489,8.2,8.2,0,0,0,.534-.941,2.653,2.653,0,0,0,.366-.627c.065-.09.131-.176.2-.258a16.274,16.274,0,0,0,1.013-3.181,4.3,4.3,0,0,0,.334-1.4,12.158,12.158,0,0,0,.283-2.124Zm-3.806-14.934-.011.009s.006-.005,0-.027Zm-24.774-6.923c0-.013-.035-.022.03-.055.019-.018.065-.027.085-.042C128.32,785.1,128.256,785.134,128.262,785.149Zm2.461,38.477c-.005.013.01.04-.06.018-.026,0-.065-.028-.09-.031C130.646,823.622,130.717,823.641,130.723,823.626Zm24.892-20.2h-.009v-.044Zm-.124,2.685a5.471,5.471,0,0,0-.006-1.242A4.531,4.531,0,0,1,155.491,806.111Zm.033-8.106c-.021-.019-.063-.129-.088-.144l-.038-.162Zm-.163,2.468h.01c-.005.024-.014.094-.031.053A.323.323,0,0,0,155.361,800.473Zm-.383,4.049h.005l-.005.023Zm-.449-1.527a.911.911,0,0,1,.022.192c-.012.171-.043-.018-.069-.1C154.5,803.082,154.525,803.081,154.529,802.995Zm-.266,3.013h.014l-.009.043C154.261,806.071,154.263,806.008,154.263,806.008Zm-4.079,10.526c.032-.06.066-.121.1-.181a7.614,7.614,0,0,1,.671-1.4,6.934,6.934,0,0,1-.671,1.4.417.417,0,0,0-.014.081Zm-25.115-.3c-.022-.013-.053-.047-.072-.055l0,0-.012-.014-.046-.045h0a.307.307,0,0,1,.044.046l.016.011.037.024C125.046,816.219,125.057,816.227,125.069,816.238Zm-3.435-1.019-.025-.032c.036.023.051.012.041-.032l-.01-.018.015.016c-.182-.349-.338-.812-.182-.768a10.7,10.7,0,0,0,.605.909l.333.488c.179.435.212.52.122.651-.109-.191-.269-.381-.437-.615a2.865,2.865,0,0,0-.446-.663C121.66,815.2,121.649,815.207,121.634,815.219Zm.542-6.358.017,0v.041Zm-.258,1.171a.126.126,0,0,0-.076-.041.575.575,0,0,1-.1.268c.022-.112.017-.282.1-.268a1.261,1.261,0,0,0,.024-.239C121.9,809.869,121.877,809.917,121.918,810.032Zm-.627,3.45-.02-.038a1.8,1.8,0,0,0,.2.3l-.015.007Zm-.306-1.849-.079-.133-.036-.1Zm-.612-2.538c-.016,0-.044-.035-.073-.094l-.009-.043C120.315,809.02,120.351,809.1,120.373,809.095ZM118.6,807.47a.392.392,0,0,1-.03-.077h0A.2.2,0,0,0,118.6,807.47Zm.51,1.874c-.037.012-.016.133.027.293a.923.923,0,0,1-.1-.313C119.036,809.258,119.076,809.31,119.106,809.344Zm.936-1.091a1.191,1.191,0,0,1-.13-.4A3.05,3.05,0,0,0,120.042,808.253Zm.143,1.044c-.013-.133-.028-.24.019-.25C120.167,809.055,120.172,809.164,120.185,809.3Zm-1.852-6.146,0,.04h-.009v-.019l0-.021Zm-.118.8v.019l0,.021-.035.288-.005.083v-.042l.005-.041a1.642,1.642,0,0,1,.035-.288Zm-.328,3.113a.054.054,0,0,0,.049-.024l.017.169a.748.748,0,0,0-.066-.145c-.052-.006-.108-.095-.162-.184A.525.525,0,0,1,117.887,807.061Zm2.54,5.328.1.252a.954.954,0,0,0,.117.272l0-.047a2.532,2.532,0,0,0,.11.275c.146.309.418.761.237.7-.05-.02-.07,0-.067.041l-.159-.313,0,0c0-.148-.205-.409-.3-.638a2.518,2.518,0,0,0-.179-.576C120.347,812.429,120.395,812.432,120.427,812.389Zm4.99-21.957.006-.008h0Zm13.262-4.09,0,.026c0,.022-.106.006-.108.02C138.57,786.366,138.675,786.366,138.679,786.342Zm-1.3-.176c-.043,0,0,0-.021-.005h-.1l.043-.006a2.124,2.124,0,0,1,.357-.017C137.592,786.156,137.426,786.144,137.382,786.166Zm.275.193v0a.3.3,0,0,1-.063,0l-.02,0-.043.01c-.017,0-.03,0-.046,0,.024-.006.069,0,.089-.012v-.005l.019,0Zm13.966,25.1a.264.264,0,0,1,.059-.105l.01.005C151.672,811.4,151.617,811.523,151.623,811.46Zm.045.137-.017.031.005-.038-.018.021V811.6s.014-.008.024-.022l-.007.014Zm2.01-5.732-.022.162a.227.227,0,0,0-.018-.1C153.654,805.863,153.666,805.885,153.678,805.865Zm-.383-9.852.012.024-.01-.02,0,0-.026-.055c-.011-.045-.014-.066-.014-.066A.518.518,0,0,0,153.295,796.013Zm-.086-1.922.009.015-.009-.015,0,0-.013-.02Zm-.272-.243-.008.005-.013-.019C152.933,793.851,152.937,793.848,152.937,793.848Zm-5.878-5.192a2.979,2.979,0,0,0-.374-.189A1.207,1.207,0,0,1,147.059,788.656Zm-1.175-.555a.282.282,0,0,1,.09.019l.037.025A.519.519,0,0,0,145.884,788.1Zm.126-.081c.02-.032-.061-.106-.164-.191C145.949,787.914,146.035,787.979,146.01,788.02Zm-2.232-1.238.1.048-.248-.086Zm-1.982-1.2.308.07.042.013a1.773,1.773,0,0,0-.355-.067Zm-3.717-2.056c-.019.005-.031.011-.064.018v-.007Zm-3.327.11.046,0-.189.009Zm-13.388,9.677,0,.074v0A.136.136,0,0,1,121.364,793.314Zm-.028.115,0,.006c-.024.01-.051.025-.076.036C121.287,793.453,121.312,793.443,121.336,793.429Zm-3.685,12.035c-.009.027-.016.055-.037.032l0-.043C117.632,805.5,117.642,805.485,117.651,805.464Zm.461,3.645,0,.006h0Zm2.047,4-.157-.387c.022.03.043.062.065.091a1.741,1.741,0,0,0,.144.375C120.194,813.164,120.177,813.136,120.159,813.111Zm1.333,2.557a6.006,6.006,0,0,1-.8-1.542c-.021-.063-.047-.129-.073-.194a1.817,1.817,0,0,1,.148.279,2.978,2.978,0,0,0,.306.533,1,1,0,0,0,.094.089,11.746,11.746,0,0,0,1.322,1.661l-.038.045C122.3,816.653,121.883,816.145,121.492,815.668Zm1.165-3.778c.105,0,.132-.146.084-.4h0l.09.454C122.9,812.219,122.751,812,122.657,811.89Zm.231,3.514c.022.012-.027-.088.033-.023s.013.045.041.105Zm1.313.012.021-.015c.018-.013.079.071.09.062C124.295,815.476,124.22,815.4,124.2,815.416Zm.579.868c.058.033.167.159.214.174.027.033,0,0,.011.018l.074.075-.034-.027A1.937,1.937,0,0,1,124.78,816.284Zm.285,3.822-.03-.035.14.127Zm.781-.336c0-.005-.006-.015,0-.021-.133-.147-.211-.272-.338-.415l-.04-.025s.023.01.005-.005l.035.03c.313.249.355.347.338.415.025.029.039.052.071.084Zm1.4-2.349.157.059c-.029,0,.008.05.014.074A1.736,1.736,0,0,1,127.248,817.421Zm1.018,2.291,0-.008.014.018C128.267,819.71,128.266,819.712,128.266,819.712Zm2.089.161a.811.811,0,0,0,.178.049C130.473,819.905,130.459,819.93,130.355,819.873Zm1.021.541c.019.008.02.006.02.006v0l-.019-.008c-.013,0-.022,0-.035-.005a.683.683,0,0,1-.429-.065,1.022,1.022,0,0,1-.263-.106c-.012-.007-.017,0-.029-.01l-.128-.059.157.069c.089.039.178.075.263.106.148.038.271.032.429.065,0,0,.014,0,.019,0s-.005-.007,0-.008l-.164-.184-.026-.017.017.008a.635.635,0,0,0-.045-.045,4.387,4.387,0,0,1-.528-.394l0,.008-.435-.271.386.234.053.029a1.759,1.759,0,0,1,.528.394c.031.02.05.041.082.061l-.037-.016.009.009c.134.086.264.168.164.184Zm.506.085-.218-.094a2.76,2.76,0,0,0,.259.1Zm1.124,1.462,0-.007v0Zm1.071-.508c.024-.01-.052-.034-.048-.048a.4.4,0,0,0,.107.067Zm1.482.346v-.007l.039.016Zm.972.139a2.863,2.863,0,0,0-.323-.145l.379.022C136.662,821.857,136.717,821.9,136.531,821.938Zm1.544-1.225a.526.526,0,0,0,.149.041.109.109,0,0,0,.055.02v.005a.144.144,0,0,1-.054-.025l-.185-.037C138.075,820.718,138.075,820.713,138.075,820.713Zm.2.3h.019a.518.518,0,0,1-.134.04A.783.783,0,0,0,138.273,821.011Zm3.176,1.651-.011.01a.145.145,0,0,1-.063.059l.063-.059a.055.055,0,0,0,.007-.034c0,.026.069.039.116.057A.781.781,0,0,0,141.449,822.662Zm1.664-1.944c-.076.024-.176.067-.187.027-.035.011,0-.014-.059,0l.007-.009.045-.017.007.028.117-.013.07-.014.04-.013,0,.005Zm3.847-1.765c-.259.124-.489.218-.578.17-.127-.038.136-.187.355-.329.094-.063.215-.152.143-.165-.153.033-.363.192-.477.179.192-.151.444-.235.647-.4-.049.012-.08.016-.1.007l-.024.008.015-.01.009,0c.044-.014.084-.024.1-.007a.414.414,0,0,1,.126-.078c.267-.1.543-.357.823-.477a4.084,4.084,0,0,0,1.009-.791l.016-.011.028-.025-.015.012c.234-.327-.076-.061-.269.083l-.085.069-.05.029c-.157.04-.426.292-.584.326a17.583,17.583,0,0,0,1.917-1.677c.039-.04.083-.082.128-.124a.1.1,0,0,0-.012.024c-.04.076.029.024.08-.043a.908.908,0,0,0,.074-.1l-.011-.007a.6.6,0,0,0,.2-.3.872.872,0,0,1,.149-.34c.153-.074.38-.3.48-.275-.089.144-.127.224-.119.28a7.145,7.145,0,0,0-.594,1,5.5,5.5,0,0,1-.523.889c-.159.179-.3.354-.442.528-.038.028-.076.056-.115.083A21.8,21.8,0,0,1,146.96,818.953Zm.851-.156.084-.049a.384.384,0,0,0,.078-.036.389.389,0,0,1,.1-.047.446.446,0,0,0-.1.047A1.251,1.251,0,0,1,147.811,818.8Z" fill="#84bd00" fill-rule="evenodd"/>
      <path id="Path_220" data-name="Path 220" d="M122.475,791c-.071.205-.567.75-.654,1.016C122.609,791.1,122.643,791.136,122.475,791Z" fill="#fff" fill-rule="evenodd"/>
      <path id="Path_221" data-name="Path 221" d="M117.49,801.525c.066-.232.111-.6.2-.8.218-.44.239-1.095.434-1.622l.153-.448c.136-.269.209-.7.367-.982l.166-.395a7.211,7.211,0,0,1,.688-1.537l.032-.08.033-.054c.5-.829.894-1.559,1.266-2.241l.319-.475c.1-.168.178-.32.148-.341,0-.005,0-.006-.006-.008.111-.193.224-.385.341-.575a20.181,20.181,0,0,0-3.131,5.492c-.015-.068-.083.062-.135.22-.123.386-.277.778-.372,1.156a5,5,0,0,0-.319,1.135l-.17.743c-.076.229-.118.552-.179.786a1.379,1.379,0,0,1-.04.236,3.345,3.345,0,0,0-.133.822l-.035.263c-.023.106-.065.236-.075.323,0,.331-.006.636-.009.967a.3.3,0,0,0,.014.065c.014.022.024.022.038-.043a.959.959,0,0,0,.064-.264h-.005c.044-.151.037-.39.068-.585a1.26,1.26,0,0,1,.011-.195,1.841,1.841,0,0,0,.1-.559,1.741,1.741,0,0,1-.06.193l-.025.084,0-.022c.008-.018.016-.041.023-.062l.06-.193c.094-.252.068-.735.168-1.028Z" fill="#fff" fill-rule="evenodd"/>
      <path id="Path_222" data-name="Path 222" d="M152.575,790.744a5.135,5.135,0,0,0-1.241-1.257C151.741,789.813,152.177,790.47,152.575,790.744Z" fill="#fff" fill-rule="evenodd"/>
      <path id="Path_223" data-name="Path 223" d="M154.746,793.843c.127.241.277.524.415.784a3.415,3.415,0,0,0,.2.339c.12.133.073-.035-.016-.211a7.413,7.413,0,0,0-.857-1.505l-.135-.205c-.113-.162-.233-.323-.273-.3-.058-.02.048.145.127.271C154.4,793.307,154.573,793.63,154.746,793.843Z" fill="#fff" fill-rule="evenodd"/>
      <path id="Path_224" data-name="Path 224" d="M124.079,789.427a.383.383,0,0,0-.184.122l-.2.23.2-.135C124.009,789.549,124.1,789.456,124.079,789.427Z" fill="#fff" fill-rule="evenodd"/>
      <path id="Path_225" data-name="Path 225" d="M123.231,790.28l.047-.111-.191.15c.013.014-.053.1-.011.083A1.5,1.5,0,0,0,123.231,790.28Z" fill="#fff" fill-rule="evenodd"/>
      <path id="Path_226" data-name="Path 226" d="M155.313,813.6c-.046.059-.057-.056-.138.18-.015.049-.016.1-.006.107a1.728,1.728,0,0,0,.148-.2C155.359,813.6,155.372,813.523,155.313,813.6Z" fill="#fff" fill-rule="evenodd"/>
      <path id="Path_227" data-name="Path 227" d="M156.9,800.454c.061.04,0-.222-.021-.368l-.176-.865c-.072-.158-.114-.147-.109.026l.17.861C156.815,800.3,156.867,800.46,156.9,800.454Z" fill="#fff" fill-rule="evenodd"/>
      <path id="Path_228" data-name="Path 228" d="M147.689,787.853l.085.08-.041-.064Z" fill="#fff" fill-rule="evenodd"/>
    </g>
    <path id="Path_229" data-name="Path 229" d="M139.023,816.761V804.853h4l.6-4.64h-4.6V797.25c0-1.344.373-2.259,2.3-2.259h2.457v-4.151a32.99,32.99,0,0,0-3.581-.183c-3.542,0-5.968,2.163-5.968,6.134v3.423h-4.007v4.64h4.007v11.908Z" fill="#fff"/>
  </g>
</svg>
