<svg xmlns="http://www.w3.org/2000/svg" width="24.738" height="26.294" viewBox="0 0 24.738 26.294">
  <g id="fruit-icon" transform="translate(0)">
    <g id="Group_2431" data-name="Group 2431" transform="translate(0 5.105)">
      <path id="Path_7469" data-name="Path 7469" d="M76.818,909.949h0a6.51,6.51,0,0,1-.982-.075,6.341,6.341,0,0,1-1.993-.659,6.349,6.349,0,0,1-1.992.659,6.524,6.524,0,0,1-.982.075c-4.165,0-8.09-4.005-9.131-9.317a11.62,11.62,0,0,1,1.544-8.874,6.722,6.722,0,0,1,4.511-2.924,7.6,7.6,0,0,1,6.051,1.962,7.6,7.6,0,0,1,6.05-1.962,6.722,6.722,0,0,1,4.511,2.924,11.616,11.616,0,0,1,1.544,8.874C84.908,905.943,80.983,909.949,76.818,909.949Zm-2.975-2.372a.761.761,0,0,1,.4.115,4.827,4.827,0,0,0,1.823.678,4.924,4.924,0,0,0,.75.057c3.451,0,6.734-3.477,7.637-8.089a10.238,10.238,0,0,0-1.3-7.707,5.237,5.237,0,0,0-3.5-2.3,6.309,6.309,0,0,0-5.285,2.033.761.761,0,0,1-1.067,0,6.311,6.311,0,0,0-5.285-2.033,5.237,5.237,0,0,0-3.5,2.3,10.242,10.242,0,0,0-1.3,7.707c.9,4.611,4.187,8.089,7.638,8.089a4.937,4.937,0,0,0,.75-.057,4.834,4.834,0,0,0,1.823-.678A.76.76,0,0,1,73.843,907.577Z" transform="translate(-61.474 -888.76)" fill="#fff"/>
    </g>
    <g id="Group_2432" data-name="Group 2432" transform="translate(11.358)">
      <path id="Path_7470" data-name="Path 7470" d="M92.2,883.2a.761.761,0,0,1-.746-.615c-.649-3.313,1.656-6.772,1.755-6.917a.761.761,0,0,1,1.261.851c-.022.033-2.049,3.088-1.523,5.774a.761.761,0,0,1-.6.893A.745.745,0,0,1,92.2,883.2Z" transform="translate(-91.334 -875.338)" fill="#fff"/>
    </g>
  </g>
</svg>
