<svg xmlns="http://www.w3.org/2000/svg" width="39.945" height="40.702" viewBox="0 0 39.945 40.702">
  <g id="instagram-icon" transform="translate(-168.479 -782.821)">
    <g id="Group_190" data-name="Group 190">
      <g id="Group_184" data-name="Group 184">
        <path id="Path_230" data-name="Path 230" d="M190.4,823.042c.195-.095.931-.129,1.181-.256C190.38,822.876,190.379,822.829,190.4,823.042Z" fill="#fff" fill-rule="evenodd"/>
        <path id="Path_231" data-name="Path 231" d="M168.937,801.941a5.135,5.135,0,0,0-.011,1.767C168.869,803.189,169.025,802.417,168.937,801.941Z" fill="#fff" fill-rule="evenodd"/>
        <path id="Path_232" data-name="Path 232" d="M188.155,823.023a.392.392,0,0,0,.216.043l.307-.018-.236-.046C188.291,822.985,188.159,822.985,188.155,823.023Z" fill="#fff" fill-rule="evenodd"/>
        <path id="Path_233" data-name="Path 233" d="M189.358,823.019l-.112.045.241.029c0-.019.111-.036.066-.051A1.416,1.416,0,0,0,189.358,823.019Z" fill="#fff" fill-rule="evenodd"/>
        <path id="Path_234" data-name="Path 234" d="M191.3,783.167l2.11.468.8.243a13.217,13.217,0,0,1,1.693.614l-.038-.035.812.366c.253.081.554.288.8.381.439.251.9.471,1.277.729a2.5,2.5,0,0,0,.523.3l1.021.7c.136.06.352.261.464.312a2.859,2.859,0,0,0,.259.149,2.932,2.932,0,0,0-.644-.563l-1.208-.826a3.737,3.737,0,0,0-1.053-.606l-.793-.423a11.576,11.576,0,0,0-1.373-.6l-.512-.218a3.218,3.218,0,0,0-.867-.3l-.323-.1a1.158,1.158,0,0,0-.278-.083l-.256-.071a13.408,13.408,0,0,0-2.418-.592c-.216-.031-.34-.023-.347.022S191.086,783.13,191.3,783.167Zm7.59,2.789.019.013a1.312,1.312,0,0,1,.263.174l-.263-.174-.022-.009Z" fill="#fff" fill-rule="evenodd"/>
        <path id="Path_235" data-name="Path 235" d="M205.573,814.941l-.009.014c-.011.016-.017.034-.028.049Z" fill="#fff" fill-rule="evenodd"/>
        <g id="Group_183" data-name="Group 183">
          <g id="Group_182" data-name="Group 182">
            <path id="Path_236" data-name="Path 236" d="M208.291,806.469c0-.011,0-.023,0-.035a6.805,6.805,0,0,0,.121-1.608,1.11,1.11,0,0,0-.046.13,1.771,1.771,0,0,0-.007-.328l-.016-.072.009-.1c.005-.435.01-.87.015-1.329l-.049-.263a22.342,22.342,0,0,0-.674-3.767l-.1-.271c-.308-1.049-.651-2.007-1.075-3.061l-.15-.218-.116-.284a1.234,1.234,0,0,0-.241-.511,8.38,8.38,0,0,0-1.064-1.808,30.552,30.552,0,0,0-1.986-2.407c-.352-.373-.555-.758-.914-1.1-.35-.313-.409-.189-.908-.6-.538-.406-1.058-.869-1.638-1.287l-.035.046c-.007-.029-.032-.072.035-.046l-.227-.159-.033.046-.7-.485-.261-.106-.083-.039-.051-.046c-.2-.16-.489-.255-.594-.391.133,0,.569.257.609.193a3.287,3.287,0,0,0-1.65-.672c-.158-.091-.382-.206-.366-.241.13-.106-.224-.226-.683-.381-.373-.121-.484-.089-.471,0l-.252-.106a.964.964,0,0,0-.275-.109l.036.03a2.5,2.5,0,0,0-.272-.117c-.321-.114-.833-.242-.661-.326.137-.056-.073-.151-.449-.266a2.507,2.507,0,0,0-.95-.192c.376.118.813.335.672.414-.161-.029-.348-.078-.537-.122a1.834,1.834,0,0,0-.367-.3c-.04-.052-.084-.1-.267-.144a.576.576,0,0,0-.312-.372c.178.012.371.03.562.049a6.035,6.035,0,0,1,1.657.524,3.74,3.74,0,0,0,1.094.341l1.528.648a35.453,35.453,0,0,1,3.591,1.945l-.022-.01c.646.4,1.208.991,1.835,1.46a5.258,5.258,0,0,1,.813.732l.294.28c.2.176.4.409.6.619.6.739,1.175,1.383,1.678,2.085l-.046-.111.025.039.021.072a4.262,4.262,0,0,0,.5.679l.085.118.07.125a9.852,9.852,0,0,0,.716,1.281,2.668,2.668,0,0,1,.135.231c.135.306.281.61.411.843.028.068.033.067.046.061.022.018.022-.009.007-.083a7.108,7.108,0,0,0-1.018-2.277l-.456-.717a12.446,12.446,0,0,0-3.261-3.789,2,2,0,0,0-.443-.37,2.084,2.084,0,0,0-.456-.32l-.427-.347-.691-.592a13.412,13.412,0,0,0-3.353-2.054c-.538-.253-1.133-.432-1.7-.732-.419-.235-.974-.459-.792-.181.027.061-.335-.045-.562-.116-.431-.123-.922-.3-1.387-.4a.66.66,0,0,1-.183-.044.819.819,0,0,0-.323-.068.64.64,0,0,1-.209-.043,12.386,12.386,0,0,0-1.223-.332,3.079,3.079,0,0,0-.531-.112c-.025-.05-.1-.092-.32-.117a2.1,2.1,0,0,0-.3-.045l-.073.012-.025,0,.1-.014c-.05-.044-.149-.071-.4-.072l-.026-.008v.005c-.025-.032-.124-.041-.3-.044a.545.545,0,0,1-.2.011c-.46.035-.922.1-1.381.181a4.117,4.117,0,0,0-.792.023,20.861,20.861,0,0,0-3.288.473l0,.009,0,.009,0-.018a8.5,8.5,0,0,0-1.665.394,2.869,2.869,0,0,0-.832.219,3.367,3.367,0,0,0-.642.192c-.293.106-.175.142-.346.226a.912.912,0,0,0-.283.188c-.077.06-.445.224-.351.259.042.033.122.038.308-.007.078.056.3.028.614-.06l.06-.036v0a.235.235,0,0,0-.061.032l.668.114c.029.076.119.122.408.062-.156.1-.31.2-.453.3a4.309,4.309,0,0,0-1.227.755,12.2,12.2,0,0,0-1.7,1.3l.037-.03c-.268.287-.711.549-.9.815l0,0a5.471,5.471,0,0,0-.448.443l-.04.062-.074.062-.784.766a4.443,4.443,0,0,0-.962.964c-.358.487-1.053,1.249-1.446,1.863a10.388,10.388,0,0,0-1.222,1.97l.032-.029c-.015.039-.02.036-.02.036l-.012-.007a18.557,18.557,0,0,0-1.084,2.189,7.242,7.242,0,0,0-.543,1.487c-.041.13-.082.259-.119.39a13.16,13.16,0,0,0-.743,3.176,4.866,4.866,0,0,0-.035,1.561.27.27,0,0,1-.01.17,1.646,1.646,0,0,0-.062.515,5.772,5.772,0,0,0,.038,1.6l.016.019h0v0s-.011,0-.016-.019a2.4,2.4,0,0,0,.048.861h0a6.507,6.507,0,0,0,.089.837.4.4,0,0,1,.023.171,1.48,1.48,0,0,0,.052.542,2.4,2.4,0,0,0,.284.952h0a2.487,2.487,0,0,0,.228.693c.092.3.177.579.262.859a11.616,11.616,0,0,0,.547,1.4l.208.516a3.179,3.179,0,0,0,.4.824l.154.3a1.152,1.152,0,0,0,.138.256l.131.23a13.261,13.261,0,0,0,1.291,2.129c.131.174.224.257.261.23s-.025-.16-.149-.337l-1.161-1.823-.4-.74a13.125,13.125,0,0,1-.763-1.632l0,.052c-.11-.292-.205-.541-.315-.833-.122-.236-.189-.6-.3-.838-.036-.132-.074-.263-.113-.393.013.023.023.047.037.069h-.005l.085.152-.033-.161,0,.013v-.021l0,.008a1.493,1.493,0,0,0-.018-.229,1.846,1.846,0,0,0-.09-.529l-.012,0,0,0,.016-.005a.9.9,0,0,0-.013-.176,16.3,16.3,0,0,0,.582,1.809c.2.56.5,1.107.685,1.721.13.462.364,1.013.432.688.024-.062.205.269.315.48.218.391.441.863.7,1.259a.608.608,0,0,1,.1.162.836.836,0,0,0,.18.276.624.624,0,0,1,.117.178,8.785,8.785,0,0,0,2.349,3.027,3.888,3.888,0,0,1,.411.428,3.329,3.329,0,0,0,.744.769,20.834,20.834,0,0,0,2.659,1.991l.005-.009.005-.008-.01.017a8.519,8.519,0,0,0,1.456.9,2.9,2.9,0,0,0,.743.434,3.4,3.4,0,0,0,.59.319c.283.131.224.023.4.084a.9.9,0,0,0,.332.067c.1.012.474.156.432.065-.007-.053-.059-.113-.223-.213-.016-.094-.19-.229-.476-.392l-.068-.016v0a.234.234,0,0,0,.067.02l-.392-.553c.039-.087-.009-.206-.4-.428-.037-.079-.117-.172-.151-.258.285.132.6.258.875.355.3.1.471.092.493.037.072-.063-.261-.184-.459-.286-.238-.118-.421-.25-.434-.321-.027-.1.316.05.49.088a19.689,19.689,0,0,0,2.043.629,3.526,3.526,0,0,0,1,.223l-.019-.014.021.005,0,.009a6.942,6.942,0,0,0,1.343.236.6.6,0,0,1-.1-.043l.022,0,.08.039a5.036,5.036,0,0,0,1.292.11l-.043-.014.044.005v.009a8.674,8.674,0,0,0,2.15.074c.6-.09,1.629-.138,2.34-.295a10.315,10.315,0,0,0,2.257-.528l-.043,0c.038-.016.04-.011.04-.011l0,.014a18.106,18.106,0,0,0,4.11-1.641,13.741,13.741,0,0,0,2.458-1.48l0,0c.031.034.111.017.266-.1l.078-.094,0,0-.081.091a.715.715,0,0,0,.267-.056,4.1,4.1,0,0,1-.6.446l.017-.013c-.211.117-.5.342-.7.425-.465.157-.943.6-1.453.84l-.425.208c-.287.1-.643.347-.954.435l-.4.163a7.239,7.239,0,0,1-1.574.6l-.078.033-.062.016c-1.614.393-2.791.82-4.036,1.111a20.421,20.421,0,0,0,6.783-1.987l.465-.235a4.154,4.154,0,0,0,1.208-.639l.646-.4c.216-.108.474-.307.683-.43a1.572,1.572,0,0,1,.2-.138,3.366,3.366,0,0,0,.675-.487l.211-.161c.091-.059.213-.121.282-.176l.3-.293a.872.872,0,0,0,.285-.219l.024-.013,0,0c.04.005.117-.058.244-.18a.527.527,0,0,1,.132-.148,19.494,19.494,0,0,0,1.751-2.489,8.044,8.044,0,0,0,.534-.941,2.619,2.619,0,0,0,.366-.627c.065-.09.132-.176.2-.257a16.308,16.308,0,0,0,1.014-3.182,4.319,4.319,0,0,0,.333-1.4,12.268,12.268,0,0,0,.284-2.125Zm-3.805-14.933-.012.008s.006,0,0-.027Zm-24.774-6.924c-.006-.013-.036-.021.029-.055.019-.018.066-.026.085-.042C179.769,784.561,179.705,784.6,179.712,784.612Zm2.46,38.477c0,.013.01.041-.06.019-.026,0-.065-.028-.09-.031C182.1,823.085,182.166,823.1,182.172,823.089Zm24.892-20.2h-.009v-.044Zm-.124,2.685a5.474,5.474,0,0,0-.005-1.242A4.575,4.575,0,0,1,206.94,805.574Zm.033-8.106c-.02-.019-.063-.129-.088-.144l-.038-.162Zm-.162,2.469.009,0c-.005.025-.013.1-.031.053A.355.355,0,0,0,206.811,799.937Zm-.384,4.049h.005l-.005.022Zm-.448-1.528a.909.909,0,0,1,.021.192c-.012.171-.042-.018-.069-.1C205.953,802.545,205.974,802.544,205.979,802.458Zm-.267,3.013h.015l-.01.043C205.711,805.534,205.712,805.471,205.712,805.471ZM201.633,816l.1-.181a7.583,7.583,0,0,1,.671-1.4,6.928,6.928,0,0,1-.671,1.4.425.425,0,0,0-.013.081Zm-25.115-.3c-.022-.012-.052-.046-.072-.054l0,0-.012-.015-.045-.045h0a.307.307,0,0,1,.044.046l.016.012.037.023C176.495,815.683,176.506,815.69,176.518,815.7Zm-3.435-1.019-.025-.032c.036.024.052.012.042-.032l-.011-.018.015.016c-.182-.349-.338-.812-.182-.767.182.262.379.646.6.909.1.149.218.319.334.488.178.434.212.519.122.65-.109-.191-.27-.38-.438-.614a2.917,2.917,0,0,0-.445-.664C173.11,814.662,173.1,814.671,173.083,814.682Zm.543-6.358.016,0v.041Zm-.258,1.172a.126.126,0,0,0-.077-.042.579.579,0,0,1-.1.269c.023-.112.017-.283.1-.269a1.175,1.175,0,0,0,.024-.239C173.35,809.332,173.326,809.38,173.368,809.5Zm-.627,3.45-.021-.039a1.867,1.867,0,0,0,.2.3l-.014.008Zm-.307-1.85-.079-.133-.036-.1Zm-.611-2.537c-.017,0-.045-.035-.074-.094l-.009-.044C171.764,808.484,171.8,808.564,171.823,808.559Zm-1.778-1.625a.4.4,0,0,1-.029-.078h0A.245.245,0,0,0,170.045,806.934Zm.51,1.874c-.036.011-.016.132.027.292a.922.922,0,0,1-.1-.313C170.485,808.722,170.525,808.773,170.555,808.808Zm.936-1.092a1.221,1.221,0,0,1-.13-.4A3.059,3.059,0,0,0,171.491,807.716Zm.143,1.045c-.013-.133-.027-.24.019-.251C171.616,808.519,171.621,808.628,171.634,808.761Zm-1.852-6.147,0,.04h-.009v-.018l0-.021Zm-.118.8v.019l-.005.022-.034.287-.005.084v-.043l.005-.041a1.639,1.639,0,0,1,.034-.287Zm-.328,3.114a.056.056,0,0,0,.05-.024l.016.168a.763.763,0,0,0-.066-.144c-.051-.007-.107-.1-.162-.185A.538.538,0,0,1,169.336,806.525Zm2.54,5.327.1.253a1.018,1.018,0,0,0,.117.271l0-.046a2.756,2.756,0,0,0,.11.275c.147.308.418.76.238.7-.051-.021-.071-.005-.068.041l-.159-.314,0,0c0-.147-.205-.408-.3-.638a2.541,2.541,0,0,0-.18-.576C171.8,811.892,171.844,811.9,171.876,811.852Zm4.991-21.956.006-.009h0Zm13.261-4.09,0,.026c0,.021-.1.005-.107.019C190.02,785.83,190.125,785.829,190.128,785.806Zm-1.3-.177c-.042,0,0,0-.021,0h-.1l.043-.005a1.92,1.92,0,0,1,.356-.017C189.041,785.619,188.875,785.607,188.831,785.629Zm.276.193v0a.37.37,0,0,1-.063,0l-.019,0-.044.01-.046,0c.024-.006.07,0,.09-.012v-.005l.019,0Zm13.965,25.1a.25.25,0,0,1,.059-.105l.011.005C203.121,810.859,203.066,810.986,203.072,810.924Zm.045.136-.016.031,0-.037-.018.021v-.013c.005,0,.015-.009.024-.022l-.007.014Zm2.01-5.732-.022.163a.226.226,0,0,0-.017-.105C205.1,805.326,205.115,805.348,205.127,805.328Zm-.382-9.852.011.024-.01-.02v0l-.026-.055a.611.611,0,0,1-.015-.065A.5.5,0,0,0,204.745,795.476Zm-.087-1.922.009.016-.009-.016,0,0-.013-.02Zm-.272-.242-.008.005-.013-.02C204.382,793.314,204.386,793.312,204.386,793.312Zm-5.878-5.192a3.013,3.013,0,0,0-.374-.19A1.193,1.193,0,0,1,198.508,788.12Zm-1.175-.555a.282.282,0,0,1,.09.019l.037.024A.558.558,0,0,0,197.333,787.565Zm.126-.082c.02-.032-.061-.1-.164-.19C197.4,787.378,197.484,787.443,197.459,787.483Zm-2.231-1.238.1.048-.249-.086Zm-1.983-1.2.308.069.042.013a1.768,1.768,0,0,0-.355-.067Zm-3.717-2.056c-.019,0-.03.011-.064.017V783Zm-3.327.11.047,0-.189.009Zm-13.388,9.676,0,.075v0A.139.139,0,0,1,172.813,792.777Zm-.028.116,0,.005c-.024.01-.051.025-.076.036C172.737,792.916,172.761,792.907,172.785,792.893ZM169.1,804.928c-.008.027-.016.055-.037.032l0-.044C169.081,804.962,169.091,804.949,169.1,804.928Zm.461,3.644,0,.006h0Zm2.047,4-.157-.388c.022.03.043.062.065.092a1.765,1.765,0,0,0,.145.374C171.643,812.627,171.626,812.6,171.608,812.575Zm1.333,2.556a6.016,6.016,0,0,1-.8-1.541c-.02-.064-.047-.129-.073-.2a1.775,1.775,0,0,1,.148.279,2.909,2.909,0,0,0,.306.533,1.139,1.139,0,0,0,.094.09,11.806,11.806,0,0,0,1.322,1.66L173.9,816C173.746,816.116,173.333,815.608,172.941,815.131Zm1.165-3.777c.106-.005.132-.147.085-.4h0l.091.453C174.351,811.683,174.2,811.466,174.106,811.354Zm.231,3.513c.022.012-.027-.088.033-.023s.013.046.042.1Zm1.314.013.021-.016c.017-.013.078.071.089.063C175.744,814.94,175.67,814.866,175.651,814.88Zm.578.868c.058.032.167.158.214.174.027.033,0,0,.012.018l.073.074-.034-.026A2.074,2.074,0,0,1,176.229,815.748Zm.286,3.821-.031-.035.14.127Zm.781-.335c0-.005-.007-.016-.005-.022-.133-.147-.21-.271-.337-.415l-.04-.025s.022.01,0,0l.036.03c.312.249.355.347.337.415a1,1,0,0,0,.072.084Zm1.4-2.35.157.06c-.03,0,.007.049.013.073A1.557,1.557,0,0,1,178.7,816.884Zm1.017,2.291.006-.008.013.018C179.717,819.173,179.715,819.175,179.715,819.175Zm2.089.162a.759.759,0,0,0,.178.048C181.922,819.369,181.908,819.394,181.8,819.337Zm1.022.54c.018.008.019.006.019.006v0l-.018-.008c-.014,0-.023,0-.036-.005a.673.673,0,0,1-.429-.064,1.082,1.082,0,0,1-.263-.107c-.011-.006-.017,0-.029-.01l-.127-.059.156.069c.089.039.178.076.263.107.148.037.272.032.429.064.005,0,.015,0,.019,0s-.005-.008,0-.009c-.059-.066-.1-.116-.164-.183l-.025-.017.016.007c-.008-.013-.033-.031-.044-.045a4.226,4.226,0,0,1-.529-.394l0,.009-.435-.272.386.234.053.029a1.767,1.767,0,0,1,.529.394c.03.02.05.042.082.061l-.038-.016.009.01c.135.085.264.168.164.183Zm.5.086-.218-.094c.075.027.162.075.259.1Zm1.124,1.462,0-.007v0Zm1.072-.508c.024-.01-.052-.034-.049-.048a.42.42,0,0,0,.107.066Zm1.481.346v-.008l.039.016Zm.972.138a3.05,3.05,0,0,0-.323-.144l.379.021C188.111,821.321,188.166,821.366,187.98,821.4Zm1.545-1.225a.506.506,0,0,0,.148.042.121.121,0,0,0,.055.02v.005a.165.165,0,0,1-.055-.025l-.185-.038C189.524,820.181,189.525,820.176,189.525,820.176Zm.2.3h.02a.522.522,0,0,1-.135.041A.644.644,0,0,0,189.722,820.474Zm3.176,1.651-.01.01a.148.148,0,0,1-.064.059l.064-.059a.074.074,0,0,0,.007-.034c0,.026.069.039.115.057A.918.918,0,0,0,192.9,822.125Zm1.664-1.944c-.076.024-.176.067-.186.028-.036.01,0-.014-.06,0l.008-.009.044-.016.008.028.116-.014.07-.014.041-.013v0Zm3.848-1.764c-.259.123-.49.217-.579.17-.127-.039.136-.187.355-.33.094-.063.215-.152.143-.164-.153.032-.363.191-.477.178.192-.15.444-.234.647-.4-.049.012-.08.017-.094.007l-.025.009.016-.011.009,0c.044-.014.083-.024.094-.007a.393.393,0,0,1,.126-.077c.267-.1.543-.358.823-.478a4.06,4.06,0,0,0,1.009-.791l.016-.01.028-.026-.015.012c.234-.326-.076-.061-.269.083l-.085.069-.05.029c-.156.04-.426.292-.583.326a17.56,17.56,0,0,0,1.916-1.677c.04-.04.084-.082.128-.124a.129.129,0,0,0-.012.024c-.04.077.029.025.08-.043a.91.91,0,0,0,.074-.1l-.011-.007a.59.59,0,0,0,.2-.3.858.858,0,0,1,.15-.339c.153-.075.379-.3.48-.276-.089.144-.128.224-.12.281a7.142,7.142,0,0,0-.594,1,5.456,5.456,0,0,1-.523.89c-.158.178-.3.354-.441.528-.039.027-.077.056-.116.082A21.886,21.886,0,0,1,198.41,818.417Zm.85-.156.084-.05a.34.34,0,0,0,.078-.036.378.378,0,0,1,.1-.046.439.439,0,0,0-.1.046A1.2,1.2,0,0,1,199.26,818.261Z" fill="#84bd00" fill-rule="evenodd"/>
          </g>
        </g>
        <path id="Path_237" data-name="Path 237" d="M173.924,790.467c-.07.2-.567.749-.654,1.015C174.059,790.567,174.092,790.6,173.924,790.467Z" fill="#fff" fill-rule="evenodd"/>
        <path id="Path_238" data-name="Path 238" d="M168.94,800.988c.066-.231.111-.6.2-.8.218-.44.239-1.1.434-1.622.041-.121.1-.285.153-.447.136-.27.209-.7.367-.983l.166-.4a7.186,7.186,0,0,1,.689-1.537l.032-.079.032-.055c.505-.829.894-1.559,1.266-2.241l.319-.475c.1-.168.178-.32.148-.34,0-.006,0-.006-.006-.009.111-.193.224-.385.341-.574a20.149,20.149,0,0,0-3.13,5.492c-.015-.069-.084.061-.136.219-.122.386-.276.778-.372,1.157a5.042,5.042,0,0,0-.319,1.134l-.169.743c-.077.229-.119.552-.179.787a1.49,1.49,0,0,1-.041.236,3.328,3.328,0,0,0-.133.821l-.035.263c-.023.106-.065.236-.075.324,0,.33-.006.636-.009.966a.286.286,0,0,0,.014.065c.015.023.024.023.039-.043a1,1,0,0,0,.063-.263h-.005c.044-.152.037-.39.068-.585a1.267,1.267,0,0,1,.011-.2,1.811,1.811,0,0,0,.1-.559c-.02.078-.039.139-.059.194l-.026.083,0-.022c.008-.017.016-.041.024-.061l.059-.194c.094-.251.068-.734.168-1.028Z" fill="#fff" fill-rule="evenodd"/>
        <path id="Path_239" data-name="Path 239" d="M204.025,790.208a5.142,5.142,0,0,0-1.242-1.258C203.19,789.277,203.626,789.933,204.025,790.208Z" fill="#fff" fill-rule="evenodd"/>
        <path id="Path_240" data-name="Path 240" d="M206.2,793.307l.415.784a3.587,3.587,0,0,0,.2.338c.12.133.073-.034-.016-.211a7.376,7.376,0,0,0-.857-1.5l-.134-.206c-.114-.162-.234-.322-.274-.3-.058-.02.048.146.127.271C205.846,792.77,206.023,793.094,206.2,793.307Z" fill="#fff" fill-rule="evenodd"/>
        <path id="Path_241" data-name="Path 241" d="M175.528,788.89a.388.388,0,0,0-.184.122l-.2.23.2-.135C175.458,789.013,175.552,788.92,175.528,788.89Z" fill="#fff" fill-rule="evenodd"/>
        <path id="Path_242" data-name="Path 242" d="M174.681,789.743l.046-.11-.191.149c.013.014-.053.1-.01.083A1.576,1.576,0,0,0,174.681,789.743Z" fill="#fff" fill-rule="evenodd"/>
        <path id="Path_243" data-name="Path 243" d="M206.762,813.067c-.045.06-.057-.056-.137.18-.016.049-.017.1-.007.107a1.646,1.646,0,0,0,.148-.2C206.808,813.062,206.821,812.987,206.762,813.067Z" fill="#fff" fill-rule="evenodd"/>
        <path id="Path_244" data-name="Path 244" d="M208.352,799.917c.061.04,0-.222-.021-.368l-.176-.865c-.072-.157-.114-.147-.109.026l.17.861C208.264,799.76,208.317,799.923,208.352,799.917Z" fill="#fff" fill-rule="evenodd"/>
        <path id="Path_245" data-name="Path 245" d="M199.138,787.316l.085.08-.041-.064Z" fill="#fff" fill-rule="evenodd"/>
      </g>
      <g id="Group_189" data-name="Group 189">
        <g id="Group_188" data-name="Group 188">
          <g id="Group_185" data-name="Group 185">
            <path id="Path_246" data-name="Path 246" d="M192.663,813.662H184.24a6.787,6.787,0,0,1-6.779-6.78v-7.421a6.787,6.787,0,0,1,6.779-6.779h8.423a6.787,6.787,0,0,1,6.779,6.779v7.421A6.787,6.787,0,0,1,192.663,813.662Zm-8.423-19.474a5.278,5.278,0,0,0-5.272,5.273v7.421a5.278,5.278,0,0,0,5.272,5.273h8.423a5.278,5.278,0,0,0,5.272-5.273v-7.421a5.278,5.278,0,0,0-5.272-5.273Z" fill="#fff"/>
          </g>
          <g id="Group_186" data-name="Group 186">
            <path id="Path_247" data-name="Path 247" d="M188.452,809.206a6.034,6.034,0,1,1,6.034-6.034A6.041,6.041,0,0,1,188.452,809.206Zm0-10.562a4.527,4.527,0,1,0,4.527,4.528A4.533,4.533,0,0,0,188.452,798.644Z" fill="#fff"/>
          </g>
          <g id="Group_187" data-name="Group 187">
            <path id="Path_248" data-name="Path 248" d="M195.646,797.323a1.252,1.252,0,1,1-1.252-1.252A1.253,1.253,0,0,1,195.646,797.323Z" fill="#fff"/>
          </g>
        </g>
      </g>
    </g>
  </g>
</svg>
