<svg xmlns="http://www.w3.org/2000/svg" width="54.367" height="22.387" viewBox="0 0 54.367 22.387">
  <g id="menu-icon" transform="translate(-61.316 -372.747)">
    <path id="Path_8599" data-name="Path 8599" d="M920.187,334.166c0,2.163-12.17,3.918-27.183,3.918s-27.183-1.755-27.183-3.918,12.17-3.918,27.183-3.918S920.187,332,920.187,334.166Z" transform="translate(-804.504 57.051)" fill="#84bd23" opacity="0"/>
    <g id="Group_1404" data-name="Group 1404" transform="translate(-491.496 -29.762)">
      <path id="Path_3400" data-name="Path 3400" d="M598.419,421.961a1.459,1.459,0,0,0-1.438-1.068h-.73a9.45,9.45,0,0,0-3.527-4.445,7.291,7.291,0,0,0-6.077-.972,5.6,5.6,0,0,0-3.924-1.764,5.952,5.952,0,0,0-5.421,3.85,6.55,6.55,0,0,0-4.051,3.331h-.806a1.5,1.5,0,0,0-.818,2.752c3.778,2.347,5.726,3.476,8.7,3.476h8.7c2.475,0,5.085-1.431,8.783-3.612A1.371,1.371,0,0,0,598.419,421.961Zm-9.071-3.268a8.639,8.639,0,0,1-.838,1.252,9.849,9.849,0,0,0-.184-1.314A4.549,4.549,0,0,1,589.348,418.694Zm1.76.724-.337.527c-.212.331-.451.706-.611.949h-.831a9.845,9.845,0,0,0,1.21-1.807A4.6,4.6,0,0,1,591.108,419.418Zm1.4,1.476h-.873q.192-.3.4-.647A5.069,5.069,0,0,1,592.505,420.894Zm-5.036-4.349a6.143,6.143,0,0,1,4.579.937h0a8.133,8.133,0,0,1,2.869,3.412h-1.007a5.907,5.907,0,0,0-5.969-3.472A9.05,9.05,0,0,0,587.469,416.545Zm-2,1.114a3.748,3.748,0,0,0-2.994-1.746,2.87,2.87,0,0,0-2.586,1.579,4.84,4.84,0,0,0-1.123-.118,4.716,4.716,0,0,1,3.858-2.428,4.777,4.777,0,0,1,3.97,2.528,6.743,6.743,0,0,1,.7,3.419h-1.037A4.53,4.53,0,0,0,585.467,417.659Zm-3-.511a1.9,1.9,0,0,1,.755.169,8.951,8.951,0,0,0-1.209,1.111,5.95,5.95,0,0,0-.93-.528A1.613,1.613,0,0,1,582.472,417.147Zm1.777.949a4.39,4.39,0,0,1,.485.747,6.422,6.422,0,0,0-1.859,2.051h-1.043A7.33,7.33,0,0,1,584.249,418.1Zm-3.4,2a3.8,3.8,0,0,0-2.172-.62,4.189,4.189,0,0,0-3.051,1.414h-.943a5,5,0,0,1,4.151-2.282,4.6,4.6,0,0,1,2.431.794C581.108,419.634,580.968,419.866,580.844,420.1Zm-1.176.795h-1.9a2.869,2.869,0,0,1,1-.18A2.474,2.474,0,0,1,579.668,420.894Zm5.39-.727a3.416,3.416,0,0,1-.046.727h-.646A5.323,5.323,0,0,1,585.058,420.167Zm12.039,2.171c-2.846,1.68-5.787,3.412-8.068,3.412h-8.7c-2.557,0-4.2-.992-6.682-2.493-.417-.252-.856-.517-1.306-.776a.213.213,0,0,1,.006-.167c.012-.023.031-.048.1-.048h24.537a.135.135,0,0,1,.105.036A.063.063,0,0,1,597.1,422.338Z" transform="translate(-5.676 -6.081)" fill="#503629"/>
      <path id="Path_3401" data-name="Path 3401" d="M564.374,417.66l-.059-.434h-.407l-.973-5.294h2.591l-.484,2.568.475-.365a.925.925,0,0,1,.273-.149.823.823,0,0,1,.45-.086c.022,0,.045.007.069.01l.207.019.376-2h1.243l-.117.639.489-.413c.091-.076.19-.152.287-.227l.137-.107c.041-.032.083-.062.123-.093.15-.109.3-.219.471-.329l.081-.053.957-5.2a.67.67,0,0,0-.659-.8h-1.774l.142-.752,2.373-.791a.671.671,0,0,0-.431-1.27l-2.62.873a.62.62,0,0,0-.512.4.641.641,0,0,0-.04.108c0,.014-.013.026-.015.04l-.261,1.388h-5.6a.614.614,0,0,0-.124.011.67.67,0,0,0-.535.782l2.184,11.875a.672.672,0,0,0,.659.549h1.206l.625-.026-.52-.408A1.136,1.136,0,0,1,564.374,417.66Zm4.008-7.068h-1.237l.733-3.9H569.1Zm-2.6,0h-3.09l-.716-3.9h4.539Z" fill="#503629"/>
      <path id="Path_3402" data-name="Path 3402" d="M632.153,411.726l0,0a3.723,3.723,0,0,0-2.5-1.615,4.149,4.149,0,0,0-2.664.589,5.105,5.105,0,0,1,.8-2.309.623.623,0,0,0-1.035-.692,6.3,6.3,0,0,0-1,2.858,4.161,4.161,0,0,0-2.429-.444,3.721,3.721,0,0,0-2.49,1.615c-.02.032-.039.064-.057.1l-.135.229.174.122a2.7,2.7,0,0,1,.4.337c.046.048.089.1.147.166l.216.251.158-.29c.039-.072.079-.144.121-.21a2.482,2.482,0,0,1,1.643-1.088,3.058,3.058,0,0,1,2.554.988.628.628,0,0,0,.882-.009,3.042,3.042,0,0,1,2.529-.981,2.489,2.489,0,0,1,1.657,1.086,5.048,5.048,0,0,1,.642,3.825c-.478,2.443-2.3,4.248-4.083,3.976a2.249,2.249,0,0,1-.857-.319.614.614,0,0,0-.323-.094h0a.6.6,0,0,0-.326.085l-.086.043-.03.092a1.075,1.075,0,0,1-.291.45l-.065.069a.873.873,0,0,1-.268.264l-.739.707.686-.055c.039,0,.077,0,.117-.01a1.752,1.752,0,0,1,1.993,0,3.6,3.6,0,0,0,.544.041c2.263,0,4.392-2.153,4.95-5A6.28,6.28,0,0,0,632.153,411.726Z" transform="translate(-32.643 -2.672)" fill="#503629"/>
    </g>
  </g>
</svg>
