<svg xmlns="http://www.w3.org/2000/svg" width="54.367" height="24.564" viewBox="0 0 54.367 24.564">
  <g id="offer-icon-active" transform="translate(-275.316 -369.571)">
    <g id="Group_1402" data-name="Group 1402" transform="translate(-351.184 214.012)">
      <line id="Line_60" data-name="Line 60" x1="6.928" y2="6.742" transform="translate(649.698 163.447)" fill="none" stroke="#f1be48" stroke-linecap="round" stroke-miterlimit="10" stroke-width="1.3"/>
      <circle id="Ellipse_74" data-name="Ellipse 74" cx="1.593" cy="1.593" r="1.593" transform="translate(648.994 163.033)" fill="none" stroke="#f1be48" stroke-linecap="round" stroke-miterlimit="10" stroke-width="1.3"/>
      <circle id="Ellipse_75" data-name="Ellipse 75" cx="1.593" cy="1.593" r="1.593" transform="translate(653.967 167.877)" fill="none" stroke="#f1be48" stroke-linecap="round" stroke-miterlimit="10" stroke-width="1.3"/>
      <path id="Path_5210" data-name="Path 5210" d="M718.872,159.6h0a2.174,2.174,0,0,0,2.982,1.235h0a2.174,2.174,0,0,1,2.9,2.9h0a2.174,2.174,0,0,0,1.235,2.982h0a2.174,2.174,0,0,1,0,4.1h0a2.174,2.174,0,0,0-1.235,2.982h0a2.174,2.174,0,0,1-2.9,2.9h0a2.175,2.175,0,0,0-2.982,1.235h0a2.175,2.175,0,0,1-4.1,0h0a2.174,2.174,0,0,0-2.982-1.235h0a2.174,2.174,0,0,1-2.9-2.9h0a2.175,2.175,0,0,0-1.235-2.982h0a2.174,2.174,0,0,1,0-4.1h0a2.175,2.175,0,0,0,1.235-2.982h0a2.174,2.174,0,0,1,2.9-2.9h0a2.174,2.174,0,0,0,2.982-1.235h0A2.175,2.175,0,0,1,718.872,159.6Z" transform="translate(-63.637 -1.948)" fill="none" stroke="#f1be48" stroke-miterlimit="10" stroke-width="1.3"/>
    </g>
    <path id="Path_8599" data-name="Path 8599" d="M920.187,334.166c0,2.163-12.17,3.918-27.183,3.918s-27.183-1.755-27.183-3.918,12.17-3.918,27.183-3.918S920.187,332,920.187,334.166Z" transform="translate(-590.504 56.051)" fill="#f1be48" opacity="0.15"/>
  </g>
</svg>
