<svg xmlns="http://www.w3.org/2000/svg" width="28.261" height="16.507" viewBox="0 0 28.261 16.507">
  <g id="payment-icon" transform="translate(534.296 -121.207)">
    <path id="Path_8848" data-name="Path 8848" d="M-534.259,128.408c-.128-.565.07-.812.652-.812,2.293,0,.344,0,2.637,0a.579.579,0,0,0,.436-.187,4.519,4.519,0,0,1,5.12-1l.232.086a2.268,2.268,0,0,1-.079-.39c-.006-.856-.01-1.711,0-2.567a2.266,2.266,0,0,1,2.348-2.332c1.561-.006,3.123,0,4.684,0a1.258,1.258,0,0,1,.263.02.51.51,0,0,1,.41.513.516.516,0,0,1-.419.508,1.691,1.691,0,0,1-.316.017h-4.552a1.227,1.227,0,0,0-1.36,1.359q0,1.641,0,3.281a.606.606,0,0,0,.668.654c.935,0,1.87-.016,2.8.007a2.094,2.094,0,0,1,1.816,3.062,2.056,2.056,0,0,1-1.94,1.149q-1.5.005-2.99,0a3.577,3.577,0,0,1-.365-.04c.008.321-.006.577.024.828a1.181,1.181,0,0,0,1.051,1.029,3.02,3.02,0,0,0,.343.012h14.29a1.239,1.239,0,0,0,1.407-1.393q0-4.274,0-8.547a1.242,1.242,0,0,0-1.4-1.4h-4.578a2.689,2.689,0,0,1-.291-.007.526.526,0,0,1-.485-.532.524.524,0,0,1,.476-.513,1.945,1.945,0,0,1,.238-.006h4.657a2.281,2.281,0,0,1,2.44,2.427q0,4.3,0,8.6a2.283,2.283,0,0,1-2.438,2.432c-2.734,0-5.469,0-8.2.006a1.454,1.454,0,0,0-.581.126q-2.633,1.2-5.257,2.415a4.715,4.715,0,0,1-4.513-.158c-1.092-.609-2.187-1.212-3.273-1.833a1.358,1.358,0,0,0-.748-.193c-.288.009-.577-.021-.866-.035l-.225-.225c-.115-.552.084-.794.652-.8.238,0,.477.011.714,0a1.308,1.308,0,0,1,.75.2c1.17.667,2.349,1.318,3.526,1.974a3.656,3.656,0,0,0,3.5.128c.775-.36,1.552-.714,2.328-1.071.341-.157.681-.316,1.022-.474l-.011-.114a1.491,1.491,0,0,1-.279.054c-.988,0-1.976.007-2.964,0a2.273,2.273,0,0,1-2.362-2.371c0-.165.027-.331.042-.5-.221-.011-.371-.007-.517-.029a.518.518,0,0,1-.443-.514.528.528,0,0,1,.44-.518,1.825,1.825,0,0,1,.29-.013H-521c.07,0,.141,0,.212,0a1.058,1.058,0,0,0,1.057-1.034,1.043,1.043,0,0,0-1.052-1.063c-.9-.011-1.8-.033-2.7.008a1.568,1.568,0,0,1-1.306-.52,3.32,3.32,0,0,0-2.813-1.006,3.49,3.49,0,0,0-2.318,1.195,1.056,1.056,0,0,1-.86.361c-2.329-.013-.414-.005-2.743-.009a5.349,5.349,0,0,1-.545-.055Z" transform="translate(0 0)" fill="#137163"/>
    <path id="Path_8849" data-name="Path 8849" d="M-298.229,255.717a3.419,3.419,0,0,1,.575-.107q3.745-.01,7.49,0c.044,0,.088,0,.132,0a.524.524,0,0,1,.535.538.529.529,0,0,1-.532.515c-.255.011-.512,0-.767,0h-6.8c-.105,0-.234.025-.311-.025a.9.9,0,0,1-.372-.363A1.436,1.436,0,0,1-298.229,255.717Z" transform="translate(-219.307 -124.893)" fill="#84bd00"/>
    <path id="Path_8850" data-name="Path 8850" d="M-226.281,165.341a1.864,1.864,0,0,1,.009-2.654,1.879,1.879,0,0,1,2.641-.006,1.9,1.9,0,0,1,.01,2.665A1.879,1.879,0,0,1-226.281,165.341Zm.757-.74a.826.826,0,0,0,1.163-.012.843.843,0,0,0-.009-1.149.825.825,0,0,0-1.163,0A.808.808,0,0,0-225.524,164.6Z" transform="translate(-285.721 -38.04)" fill="#f57120"/>
    <path id="Path_8851" data-name="Path 8851" d="M-352.923,163.145a1.319,1.319,0,0,1-.371.1c-.794.012-1.588.009-2.381,0a.537.537,0,0,1-.591-.537.525.525,0,0,1,.579-.518c.8-.005,1.605,0,2.408,0a.519.519,0,0,1,.524.329A.54.54,0,0,1-352.923,163.145Z" transform="translate(-165.439 -38.085)" fill="#84bd00"/>
    <path id="Path_8852" data-name="Path 8852" d="M-278.653,122.171a.519.519,0,0,1,.008-.735.53.53,0,0,1,.74,0,.525.525,0,0,1-.014.756A.513.513,0,0,1-278.653,122.171Z" transform="translate(-237.426 -0.072)" fill="#008675"/>
  </g>
</svg>
