<svg xmlns="http://www.w3.org/2000/svg" width="24.596" height="28.359" viewBox="0 0 24.596 28.359">
  <g id="snack-icon" transform="translate(0)">
    <g id="Group_2440" data-name="Group 2440" transform="translate(0 5.766)">
      <g id="Group_2436" data-name="Group 2436">
        <path id="Path_7471" data-name="Path 7471" d="M561.764,256.961a26.17,26.17,0,0,1-11.559-2.524.761.761,0,0,1-.391-.479,9.782,9.782,0,0,1-.348-2.575c0-4.547,3.073-8.335,8.432-10.393a.761.761,0,1,1,.545,1.42c-2.242.861-7.456,3.459-7.456,8.973a8.251,8.251,0,0,0,.211,1.848,26.367,26.367,0,0,0,21.129,0,8.251,8.251,0,0,0,.212-1.848c0-3.744-2.89-7.1-7.928-9.212a.761.761,0,1,1,.588-1.4c5.632,2.359,8.862,6.228,8.862,10.616a9.8,9.8,0,0,1-.348,2.575.762.762,0,0,1-.392.479A26.166,26.166,0,0,1,561.764,256.961Z" transform="translate(-549.466 -240.708)" fill="#fff"/>
      </g>
      <g id="Group_2439" data-name="Group 2439" transform="translate(3.486 13.971)">
        <g id="Group_2437" data-name="Group 2437" transform="translate(0 0)">
          <path id="Path_7472" data-name="Path 7472" d="M567.507,286.061h-5.579a.761.761,0,0,1-.744-.6,34.184,34.184,0,0,0-2.472-6.919.761.761,0,1,1,1.361-.68,35.964,35.964,0,0,1,2.461,6.679h4.973a.761.761,0,1,1,0,1.521Z" transform="translate(-558.632 -277.44)" fill="#fff"/>
        </g>
        <g id="Group_2438" data-name="Group 2438" transform="translate(7.987)">
          <path id="Path_7473" data-name="Path 7473" d="M585.971,286.061h-5.578a.761.761,0,0,1,0-1.521h4.972a35.956,35.956,0,0,1,2.462-6.68.761.761,0,0,1,1.361.68,34.166,34.166,0,0,0-2.473,6.919A.761.761,0,0,1,585.971,286.061Z" transform="translate(-579.632 -277.439)" fill="#fff"/>
        </g>
      </g>
    </g>
    <g id="Group_2441" data-name="Group 2441" transform="translate(7.556)">
      <path id="Path_7474" data-name="Path 7474" d="M573.77,234.422a4.437,4.437,0,1,1,4.437-4.437A4.442,4.442,0,0,1,573.77,234.422Zm0-7.353a2.916,2.916,0,1,0,2.916,2.916A2.919,2.919,0,0,0,573.77,227.068Z" transform="translate(-569.333 -225.547)" fill="#fff"/>
    </g>
  </g>
</svg>
