<svg xmlns="http://www.w3.org/2000/svg" width="38.244" height="37.539" viewBox="0 0 38.244 37.539">
  <g id="special-star" transform="translate(10.262 1.472) rotate(19)">
    <path id="Path_5211" data-name="Path 5211" d="M16.325,1.44l2.328,4.716A2.583,2.583,0,0,0,20.6,7.57l5.205.756a2.583,2.583,0,0,1,1.432,4.406L23.468,16.4a2.584,2.584,0,0,0-.743,2.287l.889,5.184A2.583,2.583,0,0,1,19.867,26.6L15.211,24.15a2.583,2.583,0,0,0-2.4,0L8.151,26.6A2.583,2.583,0,0,1,4.4,23.874l.89-5.184A2.585,2.585,0,0,0,4.549,16.4L.783,12.732A2.583,2.583,0,0,1,2.215,8.326L7.42,7.57A2.583,2.583,0,0,0,9.365,6.156L11.693,1.44A2.583,2.583,0,0,1,16.325,1.44Z" transform="translate(0)" fill="none" stroke="#fff" stroke-miterlimit="10" stroke-width="2.3"/>
    <path id="Path_5212" data-name="Path 5212" d="M5.608.495l.8,1.62a.888.888,0,0,0,.668.485l1.788.26a.887.887,0,0,1,.492,1.513L8.061,5.635a.888.888,0,0,0-.255.786L8.112,8.2a.887.887,0,0,1-1.287.935L5.225,8.3a.887.887,0,0,0-.826,0l-1.6.841A.887.887,0,0,1,1.513,8.2L1.818,6.42a.888.888,0,0,0-.255-.786L.269,4.373A.887.887,0,0,1,.761,2.86L2.549,2.6a.887.887,0,0,0,.668-.485l.8-1.62A.887.887,0,0,1,5.608.495Z" transform="translate(9.197 8.83)" fill="#fff" stroke="#fff" stroke-miterlimit="10" stroke-width="1.3"/>
  </g>
</svg>
