<svg xmlns="http://www.w3.org/2000/svg" width="46.057" height="46.05" viewBox="0 0 46.057 46.05">
  <g id="ticket-payment-icon" transform="translate(0.25 0.272)">
    <path id="Path_8854" data-name="Path 8854" d="M-432.808,66.57a3.01,3.01,0,0,1,1.523-1.959q6.146-4.073,12.258-8.2a2.864,2.864,0,0,0,.644-.6q6.523-8.3,13.032-16.6a2.218,2.218,0,0,1,3.495-.446q6.763,5.273,13.522,10.553a2.194,2.194,0,0,1,.425,3.369c-.81,1.04-1.616,2.083-2.446,3.107a.5.5,0,0,0-.039.723c.7.995,1.365,2.008,2.037,3.019a2.2,2.2,0,0,1-.656,3.3q-7.031,4.71-14.061,9.419a2.873,2.873,0,0,0-.646.595q-3.329,4.222-6.64,8.458a2.232,2.232,0,0,1-3.534.414c-.5-.394-1-.783-1.537-1.2l-1.577,1.051c-.727.485-1.444.985-2.182,1.451-.371.234-.78.407-1.171.608h-.8a3.133,3.133,0,0,1-1.725-1.428c-3.025-4.539-6.078-9.06-9.1-13.6a15.047,15.047,0,0,1-.818-1.6ZM-414.9,53.541l.054.073q.954-.637,1.908-1.274c.923-.617,1.841-1.242,2.77-1.851a.629.629,0,0,1,.933.159.629.629,0,0,1-.177.929c-.129.1-.267.186-.4.277L-425.722,62.5c-.2.137-.406.28-.579.4a7.374,7.374,0,0,1-1.8,9.12l3.463,5.157a7.432,7.432,0,0,1,9.145,1.783l21.142-14.154a7.377,7.377,0,0,1,1.806-9.127l-3.464-5.159a7.417,7.417,0,0,1-9.142-1.779,9.473,9.473,0,0,1-1.136.728.837.837,0,0,1-.72-.026.88.88,0,0,1-.256-.683c.012-.17.235-.361.408-.478q2.758-1.868,5.532-3.713a2.209,2.209,0,0,1,3.389.691q3.12,4.646,6.24,9.292c.087.13.182.255.3.421.842-1.072,1.658-2.1,2.465-3.143a.882.882,0,0,0-.2-1.442q-6.794-5.306-13.592-10.606c-.642-.5-1.036-.445-1.538.193l-5.156,6.572Zm21.73,10.47q1.71-1.144,3.419-2.289a.9.9,0,0,0,.27-1.461q-1.045-1.567-2.1-3.128c-.062-.092-.138-.174-.207-.26C-393.836,58.45-394.519,61.966-393.167,64.011Zm-3.626-14.653c-.814-1.21-1.606-2.4-2.419-3.584a.791.791,0,0,0-1.135-.241c-1.212.789-2.408,1.6-3.61,2.407A5.785,5.785,0,0,0-396.793,49.358Zm-19.883,30.4c-1.61-2.07-5.124-2.738-7.172-1.385.808,1.2,1.606,2.406,2.43,3.594a.77.77,0,0,0,1.1.209C-419.1,81.385-417.906,80.573-416.677,79.753Zm-10.8-16.078c-1.237.832-2.456,1.633-3.653,2.467a.8.8,0,0,0-.125,1.187c.5.766,1.019,1.522,1.529,2.283l.834,1.24A5.844,5.844,0,0,0-427.474,63.675Zm13.213,16.065,1.263.992a.92.92,0,0,0,1.542-.185q2.046-2.6,4.084-5.21c.061-.078.109-.167.163-.251l-.052-.033Z" transform="translate(432.808 -38.11)" fill="#137163" stroke="#137163" stroke-width="0.5"/>
    <g id="ticketrestaurant-logo" transform="translate(6.841 31.154) rotate(-34)">
      <path id="Path_9106" data-name="Path 9106" d="M38.351,7.262h-.8V6.827h2.125l-.061.434h-.747v2.1h-.514Z" transform="translate(-29.551 -5.373)" fill="#162056"/>
      <path id="Path_9107" data-name="Path 9107" d="M48.781,6.827v.38H48.3v-.38Zm0,.642V9.362H48.3V7.47Z" transform="translate(-38.014 -5.373)" fill="#162056"/>
      <path id="Path_9108" data-name="Path 9108" d="M52.67,11.6a1.045,1.045,0,0,1-.416.083.977.977,0,1,1,0-1.953,1.19,1.19,0,0,1,.549.126l-.147.37a.655.655,0,0,0-.337-.1.527.527,0,0,0-.549.574.539.539,0,0,0,.581.581.776.776,0,0,0,.359-.09Z" transform="translate(-40.349 -7.655)" fill="#162056"/>
      <path id="Path_9109" data-name="Path 9109" d="M59.73,6.827V8.242h.064l.578-.772H60.9l-.642.8H60.3c.244,0,.312.118.384.33l.1.33a2.376,2.376,0,0,0,.19.435h-.52c-.025-.058-.075-.173-.115-.295l-.09-.287c-.047-.151-.1-.215-.244-.215h-.28v.8h-.477V6.827Z" transform="translate(-46.633 -5.373)" fill="#162056"/>
      <path id="Path_9110" data-name="Path 9110" d="M68.478,11.589a1.294,1.294,0,0,1-.5.09.966.966,0,0,1-1.052-.995.995.995,0,1,1,1.985.129H67.444a.587.587,0,0,0,.635.5.92.92,0,0,0,.431-.1Zm-1.041-1.106H68.4a.443.443,0,0,0-.467-.409A.49.49,0,0,0,67.437,10.484Z" transform="translate(-52.672 -7.655)" fill="#162056"/>
      <path id="Path_9111" data-name="Path 9111" d="M76.766,7.068l.477-.19V7.51h.384l-.068.37h-.316v.549a1.6,1.6,0,0,0,.362.973h-.52a1.682,1.682,0,0,1-.319-.987Z" transform="translate(-60.418 -5.413)" fill="#162056"/>
      <path id="Path_9112" data-name="Path 9112" d="M1.388,20.515a.745.745,0,0,1,.8.765.7.7,0,0,1-.628.729c.37.093.416.373.542.675a1.927,1.927,0,0,0,.2.366h-.6a.864.864,0,0,1-.162-.291c-.129-.348-.179-.625-.556-.625l-.187,0c-.23,0-.248-.1-.291-.179v1.1H0V20.515Zm-.876.98c0,.14.083.23.291.23h.424a.365.365,0,0,0,.409-.391c0-.3-.158-.4-.416-.4H.513Z" transform="translate(0 -16.146)" fill="#162056"/>
      <path id="Path_9113" data-name="Path 9113" d="M12.307,25.276a1.294,1.294,0,0,1-.5.09.965.965,0,0,1-1.052-.994.995.995,0,1,1,1.985.129H11.273a.587.587,0,0,0,.635.5.92.92,0,0,0,.431-.1Zm-1.041-1.105h.962a.443.443,0,0,0-.467-.409A.49.49,0,0,0,11.266,24.171Z" transform="translate(-8.463 -18.427)" fill="#162056"/>
      <path id="Path_9114" data-name="Path 9114" d="M20.441,24.846a1.116,1.116,0,0,0,.546.158c.144,0,.262-.047.262-.194s-.147-.2-.334-.284l-.122-.057c-.248-.111-.481-.237-.481-.535,0-.373.334-.521.718-.521a1.642,1.642,0,0,1,.678.148l-.151.37a.933.933,0,0,0-.5-.159c-.136,0-.259.032-.259.154s.158.162.323.237l.122.057c.266.122.5.266.5.585,0,.395-.355.56-.754.56a1.644,1.644,0,0,1-.693-.144Z" transform="translate(-15.976 -18.427)" fill="#162056"/>
      <path id="Path_9115" data-name="Path 9115" d="M27.639,20.755l.477-.19V21.2H28.5l-.068.369h-.316v.549a1.6,1.6,0,0,0,.363.973h-.52a1.68,1.68,0,0,1-.319-.987Z" transform="translate(-21.753 -16.186)" fill="#162056"/>
      <path id="Path_9116" data-name="Path 9116" d="M33.66,25.328h-.467v-.266a.881.881,0,0,1-.679.294.921.921,0,0,1-.965-.958,1.057,1.057,0,0,1,2.111.029Zm-1.063-1.5a.54.54,0,0,0-.553.564.555.555,0,1,0,.553-.564Z" transform="translate(-24.83 -18.425)" fill="#162056"/>
      <path id="Path_9117" data-name="Path 9117" d="M43.707,23.531h.474v1.152c0,.528-.37.775-.883.775s-.883-.248-.883-.775V23.531h.474v1.051c0,.287.126.463.409.463s.409-.176.409-.463Z" transform="translate(-33.382 -18.52)" fill="#162056"/>
      <path id="Path_9118" data-name="Path 9118" d="M52.777,23.873a.581.581,0,0,0-.215-.043c-.276,0-.348.176-.348.459V25.33H51.74V24.189a.708.708,0,0,1,.811-.776,1.866,1.866,0,0,1,.323.047Z" transform="translate(-40.721 -18.427)" fill="#162056"/>
      <path id="Path_9119" data-name="Path 9119" d="M58.716,25.328h-.467v-.266a.88.88,0,0,1-.678.294.921.921,0,0,1-.965-.958,1.057,1.057,0,0,1,2.111.029Zm-1.063-1.5a.54.54,0,0,0-.553.564.555.555,0,1,0,.554-.564Z" transform="translate(-44.551 -18.425)" fill="#162056"/>
      <path id="Path_9120" data-name="Path 9120" d="M68.774,24.3c0-.287-.126-.463-.409-.463s-.409.176-.409.463v1.041h-.474V24.2c0-.528.37-.772.883-.772s.883.244.883.772v1.141h-.474Z" transform="translate(-53.111 -18.442)" fill="#162056"/>
      <path id="Path_9121" data-name="Path 9121" d="M76.768,20.755l.477-.19V21.2h.384l-.068.369h-.316v.549a1.6,1.6,0,0,0,.363.973h-.52a1.68,1.68,0,0,1-.319-.987Z" transform="translate(-60.419 -16.186)" fill="#162056"/>
      <path id="Path_9122" data-name="Path 9122" d="M107.813,17.007a.441.441,0,0,0-.443.366h.861A.4.4,0,0,0,107.813,17.007Z" transform="translate(-84.505 -13.385)" fill="#d52b1e"/>
      <path id="Path_9123" data-name="Path 9123" d="M96.786,17.44a.511.511,0,0,0,0,1.023.511.511,0,0,0,0-1.023Z" transform="translate(-75.779 -13.726)" fill="#d52b1e"/>
      <path id="Path_9124" data-name="Path 9124" d="M94.3,3.227c-.463,0-.823.185-.882.664h0A4.091,4.091,0,0,0,89.349,0a4.172,4.172,0,0,0-3.863,2.6h1.481l-.077.5H85.73v.527h1.052L86.7,4.1H85.73v.309c0,.187.081.275.235.275h.993l-.08.5h-1.1a.835.835,0,0,1-.153-.014A.492.492,0,0,1,85.315,5a.408.408,0,0,1-.075-.155L85.229,4.8c.008.062.021.144.027.176.033.174.076.321.08.332a4.179,4.179,0,0,0,8.072-.121h-.561V4.165c0-.275-.108-.451-.378-.451s-.378.176-.378.451V5.185h-.561V4.026c0-.553.4-.8.938-.8s.939.246.939.8V5.184h.564V4.165c0-.275.072-.451.341-.451a.629.629,0,0,1,.224.044l.108-.491A2.756,2.756,0,0,0,94.3,3.227Zm-5.143.883a1.016,1.016,0,0,1-1.1,1.113.991.991,0,0,1-1.063-1,.951.951,0,0,1,1.015-1,.807.807,0,0,1,.587.22V2.6h.561Zm1.416.689a1.1,1.1,0,0,0,.461-.113l-.048.444a1.479,1.479,0,0,1-.55.092.994.994,0,0,1-1.1-1.019.96.96,0,0,1,1.03-.975A.982.982,0,0,1,91.41,4.363H89.958A.576.576,0,0,0,90.575,4.8Z" transform="translate(-67.078)" fill="#d52b1e"/>
      <path id="Path_9125" data-name="Path 9125" d="M130,15.153a.96.96,0,0,0-1.03.975,1,1,0,0,0,1.1,1.019,1.478,1.478,0,0,0,.549-.092l.047-.443a1.1,1.1,0,0,1-.46.113.576.576,0,0,1-.616-.436h1.452A.983.983,0,0,0,130,15.153Zm-.425.762a.44.44,0,0,1,.443-.368.4.4,0,0,1,.418.366Z" transform="translate(-101.503 -11.926)" fill="#d52b1e"/>
      <path id="Path_9126" data-name="Path 9126" d="M140.589,12.19v.851a.807.807,0,0,0-.586-.22.951.951,0,0,0-1.015,1,.992.992,0,0,0,1.063,1,1.015,1.015,0,0,0,1.1-1.113V12.19Zm-.513,2.141a.511.511,0,0,1,0-1.023.511.511,0,0,1,0,1.023Z" transform="translate(-109.389 -9.594)" fill="#d52b1e"/>
    </g>
  </g>
</svg>
