<svg xmlns="http://www.w3.org/2000/svg" width="18.936" height="20.195" viewBox="0 0 18.936 20.195">
  <g id="trash-icon" transform="translate(391.42 -74.459)">
    <path id="Path_9034" data-name="Path 9034" d="M-379.506,74.459a2.845,2.845,0,0,1,1.09.468,2.287,2.287,0,0,1,.921,1.813c.007.274,0,.549,0,.845h.251q1.972,0,3.944,0a.727.727,0,0,1,.781.5.7.7,0,0,1-.611.908c-.078.006-.158,0-.236,0h-17.174a1.668,1.668,0,0,1-.334-.018.7.7,0,0,1-.547-.7.69.69,0,0,1,.578-.674,1.744,1.744,0,0,1,.294-.021h4.133c0-.166,0-.32,0-.474a2.6,2.6,0,0,1,.3-1.483,2.286,2.286,0,0,1,1.624-1.134.464.464,0,0,0,.088-.035Zm-5.48,3.112h6.077c0-.255,0-.5,0-.739a.9.9,0,0,0-.965-.955c-.572,0-1.143,0-1.715,0-.835,0-1.669,0-2.5,0a.869.869,0,0,0-.887.74C-385.011,76.929-384.986,77.245-384.986,77.571Z" fill="#df4661"/>
    <path id="Path_9035" data-name="Path 9035" d="M-340.124,186.434q0,2.869,0,5.738a2.151,2.151,0,0,1-1.441,2.134,2.276,2.276,0,0,1-.732.128q-5.414.012-10.828,0a2.169,2.169,0,0,1-2.188-2.253c-.006-1.328,0-2.656,0-3.983q0-3.816,0-7.631a1.915,1.915,0,0,1,.02-.314.687.687,0,0,1,.734-.575.692.692,0,0,1,.654.643c.006.085,0,.171,0,.256q0,5.758,0,11.516a1.681,1.681,0,0,0,.026.333.722.722,0,0,0,.693.591c.374.011.749.006,1.124.006h9.644a.76.76,0,0,0,.83-.522,1.564,1.564,0,0,0,.044-.429q0-4.5,0-8.992c0-.874,0-1.748,0-2.623a.7.7,0,0,1,.763-.776.683.683,0,0,1,.634.6,2.491,2.491,0,0,1,.012.3Q-340.123,183.506-340.124,186.434Z" transform="translate(-34.239 -99.788)" fill="#df4661"/>
    <path id="Path_9036" data-name="Path 9036" d="M-282.334,210.44q0-2.178,0-4.356a.7.7,0,0,1,.587-.766.7.7,0,0,1,.8.555,1.732,1.732,0,0,1,.02.294q0,4.287,0,8.574a1.367,1.367,0,0,1-.044.389.685.685,0,0,1-.773.466.673.673,0,0,1-.588-.661c-.009-.874,0-1.748-.005-2.621Q-282.335,211.377-282.334,210.44Z" transform="translate(-103.452 -124.091)" fill="#df4661"/>
    <path id="Path_9037" data-name="Path 9037" d="M-159.784,210.483q0,2.2,0,4.394a.694.694,0,0,1-.81.738.686.686,0,0,1-.576-.545,1.433,1.433,0,0,1-.021-.255q0-4.335,0-8.67a.727.727,0,0,1,.533-.8.69.69,0,0,1,.871.66c.012.519,0,1.038,0,1.557Q-159.783,209.025-159.784,210.483Z" transform="translate(-218.337 -124.111)" fill="#df4661"/>
    <path id="Path_9038" data-name="Path 9038" d="M-220.328,210.433q0,2.187,0,4.374a.707.707,0,0,1-.677.767.69.69,0,0,1-.709-.534,1.022,1.022,0,0,1-.027-.234q0-4.374,0-8.749a.993.993,0,0,1,.061-.346.689.689,0,0,1,.724-.43.7.7,0,0,1,.62.619,1.867,1.867,0,0,1,.008.236Q-220.328,208.285-220.328,210.433Z" transform="translate(-160.915 -124.061)" fill="#df4661"/>
  </g>
</svg>
