<svg xmlns="http://www.w3.org/2000/svg" width="27.284" height="17.259" viewBox="0 0 27.284 17.259">
  <g id="truck-icon" transform="translate(0 -94.062)">
    <g id="Group_1256" data-name="Group 1256" transform="translate(0 94.062)">
      <g id="Group_1255" data-name="Group 1255" transform="translate(0 0)">
        <path id="Path_915" data-name="Path 915" d="M25.374,101.379l-.707-2.826a.427.427,0,0,0,.338-.418v-.456a1.8,1.8,0,0,0-1.794-1.794H19.993v-.94a.884.884,0,0,0-.883-.883H2.706a.884.884,0,0,0-.883.883v7.747a.427.427,0,0,0,.854,0V94.945a.028.028,0,0,1,.028-.028h16.4a.028.028,0,0,1,.028.028v7.747a.427.427,0,0,0,.854,0v-.484h5.042a1.4,1.4,0,0,1,1.328.968H25.034a.427.427,0,0,0-.427.427v.911a1.34,1.34,0,0,0,1.339,1.339h.484v1.88H25.312a2.7,2.7,0,0,0-5.114,0h-.206v-3.218a.427.427,0,0,0-.854,0v3.218H10.275a2.7,2.7,0,0,0-5.114,0H2.706a.028.028,0,0,1-.028-.028v-.94H4.528a.427.427,0,1,0,0-.854H.427a.427.427,0,1,0,0,.854h1.4v.94a.884.884,0,0,0,.883.883H5.013c0,.009,0,.019,0,.028a2.706,2.706,0,1,0,5.411,0c0-.01,0-.019,0-.028h9.628c0,.009,0,.019,0,.028a2.706,2.706,0,1,0,5.411,0c0-.01,0-.019,0-.028h1.4a.427.427,0,0,0,.427-.427V103.6A2.253,2.253,0,0,0,25.374,101.379Zm-5.381-4.639h3.218a.941.941,0,0,1,.94.94v.028H19.993Zm0,4.614V98.562h3.8l.7,2.791ZM7.718,110.467a1.851,1.851,0,1,1,1.851-1.851A1.853,1.853,0,0,1,7.718,110.467Zm15.037,0a1.851,1.851,0,1,1,1.851-1.851A1.853,1.853,0,0,1,22.756,110.467ZM26.43,105h-.484a.485.485,0,0,1-.484-.484v-.484h.968V105Z" transform="translate(0 -94.062)" fill="#137163"/>
      </g>
    </g>
    <g id="Group_1258" data-name="Group 1258" transform="translate(6.835 107.732)">
      <g id="Group_1257" data-name="Group 1257" transform="translate(0 0)">
        <path id="Path_916" data-name="Path 916" d="M129.15,350.6a.883.883,0,1,0,.883.883A.884.884,0,0,0,129.15,350.6Z" transform="translate(-128.267 -350.597)" fill="#f57120"/>
      </g>
    </g>
    <g id="Group_1260" data-name="Group 1260" transform="translate(21.873 107.732)">
      <g id="Group_1259" data-name="Group 1259" transform="translate(0 0)">
        <path id="Path_917" data-name="Path 917" d="M411.338,350.6a.883.883,0,1,0,.883.883A.884.884,0,0,0,411.338,350.6Z" transform="translate(-410.455 -350.597)" fill="#f57120"/>
      </g>
    </g>
    <g id="Group_1262" data-name="Group 1262" transform="translate(10.936 105.91)">
      <g id="Group_1261" data-name="Group 1261" transform="translate(0 0)">
        <path id="Path_918" data-name="Path 918" d="M212.034,316.393h-6.38a.427.427,0,0,0,0,.855h6.38a.427.427,0,0,0,0-.855Z" transform="translate(-205.227 -316.393)" fill="#f57120"/>
      </g>
    </g>
    <g id="Group_1264" data-name="Group 1264" transform="translate(0.911 104.087)">
      <g id="Group_1263" data-name="Group 1263" transform="translate(0 0)">
        <path id="Path_919" data-name="Path 919" d="M23,282.188H17.529a.427.427,0,1,0,0,.854H23a.427.427,0,1,0,0-.854Z" transform="translate(-17.102 -282.188)" fill="#f57120"/>
      </g>
    </g>
    <path id="Path_920" data-name="Path 920" d="M176.533,136.537c-.215-.286-3.15,1.609-3.55,2.173-.825,1.163-.3,2.635.316,3.82a8.325,8.325,0,0,0,2.59-3.92s.473,1.789-2.761,5.066l-.455,1.021a.092.092,0,0,0,.149.1c2.01-1.872,3.164-2.893,3.639-4.046,1.01-2.452.371-3.817.072-4.217" transform="translate(-163.362 -40.183)" fill="#79b52d"/>
  </g>
</svg>
