<svg xmlns="http://www.w3.org/2000/svg" width="54.367" height="24.293" viewBox="0 0 54.367 24.293">
  <g id="user-icon-active" transform="translate(-109.316 -144.842)">
    <path id="Path_9030" data-name="Path 9030" d="M920.187,334.166c0,2.163-12.17,3.918-27.183,3.918s-27.183-1.755-27.183-3.918,12.17-3.918,27.183-3.918S920.187,332,920.187,334.166Z" transform="translate(-756.504 -168.949)" fill="#84bd23" opacity="0.15"/>
    <g id="Group_659" data-name="Group 659" transform="translate(68.008 144.842)">
      <g id="Group_658" data-name="Group 658" transform="translate(58.042)">
        <path id="Path_569" data-name="Path 569" d="M58.042,21.22h1.484a9.732,9.732,0,0,1,18.743,0h1.495a11.222,11.222,0,0,0-7.414-8,7.059,7.059,0,1,0-6.894,0A11.211,11.211,0,0,0,58.042,21.22Zm5.245-14.16A5.611,5.611,0,1,1,68.9,12.67,5.619,5.619,0,0,1,63.287,7.059Z" transform="translate(-58.042)" fill="#503629"/>
      </g>
    </g>
  </g>
</svg>
