<svg xmlns="http://www.w3.org/2000/svg" width="131" height="57.563" viewBox="0 0 131 57.563">
  <g id="alVolo-title" transform="translate(-50.885 -1952.533)">
    <text id="è" transform="translate(50.885 1952.533)" fill="#fff" font-size="29" font-family="Distro-Bold, Distro" font-weight="700" letter-spacing="0.05em"><tspan x="0" y="30">è</tspan></text>
    <g id="Group_3420" data-name="Group 3420" transform="translate(77.184 1956.021)">
      <path id="Path_9041" data-name="Path 9041" d="M520.946,557.48c.086.232.173.469.258.714a2.12,2.12,0,0,1,.131.714.8.8,0,0,1-.2.562,1.468,1.468,0,0,1-.475.345,2.789,2.789,0,0,1-.583.194,2.667,2.667,0,0,1-.562.065,1.641,1.641,0,0,1-1.427-.972,9.052,9.052,0,0,1-.907-2.42q-.345-1.447-.583-3.068t-.454-2.916a7.726,7.726,0,0,1-.843,2.289,14.034,14.034,0,0,1-1.794,2.658,12.536,12.536,0,0,1-2.377,2.183,4.5,4.5,0,0,1-2.593.907,3.234,3.234,0,0,1-1.706-.41,2.859,2.859,0,0,1-1.016-1.016,4.112,4.112,0,0,1-.475-1.363,8.251,8.251,0,0,1-.131-1.4,11.373,11.373,0,0,1,.714-3.523,20.007,20.007,0,0,1,1.946-4.083,14.68,14.68,0,0,1,2.851-3.392,5.179,5.179,0,0,1,3.436-1.4,3.527,3.527,0,0,1,.885.131,10.153,10.153,0,0,1,1.016.323,6.428,6.428,0,0,1,.995.474,9.5,9.5,0,0,1,.822.541,3.01,3.01,0,0,1,.993,1.642,17.035,17.035,0,0,1,.389,2.16q.3,2.162.475,3.912a26.548,26.548,0,0,0,.649,3.694l.258,1.6Zm-12.186-2.246a.083.083,0,0,0,.023.064.09.09,0,0,1,.021.065,2.3,2.3,0,0,0,1.3-.755,14.021,14.021,0,0,0,1.469-1.707,21.08,21.08,0,0,0,1.361-2.1,12.271,12.271,0,0,0,.928-1.965q.173-.39.412-.865t.475-.972a9.124,9.124,0,0,0,.389-.928,2.292,2.292,0,0,0,.152-.735c-.145-.058-.274-.115-.389-.173a.863.863,0,0,0-.389-.087,2.325,2.325,0,0,0-1.686.734,8.309,8.309,0,0,0-1.274,1.642,13.219,13.219,0,0,0-.886,1.75,10.183,10.183,0,0,1-.476,1.059,13.169,13.169,0,0,0-1.016,2.333,7.753,7.753,0,0,0-.41,2.42Z" transform="translate(-505.216 -531.813)" fill="#fff"/>
      <path id="Path_9042" data-name="Path 9042" d="M519.85,562.193a.4.4,0,0,0,.044.173.4.4,0,0,1,.044.173,1.081,1.081,0,0,1-.583,1.016,2.419,2.419,0,0,1-1.188.325,1.946,1.946,0,0,1-1.729-1.188,10.319,10.319,0,0,1-.993-2.766,21.351,21.351,0,0,1-.455-3.134q-.107-1.555-.106-2.333,0-2.117-.023-3.781t-.021-3.478a44.517,44.517,0,0,1,.237-4.647,45.283,45.283,0,0,0,.237-4.73,1.473,1.473,0,0,1,.26-.907,3.972,3.972,0,0,1,.691-.693c.23,0,.511.016.843.044a3.27,3.27,0,0,1,.928.216,2.14,2.14,0,0,1,.734.476,1.163,1.163,0,0,1,.3.864,12.314,12.314,0,0,1-.216,2.269,12.154,12.154,0,0,0-.216,2.268q0,1.644-.021,2.959t-.023,2.616q0,1.123.044,2.139c.028.675.044,1.359.044,2.052q0,.736.021,1.4c.014.447.023.871.023,1.274a21.8,21.8,0,0,0,.367,3.76Q519.461,560.637,519.85,562.193Z" transform="translate(-498.048 -536.222)" fill="#fff"/>
    </g>
    <g id="Group_3421" data-name="Group 3421" transform="translate(104.004 1952.533)">
      <path id="Path_9050" data-name="Path 9050" d="M531.069,573.653a72.034,72.034,0,0,1-2.357-6.821q-1.248-4.159-2.689-10.148a99.8,99.8,0,0,0-5.435-17.135c.48-.925.888-1.387,1.22-1.387a1.665,1.665,0,0,1,.888-.277q.832,0,3.1,1.665,1.055,2.384,1.97,5.156t1.8,5.99q.387,1.442.83,3.244t.86,3.659q.416,1.858.8,3.661t.721,3.3a76.391,76.391,0,0,1,1.719-8.374q1.11-4.214,2.164-7.709a118.62,118.62,0,0,1,4.99-13.2,2,2,0,0,1,1.94-1.054h.443a1.394,1.394,0,0,1,.5.112,1.485,1.485,0,0,1,.553.443.822.822,0,0,0,.389.223,4.026,4.026,0,0,1,.443.138.863.863,0,0,1,.361.25.882.882,0,0,1,.138.555,3.385,3.385,0,0,1-.277,1.108A139.275,139.275,0,0,0,540,552.19a82.493,82.493,0,0,0-2.884,10.815q-.777,3.659-1.469,6.35a44,44,0,0,1-1.415,4.575,1.525,1.525,0,0,1-1.164.553A3.874,3.874,0,0,1,531.069,573.653Z" transform="translate(-520.587 -534.223)" fill="#fff"/>
      <path id="Path_9051" data-name="Path 9051" d="M552.241,552.982a19.1,19.1,0,0,1-2,3.577,16.275,16.275,0,0,1-2.523,2.828,10.793,10.793,0,0,1-2.938,1.858,8.293,8.293,0,0,1-3.244.665,6.949,6.949,0,0,1-2.635-.611,9.207,9.207,0,0,1-2.773-1.829,10.989,10.989,0,0,1-2.218-2.968,8.652,8.652,0,0,1-.916-4.076,15.628,15.628,0,0,1,.695-4.242,24.238,24.238,0,0,1,1.829-4.575,14.978,14.978,0,0,1,2.635-3.659,4.4,4.4,0,0,1,3.106-1.5,1.585,1.585,0,0,1,.637.11c.167.075.351.167.555.277s.452.26.749.443a9,9,0,0,0,1.22.611q.5.222,1.138.471c.424.167.933.342,1.525.527a6.424,6.424,0,0,1,2.773,1.775,10.644,10.644,0,0,1,1.775,2.635,11.307,11.307,0,0,1,.914,2.773,12.605,12.605,0,0,1,.25,2.19A6.044,6.044,0,0,1,552.241,552.982Zm-4.437-3.437a12.123,12.123,0,0,0-.914-3.577,1.955,1.955,0,0,0-1.747-1.359,1.554,1.554,0,0,0-.86.417c-.352.278-.7.581-1.054.914s-.684.639-1,.916-.527.415-.637.415a1.908,1.908,0,0,1-1.054-.443,1.992,1.992,0,0,0-.832-.445,1.189,1.189,0,0,0-.97.583,5.369,5.369,0,0,0-.693,1.387,9.549,9.549,0,0,0-.417,1.719,10.718,10.718,0,0,0-.138,1.581,7.25,7.25,0,0,0,.443,2.605,8.42,8.42,0,0,0,1.054,2,5.438,5.438,0,0,0,1.248,1.275,1.985,1.985,0,0,0,.97.443,4.132,4.132,0,0,0,2.218-.749,9.363,9.363,0,0,0,2.136-1.912,11.491,11.491,0,0,0,1.609-2.551,6.373,6.373,0,0,0,.637-2.661Z" transform="translate(-511.343 -531.071)" fill="#fff"/>
      <path id="Path_9052" data-name="Path 9052" d="M545.438,568.667v-1.22q0-2.382.14-5.462t.471-6.9q.832-9.205.832-13.364c0-.961-.021-1.876-.056-2.745s-.092-1.728-.167-2.579a2.484,2.484,0,0,1,1.83-.721q2.107,0,2.441,1.553c0,.37.007.757.026,1.164s.028.852.028,1.331q0,2.162-.11,4.907t-.333,6.24q-.278,3.827-.361,6.821T550.1,562.9v1.553a22.065,22.065,0,0,0,4.048-2.329q1.384-.942,2.356-1.579a12.483,12.483,0,0,1,1.581-.916,7.294,7.294,0,0,0,.97-.11,7.1,7.1,0,0,1,1.026-.112,1.709,1.709,0,0,1,1.609.888,2.62,2.62,0,0,1,.333,1.108,1.4,1.4,0,0,1-.333.942l-6.488,4.6q-1.887,1.332-3.521,2.329a24.1,24.1,0,0,1-3.078,1.609,1.489,1.489,0,0,1-.667.166,1.821,1.821,0,0,1-1.441-1Z" transform="translate(-502.075 -533.143)" fill="#fff"/>
      <path id="Path_9053" data-name="Path 9053" d="M573.117,550.1a19.093,19.093,0,0,1-2,3.577A16.344,16.344,0,0,1,568.6,556.5a10.831,10.831,0,0,1-2.94,1.858,8.288,8.288,0,0,1-3.244.665,6.94,6.94,0,0,1-2.633-.611,9.189,9.189,0,0,1-2.773-1.829,10.993,10.993,0,0,1-2.219-2.968,8.674,8.674,0,0,1-.914-4.076,15.613,15.613,0,0,1,.693-4.242,24.138,24.138,0,0,1,1.83-4.575,14.933,14.933,0,0,1,2.635-3.659,4.4,4.4,0,0,1,3.1-1.5,1.6,1.6,0,0,1,.639.11c.166.075.351.167.553.278s.454.26.75.445a9.118,9.118,0,0,0,1.22.609q.5.222,1.136.471c.426.168.933.342,1.525.527a6.413,6.413,0,0,1,2.773,1.775,10.6,10.6,0,0,1,1.775,2.635,11.318,11.318,0,0,1,.916,2.773,12.784,12.784,0,0,1,.249,2.19A6.044,6.044,0,0,1,573.117,550.1Zm-4.437-3.437a12.124,12.124,0,0,0-.914-3.577,1.953,1.953,0,0,0-1.747-1.359,1.559,1.559,0,0,0-.86.417c-.351.277-.7.581-1.052.914s-.686.639-1,.916-.529.415-.639.415a1.9,1.9,0,0,1-1.054-.443,1.972,1.972,0,0,0-.832-.445,1.189,1.189,0,0,0-.97.583,5.423,5.423,0,0,0-.693,1.387,9.548,9.548,0,0,0-.415,1.719,10.534,10.534,0,0,0-.14,1.581,7.287,7.287,0,0,0,.443,2.605,8.442,8.442,0,0,0,1.054,2,5.432,5.432,0,0,0,1.248,1.276,2,2,0,0,0,.97.445,4.121,4.121,0,0,0,2.219-.75,9.354,9.354,0,0,0,2.134-1.912,11.429,11.429,0,0,0,1.609-2.551,6.375,6.375,0,0,0,.637-2.661Z" transform="translate(-495.791 -533.219)" fill="#fff"/>
    </g>
    <g id="Group_3422" data-name="Group 3422" transform="translate(141.902 1984.24)">
      <path id="Path_9058" data-name="Path 9058" d="M543.583,578.25a1.278,1.278,0,0,1-.185-2.542,45.182,45.182,0,0,0,32.846-22.659,1.278,1.278,0,1,1,2.23,1.249,47.723,47.723,0,0,1-34.7,23.938A1.152,1.152,0,0,1,543.583,578.25Z" transform="translate(-542.307 -552.394)" fill="#fff"/>
    </g>
  </g>
</svg>
