<svg xmlns="http://www.w3.org/2000/svg" width="718.165" height="462.692" viewBox="0 0 718.165 462.692" opacity="0.4">
  <g id="card-pattern-bg" transform="translate(0.69 0.768)" style="mix-blend-mode: multiply;isolation: isolate">
    <g id="Group_2570" data-name="Group 2570">
      <path id="Path_7732" data-name="Path 7732" d="M998.894,645.735a17.455,17.455,0,0,1,1.636-1.648c-.593.265-1.21.5-1.843.729C998.758,645.121,998.829,645.426,998.894,645.735Z" transform="translate(-782.032 -431.983)" fill="none" stroke="#61b0bc" stroke-miterlimit="10" stroke-width="1.375"/>
      <path id="Path_7733" data-name="Path 7733" d="M1013.179,637.079c.278-.413.553-.829.838-1.24l.24-.345a27.369,27.369,0,0,1-2.461,1.749A6.292,6.292,0,0,1,1013.179,637.079Z" transform="translate(-790.12 -426.853)" fill="none" stroke="#61b0bc" stroke-miterlimit="10" stroke-width="1.375"/>
      <path id="Path_7734" data-name="Path 7734" d="M670.368,233.382a156.49,156.49,0,0,1,5.965-40.3c11.983-26.664,56.224-43.762,73.823-50.238,11.678-4.3,34.367,3.907,55.155,20.453-8.3-10.1,1.283-13.909,17.978-13.5-27.47-24.083-59.246-36.5-74.979-30.707-21.922,8.068-77.033,29.367-91.96,62.581,0,0-10.681,33.643-6.484,71.465A59.255,59.255,0,0,1,670.368,233.382Z" transform="translate(-566.197 -117.682)" fill="none" stroke="#61b0bc" stroke-miterlimit="10" stroke-width="1.375"/>
      <path id="Path_7735" data-name="Path 7735" d="M834.457,319.13c4.05,6.24,3.883,14.1,2.671,20.5a5.834,5.834,0,0,1,3.288-.344q3.559-5.441,6.928-11.04a10.389,10.389,0,0,1,.546-9.744,8.524,8.524,0,0,1,7.294-4.184q8.129-15.246,14.822-31.277c.13-.311.263-.646.395-.967-4.575,3.51-11.662,5.928-21.707,1.559a23.619,23.619,0,0,1-5.473-3.294c1.831,4.321-2.436,10.352-7.217,8.749a21.931,21.931,0,0,1-12.67-10.856c-4.669.027-6.214-5.385-4.569-10.9.21-.7,1.016-.919,1.548-1.214a31.5,31.5,0,0,1,.236-4.746c-2.8-2.074-2.638-3.851-1.075-9.693.577-2.155,3.234-2.061,4.844-1.808a39.928,39.928,0,0,1,2.555-4.088c.049-.114.1-.227.147-.34-1.833-2.279-1.526-4.323.248-8.423,1.011-2.337,3.747-2.184,5.544-1.656A52.52,52.52,0,0,1,841.9,225.8a6,6,0,0,1,1.659-5.434,5.344,5.344,0,0,1,6.917-1.051,33.088,33.088,0,0,1,4.828-3.324,117.125,117.125,0,0,0-7.68-9.856,50.035,50.035,0,0,1-7.707-7.232c-20.787-16.545-43.476-24.751-55.155-20.452-17.6,6.477-61.841,23.575-73.824,50.238a156.477,156.477,0,0,0-5.965,40.3,60.144,60.144,0,0,1,25.667-7.928c4.257-8.333,18.093-13.7,23.683-15.753,5.718-2.1,19.562,5.009,27.171,16.734,4.683,7.216,3.258,16.781,1.473,23.08a55.56,55.56,0,0,1,9.312,21.464,96.448,96.448,0,0,1,12.7-5.612C811.185,298.694,826.2,306.41,834.457,319.13ZM765.224,198.388c1.808-7.036,11.863-14.194,15.877-16.967s15.293-.793,22.493,5.858,3.127,21.331,3.127,21.331-4.756,18.569-24.842,16.4S765.224,198.388,765.224,198.388Zm14.095,34.7c7.579-4.029,22.566,9.9,22.566,9.9,4.331-21.661,32.492-28.579,32.492-28.579s-5.253,24.07-25.661,36.636S771.739,237.113,779.319,233.085Z" transform="translate(-600.802 -153.292)" fill="none" stroke="#61b0bc" stroke-miterlimit="10" stroke-width="1.375"/>
      <path id="Path_7736" data-name="Path 7736" d="M927.643,518.96a41.584,41.584,0,0,1,27.208,29.806c.633-.223,1.25-.463,1.842-.728a7.431,7.431,0,0,1,3.177-1.713,27.464,27.464,0,0,0,2.461-1.748q1.61-2.319,3.218-4.63c-3-4.666-2.554-8.08,1.9-12.331,2.234-2.131,4.581-4.413,7.069-5.346,1.213-6.4,1.379-14.257-2.671-20.5-8.254-12.719-23.272-20.436-29.475-18.153a96.469,96.469,0,0,0-12.7,5.612q.25,1.253.448,2.525c3.4-1.867,5.629-2.849,5.629-2.849C938.509,501.773,934.266,511.606,927.643,518.96Z" transform="translate(-738.195 -335.934)" fill="none" stroke="#61b0bc" stroke-miterlimit="10" stroke-width="1.375"/>
      <path id="Path_7737" data-name="Path 7737" d="M1087.324,349.085c1.217,8.8-2.341,19.135-5.411,26.63-4.575,3.51-11.663,5.928-21.708,1.559a23.614,23.614,0,0,1-5.473-3.294,5.323,5.323,0,0,0-1.389-1.94c-10.272-9.09-4.48-22.284,2.363-32.427,7.384-5.191,18.232-8.158,25.573-2a16.628,16.628,0,0,1,2.873,3.171S1087.088,345.948,1087.324,349.085Z" transform="translate(-812.315 -246.936)" fill="none" stroke="#61b0bc" stroke-miterlimit="10" stroke-width="1.375"/>
      <path id="Path_7738" data-name="Path 7738" d="M822.847,362.246c-7.609-11.724-21.452-18.838-27.171-16.733-5.59,2.057-19.426,7.421-23.683,15.753.076-.006.151-.017.227-.022a58.666,58.666,0,0,1,52.1,24.082C826.105,379.027,827.529,369.462,822.847,362.246Z" transform="translate(-642.155 -253.493)" fill="none" stroke="#61b0bc" stroke-miterlimit="10" stroke-width="1.375"/>
      <path id="Path_7739" data-name="Path 7739" d="M903.437,212.882s4.073-14.679-3.126-21.331-18.48-8.63-22.493-5.857-14.07,9.931-15.877,16.967c0,0-3.432,24.457,16.654,26.624S903.437,212.882,903.437,212.882Z" transform="translate(-697.518 -157.564)" fill="none" stroke="#61b0bc" stroke-miterlimit="10" stroke-width="1.375"/>
      <path id="Path_7740" data-name="Path 7740" d="M951.145,269.362s-28.161,6.919-32.493,28.579c0,0-14.986-13.931-22.566-9.9s8.991,30.525,29.4,17.96S951.145,269.362,951.145,269.362Z" transform="translate(-717.569 -208.246)" fill="none" stroke="#61b0bc" stroke-miterlimit="10" stroke-width="1.375"/>
      <path id="Path_7741" data-name="Path 7741" d="M1709.77,260.223q4.038,3.306,7.669,6.9c-.178.236-.354.473-.524.713,17.479,18.033,27.105,40.678,25.571,62.558a122.081,122.081,0,0,1,25.493-17.718c3.934,15.392-.727,27.486-8.377,36.708a50.921,50.921,0,0,1,24.567,16.035l-7.361-93.937c.615,9.394,15.821,12.873,18.089,22.082,2.812,11.417-16.239,21.852-9.641,31.908,4.1,6.251,15.539,6.108,18.532,12.861,3.553,8.02-8.823,16.09-5.711,24.258,2.993,7.854,16.219,6.713,22.188,12.985-7.576,6.812-15.745,16.739-10.582,25.508,1.308,2.223,3.394,4.071,4.254,6.467.838,2.337.386,4.665-.419,7a48.5,48.5,0,0,1,37.587-12.81c-11.06-57.068-23.282-106.925-23.282-106.925,6.719,4.894,19.859,9.788,26.578,14.682,1.855,1.351,3.841,2.894,4.289,5.026.617,2.934-1.942,5.722-1.551,8.684.516,3.9,5.546,5.793,7.757,9.177,1.694,2.6,1.564,5.811,1.3,8.8-1.1,12.261-2.974,26.317,6.164,35.46,3.008,3.011,7.224,5.522,8.033,9.528,1.524,7.541-3.574,14.492,2.654,19.626,2.155,1.777,5.36,1.7,8.024,2.7,7.117,2.677,8.13,11.788,6.117,18.562s-12.039,15.145-10.313,22.063c.681,2.729,2.193,5.219,3.421,7.789a44.158,44.158,0,0,1,3.979,15.315c5.979,8.317,12.11,20.75,15.705,34.67.791-4.686,1.151-8.264,1.444-11.2.851-8.524,1.24-12.414,10.073-23.288a62.4,62.4,0,0,1,12.521-11.554c12.208-88.408-61.017-191.506-162.3-201.538-25.49-2.525-46.943-3.44-65.515-1.156,1.075.851,2.125,1.721,3.158,2.6C1709.49,260.587,1709.631,260.4,1709.77,260.223Z" transform="translate(-1218.585 -200.781)" fill="none" stroke="#61b0bc" stroke-miterlimit="10" stroke-width="1.375"/>
      <path id="Path_7742" data-name="Path 7742" d="M1352.083,230.13a17.956,17.956,0,0,1,1.867,4.756,18.14,18.14,0,0,1,6.886.62c.013-1.586.077-3.175.249-4.77a73.5,73.5,0,0,1,6.124-21.452,81.683,81.683,0,0,1,16.564-7.431c-6.677,7.841-11.508,20.8-12.47,30.421a44.149,44.149,0,0,0-.025,8.021,73.412,73.412,0,0,1,9.936,7.473,48.03,48.03,0,0,1,10.6-2.515,98.162,98.162,0,0,1-2.236-17.562,51.278,51.278,0,0,1,9.266-29.369,102.978,102.978,0,0,1,15.976-1.068c-17.29,10.377-15.812,29.55-12.666,47.943a51.407,51.407,0,0,1,9.923,2.075,62.1,62.1,0,0,1,5.2-5.675c-.068-.381-.141-.759-.2-1.142a56.729,56.729,0,0,1,9.56-42.473,116.318,116.318,0,0,1,11.563,1.961,45.393,45.393,0,0,0-11.623,34.024c8.09-5.589,16.68-8.968,22.064-7.01.03-.259.048-.519.084-.777,1.04-7.424,5.125-13.99,9.677-19.818-1.828-.783-3.677-1.541-5.565-2.243-41.5-15.429-84.04-5.722-104.774,21.261A20.9,20.9,0,0,1,1352.083,230.13Z" transform="translate(-997.603 -164.906)" fill="none" stroke="#61b0bc" stroke-miterlimit="10" stroke-width="1.375"/>
      <path id="Path_7743" data-name="Path 7743" d="M1585.048,340.824c-.065.089-.14.179-.209.27a110.856,110.856,0,0,1,14.986,15.978c.22.29.482.536.724.8a97.661,97.661,0,0,0-1.567-23.461c-.393-2.186-.9-4.44-1.427-6.734C1594.164,332.114,1588.9,335.539,1585.048,340.824Z" transform="translate(-1143.704 -243.066)" fill="none" stroke="#61b0bc" stroke-miterlimit="10" stroke-width="1.375"/>
      <path id="Path_7744" data-name="Path 7744" d="M1714.537,309.532c3.046-.317,4.851.7,4.579,3.269-.29,2.76-1.737,6.737-3.6,10.934.035.471.073.949.1,1.414a117.458,117.458,0,0,1,.053,16.243,59.114,59.114,0,0,1,9.737,4.658c9.076,5.749,10.781,23.6-10.63,20.563-1.213-.172-2.412-.316-3.6-.448a51.961,51.961,0,0,1,.724,5.9q1.539,1.328,3.005,2.783a52.932,52.932,0,0,1,14.719-8.154c3.987-7.732,9.85-14.472,15.935-20.036,1.534-21.88-8.092-44.525-25.572-62.558C1715.014,291.2,1714.206,300.338,1714.537,309.532Z" transform="translate(-1221.655 -217.044)" fill="none" stroke="#61b0bc" stroke-miterlimit="10" stroke-width="1.375"/>
      <path id="Path_7745" data-name="Path 7745" d="M1637,253.783c.116,8.26,3.419,17.606,4.82,25.8.771,4.507,1.421,9.05,1.778,13.6a69.7,69.7,0,0,1,15.405-11.3c-.518-13.061.324-25.931,7.656-35.971q-1.55-1.323-3.158-2.6a116.681,116.681,0,0,0-17.29-11.332C1640.973,238.318,1636.869,244.587,1637,253.783Z" transform="translate(-1175.885 -185.927)" fill="none" stroke="#61b0bc" stroke-miterlimit="10" stroke-width="1.375"/>
      <path id="Path_7746" data-name="Path 7746" d="M1391.89,239.8c.961-9.617,5.793-22.58,12.47-30.421a81.719,81.719,0,0,0-16.564,7.431,73.51,73.51,0,0,0-6.124,21.451c-.172,1.595-.236,3.183-.249,4.769a40.439,40.439,0,0,1,10.442,4.79A44.21,44.21,0,0,1,1391.89,239.8Z" transform="translate(-1018.191 -172.432)" fill="none" stroke="#61b0bc" stroke-miterlimit="10" stroke-width="1.375"/>
      <path id="Path_7747" data-name="Path 7747" d="M1469.046,245.9c-3.146-18.393-4.624-37.566,12.667-47.943a103.035,103.035,0,0,0-15.976,1.068,51.273,51.273,0,0,0-9.266,29.369,98.08,98.08,0,0,0,2.236,17.562A46.552,46.552,0,0,1,1469.046,245.9Z" transform="translate(-1064.495 -165.612)" fill="none" stroke="#61b0bc" stroke-miterlimit="10" stroke-width="1.375"/>
      <path id="Path_7748" data-name="Path 7748" d="M1548.1,201.737a115.83,115.83,0,0,0-11.563-1.961,56.732,56.732,0,0,0-9.56,42.472c.062.383.135.762.2,1.142a74.015,74.015,0,0,1,9.3-7.628A45.39,45.39,0,0,1,1548.1,201.737Z" transform="translate(-1107.507 -166.698)" fill="none" stroke="#61b0bc" stroke-miterlimit="10" stroke-width="1.375"/>
      <path id="Path_7749" data-name="Path 7749" d="M1610.684,241.079a7.525,7.525,0,0,1,4.627,4.916c2.921,8.4,1.385,13.467-1.809,17.644.528,2.294,1.034,4.549,1.427,6.734a97.641,97.641,0,0,1,1.567,23.462,12.592,12.592,0,0,0,1.727,1.6c.358.029.72.047,1.077.078a69.19,69.19,0,0,1,8.061-9.227c-.358-4.554-1.007-9.1-1.778-13.6-1.4-8.2-4.7-17.54-4.82-25.8-.128-9.2,3.976-15.465,9.21-21.8l.166-.2q-4.67-2.413-9.646-4.456c-.016.022-.033.042-.05.062-4.551,5.828-8.636,12.394-9.677,19.818C1610.732,240.56,1610.713,240.82,1610.684,241.079Z" transform="translate(-1159.651 -179.025)" fill="none" stroke="#61b0bc" stroke-miterlimit="10" stroke-width="1.375"/>
      <path id="Path_7750" data-name="Path 7750" d="M1709.469,272.82c.169-.241.345-.478.523-.714q-3.634-3.581-7.668-6.9c-.139.182-.28.363-.414.547-7.331,10.04-8.174,22.909-7.656,35.97a29.22,29.22,0,0,1,9.767-3.471C1703.69,289.06,1704.5,279.918,1709.469,272.82Z" transform="translate(-1211.139 -205.766)" fill="none" stroke="#61b0bc" stroke-miterlimit="10" stroke-width="1.375"/>
      <path id="Path_7751" data-name="Path 7751" d="M1710.282,383.884c-.032-.465-.07-.943-.1-1.414-2.361,5.3-5.4,10.959-7.651,14.97,2.84.866,5.456,1.774,7.807,2.688A117.386,117.386,0,0,0,1710.282,383.884Z" transform="translate(-1216.321 -275.779)" fill="none" stroke="#61b0bc" stroke-miterlimit="10" stroke-width="1.375"/>
      <path id="Path_7752" data-name="Path 7752" d="M1814.82,760.369a166.13,166.13,0,0,0,24.9-13.178,44.921,44.921,0,0,1-7-1.7,103.9,103.9,0,0,1,7.549-36.748,53.049,53.049,0,0,1-18.026,7.972C1824.5,733.3,1818.977,750.412,1814.82,760.369Z" transform="translate(-1285.609 -470.586)" fill="none" stroke="#61b0bc" stroke-miterlimit="10" stroke-width="1.375"/>
      <path id="Path_7753" data-name="Path 7753" d="M1760.694,730.916a52.338,52.338,0,0,1-7.342-.749c-1.219,12.282-4.237,23.85-9.884,32.809a40.484,40.484,0,0,1-5.82,7.276,89.166,89.166,0,0,1,.776,11.094c2.87-.407,5.928-.975,9.162-1.737C1746.356,764.921,1754.054,744.995,1760.694,730.916Z" transform="translate(-1237.991 -483.38)" fill="none" stroke="#61b0bc" stroke-miterlimit="10" stroke-width="1.375"/>
      <path id="Path_7754" data-name="Path 7754" d="M1997.661,969.142c-4.435,1.381-8.527,7.349-11.815,12.144-3.074,4.483-5.5,8.024-8.215,8.362-1.708.212-3.442,1.547-5.278,2.959-2.335,1.8-4.75,3.656-7.682,3.656-.153,0-.307-.006-.461-.016-.2-.014-.429-.02-.675-.02-5.223,0-18.742,2.774-18.877,2.8a1.479,1.479,0,0,1-.309.032,1.574,1.574,0,0,1-1.2-.566,1.71,1.71,0,0,1-.368-.846c-19.981,3.969-43.932,5.207-68.122,4.1-2.471,2.252-3.789,4.974-2.8,8.746.061.234.087.444.141.674,5.585.491,11.361.94,17.383,1.333,95.327,6.231,123.593-28.789,125.646-65.2a45.933,45.933,0,0,1-4.747,10.216C2008.079,961.078,2003.507,967.32,1997.661,969.142Z" transform="translate(-1320.6 -613.025)" fill="none" stroke="#61b0bc" stroke-miterlimit="10" stroke-width="1.375"/>
      <path id="Path_7755" data-name="Path 7755" d="M1804.174,822.751a86.374,86.374,0,0,1,41.788-9.915c6.26-4.744,12.421-9.639,17.9-14.114a65.036,65.036,0,0,1-30.715,2.194,166.038,166.038,0,0,1-24.9,13.177A93.358,93.358,0,0,1,1804.174,822.751Z" transform="translate(-1279.04 -524.312)" fill="none" stroke="#61b0bc" stroke-miterlimit="10" stroke-width="1.375"/>
      <path id="Path_7756" data-name="Path 7756" d="M1747.657,852.875c-3.234.761-6.292,1.329-9.162,1.737a114.378,114.378,0,0,1-.732,13.662,173,173,0,0,0,19.124.989.1.1,0,0,1-.02-.01C1750.94,865.872,1748.254,859.989,1747.657,852.875Z" transform="translate(-1238.063 -556.645)" fill="none" stroke="#61b0bc" stroke-miterlimit="10" stroke-width="1.375"/>
      <path id="Path_7757" data-name="Path 7757" d="M1823.756,993.33c-3.385,1.314-6.861,2.488-10.358,3.521C1815.764,997.352,1819.074,996.4,1823.756,993.33Z" transform="translate(-1284.731 -640.507)" fill="none" stroke="#61b0bc" stroke-miterlimit="10" stroke-width="1.375"/>
      <path id="Path_7758" data-name="Path 7758" d="M1793.755,807.641c17.163.277,28.878,5.407,28.878,5.407s-50.063,34.007-76.977,18.686a173.047,173.047,0,0,1-19.123-.989,143.176,143.176,0,0,1-6.971,30.826,78.731,78.731,0,0,1,14.016-8.01,7.6,7.6,0,0,1,1.686-.7c32.14-13.331,63.664-1.527,63.664-1.527-5,5.989-14.343,12.226-25.348,17.324,13.693-1.681,29.916,15.036,29.916,15.036,3.612,14.752-15,17.211-22.606,24.144,24.19,1.11,48.141-.128,68.122-4.1a1.751,1.751,0,0,1,.038-.792l.238-.786c-.609-3.683-1.4-10.157-.468-15.058.21-1.109.45-2.134.683-3.125,1.152-4.906,1.983-8.452-2.492-15.56a26.41,26.41,0,0,0-4.566-5.63,11.614,11.614,0,0,1-1.6-1.805,21.257,21.257,0,0,1-15.965,6.813c-11.044,0-20-7.632-20-17.048s8.953-17.046,20-17.046a22.14,22.14,0,0,1,12.489,3.745,60.461,60.461,0,0,0-3.691-5.846,5.785,5.785,0,0,0-3.533-2.692c-2.838-.906-3.8-2.319-3.515-8.452.127-2.788.276-4.708.4-6.25.3-3.8.356-4.59-.753-9.247-.492-2.062-.661-3.111-.773-3.806-.183-1.14-.183-1.14-2.11-5.26l-1.279-2.74a19.67,19.67,0,0,0-1.777-3.133,65.2,65.2,0,0,1-8.677,3.506C1806.176,798,1800.014,802.9,1793.755,807.641Z" transform="translate(-1226.832 -519.117)" fill="none" stroke="#61b0bc" stroke-miterlimit="10" stroke-width="1.375"/>
      <path id="Path_7759" data-name="Path 7759" d="M1286.331,477.8c-14.131-7.634-25.567-17.146-30.382-20.561A11.157,11.157,0,0,1,1251.3,446.9c-12.661,17.673-25.13,32.791-26.12,38.188-1.13,6.16,10.916,18.716,24.633,34.251.433-9.985,1.592-18.968,3.651-24.954C1256.679,485.047,1270.626,480.454,1286.331,477.8Z" transform="translate(-921.739 -314.251)" fill="none" stroke="#61b0bc" stroke-miterlimit="10" stroke-width="1.375"/>
      <path id="Path_7760" data-name="Path 7760" d="M1365.81,308.14a55.307,55.307,0,0,1,8.828-4.054,73.317,73.317,0,0,0-9.937-7.473,40.42,40.42,0,0,0-10.442-4.791,18.146,18.146,0,0,0-6.886-.62c2.48,9.913-2.336,23.12-9.974,36.78C1344.358,321.752,1353.675,315.067,1365.81,308.14Z" transform="translate(-991.027 -221.223)" fill="none" stroke="#61b0bc" stroke-miterlimit="10" stroke-width="1.375"/>
      <path id="Path_7761" data-name="Path 7761" d="M1715,426.969a59.123,59.123,0,0,0-9.737-4.657c-2.35-.913-4.967-1.821-7.807-2.687-1.835,3.267-3.15,5.442-3.15,5.442a124.374,124.374,0,0,1,6.46,22.018c1.191.131,2.391.275,3.6.447C1725.777,450.569,1724.074,432.718,1715,426.969Z" transform="translate(-1211.246 -297.963)" fill="none" stroke="#61b0bc" stroke-miterlimit="10" stroke-width="1.375"/>
      <path id="Path_7762" data-name="Path 7762" d="M1541.883,306.832c.068-.09.143-.18.209-.27,3.856-5.285,9.116-8.711,12.506-13.143,3.2-4.177,4.731-9.248,1.81-17.645a7.529,7.529,0,0,0-4.628-4.916c-5.384-1.959-13.974,1.421-22.064,7.011a73.9,73.9,0,0,0-9.3,7.628,62.05,62.05,0,0,0-5.2,5.674C1525.68,294.437,1534.783,300.638,1541.883,306.832Z" transform="translate(-1100.748 -208.805)" fill="none" stroke="#61b0bc" stroke-miterlimit="10" stroke-width="1.375"/>
      <path id="Path_7763" data-name="Path 7763" d="M1631.016,467.676a21.689,21.689,0,0,0-1.742-1.746c.332.544.635,1.112.924,1.694C1630.471,467.638,1630.745,467.658,1631.016,467.676Z" transform="translate(-1171.122 -325.611)" fill="none" stroke="#61b0bc" stroke-miterlimit="10" stroke-width="1.375"/>
      <path id="Path_7764" data-name="Path 7764" d="M1631.446,406.668c-.356-.031-.719-.049-1.076-.077.241.184.463.4.717.564C1631.2,406.991,1631.328,406.832,1631.446,406.668Z" transform="translate(-1171.798 -290.181)" fill="none" stroke="#61b0bc" stroke-miterlimit="10" stroke-width="1.375"/>
      <path id="Path_7765" data-name="Path 7765" d="M467.973,552.943c2.271,2.742,5.224,7.147,8.888,12.484a2.669,2.669,0,0,1,.955,1.387,244.383,244.383,0,0,0,22.641,28.865,21.827,21.827,0,0,1,6.374-.226c.895.1,1.789.207,2.678.3C500,581.313,488.448,563.781,488.2,564.2c-8.257-9.454-41.378-31.44-40.427-40.385-.694-22.016,26.661-26.94,31.571.474,8.724,31.779,22.4,52.206,35.964,71.894a23.341,23.341,0,0,0,6.135-.548c-14.658-31.654-58.589-87.7-9.648-76.606,13.094,10.029,1.593,29.756,13.213,75.069,4.318-2.939,6.115-9.582,2.882-23.613-2.8-12.147,3.848-23.181,12.31-31.81a56.19,56.19,0,0,1-25.469-77.621,25.586,25.586,0,0,0-8.928-.373c-23.068,2.382-63.231,3.89-68.986,20.619s-4.511,56.822.119,76.949c1.615,7.024,4.614,11.739,8.348,14.477C440.88,561.652,449.067,542.1,467.973,552.943Z" transform="translate(-432.966 -322.352)" fill="none" stroke="#61b0bc" stroke-miterlimit="10" stroke-width="1.375"/>
      <path id="Path_7766" data-name="Path 7766" d="M1290.131,1020.773c-15.754-.055-22.351,1.829-11.428,10.7a43.117,43.117,0,0,1,4.232,3.924c3.42-5.629,6.269-10.473,8.122-13.664A5.631,5.631,0,0,1,1290.131,1020.773Z" transform="translate(-951.481 -656.891)" fill="none" stroke="#61b0bc" stroke-miterlimit="10" stroke-width="1.375"/>
      <path id="Path_7767" data-name="Path 7767" d="M1464.826,1096.669a45.612,45.612,0,0,1-4.046,5.456c-19.936,22.212-54.926,23.4-78.2,5.044a87.752,87.752,0,0,1,.828,13.643c12.08,6.309,24.768,9.647,37.371,8.74a93.2,93.2,0,0,0,55.07-23.291c-.4-.248-.811-.458-1.208-.719A42.077,42.077,0,0,1,1464.826,1096.669Z" transform="translate(-1018.906 -702.207)" fill="none" stroke="#61b0bc" stroke-miterlimit="10" stroke-width="1.375"/>
      <path id="Path_7768" data-name="Path 7768" d="M1658.609,853.555c-.584.081-1.152.2-1.749.252a14.322,14.322,0,0,0-10.47,6.165c-.52.742-1.086,1.41-1.637,2.1a96.545,96.545,0,0,1-2.973,23.143,90.464,90.464,0,0,1,2.639,26.523c.255-.746.507-1.486.74-2.186,2.514-7.542,5.995-8.3,9.33-6.268a22.817,22.817,0,0,1-.921-3.457C1650.756,884.219,1654.053,867.435,1658.609,853.555Z" transform="translate(-1178.838 -557.051)" fill="none" stroke="#61b0bc" stroke-miterlimit="10" stroke-width="1.375"/>
      <path id="Path_7769" data-name="Path 7769" d="M628.855,446.249A56.507,56.507,0,0,0,661,493.435c11.162-11.383,25.486-18.577,25.486-18.577a19.646,19.646,0,0,1,6.6,1.816,43.358,43.358,0,0,1,22.753-16.8c7.5-13.272,21.892-22.564,29.849-26.938q-.195-1.274-.448-2.526a55.558,55.558,0,0,0-9.312-21.464,58.665,58.665,0,0,0-52.1-24.082c-.076.006-.151.016-.227.022a60.133,60.133,0,0,0-25.666,7.928,59.244,59.244,0,0,0-20.5,19.755c-.666,1.062-1.307,2.14-1.9,3.245A56.2,56.2,0,0,0,628.855,446.249Z" transform="translate(-553.761 -277.114)" fill="none" stroke="#61b0bc" stroke-miterlimit="10" stroke-width="1.375"/>
      <path id="Path_7770" data-name="Path 7770" d="M1749.343,510.214c.119.218.247.428.364.648,6.685,12.532,13.709,45.13,10.861,73.811a52.392,52.392,0,0,0,7.343.749c4.745-10.062,8.947-17.144,8.947-17.144a46.075,46.075,0,0,1,4.975,15.734,53.049,53.049,0,0,0,18.026-7.972c6.872-16.614,15.911-24.461,15.911-24.461a42.27,42.27,0,0,1,.675,5.84q1.144-2.167,2.079-4.439a49.52,49.52,0,0,0,3.483-24.017,48.819,48.819,0,0,0-11.214-26.44,50.923,50.923,0,0,0-24.568-16.034C1774.018,501.2,1754.209,508.574,1749.343,510.214Z" transform="translate(-1245.207 -337.885)" fill="none" stroke="#61b0bc" stroke-miterlimit="10" stroke-width="1.375"/>
      <path id="Path_7771" data-name="Path 7771" d="M1730.566,509.6a42.858,42.858,0,0,1,5.063-20.518,52.956,52.956,0,0,0-14.72,8.154A62.689,62.689,0,0,1,1730.566,509.6Z" transform="translate(-1227.663 -339.434)" fill="none" stroke="#61b0bc" stroke-miterlimit="10" stroke-width="1.375"/>
      <path id="Path_7772" data-name="Path 7772" d="M1751.18,433.136a42.866,42.866,0,0,0-5.063,20.518c.424.708.831,1.432,1.232,2.164,4.866-1.64,24.675-9.012,36.882-23.726,7.651-9.222,12.311-21.317,8.377-36.709a122.085,122.085,0,0,0-25.493,17.718C1761.03,418.665,1755.166,425.4,1751.18,433.136Z" transform="translate(-1243.213 -283.489)" fill="none" stroke="#61b0bc" stroke-miterlimit="10" stroke-width="1.375"/>
      <path id="Path_7773" data-name="Path 7773" d="M1498.99,593.811c-.032-.924-.113-1.922-.223-2.961A5.912,5.912,0,0,0,1498.99,593.811Z" transform="translate(-1090.538 -400.197)" fill="none" stroke="#61b0bc" stroke-miterlimit="10" stroke-width="1.375"/>
      <path id="Path_7774" data-name="Path 7774" d="M1668.9,607.719c5.648-8.959,8.666-20.527,9.885-32.809,2.846-28.681-4.177-61.28-10.862-73.812-.117-.219-.244-.429-.364-.647-.4-.731-.809-1.456-1.231-2.163a62.681,62.681,0,0,0-9.657-12.363q-1.465-1.453-3.005-2.783c.477,8.051-1.9,9.947-1.9,9.947-11.373.218-22.385-16.232-28.444-22.9-.272-.018-.546-.039-.818-.052,8.063,16.219.267,46.564,18.425,48.106,24.1,2.046,27.253,23.1,4.814,37.612s-38.367,23.192-22.59,24.461,25.4,13.483,15.681,30.24a137.512,137.512,0,0,1-10.139,14.684,53.281,53.281,0,0,1,.648,7.908c.55-.693,1.115-1.36,1.636-2.1a14.32,14.32,0,0,1,10.47-6.164c.6-.056,1.165-.172,1.75-.252a165.313,165.313,0,0,1,13.525-30.443,62.14,62.14,0,0,1,6.36,20.812A40.487,40.487,0,0,0,1668.9,607.719Z" transform="translate(-1163.428 -328.122)" fill="none" stroke="#61b0bc" stroke-miterlimit="10" stroke-width="1.375"/>
      <path id="Path_7775" data-name="Path 7775" d="M1566.1,605.891c9.72-16.757.1-28.972-15.682-30.24s.151-9.951,22.589-24.461,19.285-35.566-4.813-37.613c-18.158-1.542-10.362-31.886-18.426-48.1-.289-.582-.592-1.151-.924-1.695a7.463,7.463,0,0,0-.784-.612c-5.042-3.284.479,2.526-32.89,26.774a40.167,40.167,0,0,1-8.193,4.58c-.748,5.321-3.773,11.525-6.854,16.549a8.628,8.628,0,0,0-1.2,3.043c.11,1.039.191,2.037.223,2.961,2.716,7.923,22.172,12.145,38.223,14.466,19.7,2.85,16.585,24.936,5.175,34.554s-22.821,19.236,1.993,35.155c6.8,4.361,10.137,11.4,11.425,19.326A137.612,137.612,0,0,0,1566.1,605.891Z" transform="translate(-1090.687 -323.458)" fill="none" stroke="#61b0bc" stroke-miterlimit="10" stroke-width="1.375"/>
      <path id="Path_7776" data-name="Path 7776" d="M713.639,701.648c6.027-11.309,16.716-21.485,26.948-29.411a40.948,40.948,0,0,1-20-61.974,19.645,19.645,0,0,0-6.6-1.816s-14.324,7.194-25.486,18.577c-8.461,8.629-15.108,19.663-12.309,31.81,3.233,14.031,1.436,20.674-2.882,23.613a229.81,229.81,0,0,0,7.353,23.24C688.539,699.906,701.986,698.019,713.639,701.648Z" transform="translate(-581.263 -410.704)" fill="none" stroke="#61b0bc" stroke-miterlimit="10" stroke-width="1.375"/>
      <path id="Path_7777" data-name="Path 7777" d="M1079,1063.749c8.93-6.1,25.3-31.476,36.034-49.147a42.941,42.941,0,0,0-4.231-3.924c-10.922-8.867-4.326-10.751,11.429-10.7a6.924,6.924,0,0,1-.781-1.236,36.538,36.538,0,0,0-10.522-12.8,21.28,21.28,0,0,1-.93,5.693c-3.683,12.221-23.227,55.287-54.049,55.623-15.923.174-25.11-11.811-30.28-23.437a87.766,87.766,0,0,1-5.25,11.325c-8.7,15.422-14.18,23.106-19.22,26.4,4.828,7.772,10.312,13.115,16.613,14.069,13.23,2,36.618-1.975,57.651-7.968C1075.129,1066.987,1076.077,1065.747,1079,1063.749Z" transform="translate(-783.581 -636.099)" fill="none" stroke="#61b0bc" stroke-miterlimit="10" stroke-width="1.375"/>
      <path id="Path_7778" data-name="Path 7778" d="M1727.814,1018.032c7.608-6.934,26.219-9.392,22.607-24.144,0,0-16.224-16.716-29.917-15.036-2.5,1.158-5.084,2.258-7.723,3.283-4.683,3.069-7.992,4.021-10.358,3.52-23.1,6.819-47.152,6.749-53.016-10.108-3.336-2.03-6.817-1.275-9.33,6.267-.233.7-.486,1.44-.74,2.186a134.452,134.452,0,0,1-5.793,33.9c42.266-39.274,90.275-6.418,95.753-3.084a158.557,158.557,0,0,1-30.8,17.608c1.989,1.669,4.157,3.508,6.484,5.445,12.768,10.626,23.712,4.47,20.178-10.415-.055-.229-.081-.441-.142-.674C1724.025,1023.006,1725.343,1020.284,1727.814,1018.032Z" transform="translate(-1173.755 -629.311)" fill="none" stroke="#61b0bc" stroke-miterlimit="10" stroke-width="1.375"/>
      <path id="Path_7779" data-name="Path 7779" d="M1756.161,946.679c.563-.249,1.124-.467,1.686-.7A7.632,7.632,0,0,0,1756.161,946.679Z" transform="translate(-1249.414 -612.234)" fill="none" stroke="#61b0bc" stroke-miterlimit="10" stroke-width="1.375"/>
      <path id="Path_7780" data-name="Path 7780" d="M1427.46,665.061a53.21,53.21,0,0,0-.647-7.907c-1.287-7.922-4.628-14.965-11.425-19.327-24.814-15.919-13.4-25.538-1.993-35.155s14.528-31.7-5.175-34.554c-16.051-2.321-35.507-6.544-38.223-14.467a5.9,5.9,0,0,1-.223-2.961,8.618,8.618,0,0,1,1.2-3.042c3.082-5.024,6.107-11.229,6.854-16.549-16.981,7.091-36,.969-51.694-7.51-15.7,2.651-29.652,7.245-32.867,16.587-2.059,5.986-3.218,14.969-3.651,24.954,9.564,10.831,19.918,23.106,27.216,35.688a46.239,46.239,0,0,1,3.972-2.578,35.8,35.8,0,0,1,10.956-4.149,62.233,62.233,0,0,1,8.266-11.076c24.651-26.662,43.534-6.911,50.013,9.821,12.361,31.924-6.032,45.026,16.536,79.96,2.234-6,3.977-9.693,3.977-9.693a55.051,55.051,0,0,1,13.931,25.1A96.62,96.62,0,0,0,1427.46,665.061Z" transform="translate(-961.545 -360.038)" fill="none" stroke="#61b0bc" stroke-miterlimit="10" stroke-width="1.375"/>
      <path id="Path_7781" data-name="Path 7781" d="M861.648,768.479c-2.457-3.448-5.359-5.268-3.34-9.073a11.5,11.5,0,0,1,4.438-4.459c-.709-2.522-1.32-5.077-1.845-7.647-5.256.056-7.754-2.974-7.754-8.968,0-.136,0-.266,0-.4a43.744,43.744,0,0,1-47.581,11.618c-10.232,7.926-20.922,18.1-26.948,29.41,13.411,4.178,24.435,15.658,21.829,36.9l41.563-13.744,7.8-2.589,0,.007,6.6-2.182a173.2,173.2,0,0,1,7.738-25.4C863.36,770.916,862.551,769.747,861.648,768.479Z" transform="translate(-646.245 -488.015)" fill="none" stroke="#61b0bc" stroke-miterlimit="10" stroke-width="1.375"/>
      <path id="Path_7782" data-name="Path 7782" d="M958.17,1061.443a87.758,87.758,0,0,0,5.25-11.325,84.854,84.854,0,0,1-5.228-16.269,24.305,24.305,0,0,1-12.1-3.869c-5.484,18.662-18.461,37.918-45.776,52.1,22,3.461,29.619,11.664,38.637,5.767C943.99,1084.549,949.473,1076.865,958.17,1061.443Z" transform="translate(-721.333 -662.389)" fill="none" stroke="#61b0bc" stroke-miterlimit="10" stroke-width="1.375"/>
      <path id="Path_7783" data-name="Path 7783" d="M1052.435,210.842a50.011,50.011,0,0,0,7.707,7.232,117.165,117.165,0,0,1,7.68,9.856,26.871,26.871,0,0,1,3.407-1.653c7.7-3.016,16.253-1.645,23.481,2.135,15.281,7.99,22.212,26.961,25.255,43.562,3.5,19.1-4.546,34.009-13.782,49.763-9.8,16.713-22.341,33.511-28.138,52.373a53.267,53.267,0,0,0-2.016,21.906,11.7,11.7,0,0,1,1.927-.768c7.223-2.069,14.447-4.136,5.88-16.939s9.5-33.2,9.5-33.2c15.879-4.755,14.953,26.278,27.447,22.283s18.045,5.927,9.5,17.9-14.911,19.653-6.744,17,15.3,1.479,13.576,11.926c-.291,1.752-.744,3.761-1.31,5.9a71.062,71.062,0,0,1,16.656,3.3,65.135,65.135,0,0,1,16.144-17.4c-7.3-12.582-17.652-24.857-27.216-35.688-13.717-15.535-25.763-28.091-24.633-34.251.99-5.4,13.458-20.516,26.119-38.188.439-6.77,5.452-15.719,16.811-25.893,7.638-13.661,12.454-26.867,9.974-36.781a17.978,17.978,0,0,0-1.867-4.755,20.886,20.886,0,0,0-4.025-4.747c-16.287-14.829-65.025-27.666-93.362-28.363C1053.718,196.933,1044.135,200.745,1052.435,210.842Z" transform="translate(-813.32 -165.228)" fill="none" stroke="#61b0bc" stroke-miterlimit="10" stroke-width="1.375"/>
      <path id="Path_7784" data-name="Path 7784" d="M1025.186,867.228a36.861,36.861,0,0,1,11.568,1.517,16.354,16.354,0,0,1,.827-6.2,23.568,23.568,0,0,1-1.984-1.836c-3.183-1.666-6.323-3.425-9.366-5.383-.451-.29-.9-.59-1.344-.887-4.831,2.679-8.717,1.042-13.341-3.08-4.023-3.587-6.433-7.394-4.33-11.732A82.453,82.453,0,0,1,997,826.276c-3.385.571-5.39-1.15-7.509-3.913a173.14,173.14,0,0,0-7.738,25.4l11.484-3.8s12.477,30.149,3.1,62.051a24.3,24.3,0,0,0,12.1,3.87c-.68-3.157-.934-5.173-.934-5.173C1005.429,894.842,1007.328,867.572,1025.186,867.228Z" transform="translate(-771.583 -538.427)" fill="none" stroke="#61b0bc" stroke-miterlimit="10" stroke-width="1.375"/>
      <path id="Path_7785" data-name="Path 7785" d="M1266.807,1063.271a59.975,59.975,0,0,1-20.1-29.68,75.031,75.031,0,0,1-2.3-9.585,4.823,4.823,0,0,1-1.7-.86c-1.853,3.191-4.7,8.035-8.122,13.664-10.738,17.671-27.1,43.044-36.035,49.148-2.924,2-3.872,3.239-3.537,3.908,1.272,2.549,21.356-3.255,24.364-8a4.605,4.605,0,0,1,.34-.476c.345-.418.614-.505.81-.344,1.661,1.363-2.037,21.489-12.671,30.2-10.281,8.429,18.252,19.234,28.957-17.552,11.752-40.381,16.956,4.283,20.9,9.974s7.071-8.128,4.052-14.51-1.6-14.322,3.921-9.322c1.183,1.07,1.783-.169,1.953-2.923A87.566,87.566,0,0,0,1266.807,1063.271Z" transform="translate(-903.13 -658.308)" fill="none" stroke="#61b0bc" stroke-miterlimit="10" stroke-width="1.375"/>
      <path id="Path_7786" data-name="Path 7786" d="M1105.65,937.87c-.985.273-1.889.477-2.79.68-1.069.241-2.08.431-3.044.584-10.67,1.677-15.366-1.772-22.653-3.92a36.85,36.85,0,0,0-11.568-1.516c-17.859.345-19.757,27.614-17.679,37.486,0,0,.255,2.016.935,5.173a84.909,84.909,0,0,0,5.227,16.27c5.171,11.626,14.358,23.61,30.281,23.436,30.822-.337,50.366-43.4,54.049-55.624a21.24,21.24,0,0,0,.93-5.692C1139.644,940.742,1123.932,932.8,1105.65,937.87Z" transform="translate(-811.991 -604.897)" fill="none" stroke="#61b0bc" stroke-miterlimit="10" stroke-width="1.375"/>
      <path id="Path_7787" data-name="Path 7787" d="M1112.082,878.962c4.235,3.524,9.939,5.706,17.3,5.049,27.25-2.431,44.123-24.809,44.123-24.809s-32.674-7.525-47.444,12.82c0,0-9.055-22.393-18.874-22.157-6.73.161-6.606,17.286,2.913,27.26A23.536,23.536,0,0,0,1112.082,878.962Z" transform="translate(-846.083 -554.847)" fill="none" stroke="#61b0bc" stroke-miterlimit="10" stroke-width="1.375"/>
      <path id="Path_7788" data-name="Path 7788" d="M1409.752,661.544c-6.478-16.733-25.362-36.483-50.013-9.822a62.335,62.335,0,0,0-8.266,11.076,30.367,30.367,0,0,1,22.721,4.442c4.78,11.028-9.26,28.055-26.481,33.05a22.9,22.9,0,0,0-2.438.878c.378,3.556.827,7.007,1.148,10.338a41.714,41.714,0,0,1,7.293-2.934c17.222-5,26.378-30.48,30.516-33.773s10.182,10.6,8.183,21.038-12.535,35.253-31.5,46.079c-11.284,6.439-21.057,5.114-27.125,2.983-7.562,12.671-14.906,28.4-11.259,49.543a74.945,74.945,0,0,0,2.3,9.585,59.969,59.969,0,0,0,20.1,29.68c23.27,18.356,58.261,17.167,78.2-5.044a45.6,45.6,0,0,0,4.046-5.456c-19.026-23.7-7.675-63.458-.885-81.7C1403.719,706.57,1422.113,693.469,1409.752,661.544Zm2.721,114.192c1.063,16.342-10.668,30.5-26.2,31.613s-28.985-11.224-30.047-27.566,10.668-30.5,26.2-31.613S1411.411,759.394,1412.473,775.735Z" transform="translate(-981.255 -428.745)" fill="none" stroke="#61b0bc" stroke-miterlimit="10" stroke-width="1.375"/>
      <path id="Path_7789" data-name="Path 7789" d="M1438.166,910.336c-15.532,1.117-27.263,15.271-26.2,31.613s14.515,28.684,30.047,27.566,27.263-15.271,26.2-31.613S1453.7,909.217,1438.166,910.336Z" transform="translate(-1036.995 -590.911)" fill="none" stroke="#61b0bc" stroke-miterlimit="10" stroke-width="1.375"/>
      <path id="Path_7790" data-name="Path 7790" d="M877.172,897.225,835.61,910.969c0,.015,0,.031-.007.047Z" transform="translate(-681.404 -583.125)" fill="none" stroke="#61b0bc" stroke-miterlimit="10" stroke-width="1.375"/>
      <path id="Path_7791" data-name="Path 7791" d="M730.207,938.031c9.375-31.9-3.1-62.05-3.1-62.05l-11.484,3.8-6.6,2.182c.132.313,27.3,64.984-40.377,94.258-67.845,29.344-99.9-47.727-99.9-47.727l24.346-8.077c-.02-.032-.037-.065-.058-.1l-35.669,11.8-6.924,2.29s40.208,96.666,125.3,59.86c3.053-1.32,5.936-2.7,8.69-4.134C711.746,975.949,724.723,956.693,730.207,938.031Z" transform="translate(-505.45 -570.44)" fill="none" stroke="#61b0bc" stroke-miterlimit="10" stroke-width="1.375"/>
      <path id="Path_7792" data-name="Path 7792" d="M730.71,893.389l-41.569,13.792c-1.153,9.338-4.935,20.558-12.307,33.877-.216-.1-35.1,7.42-50.081-6.245a38.893,38.893,0,0,1-4.171-5.551l-24.346,8.077s32.058,77.071,99.9,47.727c67.68-29.274,40.508-93.944,40.376-94.257l0-.008Z" transform="translate(-534.942 -579.289)" fill="none" stroke="#61b0bc" stroke-miterlimit="10" stroke-width="1.375"/>
      <path id="Path_7793" data-name="Path 7793" d="M777.733,614.05a41.33,41.33,0,0,0,27.235,35.983,43.743,43.743,0,0,0,47.582-11.617,41.385,41.385,0,0,0,10.767-30.525,40.818,40.818,0,0,0-.81-5.64c-.064-.309-.136-.613-.206-.92a41.583,41.583,0,0,0-27.209-29.806c-12.1,13.439-32.185,18.562-32.185,18.562a34.828,34.828,0,0,1,4.813-18.827,43.354,43.354,0,0,0-22.753,16.8A41.09,41.09,0,0,0,777.733,614.05Z" transform="translate(-645.644 -388.501)" fill="none" stroke="#61b0bc" stroke-miterlimit="10" stroke-width="1.375"/>
      <path id="Path_7794" data-name="Path 7794" d="M875.74,527.386c6.623-7.354,10.866-17.187,8.106-30.054,0,0-2.234.982-5.63,2.849-7.957,4.374-22.346,13.666-29.849,26.939a34.836,34.836,0,0,0-4.813,18.828S863.636,540.825,875.74,527.386Z" transform="translate(-686.292 -344.36)" fill="none" stroke="#61b0bc" stroke-miterlimit="10" stroke-width="1.375"/>
      <path id="Path_7795" data-name="Path 7795" d="M510.7,665.244c20.107,12.159,27.857,22.1,32.474,25.175a38.382,38.382,0,0,1,5.807-5.328c.426-.37.881-.721,1.348-1.064a230.088,230.088,0,0,1-7.353-23.24c-11.619-45.313-.118-65.041-13.212-75.069-48.941-11.1-5.011,44.952,9.648,76.606,3.06,6.608,4.845,12.154,4.243,15.8-3.395-5.155-6.883-10.182-10.378-15.254-13.567-19.688-27.24-40.115-35.964-71.894-4.91-27.414-32.266-22.491-31.571-.474-.952,8.944,32.169,30.93,40.426,40.385.246-.418,11.8,17.113,21.307,31.558,6.321,9.6,11.742,17.842,12.334,18.528a129.5,129.5,0,0,1-21.387-18.605A244.32,244.32,0,0,1,495.784,633.5q-.484-.7-.954-1.387c-3.664-5.337-6.616-9.742-8.887-12.485-18.907-10.84-27.092,8.709-22.688,19.78a10.278,10.278,0,0,0,6.637,6.436c8.911,3.371,16.673,6.749,23.514,10.059C500.021,659.109,505.738,662.242,510.7,665.244Z" transform="translate(-450.935 -389.042)" fill="none" stroke="#61b0bc" stroke-miterlimit="10" stroke-width="1.375"/>
      <path id="Path_7796" data-name="Path 7796" d="M706.629,907.835c7.373-13.318,11.154-24.538,12.307-33.877,0-.016,0-.032.007-.047,2.605-21.242-8.418-32.724-21.83-36.9-11.653-3.629-25.1-1.742-32.978,4.039-.467.343-.922.694-1.349,1.064a38.4,38.4,0,0,0-5.807,5.328c-11.47,12.882-14.211,33.017-4.659,48.5.02.032.037.065.057.1a38.9,38.9,0,0,0,4.171,5.55C671.528,915.254,706.413,907.731,706.629,907.835Z" transform="translate(-564.738 -546.067)" fill="none" stroke="#61b0bc" stroke-miterlimit="10" stroke-width="1.375"/>
      <path id="Path_7797" data-name="Path 7797" d="M1288.162,747.935c-2,10.438,4.047,24.33,8.183,21.038,3.937-3.134,12.425-26.35,28.077-32.9a22.793,22.793,0,0,1,2.438-.877c17.221-5,31.261-22.022,26.481-33.051a30.364,30.364,0,0,0-22.72-4.442,35.778,35.778,0,0,0-10.955,4.149,46.106,46.106,0,0,0-3.973,2.578,65.147,65.147,0,0,0-16.145,17.4C1293.085,731.724,1289.281,742.086,1288.162,747.935Z" transform="translate(-960.402 -463.654)" fill="none" stroke="#61b0bc" stroke-miterlimit="10" stroke-width="1.375"/>
      <path id="Path_7798" data-name="Path 7798" d="M1334.853,794.439a26.163,26.163,0,0,0,6.55,3.277c6.069,2.13,15.842,3.455,27.125-2.983,18.97-10.826,29.506-35.641,31.5-46.079s-4.046-24.33-8.184-21.037-13.294,28.777-30.515,33.773a41.7,41.7,0,0,0-7.292,2.934C1340.422,771.264,1330.773,785.025,1334.853,794.439Z" transform="translate(-988.873 -481.562)" fill="none" stroke="#61b0bc" stroke-miterlimit="10" stroke-width="1.375"/>
      <path id="Path_7799" data-name="Path 7799" d="M1298.1,379.266c4.816,3.414,16.251,12.926,30.382,20.561,15.7,8.479,34.714,14.6,51.693,7.51a40.162,40.162,0,0,0,8.193-4.581c33.37-24.248,27.849-30.058,32.89-26.774a7.641,7.641,0,0,1,.784.612,21.711,21.711,0,0,1,1.743,1.746c6.058,6.668,17.07,23.118,28.443,22.9,0,0,2.379-1.9,1.9-9.947a51.623,51.623,0,0,0-.725-5.9,124.389,124.389,0,0,0-6.46-22.018s1.314-2.175,3.149-5.442c2.254-4.012,5.291-9.668,7.651-14.971,1.867-4.2,3.313-8.172,3.6-10.934.271-2.572-1.533-3.585-4.579-3.268a29.241,29.241,0,0,0-9.768,3.471,71.49,71.49,0,0,0-23.464,20.527c-.12.164-.244.322-.36.488-.254-.168-.475-.38-.717-.565a12.7,12.7,0,0,1-1.727-1.6c-.242-.268-.5-.514-.724-.8a110.858,110.858,0,0,0-14.986-15.979c-7.1-6.194-16.2-12.395-26.662-15.66a51.416,51.416,0,0,0-9.923-2.075,46.584,46.584,0,0,0-10.339.056,47.988,47.988,0,0,0-10.6,2.515,55.3,55.3,0,0,0-8.828,4.054c-12.135,6.927-21.453,13.612-28.41,19.843-11.36,10.175-16.373,19.124-16.812,25.893A11.158,11.158,0,0,0,1298.1,379.266Z" transform="translate(-963.888 -236.275)" fill="none" stroke="#61b0bc" stroke-miterlimit="10" stroke-width="1.375"/>
      <path id="Path_7800" data-name="Path 7800" d="M1690.049,952.277c-5.477-3.333-53.487-36.189-95.753,3.085a134.405,134.405,0,0,0,5.793-33.9,90.424,90.424,0,0,0-2.638-26.522,55.061,55.061,0,0,0-13.931-25.1s-1.744,3.69-3.978,9.692c-6.791,18.245-18.14,58.007.886,81.7a42.1,42.1,0,0,0,9.817,8.874c.4.26.807.472,1.209.719a54.894,54.894,0,0,0,29.283,7.955,88.731,88.731,0,0,0,26.969-4.563c4.014-1.286,7.886-2.763,11.545-4.336A158.542,158.542,0,0,0,1690.049,952.277Z" transform="translate(-1134.509 -566.775)" fill="none" stroke="#61b0bc" stroke-miterlimit="10" stroke-width="1.375"/>
      <path id="Path_7801" data-name="Path 7801" d="M1768.251,844.157s-31.523-11.8-63.663,1.527c-.563.233-1.124.451-1.686.7a78.708,78.708,0,0,0-14.017,8.011,143.254,143.254,0,0,0,6.971-30.827,114.335,114.335,0,0,0,.731-13.663,89.132,89.132,0,0,0-.776-11.092,62.164,62.164,0,0,0-6.36-20.812,165.293,165.293,0,0,0-13.525,30.443c-4.556,13.88-7.853,30.664-5.041,46.274a22.8,22.8,0,0,0,.92,3.457c5.864,16.858,29.918,16.928,53.016,10.108,3.5-1.032,6.973-2.206,10.358-3.52,2.641-1.025,5.224-2.125,7.723-3.283C1753.908,856.383,1763.255,850.146,1768.251,844.157Z" transform="translate(-1196.155 -511.94)" fill="none" stroke="#61b0bc" stroke-miterlimit="10" stroke-width="1.375"/>
      <path id="Path_7802" data-name="Path 7802" d="M1778.927,757.524a93.386,93.386,0,0,0,4.077-8.657c4.157-9.957,9.678-27.069,7.414-43.656a46.092,46.092,0,0,0-4.974-15.733s-4.2,7.083-8.948,17.144c-6.64,14.079-14.339,34.005-13.109,48.693.6,7.114,3.283,13,9.21,16.378l.019.01c26.913,15.321,76.976-18.687,76.976-18.687s-11.714-5.13-28.878-5.407A86.366,86.366,0,0,0,1778.927,757.524Z" transform="translate(-1253.792 -459.085)" fill="none" stroke="#61b0bc" stroke-miterlimit="10" stroke-width="1.375"/>
      <path id="Path_7803" data-name="Path 7803" d="M1919.97,684.232c-.812-.25-1.668-.484-2.58-.69a38.231,38.231,0,0,0-9.77-.886,50.129,50.129,0,0,0-17.214,3.89,83.515,83.515,0,0,0-19.034,11.172s15.4-21.614,14.3-43.845a42.244,42.244,0,0,0-.676-5.84s-9.04,7.847-15.911,24.461a103.911,103.911,0,0,0-7.548,36.748,44.9,44.9,0,0,0,7,1.7,64.692,64.692,0,0,0,39.391-5.7,71.628,71.628,0,0,0,16.006-10.811c1.855-1.642,3.7-3.415,5.534-5.362A27.581,27.581,0,0,0,1919.97,684.232Z" transform="translate(-1314.434 -434.339)" fill="none" stroke="#61b0bc" stroke-miterlimit="10" stroke-width="1.375"/>
      <path id="Path_7804" data-name="Path 7804" d="M1105.763,630.86c8.7,5.567,19.26,13.582,13.522,17.607s-12.647,11.233-1.351,15.064,30.451,11.744,36.4,5.122c4.95-5.511,10.749-19.65,13.554-30.265.566-2.139,1.02-4.148,1.31-5.9,1.728-10.446-5.409-14.577-13.576-11.925s-1.8-5.032,6.744-17,2.992-21.892-9.5-17.9-11.569-27.038-27.448-22.282c0,0-18.07,20.4-9.5,33.2s1.344,14.871-5.88,16.939a11.682,11.682,0,0,0-1.927.768C1101.885,617.347,1097.856,625.8,1105.763,630.86Z" transform="translate(-845.396 -383.5)" fill="none" stroke="#61b0bc" stroke-miterlimit="10" stroke-width="1.375"/>
    </g>
  </g>
</svg>
