<svg xmlns="http://www.w3.org/2000/svg" width="208.212" height="370.959" viewBox="0 0 208.212 370.959">
  <g id="chef-illustraion" transform="translate(-17.068 -1989.824)">
    <g id="Group_1888" data-name="Group 1888" transform="translate(-2.932 2330.457)">
      <ellipse id="Ellipse_109" data-name="Ellipse 109" cx="85.966" cy="14.163" rx="85.966" ry="14.163" transform="translate(20 2)" fill="#ceeae0"/>
    </g>
    <g id="Group_2015" data-name="Group 2015" transform="translate(41.777 1989.824)">
      <g id="Group_1893" data-name="Group 1893" transform="translate(0 340.505)">
        <g id="Group_1890" data-name="Group 1890" transform="translate(0 3.244)">
          <g id="Group_1889" data-name="Group 1889">
            <path id="Path_5302" data-name="Path 5302" d="M5841.206,1250.536c-.323-2.033,6.727-7.906,9.493-8.976-.841.712-2.061,2.189-.806,2.806,1.836.9,5.565-.342,6.855-2.275a18.62,18.62,0,0,1,.361,5.032C5857.021,1248.96,5841.917,1255.045,5841.206,1250.536Z" transform="translate(-5841.195 -1241.56)" fill="#503629"/>
          </g>
        </g>
        <g id="Group_1892" data-name="Group 1892" transform="translate(6.212)">
          <g id="Group_1891" data-name="Group 1891">
            <path id="Path_5303" data-name="Path 5303" d="M5841.987,1245.171c-1.255-.618,1.733-3.448,2.575-4.161a18.569,18.569,0,0,1,3.109-1.752,2.851,2.851,0,0,0,1.115-1.605l1.414-.156a3.323,3.323,0,0,0,.382,2.617,4.683,4.683,0,0,1,.441,1.157C5849.734,1243.206,5843.823,1246.073,5841.987,1245.171Z" transform="translate(-5841.684 -1237.498)" fill="#ff97a6"/>
          </g>
        </g>
      </g>
      <g id="Group_1900" data-name="Group 1900" transform="translate(100.386 336.258)">
        <g id="Group_1896" data-name="Group 1896" transform="translate(0 9.195)">
          <g id="Group_1895" data-name="Group 1895">
            <g id="Group_1894" data-name="Group 1894">
              <path id="Path_5304" data-name="Path 5304" d="M5730.558,1249.128c.076-4.024-5.407-3.856-9.076-5.214,1.077.775,2.125,1.857.348,2.272-2.6.608-8.184-.517-9.75-2.492a12.263,12.263,0,0,0-1.008,4.662C5711,1250.088,5730.493,1252.47,5730.558,1249.128Z" transform="translate(-5711.072 -1243.694)" fill="#503629"/>
            </g>
          </g>
        </g>
        <g id="Group_1899" data-name="Group 1899" transform="translate(1.007)">
          <g id="Group_1898" data-name="Group 1898">
            <g id="Group_1897" data-name="Group 1897">
              <path id="Path_5305" data-name="Path 5305" d="M5730.553,1243.877c1.778-.416.729-1.5-.348-2.272a17.611,17.611,0,0,1-4.728-2.789c-1.427-1.335-1.013-6.635-1.013-6.635h-2.978s-.481,8.8-.684,9.2C5722.37,1243.36,5727.952,1244.484,5730.553,1243.877Z" transform="translate(-5720.804 -1232.181)" fill="#ff97a6"/>
            </g>
          </g>
        </g>
      </g>
      <g id="Group_1902" data-name="Group 1902" transform="translate(12.342 111.581)">
        <g id="Group_1901" data-name="Group 1901">
          <path id="Path_5306" data-name="Path 5306" d="M5796.843,950.958c.055.574,16.087,20.61,19.171,36.048,9.29,46.516-1.982,170.047-5.177,194.7-.432,3.325-7.241-.6-7.436-4.74-1.219-25.967-25.079-169.785-25.079-169.785L5723.658,1182.2l-7.584-1.409s3.785-71.892,8.146-124.249c2.272-27.291,1.759-62.916,27.863-97.54C5759.643,957.343,5785.108,950.033,5796.843,950.958Z" transform="translate(-5716.074 -950.877)" fill="#004245"/>
        </g>
      </g>
      <g id="Group_1904" data-name="Group 1904" transform="translate(16.704 111.598)">
        <g id="Group_1903" data-name="Group 1903">
          <path id="Path_5307" data-name="Path 5307" d="M5792.48,950.962c.055.574,16.087,20.61,19.171,36.048,9.29,46.515-1.982,170.047-5.177,194.7-.432,3.325-7.241-.6-7.436-4.74-1.219-25.968-25.079-169.786-25.079-169.786L5719.3,1182.2l-3.222-.6s18.971-103.35,28.326-129.9c11.1-31.51,36.614-100.315,36.614-100.315A103.741,103.741,0,0,1,5792.48,950.962Z" transform="translate(-5716.073 -950.899)" fill="#008675"/>
        </g>
      </g>
      <g id="Group_1905" data-name="Group 1905" transform="translate(40.734 58.519)">
        <path id="Path_5308" data-name="Path 5308" d="M5780.063,886.668c-4.26-1.567-10.5-4.862-36.853,1.711a35.2,35.2,0,0,0-8.546,3.787,23.951,23.951,0,0,1-2.01,16.2c3.008,5.636,4.02,17.5,4.646,22.406.984,7.712-2.31,22.424-2.31,22.424s29.528,4.257,38.309,3.609c7.215-.534,21.3-4.548,21.256-8.86a177.385,177.385,0,0,0-3.682-33.965C5787.758,899.9,5780.063,886.668,5780.063,886.668Z" transform="translate(-5732.655 -884.443)" fill="#f9f8ff"/>
      </g>
      <g id="Group_1906" data-name="Group 1906" transform="translate(29.708 105.315)">
        <path id="Path_5309" data-name="Path 5309" d="M5735.717,955.135a171.181,171.181,0,0,0-10.918,18.58c-3.974,8.234-5.514,15.42-6.655,19.278,0,0,32.583,27.5,84.515,5.89,0,0-.806-31.177-15.835-49.075S5735.717,955.135,5735.717,955.135Z" transform="translate(-5718.144 -943.033)" fill="#f9f8ff"/>
      </g>
      <g id="Group_1907" data-name="Group 1907" transform="translate(29.709 59.291)">
        <path id="Path_5310" data-name="Path 5310" d="M5772.257,962.116a147.524,147.524,0,0,1,7.655-13.556c.887-4.983,1.987-12.695,1.36-17.593s-1.637-16.77-4.644-22.406a23.959,23.959,0,0,0,2.008-16.2,35.21,35.21,0,0,1,8.545-3.787c5.655-1.41,10.382-2.366,14.365-2.982.415-.064,1.218-.181,1.218-.181s7.558,35.434,8.77,48.153c1.983,20.807-1.026,62.006-1.026,62.006s-10.413-.1-15.573-1.175c-18.752-3.9-29.333-13-29.333-13C5766.745,977.536,5768.284,970.35,5772.257,962.116Z" transform="translate(-5765.604 -885.409)" fill="#ceeae0"/>
      </g>
      <g id="Group_1908" data-name="Group 1908" transform="translate(68.762 58.614)">
        <path id="Path_5311" data-name="Path 5311" d="M5723.589,887.137c13.478,7.365,34.431,21.769,34.431,21.769s9.837,17.916-8.932,11.329c-18.86-6.62-32.7-18.663-45.129-27.488C5700.142,888.564,5711.235,880.386,5723.589,887.137Z" transform="translate(-5703.194 -884.561)" fill="#f9f8ff"/>
      </g>
      <g id="Group_1913" data-name="Group 1913" transform="translate(63.509 50.696)">
        <g id="Group_1910" data-name="Group 1910" transform="translate(0)">
          <g id="Group_1909" data-name="Group 1909">
            <path id="Path_5312" data-name="Path 5312" d="M5771.333,875.6s-.587,9.449.738,11.131c1.064,1.351,5.352,3.39,7.1.24a4.914,4.914,0,0,0,.344-2.708c-.214-3.944-2.357-9.618-2.357-9.618Z" transform="translate(-5771.203 -874.648)" fill="#ff97a6"/>
          </g>
        </g>
        <g id="Group_1912" data-name="Group 1912" transform="translate(0.01 2.485)">
          <g id="Group_1911" data-name="Group 1911">
            <path id="Path_5313" data-name="Path 5313" d="M5772.172,882.453c1.945,1.912,6.094.117,7.542-1.72a30.35,30.35,0,0,0-.8-2.974l-6.739.055C5772.155,879.47,5772.075,880.545,5772.172,882.453Z" transform="translate(-5772.125 -877.759)" fill="#c95d77"/>
          </g>
        </g>
      </g>
      <g id="Group_1914" data-name="Group 1914" transform="translate(110.448 43.913)">
        <path id="Path_5314" data-name="Path 5314" d="M5683.436,913.355s10.66-38.161,14.915-42.9c2.263-2.523,4.312-3.542,7.947-4.161,1.8-.306,6.8-.173,7.853,1.3,3.081,4.3-3.255,33.329-13.4,46.52C5693.617,923.384,5683.436,913.355,5683.436,913.355Z" transform="translate(-5683.436 -866.155)" fill="#f9f8ff"/>
      </g>
      <g id="Group_1915" data-name="Group 1915" transform="translate(11.177 62.2)">
        <path id="Path_5315" data-name="Path 5315" d="M5795.65,914.761c-6.162,10.519,15.171,6.815,15.171,6.815l25.746-22.241-.756-10.283S5803.917,900.65,5795.65,914.761Z" transform="translate(-5794.533 -889.051)" fill="#ceeae0"/>
      </g>
      <g id="Group_1916" data-name="Group 1916" transform="translate(9.873 85.619)">
        <path id="Path_5316" data-name="Path 5316" d="M5812.329,924.707c-3.363,11.718,7.075,41.624,20.875,42.34,5.133.267,8.123-6.042,8.123-6.042l-12.041-33.526S5816.841,908.986,5812.329,924.707Z" transform="translate(-5811.694 -918.372)" fill="#ceeae0"/>
      </g>
      <g id="Group_1917" data-name="Group 1917" transform="translate(36.698 125.001)">
        <path id="Path_5317" data-name="Path 5317" d="M5802.325,971.3s3.49-3.8,5.6-3.609c2.285.207,4.646,1.625,4.559,3-.059.929-2.062-.861-2.062-.861s1.491,2.068,1.228,2.475c-.239.371-1.462-.7-1.462-.7s.894.939.542,1.638-1.629-.8-2.585-.932-3.83,2.037-5.767,1.862C5801.665,974.106,5801.335,972.722,5802.325,971.3Z" transform="translate(-5801.705 -967.68)" fill="#ff97a6"/>
      </g>
      <g id="Group_1919" data-name="Group 1919" transform="translate(137.503 43.109)">
        <g id="Group_1918" data-name="Group 1918" transform="translate(0)">
          <path id="Path_5318" data-name="Path 5318" d="M5675.265,868.236s2.682,2.233,4.853,2.056a11.791,11.791,0,0,0,5.276-2.465c.31-.839-2.8.719-2.8.719s3.825-1.8,3.508-2.66c-.146-.4-1.511.158-1.511.158s.615-.013.282-.687-3.112.488-4.033.609-3.612-.19-5.472-.04C5674.678,865.982,5674.327,866.858,5675.265,868.236Z" transform="translate(-5674.694 -865.148)" fill="#ff97a6"/>
        </g>
      </g>
      <g id="Group_1920" data-name="Group 1920" transform="translate(77.623 58.538)">
        <path id="Path_5319" data-name="Path 5319" d="M5743.361,884.466a89.234,89.234,0,0,1,5.5,12.786,136.5,136.5,0,0,1,4,13.326c.6,2.24,1.047,4.518,1.571,6.777.484,2.268.892,4.552,1.324,6.83.347,2.293.748,4.578,1.049,6.878.266,2.3.6,4.6.81,6.91,1,9.225,1.311,18.517,1.413,27.8q.073,6.968-.082,13.938c-.068,4.648-.232,9.294-.44,13.94.847-9.265,1.221-18.571,1.311-27.879a261.942,261.942,0,0,0-1.2-27.907,175.594,175.594,0,0,0-5.011-27.485,133.8,133.8,0,0,0-4.289-13.3A82.542,82.542,0,0,0,5743.361,884.466Z" transform="translate(-5743.361 -884.466)" fill="#ceeae0"/>
      </g>
      <g id="Group_1921" data-name="Group 1921" transform="translate(55.448 61.624)">
        <path id="Path_5320" data-name="Path 5320" d="M5779.292,888.33c.885,4.4,1.752,8.8,2.549,13.21.824,4.406,1.615,8.819,2.328,13.244,1.448,8.842,2.766,17.714,3.527,26.63.446,4.455.6,8.917.6,13.39s-.28,8.94-.583,13.405c-.324,4.465-.825,8.918-1.434,13.356q-.869,6.666-2.159,13.272a191.867,191.867,0,0,0,4.369-26.561,146.607,146.607,0,0,0,.21-26.95q-.634-6.714-1.6-13.382c-.638-4.445-1.339-8.881-2.167-13.293C5783.318,905.821,5781.467,897.035,5779.292,888.33Z" transform="translate(-5779.292 -888.33)" fill="#f9f8ff"/>
      </g>
      <g id="Group_1930" data-name="Group 1930" transform="translate(74.343 62.2)">
        <g id="Group_1922" data-name="Group 1922" transform="translate(0)">
          <ellipse id="Ellipse_110" data-name="Ellipse 110" cx="1.298" cy="1.298" rx="1.298" ry="1.298" fill="#ceeae0"/>
        </g>
        <g id="Group_1923" data-name="Group 1923" transform="translate(5.668 12.045)">
          <path id="Path_5321" data-name="Path 5321" d="M5757.728,905.43a1.3,1.3,0,1,0,1.3-1.3A1.3,1.3,0,0,0,5757.728,905.43Z" transform="translate(-5757.728 -904.132)" fill="#ceeae0"/>
        </g>
        <g id="Group_1924" data-name="Group 1924" transform="translate(8.716 24.205)">
          <path id="Path_5322" data-name="Path 5322" d="M5753.912,920.654a1.3,1.3,0,1,0,1.3-1.3A1.3,1.3,0,0,0,5753.912,920.654Z" transform="translate(-5753.912 -919.356)" fill="#ceeae0"/>
        </g>
        <g id="Group_1925" data-name="Group 1925" transform="translate(11.312 36.138)">
          <path id="Path_5323" data-name="Path 5323" d="M5750.663,935.595a1.3,1.3,0,1,0,1.3-1.3A1.3,1.3,0,0,0,5750.663,935.595Z" transform="translate(-5750.663 -934.297)" fill="#ceeae0"/>
        </g>
        <g id="Group_1926" data-name="Group 1926" transform="translate(12.61 49.634)">
          <path id="Path_5324" data-name="Path 5324" d="M5749.038,952.492a1.3,1.3,0,1,0,1.3-1.3A1.3,1.3,0,0,0,5749.038,952.492Z" transform="translate(-5749.038 -951.194)" fill="#ceeae0"/>
        </g>
        <g id="Group_1927" data-name="Group 1927" transform="translate(13.908 61.503)">
          <ellipse id="Ellipse_111" data-name="Ellipse 111" cx="1.298" cy="1.298" rx="1.298" ry="1.298" transform="translate(0)" fill="#ceeae0"/>
        </g>
        <g id="Group_1928" data-name="Group 1928" transform="translate(13.908 79.126)">
          <path id="Path_5325" data-name="Path 5325" d="M5747.412,989.417a1.3,1.3,0,1,0,1.3-1.3A1.3,1.3,0,0,0,5747.412,989.417Z" transform="translate(-5747.412 -988.119)" fill="#ceeae0"/>
        </g>
        <g id="Group_1929" data-name="Group 1929" transform="translate(13.215 95.657)">
          <path id="Path_5326" data-name="Path 5326" d="M5748.278,1010.115a1.3,1.3,0,1,0,1.3-1.3A1.3,1.3,0,0,0,5748.278,1010.115Z" transform="translate(-5748.278 -1008.817)" fill="#ceeae0"/>
        </g>
      </g>
      <g id="Group_1939" data-name="Group 1939" transform="translate(59.143 63.75)">
        <g id="Group_1931" data-name="Group 1931" transform="translate(0)">
          <path id="Path_5327" data-name="Path 5327" d="M5783.857,892.228a1.3,1.3,0,1,0,1.357-1.236A1.3,1.3,0,0,0,5783.857,892.228Z" transform="translate(-5783.856 -890.991)" fill="#f9f8ff"/>
        </g>
        <g id="Group_1932" data-name="Group 1932" transform="translate(5.101 12.296)">
          <path id="Path_5328" data-name="Path 5328" d="M5777.471,907.623a1.3,1.3,0,1,0,1.356-1.236A1.3,1.3,0,0,0,5777.471,907.623Z" transform="translate(-5777.469 -906.386)" fill="#f9f8ff"/>
        </g>
        <g id="Group_1933" data-name="Group 1933" transform="translate(7.58 24.584)">
          <path id="Path_5329" data-name="Path 5329" d="M5774.368,923.008a1.3,1.3,0,1,0,1.358-1.236A1.3,1.3,0,0,0,5774.368,923.008Z" transform="translate(-5774.366 -921.771)" fill="#f9f8ff"/>
        </g>
        <g id="Group_1934" data-name="Group 1934" transform="translate(9.617 36.625)">
          <path id="Path_5330" data-name="Path 5330" d="M5771.816,938.085a1.3,1.3,0,1,0,1.356-1.236A1.3,1.3,0,0,0,5771.816,938.085Z" transform="translate(-5771.815 -936.847)" fill="#f9f8ff"/>
        </g>
        <g id="Group_1935" data-name="Group 1935" transform="translate(10.285 50.167)">
          <path id="Path_5331" data-name="Path 5331" d="M5770.98,955.039a1.3,1.3,0,1,0,1.357-1.236A1.3,1.3,0,0,0,5770.98,955.039Z" transform="translate(-5770.979 -953.801)" fill="#f9f8ff"/>
        </g>
        <g id="Group_1936" data-name="Group 1936" transform="translate(11.029 62.084)">
          <path id="Path_5332" data-name="Path 5332" d="M5770.049,969.96a1.3,1.3,0,1,0,1.356-1.236A1.3,1.3,0,0,0,5770.049,969.96Z" transform="translate(-5770.047 -968.722)" fill="#f9f8ff"/>
        </g>
        <g id="Group_1937" data-name="Group 1937" transform="translate(10.208 79.687)">
          <path id="Path_5333" data-name="Path 5333" d="M5771.075,992a1.3,1.3,0,1,0,1.357-1.236A1.3,1.3,0,0,0,5771.075,992Z" transform="translate(-5771.074 -990.762)" fill="#f9f8ff"/>
        </g>
        <g id="Group_1938" data-name="Group 1938" transform="translate(8.748 96.168)">
          <path id="Path_5334" data-name="Path 5334" d="M5772.9,1012.634a1.3,1.3,0,1,0,1.357-1.236A1.3,1.3,0,0,0,5772.9,1012.634Z" transform="translate(-5772.903 -1011.397)" fill="#f9f8ff"/>
        </g>
      </g>
      <g id="Group_1940" data-name="Group 1940" transform="translate(53.62 34.459)">
        <path id="Path_5335" data-name="Path 5335" d="M5782.509,854.815c-5.129-2.36-13.5,4.349-14.458,6.362-1.053,2.209.428,4.755,1.488,6.672s7.187,9.211,13.833,6.688C5795.89,869.784,5782.509,854.815,5782.509,854.815Z" transform="translate(-5767.689 -854.318)" fill="#ff97a6"/>
      </g>
      <g id="Group_1941" data-name="Group 1941" transform="translate(52.873 39.58)">
        <path id="Path_5336" data-name="Path 5336" d="M5791.554,860.73s2.926,10.31,1.707,11.116-5.172-5.417-5.247-8.2S5791.554,860.73,5791.554,860.73Z" transform="translate(-5788.012 -860.73)" fill="#df4661"/>
      </g>
      <g id="Group_1942" data-name="Group 1942" transform="translate(48.7 0.525)">
        <path id="Path_5337" data-name="Path 5337" d="M5781.146,823.668a7.993,7.993,0,1,0,3.168-10.85A7.995,7.995,0,0,0,5781.146,823.668Z" transform="translate(-5780.162 -811.832)" fill="#f9f8ff"/>
      </g>
      <g id="Group_1943" data-name="Group 1943" transform="translate(26.989 14.396)">
        <path id="Path_5338" data-name="Path 5338" d="M5808.333,841.034a7.992,7.992,0,1,0,3.167-10.85A7.993,7.993,0,0,0,5808.333,841.034Z" transform="translate(-5807.347 -829.199)" fill="#eeeafe"/>
      </g>
      <g id="Group_1944" data-name="Group 1944" transform="translate(31.01 0)">
        <path id="Path_5339" data-name="Path 5339" d="M5795.728,827.717a11.171,11.171,0,1,0,4.426-15.165A11.172,11.172,0,0,0,5795.728,827.717Z" transform="translate(-5794.351 -811.175)" fill="#f9f8ff"/>
      </g>
      <g id="Group_1945" data-name="Group 1945" transform="translate(34.249 11.66)">
        <path id="Path_5340" data-name="Path 5340" d="M5800.629,825.884l8.869,23.936s-3.612-1.8-9.6,1.589a10.749,10.749,0,0,0-5.846,7.921l-19.372-19.223S5796.315,824.307,5800.629,825.884Z" transform="translate(-5774.676 -825.773)" fill="#f9f8ff"/>
      </g>
      <g id="Group_1946" data-name="Group 1946" transform="translate(26.989 1.377)">
        <path id="Path_5341" data-name="Path 5341" d="M5790.854,826.9c.208-.114.426-.177.639-.271a11.143,11.143,0,0,1,4.519-13.433c.168-.1.517-.3.517-.3a11.19,11.19,0,0,0-.416,7.142,14.364,14.364,0,0,0,4.784,6.93l18.283,21.847s-.273.157-.4.236a10.645,10.645,0,0,0-5.442,7.684l-15.6-15.479a7.971,7.971,0,0,1-6.88-14.358Z" transform="translate(-5786.701 -812.899)" fill="#ceeae0"/>
      </g>
      <g id="Group_1947" data-name="Group 1947" transform="translate(57.225 21.992)">
        <path id="Path_5342" data-name="Path 5342" d="M5769.5,854.856s-3.342-4.929,2.882-7.755,9.624-6.616,10.1-8.392a7.75,7.75,0,0,1,2.147,3.125c1.09,3.638,1.125,9.524-2.147,12.4C5777.658,858.481,5769.5,854.856,5769.5,854.856Z" transform="translate(-5768.607 -838.709)" fill="#df4661"/>
      </g>
      <g id="Group_1948" data-name="Group 1948" transform="translate(59.472 21.674)">
        <path id="Path_5343" data-name="Path 5343" d="M5769.7,847.021a29.2,29.2,0,0,0,5.886-3.236,21.113,21.113,0,0,0,2.57-2.207,7.806,7.806,0,0,0,1.951-2.867l-.505.156a7.246,7.246,0,0,1,1.978,2.828,15.421,15.421,0,0,1,.626,3.505,12.8,12.8,0,0,1-1.188,6.921,7.691,7.691,0,0,1-5.674,3.762,16.976,16.976,0,0,1-7.175-.605,15.956,15.956,0,0,0,7.238,1.032,7.974,7.974,0,0,0,6.17-3.875,13.218,13.218,0,0,0,1.341-7.287,16,16,0,0,0-.706-3.669,7.866,7.866,0,0,0-2.2-3.085.306.306,0,0,0-.432.02.3.3,0,0,0-.065.112l-.007.024a8.031,8.031,0,0,1-1.734,2.668,20.659,20.659,0,0,1-2.428,2.247A32.572,32.572,0,0,1,5769.7,847.021Z" transform="translate(-5768.17 -838.311)" fill="#e89cae"/>
      </g>
      <g id="Group_1949" data-name="Group 1949" transform="translate(101.667 32.65)">
        <path id="Path_5344" data-name="Path 5344" d="M5631.4,858.53c0,3.577,18.319,6.477,40.918,6.477s40.918-2.9,40.918-6.477-18.32-6.477-40.918-6.477S5631.4,854.953,5631.4,858.53Z" transform="translate(-5631.404 -852.053)" fill="#eeeafe"/>
      </g>
      <g id="Group_1950" data-name="Group 1950" transform="translate(112.597 34.334)">
        <path id="Path_5345" data-name="Path 5345" d="M5643.036,858.408c0,2.345,13.793,4.246,30.808,4.246s30.808-1.9,30.808-4.246-13.794-4.246-30.808-4.246S5643.036,856.063,5643.036,858.408Z" transform="translate(-5643.036 -854.162)" fill="#e1d9ff"/>
      </g>
      <g id="Group_1951" data-name="Group 1951" transform="translate(117.428 22.931)">
        <path id="Path_5346" data-name="Path 5346" d="M5651.135,847.024a6.345,6.345,0,0,1,3.808-2.416l-.008.031a12.472,12.472,0,0,1,3.045-2.674,5.713,5.713,0,0,1,2.97-1.957,7.179,7.179,0,0,1,5.325,1.347c1.5.938,2.894,2.091,4.452,2.881a1.984,1.984,0,0,0,.912-.12c.481-.246,1.164-.728,2.052-1.13a4.426,4.426,0,0,1,1.732-1.129,4.313,4.313,0,0,1,4.546,1.3,11.684,11.684,0,0,1,1.37.76,5.068,5.068,0,0,1,2.917-1.072,6.123,6.123,0,0,1,4.551,2.357,16.069,16.069,0,0,1,2.669,4.945l-.016,0a5.878,5.878,0,0,0,1.363,1.089,11.346,11.346,0,0,1,1.54-1.686,4.03,4.03,0,0,1,3.8-1.053,3.92,3.92,0,0,1,2.118,2.007,6.8,6.8,0,0,1,.621,2.084h0s.653,1.841-.284,2.7l-.009.006a2.451,2.451,0,0,1-.929.85,5.269,5.269,0,0,1-2.226.419l-2.619.106-1.029.042a30.626,30.626,0,0,1-6.046.042c-.062,0-.12-.014-.181-.021-.042-.005-.088-.009-.127-.014a22.642,22.642,0,0,0-5.846-.006,8.03,8.03,0,0,1-3.5,1.082c-1.3-.047-2.5-.835-3.732-1.359l-.3-.055.052.084-.561-.133-2.728.024a5.223,5.223,0,0,1,1.258-.34l-.1-.018a2.324,2.324,0,0,0-.429.108,7.561,7.561,0,0,1-.862.252h.132a10.573,10.573,0,0,1-2.256.764,4.493,4.493,0,0,1-2.269-.326,14.7,14.7,0,0,1-3.315-.37l-5.482.048a8.056,8.056,0,0,1-4.668.04,3.649,3.649,0,0,1-.925-.541l-.027.1a3.267,3.267,0,0,1-1.83-1.748,5.994,5.994,0,0,1-.513-2.69A7.946,7.946,0,0,1,5651.135,847.024Zm24.608,9.291-.08-.016.01.017Z" transform="translate(-5649.56 -839.885)" fill="#ffcb48"/>
      </g>
      <g id="Group_2008" data-name="Group 2008" transform="translate(117.175 22.707)">
        <g id="Group_1953" data-name="Group 1953" transform="translate(39.11 8.358)">
          <g id="Group_1952" data-name="Group 1952" transform="translate(0)">
            <path id="Path_5347" data-name="Path 5347" d="M5662.135,855.65a16.4,16.4,0,0,0-.569-2.271c-.676-1.629-1.4-2.279-3.161-2.24-2.292.053-3.238,1.368-4.564,3.03-1.2,1.5-2.346,2.99-4.2,3.642-.026.01-.039-.029-.019-.043,2.88-2.011,4.389-7.408,8.374-7.691,2.891-.205,4.5,3.055,4.272,5.555-.006.071-.112.1-.132.018Z" transform="translate(-5649.611 -850.069)" fill="#ffe5b0"/>
          </g>
        </g>
        <g id="Group_1955" data-name="Group 1955" transform="translate(41.02 10.279)">
          <g id="Group_1954" data-name="Group 1954">
            <path id="Path_5348" data-name="Path 5348" d="M5660.171,856.956a5.663,5.663,0,0,0-.1-1.943,2.543,2.543,0,0,0-4.058-1.248c-.92.763-1.4,2.054-2.088,3-.76,1.049-1.84,2.011-3.193,1.537a.079.079,0,0,1,.02-.155c3.362-.441,3.541-5.891,7.053-5.67a3.16,3.16,0,0,1,2.485,4.508.066.066,0,0,1-.123-.033Z" transform="translate(-5650.679 -852.474)" fill="#ffe5b0"/>
          </g>
        </g>
        <g id="Group_1957" data-name="Group 1957" transform="translate(43.858 12.167)">
          <g id="Group_1956" data-name="Group 1956" transform="translate(0)">
            <path id="Path_5349" data-name="Path 5349" d="M5657.791,857.676c-.067-.221-.11-.444-.168-.667-.214-.81-.134-.881-1.067-1.061-.866-.167-.692-.24-1.137.228-.246.257-.487.518-.732.777a14.014,14.014,0,0,1-2.512,2.345c-.065.042-.137-.039-.1-.1a13.339,13.339,0,0,1,2.049-2.507c.535-.576,1.176-1.561,1.984-1.79,1.55-.439,2.039,1.653,1.909,2.748a.114.114,0,0,1-.222.029Z" transform="translate(-5652.061 -854.839)" fill="#ffe5b0"/>
          </g>
        </g>
        <g id="Group_1959" data-name="Group 1959" transform="translate(27.987 2.916)">
          <g id="Group_1958" data-name="Group 1958" transform="translate(0)">
            <path id="Path_5350" data-name="Path 5350" d="M5675.628,850.879c-1.7-3.473-4.776-9.227-9.511-6.343-3.573,2.177-3.76,6.565-4.417,10.22-.016.089-.146.062-.151-.02-.213-4,1.162-9.91,5.575-11.247,4.563-1.382,7.634,3.649,8.681,7.315.03.1-.127.175-.177.074Z" transform="translate(-5661.528 -843.255)" fill="#ffe5b0"/>
          </g>
        </g>
        <g id="Group_1961" data-name="Group 1961" transform="translate(29.985 5.2)">
          <g id="Group_1960" data-name="Group 1960">
            <path id="Path_5351" data-name="Path 5351" d="M5673.857,852.771c-1.458-2.542-2.9-7.106-6.75-5.948-3.631,1.093-4.021,6.021-4.182,9.179,0,.088-.15.12-.164.022-.469-3.228.521-8.68,4.217-9.75s6.245,3.526,7.056,6.422a.1.1,0,0,1-.177.074Z" transform="translate(-5662.653 -846.115)" fill="#ffe5b0"/>
          </g>
        </g>
        <g id="Group_1963" data-name="Group 1963" transform="translate(31.96 7.867)">
          <g id="Group_1962" data-name="Group 1962" transform="translate(0)">
            <path id="Path_5352" data-name="Path 5352" d="M5672.183,854.6c-1.016-1.782-2.066-5.352-4.868-4.5-2.5.756-2.663,3.828-3.022,5.926-.027.151-.237.1-.249-.034-.247-2.378.708-6.079,3.533-6.5,2.7-.4,4.411,2.828,4.758,5.048.013.088-.1.153-.151.065Z" transform="translate(-5664.006 -849.454)" fill="#ffe5b0"/>
          </g>
        </g>
        <g id="Group_1965" data-name="Group 1965" transform="translate(33.52 9.914)">
          <g id="Group_1964" data-name="Group 1964">
            <path id="Path_5353" data-name="Path 5353" d="M5670.742,856.291c-.5-1.066-1.585-3.373-2.846-3.644-2.192-.471-2.083,2.8-2.534,3.97-.06.157-.321.2-.362,0-.328-1.573.488-4.33,2.363-4.582,2.029-.274,3.141,2.669,3.592,4.167.038.124-.156.211-.213.089Z" transform="translate(-5664.93 -852.017)" fill="#ffe5b0"/>
          </g>
        </g>
        <g id="Group_1967" data-name="Group 1967" transform="translate(35.16 12.928)">
          <g id="Group_1966" data-name="Group 1966" transform="translate(0)">
            <path id="Path_5354" data-name="Path 5354" d="M5669.432,858.476a5.606,5.606,0,0,0-1.564-2.061c-.992-.585-1.092,1.726-1.211,2.272-.059.267-.417.175-.442-.06-.09-.826.193-2.94,1.376-2.832,1.079.1,1.737,1.749,1.984,2.622a.078.078,0,0,1-.142.059Z" transform="translate(-5666.198 -855.791)" fill="#ffe5b0"/>
          </g>
        </g>
        <g id="Group_1969" data-name="Group 1969" transform="translate(14.665 5.314)">
          <g id="Group_1968" data-name="Group 1968">
            <path id="Path_5355" data-name="Path 5355" d="M5691.59,857.041c-2.549,2.157-5.227-.189-6.557-2.528s-2.061-5.2-4.366-6.833c-4.9-3.47-6.212,5.915-6.542,8.4a.079.079,0,0,1-.158,0c-.231-2.514,1.212-10.493,5.105-9.775,5.04.93,6.544,14.543,12.354,10.526.124-.086.278.112.162.211Z" transform="translate(-5673.944 -846.258)" fill="#ffe5b0"/>
          </g>
        </g>
        <g id="Group_1971" data-name="Group 1971" transform="translate(16.03 7.761)">
          <g id="Group_1970" data-name="Group 1970">
            <path id="Path_5356" data-name="Path 5356" d="M5691.573,858.655c-1.528-2.287-2.736-4.779-4.277-7.057-.748-1.105-1.494-1.993-2.918-1.609a2.4,2.4,0,0,0-1.751,1.537,13.393,13.393,0,0,0-1.268,5.168.15.15,0,0,1-.3,0c.01-2.042.774-7.441,3.721-7.372,1.373.032,2.281,1.353,2.937,2.381a78.85,78.85,0,0,1,3.974,6.884.068.068,0,0,1-.117.068Z" transform="translate(-5681.058 -849.321)" fill="#ffe5b0"/>
          </g>
        </g>
        <g id="Group_1973" data-name="Group 1973" transform="translate(17.667 9.724)">
          <g id="Group_1972" data-name="Group 1972" transform="translate(0)">
            <path id="Path_5357" data-name="Path 5357" d="M5690.42,858.9a45.8,45.8,0,0,1-3.25-5.016c-.219-.351-.591-1.2-.953-1.346l-1.648.36a4.636,4.636,0,0,0-.4.716,7.877,7.877,0,0,0-.651,3.573c0,.125-.177.119-.19,0-.142-1.324.217-5.832,2.453-5.377.858.175,1.355,1.193,1.761,1.858a43.077,43.077,0,0,1,2.969,5.164c.022.052-.043.121-.087.067Z" transform="translate(-5683.298 -851.78)" fill="#ffe5b0"/>
          </g>
        </g>
        <g id="Group_1975" data-name="Group 1975" transform="translate(18.679 12.166)">
          <g id="Group_1974" data-name="Group 1974" transform="translate(0)">
            <path id="Path_5358" data-name="Path 5358" d="M5689.843,858.938c-.571-.931-1.215-1.811-1.777-2.752-.312-.524-.866-1.224-1.38-.381a4.5,4.5,0,0,0-.279,1.64c-.029.164-.267.141-.309,0-.259-.881.035-2.946,1.417-2.561.531.148.813.733,1.063,1.168.524.909.946,1.863,1.453,2.777a.109.109,0,0,1-.188.109Z" transform="translate(-5686.013 -854.837)" fill="#ffe5b0"/>
          </g>
        </g>
        <g id="Group_1977" data-name="Group 1977" transform="translate(22.661 1.76)">
          <g id="Group_1976" data-name="Group 1976" transform="translate(0)">
            <path id="Path_5359" data-name="Path 5359" d="M5683.684,843.837c-2.9-2.821-6.812-1.215-7.548,2.628-.059.312-.535.179-.476-.132.729-3.935,5.454-6.378,8.277-2.748.137.176-.083.416-.252.252Z" transform="translate(-5675.654 -841.808)" fill="#ffe5b0"/>
          </g>
        </g>
        <g id="Group_1979" data-name="Group 1979" transform="translate(24.697 3.47)">
          <g id="Group_1978" data-name="Group 1978" transform="translate(0)">
            <path id="Path_5360" data-name="Path 5360" d="M5682.151,845.249c-2.409-2.08-4.094.582-4.519,2.868-.061.32-.548.184-.487-.134.276-1.493.877-3.212,2.394-3.855a1.944,1.944,0,0,1,2.7,1.07.054.054,0,0,1-.09.052Z" transform="translate(-5677.14 -843.949)" fill="#ffe5b0"/>
          </g>
        </g>
        <g id="Group_1981" data-name="Group 1981" transform="translate(25.745 5.371)">
          <g id="Group_1980" data-name="Group 1980" transform="translate(0)">
            <path id="Path_5361" data-name="Path 5361" d="M5681.162,846.783a1.178,1.178,0,0,0-1.105.28,3.755,3.755,0,0,0-.391.375,4.72,4.72,0,0,0-.656.943c-.315.6-.3,1.381-.666,1.916-.061.088-.226.12-.278,0-.57-1.34,1.664-4.95,3.252-3.717.12.093-.033.265-.156.2Z" transform="translate(-5677.975 -846.329)" fill="#ffe5b0"/>
          </g>
        </g>
        <g id="Group_1983" data-name="Group 1983" transform="translate(26.359 7.767)">
          <g id="Group_1982" data-name="Group 1982" transform="translate(0)">
            <path id="Path_5362" data-name="Path 5362" d="M5680.905,849.463a6.067,6.067,0,0,0-1.115,1.429,6.89,6.89,0,0,0-.515,1.828c-.055.247-.382.16-.408-.055a3.42,3.42,0,0,1,1.962-3.331c.076-.028.125.077.076.129Z" transform="translate(-5678.851 -849.329)" fill="#ffe5b0"/>
          </g>
        </g>
        <g id="Group_1985" data-name="Group 1985" transform="translate(5.877)">
          <g id="Group_1984" data-name="Group 1984">
            <path id="Path_5363" data-name="Path 5363" d="M5702.9,844.509c-3.605-1.3-7.1-6.206-11.329-3.8-4.178,2.379-4.4,8.537-3.918,12.691.014.119-.177.14-.207.028-1.059-4.109-.416-10.025,3.26-12.761,4.182-3.113,8.885,1.384,12.288,3.625.1.069.041.265-.093.216Z" transform="translate(-5686.984 -839.605)" fill="#ffe5b0"/>
          </g>
        </g>
        <g id="Group_1987" data-name="Group 1987" transform="translate(7.386 2.058)">
          <g id="Group_1986" data-name="Group 1986">
            <path id="Path_5364" data-name="Path 5364" d="M5702.394,844.794c-.89-.362-1.645-.893-2.493-1.337-2.411-1.263-4.937-.823-6.417,1.566a13.056,13.056,0,0,0-1.372,9.111c.027.169-.219.247-.262.073-.846-3.423-.424-8.069,2.2-10.691s6.04-.934,8.376,1.223c.023.022,0,.069-.033.056Z" transform="translate(-5691.457 -842.182)" fill="#ffe5b0"/>
          </g>
        </g>
        <g id="Group_1989" data-name="Group 1989" transform="translate(8.834 3.683)">
          <g id="Group_1988" data-name="Group 1988">
            <path id="Path_5365" data-name="Path 5365" d="M5701.235,845.917c-2.317-1.791-5-1.426-6.386,1.339a18.421,18.421,0,0,0-1.412,6.14.043.043,0,0,1-.083,0c-.5-2.6.363-6.3,2.363-8.135a3.674,3.674,0,0,1,5.615.558c.037.057-.041.141-.1.1Z" transform="translate(-5693.216 -844.216)" fill="#ffe5b0"/>
          </g>
        </g>
        <g id="Group_1991" data-name="Group 1991" transform="translate(10.648 5.468)">
          <g id="Group_1990" data-name="Group 1990">
            <path id="Path_5366" data-name="Path 5366" d="M5699.671,847.384c-2.135-1.617-3.939,1.423-4.44,3.164a11.989,11.989,0,0,0-.1,4.454.048.048,0,0,1-.088.024c-1.109-2.035-.5-4.954.756-6.787.831-1.209,2.9-2.784,3.971-.952.033.057-.039.142-.1.1Z" transform="translate(-5694.461 -846.45)" fill="#ffe5b0"/>
          </g>
        </g>
        <g id="Group_1993" data-name="Group 1993" transform="translate(12.175 7.44)">
          <g id="Group_1992" data-name="Group 1992">
            <path id="Path_5367" data-name="Path 5367" d="M5698.513,848.983c-2.386,2-2.366,4.334-1.778,7.19a.06.06,0,0,1-.108.046,5.5,5.5,0,0,1-.558-4.645c.306-1.067,1.087-2.818,2.423-2.642.021,0,.043.032.021.051Z" transform="translate(-5695.806 -848.92)" fill="#ffe5b0"/>
          </g>
        </g>
        <g id="Group_1995" data-name="Group 1995" transform="translate(0 4.81)">
          <g id="Group_1994" data-name="Group 1994">
            <path id="Path_5368" data-name="Path 5368" d="M5712.9,845.9a7.335,7.335,0,0,0-4.585,4.224c-.991,2.518-.783,5.327,1.548,7.047a.075.075,0,0,1-.059.136c-2.654-.668-2.879-4.144-2.342-6.356.632-2.6,2.625-5.033,5.4-5.319.166-.017.166.216.037.268Z" transform="translate(-5707.23 -845.627)" fill="#ffe5b0"/>
          </g>
        </g>
        <g id="Group_1997" data-name="Group 1997" transform="translate(2.38 6.213)">
          <g id="Group_1996" data-name="Group 1996">
            <path id="Path_5369" data-name="Path 5369" d="M5710.653,847.467c-2.868,3.043-3.7,6.637-1.265,10.336.062.1-.083.209-.158.122-2.523-2.9-2.519-8.7,1.362-10.536a.05.05,0,0,1,.062.078Z" transform="translate(-5707.481 -847.383)" fill="#ffe5b0"/>
          </g>
        </g>
        <g id="Group_1999" data-name="Group 1999" transform="translate(4.162 8.659)">
          <g id="Group_1998" data-name="Group 1998" transform="translate(0)">
            <path id="Path_5370" data-name="Path 5370" d="M5708.4,850.513c-.7,2.393-.184,4.191.525,6.46a.051.051,0,0,1-.085.05c-1.511-1.689-1.381-4.6-.538-6.551.024-.056.114-.016.1.041Z" transform="translate(-5707.679 -850.445)" fill="#ffe5b0"/>
          </g>
        </g>
        <g id="Group_2001" data-name="Group 2001" transform="translate(3.392 14.167)">
          <g id="Group_2000" data-name="Group 2000">
            <path id="Path_5371" data-name="Path 5371" d="M5700.829,859.806a2.89,2.89,0,0,1-2.687.569c-1.548-.29-2.028-.931-3.9-.486a25.536,25.536,0,0,0-2.78,1.174,5.1,5.1,0,0,1-3.575.186,19.17,19.17,0,0,1-1.942-.918,5.362,5.362,0,0,0-4.639.041c-2.813,1.008-4.4-.009-6.887-1.352a5.484,5.484,0,0,0-6.309.119c-1.394.831-2.529,1.545-4.147,1.046a.163.163,0,0,1,.042-.318c3.1-.049,5.159-3.221,8.35-2.384,3.491.917,5.194,3.8,9.179,2.344,3.373-1.232,5.126,1.512,8.419,1.158,1.743-.187,3.133-1.491,4.876-1.7,2.029-.241,3.777,1.46,5.831.305.129-.073.289.113.166.214Z" transform="translate(-5663.851 -857.342)" fill="#ffe5b0"/>
          </g>
        </g>
        <g id="Group_2003" data-name="Group 2003" transform="translate(41.355 14.506)">
          <g id="Group_2002" data-name="Group 2002" transform="translate(0)">
            <path id="Path_5372" data-name="Path 5372" d="M5660.028,857.78c.269,1.442-1.095,2.279-2.349,2.525a26.3,26.3,0,0,1-7.95.164c-.032,0-.029-.055,0-.061,3.082-.682,8.688.793,10.264-2.633.005-.015.032-.011.035,0Z" transform="translate(-5649.707 -857.766)" fill="#ffe5b0"/>
          </g>
        </g>
        <g id="Group_2005" data-name="Group 2005" transform="translate(16.986 15.473)">
          <g id="Group_2004" data-name="Group 2004" transform="translate(0)">
            <path id="Path_5373" data-name="Path 5373" d="M5692.343,859.032a5.372,5.372,0,0,1-3.221.36c-.025-.006-.018-.042.006-.043a14.181,14.181,0,0,0,3.2-.371.028.028,0,0,1,.015.054Z" transform="translate(-5689.106 -858.977)" fill="#ffe5b0"/>
          </g>
        </g>
        <g id="Group_2007" data-name="Group 2007" transform="translate(13.577 9.196)">
          <g id="Group_2006" data-name="Group 2006" transform="translate(0)">
            <path id="Path_5374" data-name="Path 5374" d="M5697.138,851.248a7.638,7.638,0,0,0-.971,3.349c-.01.058-.1.051-.11,0a4.21,4.21,0,0,1,.947-3.452c.059-.076.186.023.134.1Z" transform="translate(-5695.964 -851.118)" fill="#ffe5b0"/>
          </g>
        </g>
      </g>
      <g id="Group_2009" data-name="Group 2009" transform="translate(125.167 22.343)">
        <path id="Path_5375" data-name="Path 5375" d="M5655.518,840.088a3.605,3.605,0,0,1,1.039-.287,4.681,4.681,0,0,1,1.4-.512,1.4,1.4,0,0,1,.449-.089,6.521,6.521,0,0,1,3.257.441,2.891,2.891,0,0,1,1.14.237c.816.382,1.276,1.528,2.02,1.9.475.235,1.131-.125,1.772.188.553.269.83.823,1.094,1.081a2.05,2.05,0,0,1,1.139-1.163,1.435,1.435,0,0,1,.832.006c1.557-1.409,4.249-1.118,6.031-.413,1.038.41,4.339-.127,5.9.748.957-.119,2.118.791,2.785,1.413a6.163,6.163,0,0,1,1.158,1.453c.069.125.149.275.23.434.632-.424,1.5.65,1.832,1.207a2.555,2.555,0,0,1,.228.546,1.246,1.246,0,0,1,.863.073,1.027,1.027,0,0,1,.445.41,1.625,1.625,0,0,1,.51-.423,2.286,2.286,0,0,1,2.29-.1.646.646,0,0,1,.193.256,1.577,1.577,0,0,1,2.034.305.185.185,0,0,1-.03.263c-.587.489-1.3-.148-1.859.546-.342.423-.325.582-.847.734-.022.006-.047.007-.07.012a1,1,0,0,1-.252.287c-.243.185-.492.147-.76.241a.949.949,0,0,0-.341.221,2.1,2.1,0,0,1-1.025,1.593,1.167,1.167,0,0,1-1.47-.4,1.366,1.366,0,0,1-.53-.468,2,2,0,0,1-.175-.373,1.493,1.493,0,0,1-1.518-.932,2.038,2.038,0,0,1-.08-1.23c-.111-.419-.395-.78-.533-1.187-.1-.284-.18-.544-.269-.8a1.876,1.876,0,0,0-.8-.7.768.768,0,0,0-.871.062.319.319,0,0,1-.182.033,3.505,3.505,0,0,1-.591.552,1.682,1.682,0,0,1-1.914-.033c-.328-.162-.49-.873-.835-1.031-.963-.444-1.722.474-2.172,1.385-.393.8-.347,2.028-1.267,2.39-1.936.763-1.654-2.216-1.862-3.375-.46-2.561-1.359-1.208-2.734-.716-.695.248-1.333-.157-1.972.061a.446.446,0,0,1-.21,0,1.711,1.711,0,0,1-1.549,1.094c-.471-.037-.679-.332-1.054-.607a1.517,1.517,0,0,0-1.525-.321c-.88.177-1.416.558-2.034-.506-.225-.387-.178-.918-.359-1.3-.645-1.381-1-1.315-1.66-1.338-.706.835-1.589,1.747-2.658,1.092-.158-.1-.2-.342-.335-.474a2.429,2.429,0,0,0-2.031-.641c-.584.05-.647.328-1.118.946a.541.541,0,0,1-.9-.131C5653.015,841.41,5654.665,840.488,5655.518,840.088Z" transform="translate(-5653.579 -839.148)" fill="#ff5e4d"/>
      </g>
      <g id="Group_2010" data-name="Group 2010" transform="translate(142.162 29.51)">
        <path id="Path_5376" data-name="Path 5376" d="M5682.168,848.182a.61.61,0,0,1,.339.439.4.4,0,0,1,.226.258c.213.78-.783,1.428-1.311.923C5680.829,849.236,5681.357,847.815,5682.168,848.182Z" transform="translate(-5681.168 -848.122)" fill="#ff5e4d"/>
      </g>
      <g id="Group_2011" data-name="Group 2011" transform="translate(154.359 30.011)">
        <path id="Path_5377" data-name="Path 5377" d="M5666.527,849.177l.022-.088a.43.43,0,0,1,.394-.339.723.723,0,0,1,.665.567c.039.17-.081.4-.256.38s-.2-.015-.167-.042A.425.425,0,0,1,5666.527,849.177Z" transform="translate(-5666.51 -848.75)" fill="#ff5e4d"/>
      </g>
      <g id="Group_2012" data-name="Group 2012" transform="translate(143.966 28.354)">
        <path id="Path_5378" data-name="Path 5378" d="M5680.082,846.814a.528.528,0,0,1,.347-.139.278.278,0,0,1,.248.161.35.35,0,0,1,.041.152.623.623,0,0,1-.068.236.3.3,0,0,1-.44.131l-.127-.095A.282.282,0,0,1,5680.082,846.814Z" transform="translate(-5679.972 -846.675)" fill="#ff5e4d"/>
      </g>
      <g id="Group_2013" data-name="Group 2013" transform="translate(123.461 26.253)">
        <path id="Path_5379" data-name="Path 5379" d="M5704.976,845.076a1.512,1.512,0,0,1,.713-.975.319.319,0,0,1,.362,0l.063.054a.336.336,0,0,1,.124.346c-.106.3-.24.558-.321.868A.494.494,0,1,1,5704.976,845.076Z" transform="translate(-5704.951 -844.044)" fill="#ff5e4d"/>
      </g>
      <g id="Group_2014" data-name="Group 2014" transform="translate(125.835 26.759)">
        <path id="Path_5380" data-name="Path 5380" d="M5702.616,844.842a.539.539,0,0,1,.594-.133c.268.047.207.466,0,.55a.537.537,0,0,1-.594-.035C5702.467,845.147,5702.51,844.93,5702.616,844.842Z" transform="translate(-5702.52 -844.677)" fill="#ff5e4d"/>
      </g>
    </g>
    <path id="Path_6504" data-name="Path 6504" d="M394.1,128.489c-.465-.619-6.827,3.485-7.693,4.706-1.788,2.52-.655,5.707.685,8.275,1.684-1.6,4.756-4.637,5.614-8.491,0,0,1.024,3.874-5.983,10.972l-.986,2.211a.2.2,0,0,0,.323.223c4.356-4.054,6.857-6.266,7.886-8.763,2.19-5.312.8-8.268.155-9.134" transform="translate(-262.43 1938.129)" fill="#84bd00"/>
  </g>
</svg>
