<svg xmlns="http://www.w3.org/2000/svg" width="1394.436" height="897.934" viewBox="0 0 1394.436 897.934" opacity="0.2">
  <g id="pattern-bg-lg" transform="translate(0.693 0.847)">
    <path id="Path_7732" data-name="Path 7732" d="M999.088,647.289a33.945,33.945,0,0,1,3.18-3.2c-1.152.515-2.351.981-3.581,1.416C998.826,646.1,998.964,646.69,999.088,647.289Z" transform="translate(-577.623 -231.87)" fill="none" stroke="#61b0bc" stroke-miterlimit="10" stroke-width="1.375"/>
    <path id="Path_7733" data-name="Path 7733" d="M1014.484,638.574c.541-.8,1.074-1.611,1.628-2.409.155-.223.311-.447.467-.67a53.168,53.168,0,0,1-4.784,3.4A12.234,12.234,0,0,1,1014.484,638.574Z" transform="translate(-580.975 -230.006)" fill="none" stroke="#61b0bc" stroke-miterlimit="10" stroke-width="1.375"/>
    <path id="Path_7734" data-name="Path 7734" d="M690.633,342.541c.76-44.169,11.593-78.321,11.593-78.321C725.514,212.4,811.5,179.17,845.7,166.583c22.7-8.354,66.792,7.594,107.192,39.75-16.13-19.623,2.493-27.033,34.939-26.236-53.387-46.8-115.142-70.931-145.719-59.678C799.508,136.1,692.4,177.493,663.39,242.044c0,0-20.758,65.383-12.6,138.89A115.159,115.159,0,0,1,690.633,342.541Z" transform="translate(-488.179 -117.682)" fill="none" stroke="#61b0bc" stroke-miterlimit="10" stroke-width="1.375"/>
    <path id="Path_7735" data-name="Path 7735" d="M956.621,452.92c7.871,12.127,7.547,27.4,5.191,39.834a11.338,11.338,0,0,1,6.39-.668q6.916-10.575,13.464-21.455c-2.543-6.063-2.7-13.041,1.061-18.937,3.226-5.048,8.332-8.207,14.177-8.131q15.8-29.631,28.806-60.787c.252-.6.511-1.255.768-1.88-8.892,6.822-22.665,11.521-42.188,3.03a45.9,45.9,0,0,1-10.637-6.4c3.559,8.4-4.735,20.118-14.027,17A42.622,42.622,0,0,1,935,373.429c-9.074.052-12.076-10.465-8.88-21.182.407-1.367,1.974-1.785,3.008-2.36a61.227,61.227,0,0,1,.458-9.223c-5.451-4.031-5.127-7.485-2.089-18.839,1.121-4.188,6.286-4,9.414-3.514a77.6,77.6,0,0,1,4.965-7.944c.1-.222.189-.442.286-.662-3.563-4.43-2.965-8.4.482-16.37,1.964-4.542,7.282-4.245,10.775-3.219a102.074,102.074,0,0,1,17.669-18.573,11.653,11.653,0,0,1,3.224-10.561c4.246-4.465,9.406-4.417,13.444-2.042a64.3,64.3,0,0,1,9.383-6.46,227.636,227.636,0,0,0-14.927-19.156,97.239,97.239,0,0,1-14.978-14.055c-40.4-32.156-84.5-48.1-107.192-39.748-34.2,12.587-120.186,45.817-143.474,97.637,0,0-10.834,34.152-11.593,78.32a116.889,116.889,0,0,1,49.882-15.407c8.274-16.194,35.163-26.618,46.027-30.616,11.113-4.091,38.018,9.735,52.806,32.521,9.1,14.025,6.333,32.614,2.862,44.855a107.979,107.979,0,0,1,18.1,41.715,187.444,187.444,0,0,1,24.69-10.906C911.393,413.2,940.58,428.2,956.621,452.92ZM822.069,218.262c3.513-13.674,23.056-27.586,30.856-32.975s29.722-1.542,43.714,11.384,6.078,41.456,6.078,41.456S893.473,274.215,854.436,270,822.069,218.262,822.069,218.262Zm27.392,67.432c14.729-7.829,43.857,19.247,43.857,19.247,8.418-42.1,63.148-55.543,63.148-55.543s-10.21,46.779-49.871,71.2S834.731,293.523,849.462,285.694Z" transform="translate(-502.519 -130.619)" fill="none" stroke="#61b0bc" stroke-miterlimit="10" stroke-width="1.375"/>
    <path id="Path_7736" data-name="Path 7736" d="M927.643,552.679c26.26,8.994,46.555,30.616,52.879,57.927,1.229-.434,2.428-.9,3.58-1.414a14.443,14.443,0,0,1,6.175-3.33,53.359,53.359,0,0,0,4.783-3.4q3.129-4.506,6.254-9c-5.835-9.069-4.963-15.7,3.7-23.965,4.341-4.141,8.9-8.577,13.738-10.389,2.357-12.432,2.68-27.708-5.191-39.837-16.041-24.72-45.228-39.716-57.284-35.28A187.485,187.485,0,0,0,931.586,494.9q.487,2.435.871,4.907c6.6-3.628,10.941-5.537,10.941-5.537C948.76,519.277,940.514,538.388,927.643,552.679Z" transform="translate(-559.457 -196.974)" fill="none" stroke="#61b0bc" stroke-miterlimit="10" stroke-width="1.375"/>
    <path id="Path_7737" data-name="Path 7737" d="M1124.646,363.164c2.365,17.106-4.55,37.188-10.515,51.754-8.892,6.822-22.666,11.522-42.189,3.03a45.887,45.887,0,0,1-10.636-6.4,10.347,10.347,0,0,0-2.7-3.77c-19.963-17.666-8.707-43.308,4.593-63.021,14.35-10.089,35.434-15.855,49.7-3.879a32.316,32.316,0,0,1,5.583,6.163S1124.187,357.068,1124.646,363.164Z" transform="translate(-590.173 -164.641)" fill="none" stroke="#61b0bc" stroke-miterlimit="10" stroke-width="1.375"/>
    <path id="Path_7738" data-name="Path 7738" d="M870.826,378.38c-14.788-22.785-41.691-36.611-52.805-32.521-10.865,4-37.755,14.422-46.027,30.616.148-.011.293-.033.442-.043,41.487-2.986,79.2,15.981,101.253,46.8C877.159,410.993,879.927,392.405,870.826,378.38Z" transform="translate(-519.656 -167.023)" fill="none" stroke="#61b0bc" stroke-miterlimit="10" stroke-width="1.375"/>
    <path id="Path_7739" data-name="Path 7739" d="M942.8,239.68s7.916-28.529-6.076-41.456-35.915-16.772-43.714-11.384-27.344,19.3-30.856,32.975c0,0-6.671,47.532,32.367,51.743S942.8,239.68,942.8,239.68Z" transform="translate(-542.6 -132.171)" fill="none" stroke="#61b0bc" stroke-miterlimit="10" stroke-width="1.375"/>
    <path id="Path_7740" data-name="Path 7740" d="M1004.857,269.362s-54.729,13.446-63.149,55.543c0,0-29.126-27.075-43.856-19.247s17.473,59.325,57.134,34.9S1004.857,269.362,1004.857,269.362Z" transform="translate(-550.91 -150.584)" fill="none" stroke="#61b0bc" stroke-miterlimit="10" stroke-width="1.375"/>
    <path id="Path_7741" data-name="Path 7741" d="M1713.14,263.4q7.848,6.425,14.9,13.4c-.346.459-.688.918-1.018,1.387,33.969,35.046,52.678,79.057,49.7,121.58a237.259,237.259,0,0,1,49.546-34.434c7.645,29.914-1.413,53.418-16.281,71.341a98.963,98.963,0,0,1,47.746,31.163l-14.306-182.564c1.2,18.258,30.748,25.019,35.156,42.915,5.464,22.188-31.56,42.469-18.738,62.013,7.969,12.148,30.2,11.871,36.016,25,6.906,15.586-17.148,31.271-11.1,47.145,5.816,15.264,31.522,13.047,43.121,25.236-14.724,13.239-30.6,32.532-20.565,49.574,2.542,4.32,6.6,7.912,8.267,12.569,1.629,4.542.751,9.066-.815,13.612,16.909-15.365,40.667-27.361,73.049-24.9-21.495-110.91-45.248-207.806-45.248-207.806,13.058,9.511,38.6,19.024,51.654,28.535,3.6,2.625,7.466,5.624,8.336,9.768,1.2,5.7-3.775,11.121-3.015,16.876,1,7.578,10.779,11.258,15.076,17.835,3.292,5.044,3.04,11.293,2.519,17.1-2.133,23.828-5.779,51.147,11.979,68.916,5.845,5.851,14.04,10.732,15.613,18.517,2.962,14.656-6.946,28.166,5.158,38.143,4.188,3.454,10.417,3.3,15.593,5.25,13.832,5.2,15.8,22.91,11.889,36.074s-23.4,29.433-20.042,42.879c1.324,5.3,4.263,10.143,6.648,15.137a85.82,85.82,0,0,1,7.733,29.763c11.62,16.163,23.536,40.327,30.522,67.381,1.538-9.108,2.236-16.062,2.807-21.763,1.654-16.565,2.41-24.127,19.576-45.259a121.271,121.271,0,0,1,24.334-22.454c23.726-171.819-118.584-372.186-315.43-391.683-49.539-4.906-91.233-6.686-127.327-2.246,2.09,1.655,4.129,3.345,6.137,5.06C1712.6,264.1,1712.871,263.75,1713.14,263.4Z" transform="translate(-758.537 -147.872)" fill="none" stroke="#61b0bc" stroke-miterlimit="10" stroke-width="1.375"/>
    <path id="Path_7742" data-name="Path 7742" d="M1355.88,261.6a34.9,34.9,0,0,1,3.628,9.243,35.255,35.255,0,0,1,13.383,1.2c.024-3.083.15-6.171.485-9.269,1.4-12.906,5.666-27.881,11.9-41.691a158.752,158.752,0,0,1,32.191-14.442c-12.976,15.238-22.366,40.433-24.235,59.122a85.829,85.829,0,0,0-.049,15.589,142.682,142.682,0,0,1,19.31,14.524,93.342,93.342,0,0,1,20.6-4.887c-2.3-11.725-4.241-23.264-4.346-34.131a99.659,99.659,0,0,1,18.009-57.078,200.134,200.134,0,0,1,31.049-2.076c-33.6,20.168-30.73,57.43-24.617,93.176a99.911,99.911,0,0,1,19.285,4.033,120.7,120.7,0,0,1,10.1-11.029c-.132-.74-.274-1.476-.393-2.219-4.891-30.354,1.894-58.8,18.579-82.545a226.045,226.045,0,0,1,22.473,3.812c-16.456,18.824-24.362,41.162-22.588,66.126,15.722-10.863,32.417-17.43,42.881-13.623.058-.5.094-1.009.163-1.51,2.022-14.428,9.961-27.189,18.807-38.515-3.554-1.522-7.146-2.995-10.816-4.359-80.658-29.985-163.329-11.12-203.624,41.321A40.622,40.622,0,0,1,1355.88,261.6Z" transform="translate(-666.959 -134.839)" fill="none" stroke="#61b0bc" stroke-miterlimit="10" stroke-width="1.375"/>
    <path id="Path_7743" data-name="Path 7743" d="M1585.245,353.224c-.127.174-.273.349-.406.524a215.436,215.436,0,0,1,29.125,31.054c.427.564.937,1.042,1.407,1.562a189.808,189.808,0,0,0-3.046-45.6c-.764-4.247-1.747-8.629-2.773-13.087C1602.962,336.3,1592.74,342.952,1585.245,353.224Z" transform="translate(-727.505 -163.235)" fill="none" stroke="#61b0bc" stroke-miterlimit="10" stroke-width="1.375"/>
    <path id="Path_7744" data-name="Path 7744" d="M1717.711,333.53c5.919-.616,9.428,1.352,8.9,6.352-.564,5.365-3.376,13.092-7,21.249.068.915.141,1.845.2,2.748a228.289,228.289,0,0,1,.1,31.568,114.885,114.885,0,0,1,18.923,9.052c17.64,11.172,20.953,45.866-20.66,39.963-2.356-.335-4.687-.615-7-.87a101.04,101.04,0,0,1,1.407,11.462q2.992,2.582,5.84,5.408a102.871,102.871,0,0,1,28.607-15.846c7.749-15.027,19.144-28.125,30.969-38.939,2.982-42.524-15.727-86.534-49.7-121.58C1718.638,297.893,1717.068,315.661,1717.711,333.53Z" transform="translate(-759.809 -153.781)" fill="none" stroke="#61b0bc" stroke-miterlimit="10" stroke-width="1.375"/>
    <path id="Path_7745" data-name="Path 7745" d="M1637,274.352c.225,16.053,6.645,34.216,9.367,50.141,1.5,8.759,2.761,17.588,3.455,26.44a135.462,135.462,0,0,1,29.939-21.962c-1.007-25.384.63-50.4,14.879-69.908q-3.013-2.571-6.137-5.059a226.764,226.764,0,0,0-33.6-22.023C1644.727,244.3,1636.751,256.481,1637,274.352Z" transform="translate(-740.842 -142.476)" fill="none" stroke="#61b0bc" stroke-miterlimit="10" stroke-width="1.375"/>
    <path id="Path_7746" data-name="Path 7746" d="M1401.765,268.5c1.868-18.69,11.258-43.883,24.235-59.122a158.82,158.82,0,0,0-32.191,14.442c-6.236,13.81-10.506,28.785-11.9,41.69-.334,3.1-.459,6.186-.484,9.269a78.6,78.6,0,0,1,20.293,9.31A85.906,85.906,0,0,1,1401.765,268.5Z" transform="translate(-675.491 -137.573)" fill="none" stroke="#61b0bc" stroke-miterlimit="10" stroke-width="1.375"/>
    <path id="Path_7747" data-name="Path 7747" d="M1480.912,291.14c-6.115-35.746-8.986-73.008,24.618-93.176a200.248,200.248,0,0,0-31.05,2.075,99.648,99.648,0,0,0-18.009,57.079c.1,10.867,2.042,22.406,4.346,34.131A90.473,90.473,0,0,1,1480.912,291.14Z" transform="translate(-694.68 -135.095)" fill="none" stroke="#61b0bc" stroke-miterlimit="10" stroke-width="1.375"/>
    <path id="Path_7748" data-name="Path 7748" d="M1568.781,203.588a225.1,225.1,0,0,0-22.473-3.812c-16.684,23.748-23.469,52.189-18.579,82.544.12.744.262,1.48.394,2.219a143.837,143.837,0,0,1,18.071-14.825C1544.419,244.748,1552.325,222.41,1568.781,203.588Z" transform="translate(-712.504 -135.49)" fill="none" stroke="#61b0bc" stroke-miterlimit="10" stroke-width="1.375"/>
    <path id="Path_7749" data-name="Path 7749" d="M1610.684,260.568c4.089,1.486,7.244,4.526,8.992,9.554,5.677,16.318,2.692,26.174-3.516,34.291,1.027,4.458,2.01,8.841,2.774,13.087a189.767,189.767,0,0,1,3.045,45.6,24.483,24.483,0,0,0,3.357,3.108c.7.057,1.4.091,2.093.152a134.466,134.466,0,0,1,15.667-17.932c-.7-8.851-1.958-17.681-3.456-26.439-2.721-15.927-9.143-34.089-9.368-50.142-.249-17.871,7.728-30.055,17.9-42.372.106-.129.216-.261.323-.391q-9.075-4.69-18.746-8.66c-.031.042-.064.081-.1.121-8.844,11.326-16.784,24.087-18.806,38.515C1610.777,259.559,1610.74,260.065,1610.684,260.568Z" transform="translate(-734.114 -139.968)" fill="none" stroke="#61b0bc" stroke-miterlimit="10" stroke-width="1.375"/>
    <path id="Path_7750" data-name="Path 7750" d="M1723.941,280c.328-.468.671-.929,1.016-1.387q-7.063-6.959-14.9-13.4c-.27.353-.545.7-.805,1.063-14.248,19.512-15.886,44.523-14.878,69.906,7.384-3.887,14.03-6.229,18.983-6.745C1712.709,311.563,1714.279,293.8,1723.941,280Z" transform="translate(-755.451 -149.683)" fill="none" stroke="#61b0bc" stroke-miterlimit="10" stroke-width="1.375"/>
    <path id="Path_7751" data-name="Path 7751" d="M1717.6,385.219c-.062-.9-.136-1.833-.2-2.749-4.589,10.306-10.49,21.3-14.869,29.094,5.52,1.684,10.6,3.448,15.173,5.223A228.182,228.182,0,0,0,1717.6,385.219Z" transform="translate(-757.599 -175.12)" fill="none" stroke="#61b0bc" stroke-miterlimit="10" stroke-width="1.375"/>
    <path id="Path_7752" data-name="Path 7752" d="M1814.82,809.078a322.865,322.865,0,0,0,48.384-25.611,87.3,87.3,0,0,1-13.614-3.307c.915-29.493,7.122-53.167,14.671-71.419a103.1,103.1,0,0,1-35.034,15.493C1833.627,756.469,1822.9,789.727,1814.82,809.078Z" transform="translate(-786.313 -245.894)" fill="none" stroke="#61b0bc" stroke-miterlimit="10" stroke-width="1.375"/>
    <path id="Path_7753" data-name="Path 7753" d="M1782.438,731.622a101.713,101.713,0,0,1-14.27-1.455c-2.369,23.869-8.234,46.352-19.209,63.763a78.678,78.678,0,0,1-11.312,14.142,173.3,173.3,0,0,1,1.508,21.56c5.577-.791,11.521-1.9,17.806-3.375C1754.572,797.71,1769.533,758.984,1782.438,731.622Z" transform="translate(-766.58 -250.542)" fill="none" stroke="#61b0bc" stroke-miterlimit="10" stroke-width="1.375"/>
    <path id="Path_7754" data-name="Path 7754" d="M2116.662,989.745c-8.619,2.684-16.571,14.282-22.962,23.6-5.974,8.713-10.694,15.595-15.966,16.252-3.32.413-6.689,3.007-10.258,5.752-4.538,3.493-9.231,7.106-14.929,7.106-.3,0-.6-.011-.9-.031-.4-.028-.834-.038-1.312-.038-10.151,0-36.424,5.392-36.687,5.446a2.871,2.871,0,0,1-.6.062,3.06,3.06,0,0,1-2.333-1.1,3.324,3.324,0,0,1-.716-1.645c-38.833,7.713-85.381,10.12-132.393,7.962-4.8,4.376-7.364,9.666-5.435,17,.118.454.169.864.275,1.309,10.854.955,22.079,1.826,33.783,2.591,185.266,12.109,240.2-55.951,244.19-126.706a89.275,89.275,0,0,1-9.225,19.854C2136.911,974.074,2128.025,986.2,2116.662,989.745Z" transform="translate(-800.814 -297.643)" fill="none" stroke="#61b0bc" stroke-miterlimit="10" stroke-width="1.375"/>
    <path id="Path_7755" data-name="Path 7755" d="M1804.174,845.421a167.865,167.865,0,0,1,81.214-19.269c12.166-9.221,24.141-18.733,34.786-27.429a126.4,126.4,0,0,1-59.694,4.264A322.7,322.7,0,0,1,1812.1,828.6,181.458,181.458,0,0,1,1804.174,845.421Z" transform="translate(-783.591 -265.413)" fill="none" stroke="#61b0bc" stroke-miterlimit="10" stroke-width="1.375"/>
    <path id="Path_7756" data-name="Path 7756" d="M1756.991,852.875c-6.286,1.48-12.228,2.584-17.806,3.375a222.316,222.316,0,0,1-1.422,26.551,336.172,336.172,0,0,0,37.166,1.921.186.186,0,0,1-.038-.018C1763.372,878.134,1758.151,866.7,1756.991,852.875Z" transform="translate(-766.609 -277.16)" fill="none" stroke="#61b0bc" stroke-miterlimit="10" stroke-width="1.375"/>
    <path id="Path_7757" data-name="Path 7757" d="M1833.528,993.33c-6.579,2.554-13.334,4.835-20.131,6.842C1818,1001.146,1824.43,999.3,1833.528,993.33Z" transform="translate(-785.949 -307.628)" fill="none" stroke="#61b0bc" stroke-miterlimit="10" stroke-width="1.375"/>
    <path id="Path_7758" data-name="Path 7758" d="M1863.753,824.265c33.355.538,56.123,10.508,56.123,10.508s-97.3,66.092-149.6,36.316a336.3,336.3,0,0,1-37.165-1.922,278.256,278.256,0,0,1-13.547,59.91,153.015,153.015,0,0,1,27.24-15.568,14.762,14.762,0,0,1,3.276-1.361c62.463-25.909,123.729-2.968,123.729-2.968-9.708,11.639-27.875,23.761-49.263,33.668,26.612-3.266,58.141,29.221,58.141,29.221,7.02,28.671-29.15,33.448-43.935,46.922,47.012,2.157,93.56-.249,132.394-7.963a3.407,3.407,0,0,1,.074-1.538l.463-1.527c-1.183-7.158-2.713-19.741-.909-29.265.408-2.155.875-4.148,1.327-6.074,2.239-9.535,3.854-16.426-4.843-30.24a51.322,51.322,0,0,0-8.875-10.942,22.574,22.574,0,0,1-3.118-3.508c-7.092,8.027-18.332,13.24-31.027,13.24-21.463,0-38.862-14.833-38.862-33.132s17.4-33.129,38.862-33.129a43.03,43.03,0,0,1,24.273,7.279,117.507,117.507,0,0,0-7.174-11.362c-2.689-3.9-4.813-4.577-6.867-5.232-5.515-1.761-7.378-4.508-6.831-16.426.247-5.418.536-9.15.768-12.147.573-7.385.692-8.92-1.463-17.97-.957-4.007-1.285-6.047-1.5-7.4-.356-2.216-.356-2.216-4.1-10.222l-2.485-5.326a38.222,38.222,0,0,0-3.454-6.089,126.731,126.731,0,0,1-16.863,6.813C1887.893,805.533,1875.917,815.044,1863.753,824.265Z" transform="translate(-761.955 -263.526)" fill="none" stroke="#61b0bc" stroke-miterlimit="10" stroke-width="1.375"/>
    <path id="Path_7759" data-name="Path 7759" d="M1344.094,506.954c-27.464-14.836-49.689-33.323-59.047-39.959-6.271-4.445-9.6-11.336-9.035-20.091-24.606,34.346-48.839,63.728-50.762,74.218-2.2,11.972,21.215,36.375,47.873,66.566.841-19.405,3.094-36.864,7.1-48.5C1286.467,521.035,1313.571,512.108,1344.094,506.954Z" transform="translate(-635.52 -189.097)" fill="none" stroke="#61b0bc" stroke-miterlimit="10" stroke-width="1.375"/>
    <path id="Path_7760" data-name="Path 7760" d="M1392.614,324.219a107.5,107.5,0,0,1,17.157-7.878,142.485,142.485,0,0,0-19.312-14.523,78.554,78.554,0,0,0-20.293-9.31,35.269,35.269,0,0,0-13.383-1.2c4.819,19.265-4.541,44.932-19.384,71.48C1350.922,350.673,1369.029,337.682,1392.614,324.219Z" transform="translate(-664.233 -155.299)" fill="none" stroke="#61b0bc" stroke-miterlimit="10" stroke-width="1.375"/>
    <path id="Path_7761" data-name="Path 7761" d="M1734.521,433.9a114.909,114.909,0,0,0-18.924-9.052c-4.568-1.775-9.653-3.539-15.173-5.222-3.567,6.35-6.121,10.577-6.121,10.577,6.959,18.39,10.71,32.289,12.556,42.791,2.315.255,4.646.535,7,.869C1755.472,479.764,1752.161,445.071,1734.521,433.9Z" transform="translate(-755.496 -183.179)" fill="none" stroke="#61b0bc" stroke-miterlimit="10" stroke-width="1.375"/>
    <path id="Path_7762" data-name="Path 7762" d="M1567.038,341.3c.133-.174.279-.35.407-.524,7.495-10.272,17.717-16.93,24.3-25.543,6.21-8.117,9.195-17.973,3.518-34.292-1.75-5.028-4.905-8.066-8.994-9.554-10.464-3.807-27.159,2.762-42.881,13.625a143.628,143.628,0,0,0-18.071,14.825,120.635,120.635,0,0,0-10.1,11.027C1535.547,317.211,1553.24,329.263,1567.038,341.3Z" transform="translate(-709.703 -150.787)" fill="none" stroke="#61b0bc" stroke-miterlimit="10" stroke-width="1.375"/>
    <path id="Path_7763" data-name="Path 7763" d="M1632.66,469.324a42.149,42.149,0,0,0-3.386-3.394c.646,1.057,1.233,2.162,1.8,3.293C1631.6,469.25,1632.132,469.289,1632.66,469.324Z" transform="translate(-738.868 -193.224)" fill="none" stroke="#61b0bc" stroke-miterlimit="10" stroke-width="1.375"/>
    <path id="Path_7764" data-name="Path 7764" d="M1632.462,406.741c-.691-.06-1.4-.095-2.092-.15.469.359.9.771,1.393,1.1C1631.991,407.368,1632.232,407.06,1632.462,406.741Z" transform="translate(-739.148 -180.352)" fill="none" stroke="#61b0bc" stroke-miterlimit="10" stroke-width="1.375"/>
    <path id="Path_7765" data-name="Path 7765" d="M501,640.187c4.414,5.33,10.152,13.89,17.273,24.263a5.188,5.188,0,0,1,1.856,2.7c11.285,16.369,25.85,36.735,44,56.1a42.419,42.419,0,0,1,12.388-.439c1.739.2,3.477.4,5.206.588-18.481-28.071-40.93-62.142-41.409-61.331-16.047-18.374-80.417-61.1-78.569-78.487-1.35-42.788,51.816-52.357,61.358.921,16.955,61.761,43.527,101.46,69.9,139.723a45.366,45.366,0,0,0,11.922-1.066c-28.488-61.52-113.866-170.445-18.75-148.882,25.448,19.49,3.1,57.83,25.679,145.894,8.392-5.712,11.884-18.622,5.6-45.891-5.438-23.608,7.478-45.051,23.923-61.822-34.907-16.894-59.816-50.907-62.468-91.7a109.215,109.215,0,0,1,12.969-59.15c-4.43-1.147-10.119-1.472-17.352-.725-44.831,4.629-122.887,7.56-134.073,40.072s-8.768,110.433.232,149.549c3.139,13.65,8.967,22.813,16.223,28.135C448.348,657.112,464.257,619.118,501,640.187Z" transform="translate(-432.966 -192.04)" fill="none" stroke="#61b0bc" stroke-miterlimit="10" stroke-width="1.375"/>
    <path id="Path_7766" data-name="Path 7766" d="M1306,1020.774c-30.618-.108-43.439,3.554-22.211,20.787a83.746,83.746,0,0,1,8.224,7.625c6.647-10.94,12.183-20.355,15.785-26.555A10.947,10.947,0,0,1,1306,1020.774Z" transform="translate(-647.845 -313.58)" fill="none" stroke="#61b0bc" stroke-miterlimit="10" stroke-width="1.375"/>
    <path id="Path_7767" data-name="Path 7767" d="M1542.419,1096.669a88.645,88.645,0,0,1-7.863,10.6c-38.746,43.168-106.747,45.478-151.973,9.8,1.307,11.114,1.97,20.615,1.608,26.514,23.478,12.261,48.135,18.749,72.629,16.986,40.908-2.943,77.809-19.556,107.026-45.265-.78-.482-1.575-.891-2.348-1.4A81.776,81.776,0,0,1,1542.419,1096.669Z" transform="translate(-675.788 -330.044)" fill="none" stroke="#61b0bc" stroke-miterlimit="10" stroke-width="1.375"/>
    <path id="Path_7768" data-name="Path 7768" d="M1674.487,853.555c-1.135.156-2.24.383-3.4.49a27.834,27.834,0,0,0-20.349,11.981c-1.011,1.443-2.11,2.741-3.181,4.086.176,15.479-2.516,31.491-5.779,44.978,4.6,17.215,5.744,35.077,5.128,51.547.5-1.45.986-2.888,1.438-4.249,4.885-14.658,11.651-16.125,18.132-12.182a44.346,44.346,0,0,1-1.789-6.719C1659.226,913.151,1665.634,880.531,1674.487,853.555Z" transform="translate(-742.065 -277.307)" fill="none" stroke="#61b0bc" stroke-miterlimit="10" stroke-width="1.375"/>
    <path id="Path_7769" data-name="Path 7769" d="M628.967,504.313c2.652,40.8,27.562,74.809,62.469,91.7,21.693-22.123,49.531-36.1,49.531-36.1a38.183,38.183,0,0,1,12.828,3.529,84.264,84.264,0,0,1,44.219-32.649C812.6,505,840.561,486.94,856.024,478.44q-.379-2.476-.87-4.909a107.976,107.976,0,0,0-18.1-41.715C815,400.994,777.29,382.028,735.8,385.014c-.148.011-.293.031-.442.042a116.867,116.867,0,0,0-49.882,15.408,115.141,115.141,0,0,0-39.844,38.393c-1.293,2.064-2.54,4.16-3.7,6.306A109.224,109.224,0,0,0,628.967,504.313Z" transform="translate(-483.025 -175.605)" fill="none" stroke="#61b0bc" stroke-miterlimit="10" stroke-width="1.375"/>
    <path id="Path_7770" data-name="Path 7770" d="M1749.343,532.6c.231.424.479.832.707,1.26,12.992,24.355,26.643,87.708,21.109,143.45a101.84,101.84,0,0,0,14.271,1.456c9.221-19.554,17.388-33.319,17.388-33.319a89.547,89.547,0,0,1,9.668,30.578,103.1,103.1,0,0,0,35.032-15.493c13.355-32.29,30.923-47.54,30.923-47.54a82.171,82.171,0,0,1,1.313,11.35q2.224-4.211,4.04-8.628a96.24,96.24,0,0,0,6.77-46.677,94.879,94.879,0,0,0-21.794-51.386,98.967,98.967,0,0,0-47.747-31.161C1797.3,515.085,1758.8,529.411,1749.343,532.6Z" transform="translate(-769.57 -197.683)" fill="none" stroke="#61b0bc" stroke-miterlimit="10" stroke-width="1.375"/>
    <path id="Path_7771" data-name="Path 7771" d="M1739.677,528.956c-.246-14.41,3.592-27.763,9.84-39.875a102.917,102.917,0,0,0-28.609,15.847A121.829,121.829,0,0,1,1739.677,528.956Z" transform="translate(-762.299 -198.246)" fill="none" stroke="#61b0bc" stroke-miterlimit="10" stroke-width="1.375"/>
    <path id="Path_7772" data-name="Path 7772" d="M1755.962,468.756c-6.247,12.111-10.085,25.465-9.84,39.875.823,1.376,1.616,2.784,2.394,4.205,9.458-3.188,47.955-17.515,71.68-46.112,14.868-17.923,23.925-41.428,16.28-71.343a237.269,237.269,0,0,0-49.544,34.435C1775.105,440.632,1763.71,453.73,1755.962,468.756Z" transform="translate(-768.743 -177.921)" fill="none" stroke="#61b0bc" stroke-miterlimit="10" stroke-width="1.375"/>
    <path id="Path_7773" data-name="Path 7773" d="M1499.288,596.6c-.062-1.8-.22-3.735-.433-5.755A11.492,11.492,0,0,0,1499.288,596.6Z" transform="translate(-705.473 -220.322)" fill="none" stroke="#61b0bc" stroke-miterlimit="10" stroke-width="1.375"/>
    <path id="Path_7774" data-name="Path 7774" d="M1718.058,737.525c10.977-17.411,16.841-39.894,19.21-63.764,5.532-55.74-8.117-119.1-21.11-143.451-.227-.426-.475-.834-.708-1.258-.779-1.421-1.573-2.829-2.393-4.2a121.815,121.815,0,0,0-18.769-24.028q-2.848-2.823-5.84-5.409c.927,15.646-3.7,19.332-3.7,19.332-22.1.423-43.5-31.547-55.28-44.506-.529-.036-1.06-.075-1.589-.1,15.67,31.522.519,90.495,35.809,93.492,46.836,3.977,52.965,44.9,9.355,73.1s-74.565,45.073-43.9,47.539,49.367,26.2,30.476,58.771a267.285,267.285,0,0,1-19.706,28.537,103.509,103.509,0,0,1,1.259,15.369c1.069-1.346,2.168-2.644,3.179-4.088a27.83,27.83,0,0,1,20.348-11.98c1.161-.108,2.264-.335,3.4-.49a321.274,321.274,0,0,1,26.285-59.166c6.67,12.617,10.473,26.455,12.36,40.447A78.68,78.68,0,0,0,1718.058,737.525Z" transform="translate(-735.679 -194.136)" fill="none" stroke="#61b0bc" stroke-miterlimit="10" stroke-width="1.375"/>
    <path id="Path_7775" data-name="Path 7775" d="M1629.477,741.342c18.89-32.567.188-56.306-30.477-58.771s.292-19.339,43.9-47.539,37.48-69.122-9.354-73.1c-35.29-3-20.139-61.969-35.81-93.49-.561-1.131-1.151-2.237-1.8-3.294a14.506,14.506,0,0,0-1.523-1.189c-9.8-6.382.931,4.909-63.921,52.035a78.058,78.058,0,0,1-15.922,8.9c-1.454,10.341-7.333,22.4-13.321,32.163a16.765,16.765,0,0,0-2.338,5.914c.213,2.019.372,3.958.434,5.755,5.278,15.4,43.09,23.6,74.286,28.114,38.292,5.538,32.232,48.461,10.057,67.154s-44.352,37.384,3.874,68.324c13.21,8.475,19.7,22.165,22.2,37.56A267.432,267.432,0,0,0,1629.477,741.342Z" transform="translate(-705.535 -192.442)" fill="none" stroke="#61b0bc" stroke-miterlimit="10" stroke-width="1.375"/>
    <path id="Path_7776" data-name="Path 7776" d="M751.691,789.581c11.713-21.978,32.487-41.756,52.373-57.16-29.252-10.835-50.814-37.395-52.93-69.933a79.857,79.857,0,0,1,14.057-50.512,38.178,38.178,0,0,0-12.828-3.528s-27.838,13.981-49.531,36.1c-16.444,16.77-29.362,38.215-23.923,61.823,6.282,27.268,2.79,40.179-5.6,45.891A446.622,446.622,0,0,0,687.6,797.431C702.909,786.2,729.042,782.528,751.691,789.581Z" transform="translate(-494.422 -224.139)" fill="none" stroke="#61b0bc" stroke-miterlimit="10" stroke-width="1.375"/>
    <path id="Path_7777" data-name="Path 7777" d="M1152.4,1137.15c17.355-11.862,49.163-61.173,70.031-95.517a83.438,83.438,0,0,0-8.223-7.626c-21.227-17.233-8.407-20.895,22.211-20.787a13.442,13.442,0,0,1-1.519-2.4,71.012,71.012,0,0,0-20.449-24.869,41.36,41.36,0,0,1-1.808,11.064c-7.157,23.75-45.14,107.448-105.043,108.1-30.947.337-48.8-22.954-58.849-45.548a170.56,170.56,0,0,1-10.2,22.01c-16.9,29.973-27.558,44.906-37.354,51.31,9.383,15.1,20.04,25.489,32.288,27.343,25.713,3.891,71.166-3.838,112.043-15.485C1144.88,1143.444,1146.723,1141.034,1152.4,1137.15Z" transform="translate(-578.266 -306.026)" fill="none" stroke="#61b0bc" stroke-miterlimit="10" stroke-width="1.375"/>
    <path id="Path_7778" data-name="Path 7778" d="M1816.756,1059.028c14.785-13.475,50.955-18.253,43.936-46.923,0,0-31.53-32.487-58.142-29.221-4.858,2.25-9.88,4.389-15.01,6.38-9.1,5.965-15.533,7.814-20.131,6.84-44.892,13.253-91.64,13.117-103.036-19.644-6.483-3.946-13.248-2.478-18.133,12.18-.454,1.362-.944,2.8-1.438,4.249a261.307,261.307,0,0,1-11.259,65.88c82.144-76.328,175.448-12.473,186.093-5.994a308.148,308.148,0,0,1-59.856,34.22c3.866,3.244,8.08,6.818,12.6,10.581,24.814,20.651,46.084,8.688,39.215-20.241-.107-.445-.157-.856-.277-1.31C1809.393,1068.694,1811.953,1063.4,1816.756,1059.028Z" transform="translate(-739.959 -303.56)" fill="none" stroke="#61b0bc" stroke-miterlimit="10" stroke-width="1.375"/>
    <path id="Path_7779" data-name="Path 7779" d="M1756.161,947.339c1.094-.484,2.185-.907,3.276-1.36A14.834,14.834,0,0,0,1756.161,947.339Z" transform="translate(-771.313 -297.356)" fill="none" stroke="#61b0bc" stroke-miterlimit="10" stroke-width="1.375"/>
    <path id="Path_7780" data-name="Path 7780" d="M1557.51,798.536a103.434,103.434,0,0,0-1.258-15.368c-2.5-15.4-8.994-29.085-22.2-37.561-48.225-30.939-26.049-49.632-3.873-68.323s28.235-61.616-10.057-67.154c-31.2-4.511-69.008-12.718-74.285-28.116a11.474,11.474,0,0,1-.433-5.754,16.751,16.751,0,0,1,2.336-5.913c5.989-9.765,11.868-21.823,13.321-32.163-33,13.78-69.959,1.884-100.466-14.6-30.522,5.152-57.627,14.08-63.876,32.236-4,11.633-6.255,29.092-7.1,48.5,18.586,21.049,38.71,44.906,52.894,69.358a89.863,89.863,0,0,1,7.72-5.01,69.567,69.567,0,0,1,21.292-8.063,120.95,120.95,0,0,1,16.064-21.526c47.908-51.816,84.606-13.432,97.2,19.087,24.022,62.044-11.724,87.507,32.138,155.4,4.343-11.667,7.729-18.838,7.729-18.838,13.959,14.021,22.339,31.049,27.074,48.784C1554.991,830.029,1557.684,814.015,1557.51,798.536Z" transform="translate(-652.017 -205.731)" fill="none" stroke="#61b0bc" stroke-miterlimit="10" stroke-width="1.375"/>
    <path id="Path_7781" data-name="Path 7781" d="M939.981,797.3c-4.776-6.7-10.414-10.239-6.49-17.632A22.34,22.34,0,0,1,942.116,771c-1.379-4.9-2.565-9.867-3.587-14.862-10.216.109-15.071-5.78-15.071-17.43,0-.264.007-.516.009-.779a85.015,85.015,0,0,1-92.473,22.579c-19.887,15.4-40.661,35.181-52.373,57.158,26.064,8.119,47.489,30.431,42.425,71.715l80.776-26.711,15.164-5.031,0,.013,12.822-4.24a336.607,336.607,0,0,1,15.039-49.366C943.309,802.035,941.737,799.764,939.981,797.3Z" transform="translate(-521.351 -252.226)" fill="none" stroke="#61b0bc" stroke-miterlimit="10" stroke-width="1.375"/>
    <path id="Path_7782" data-name="Path 7782" d="M1012.756,1091.127a170.569,170.569,0,0,0,10.2-22.01A164.9,164.9,0,0,1,1012.8,1037.5c-8.928-.619-16.866-3.035-23.519-7.52-10.658,36.269-35.878,73.693-88.965,101.251,42.758,6.727,57.563,22.668,75.09,11.208C985.2,1136.035,995.854,1121.1,1012.756,1091.127Z" transform="translate(-552.469 -315.577)" fill="none" stroke="#61b0bc" stroke-miterlimit="10" stroke-width="1.375"/>
    <path id="Path_7783" data-name="Path 7783" d="M1055.3,223.606a97.2,97.2,0,0,0,14.978,14.055,227.721,227.721,0,0,1,14.926,19.155,52.214,52.214,0,0,1,6.622-3.212c14.971-5.862,31.586-3.2,45.635,4.15,29.7,15.528,43.167,52.4,49.082,84.661,6.8,37.128-8.834,66.1-26.785,96.713-19.042,32.48-43.419,65.128-54.686,101.786a103.521,103.521,0,0,0-3.918,42.574,22.735,22.735,0,0,1,3.745-1.493c14.038-4.02,28.077-8.039,11.427-32.921s18.467-64.522,18.467-64.522c30.86-9.242,29.062,51.071,53.343,43.306s35.071,11.519,18.47,34.781-28.979,38.195-13.106,33.041,29.741,2.874,26.384,23.177c-.565,3.406-1.447,7.309-2.546,11.466a138.11,138.11,0,0,1,32.371,6.4c8.232-12.594,18.708-24.755,31.376-33.823-14.185-24.453-34.307-48.308-52.893-69.358-26.658-30.191-50.069-54.594-47.873-66.566,1.923-10.49,26.156-39.872,50.762-74.218.853-13.157,10.6-30.549,32.672-50.322,14.844-26.55,24.2-52.216,19.385-71.482a34.944,34.944,0,0,0-3.629-9.241,40.594,40.594,0,0,0-7.822-9.225c-31.654-28.82-126.375-53.769-181.447-55.122C1057.8,196.574,1039.173,203.983,1055.3,223.606Z" transform="translate(-590.59 -134.955)" fill="none" stroke="#61b0bc" stroke-miterlimit="10" stroke-width="1.375"/>
    <path id="Path_7784" data-name="Path 7784" d="M1066.164,909.556a71.641,71.641,0,0,1,22.482,2.948,31.78,31.78,0,0,1,1.607-12.055,45.827,45.827,0,0,1-3.857-3.567c-6.186-3.239-12.289-6.657-18.2-10.461-.876-.563-1.744-1.146-2.613-1.724-9.389,5.206-16.942,2.024-25.927-5.986-7.818-6.971-12.5-14.37-8.416-22.8a160.25,160.25,0,0,1-19.852-25.942c-6.578,1.109-10.476-2.234-14.594-7.6a336.488,336.488,0,0,0-15.039,49.366l22.319-7.381s24.25,58.593,6.03,120.594c6.654,4.486,14.592,6.9,23.52,7.521-1.321-6.136-1.816-10.054-1.816-10.054C1027.766,963.224,1031.457,910.226,1066.164,909.556Z" transform="translate(-573.293 -270.542)" fill="none" stroke="#61b0bc" stroke-miterlimit="10" stroke-width="1.375"/>
    <path id="Path_7785" data-name="Path 7785" d="M1334.6,1101.128c-17.355-13.691-31.367-32.955-39.067-57.682a145.82,145.82,0,0,1-4.476-18.629,9.373,9.373,0,0,1-3.3-1.671c-3.6,6.2-9.137,15.615-15.786,26.556-20.869,34.343-52.677,83.654-70.033,95.517-5.682,3.884-7.524,6.294-6.874,7.6,2.473,4.954,41.506-6.327,47.351-15.557a8.978,8.978,0,0,1,.661-.925c.671-.812,1.193-.982,1.575-.669,3.229,2.649-3.96,41.763-24.626,58.7-19.982,16.382,35.472,37.381,56.278-34.112,22.839-78.48,32.954,8.323,40.61,19.384s13.742-15.8,7.874-28.2-3.115-27.834,7.621-18.117c2.3,2.08,3.466-.328,3.795-5.68C1336.574,1121.743,1335.912,1112.242,1334.6,1101.128Z" transform="translate(-627.808 -314.095)" fill="none" stroke="#61b0bc" stroke-miterlimit="10" stroke-width="1.375"/>
    <path id="Path_7786" data-name="Path 7786" d="M1160.756,941.814c-1.915.53-3.67.928-5.423,1.322-2.078.468-4.042.838-5.916,1.135-20.737,3.259-29.863-3.443-44.026-7.619a71.617,71.617,0,0,0-22.482-2.947c-34.708.67-38.4,53.667-34.359,72.852,0,0,.5,3.917,1.817,10.053a165.017,165.017,0,0,0,10.159,31.619c10.051,22.595,27.9,45.885,58.85,45.548,59.9-.654,97.885-84.352,105.043-108.1a41.269,41.269,0,0,0,1.807-11.062C1226.823,947.4,1196.288,931.969,1160.756,941.814Z" transform="translate(-590.039 -294.69)" fill="none" stroke="#61b0bc" stroke-miterlimit="10" stroke-width="1.375"/>
    <path id="Path_7787" data-name="Path 7787" d="M1121.128,906.415c8.231,6.848,19.317,11.09,33.618,9.813,52.958-4.724,85.751-48.215,85.751-48.215s-63.5-14.625-92.206,24.915c0,0-17.6-43.521-36.681-43.061-13.08.314-12.838,33.595,5.661,52.979A45.759,45.759,0,0,0,1121.128,906.415Z" transform="translate(-604.167 -276.507)" fill="none" stroke="#61b0bc" stroke-miterlimit="10" stroke-width="1.375"/>
    <path id="Path_7788" data-name="Path 7788" d="M1492.957,683.131c-12.59-32.52-49.29-70.9-97.2-19.088a121.147,121.147,0,0,0-16.065,21.526c26.013-5.057,44.157,8.634,44.157,8.634,9.289,21.432-18,54.524-51.465,64.231a44.51,44.51,0,0,0-4.738,1.705c.735,6.911,1.607,13.619,2.231,20.092a81.069,81.069,0,0,1,14.174-5.7c33.47-9.708,51.265-59.237,59.306-65.637s19.787,20.6,15.9,40.886-24.361,68.514-61.228,89.552c-21.931,12.514-40.924,9.939-52.718,5.8-14.7,24.625-28.97,55.195-21.881,96.286a145.647,145.647,0,0,0,4.477,18.629c7.7,24.728,21.711,43.992,39.066,57.683,45.225,35.675,113.228,33.365,151.973-9.8a88.658,88.658,0,0,0,7.862-10.6c-36.976-46.054-14.917-123.329-1.721-158.788C1481.233,770.637,1516.979,745.176,1492.957,683.131Zm5.288,221.928c2.065,31.759-20.732,59.267-50.919,61.439s-56.332-21.813-58.4-53.573,20.733-59.266,50.919-61.439S1496.181,873.3,1498.244,905.059Z" transform="translate(-660.185 -230.693)" fill="none" stroke="#61b0bc" stroke-miterlimit="10" stroke-width="1.375"/>
    <path id="Path_7789" data-name="Path 7789" d="M1462.948,910.4c-30.187,2.171-52.985,29.678-50.92,61.439s28.209,55.746,58.4,53.573,52.986-29.679,50.92-61.439S1493.134,908.229,1462.948,910.4Z" transform="translate(-683.283 -289.609)" fill="none" stroke="#61b0bc" stroke-miterlimit="10" stroke-width="1.375"/>
    <path id="Path_7790" data-name="Path 7790" d="M916.391,897.225l-80.776,26.712c0,.029-.01.06-.013.092Z" transform="translate(-535.922 -286.78)" fill="none" stroke="#61b0bc" stroke-miterlimit="10" stroke-width="1.375"/>
    <path id="Path_7791" data-name="Path 7791" d="M899.813,996.574c18.22-62-6.03-120.593-6.03-120.593l-22.319,7.38-12.821,4.24c.257.609,53.064,126.294-78.471,183.187-131.854,57.029-194.157-92.755-194.157-92.755l47.315-15.7c-.039-.062-.072-.126-.112-.187L563.9,985.071l-13.457,4.451s78.143,187.867,243.52,116.337c5.934-2.565,11.537-5.257,16.89-8.034C863.934,1070.267,889.155,1032.843,899.813,996.574Z" transform="translate(-463.004 -282.172)" fill="none" stroke="#61b0bc" stroke-miterlimit="10" stroke-width="1.375"/>
    <path id="Path_7792" data-name="Path 7792" d="M855.7,895.831l-80.788,26.8c-2.241,18.149-9.59,39.955-23.919,65.838-.421-.2-68.219,14.42-97.332-12.137a75.585,75.585,0,0,1-8.106-10.788l-47.315,15.7s62.3,149.785,194.159,92.756c131.535-56.893,78.727-182.577,78.469-183.186l-.005-.015Z" transform="translate(-475.226 -285.387)" fill="none" stroke="#61b0bc" stroke-miterlimit="10" stroke-width="1.375"/>
    <path id="Path_7793" data-name="Path 7793" d="M777.814,654.421c2.116,32.538,23.677,59.1,52.93,69.932a85.013,85.013,0,0,0,92.473-22.578,80.43,80.43,0,0,0,20.925-59.325,79.32,79.32,0,0,0-1.575-10.961c-.125-.6-.264-1.192-.4-1.788-6.325-27.311-26.617-48.933-52.879-57.927-23.524,26.118-62.55,36.074-62.55,36.074-.579-13.484,3.205-25.716,9.354-36.591a84.258,84.258,0,0,0-44.221,32.65A79.858,79.858,0,0,0,777.814,654.421Z" transform="translate(-521.102 -216.072)" fill="none" stroke="#61b0bc" stroke-miterlimit="10" stroke-width="1.375"/>
    <path id="Path_7794" data-name="Path 7794" d="M906.134,555.741c12.872-14.292,21.118-33.4,15.755-58.409,0,0-4.342,1.909-10.941,5.537-15.463,8.5-43.429,26.56-58.01,52.355-6.147,10.875-9.932,23.107-9.354,36.591C843.583,591.815,882.61,581.859,906.134,555.741Z" transform="translate(-537.947 -200.035)" fill="none" stroke="#61b0bc" stroke-miterlimit="10" stroke-width="1.375"/>
    <path id="Path_7795" data-name="Path 7795" d="M556.569,753.059c39.078,23.631,54.139,42.952,63.112,48.926a74.6,74.6,0,0,1,11.286-10.355c.828-.72,1.713-1.4,2.62-2.068A447.13,447.13,0,0,1,619.3,744.4c-22.582-88.065-.23-126.4-25.678-145.895-95.116-21.563-9.738,87.364,18.75,148.882,5.946,12.843,9.417,23.622,8.246,30.712-6.6-10.019-13.376-19.788-20.169-29.646-26.367-38.264-52.94-77.963-69.895-139.723-9.542-53.279-62.707-43.711-61.358-.921-1.85,17.383,62.52,60.112,78.567,78.488.478-.813,22.928,33.259,41.41,61.331,12.285,18.662,22.821,34.676,23.971,36.008a251.688,251.688,0,0,1-41.565-36.159c-18.153-19.363-32.718-39.728-44-56.1q-.94-1.365-1.855-2.7c-7.12-10.372-12.858-18.934-17.272-24.264-36.744-21.068-52.653,16.925-44.094,38.442,2.38,5.986,6.652,10.7,12.9,12.507,17.319,6.552,32.4,13.117,45.7,19.55C535.81,741.136,546.92,747.225,556.569,753.059Z" transform="translate(-440.412 -216.269)" fill="none" stroke="#61b0bc" stroke-miterlimit="10" stroke-width="1.375"/>
    <path id="Path_7796" data-name="Path 7796" d="M763.336,976.4c14.329-25.883,21.678-47.689,23.919-65.838,0-.032.009-.062.013-.091,5.064-41.284-16.36-63.6-42.426-71.714-22.647-7.054-48.781-3.386-64.092,7.849-.908.667-1.793,1.349-2.621,2.068a74.627,74.627,0,0,0-11.286,10.355c-22.292,25.037-27.618,64.168-9.055,94.261.039.063.072.125.111.187a75.6,75.6,0,0,0,8.106,10.787C695.117,990.823,762.916,976.2,763.336,976.4Z" transform="translate(-487.574 -273.317)" fill="none" stroke="#61b0bc" stroke-miterlimit="10" stroke-width="1.375"/>
    <path id="Path_7797" data-name="Path 7797" d="M1288.534,795.868c-3.884,20.285,7.864,47.285,15.9,40.886,7.652-6.09,24.148-51.211,54.568-63.931a44.33,44.33,0,0,1,4.738-1.705c33.469-9.709,60.756-42.8,51.465-64.233,0,0-18.143-13.69-44.155-8.632a69.532,69.532,0,0,0-21.292,8.064,89.56,89.56,0,0,0-7.722,5.01c-12.669,9.067-23.144,21.229-31.377,33.823C1298.1,764.362,1290.71,784.5,1288.534,795.868Z" transform="translate(-651.543 -243.376)" fill="none" stroke="#61b0bc" stroke-miterlimit="10" stroke-width="1.375"/>
    <path id="Path_7798" data-name="Path 7798" d="M1335.744,857.95a50.846,50.846,0,0,0,12.729,6.368c11.794,4.139,30.789,6.714,52.718-5.8,36.867-21.04,57.344-69.267,61.229-89.554s-7.864-47.285-15.9-40.885-25.837,55.927-59.305,65.636a81.03,81.03,0,0,0-14.173,5.7C1346.566,812.911,1327.814,839.654,1335.744,857.95Z" transform="translate(-663.341 -249.882)" fill="none" stroke="#61b0bc" stroke-miterlimit="10" stroke-width="1.375"/>
    <path id="Path_7799" data-name="Path 7799" d="M1302.515,438.667c9.359,6.636,31.583,25.122,59.048,39.959,30.506,16.479,67.465,28.376,100.465,14.6a78.047,78.047,0,0,0,15.923-8.9c64.854-47.126,54.123-58.416,63.922-52.034a14.818,14.818,0,0,1,1.523,1.189,42.173,42.173,0,0,1,3.387,3.394c11.774,12.959,33.175,44.929,55.279,44.506,0,0,4.624-3.685,3.7-19.332a100.372,100.372,0,0,0-1.408-11.461c-1.845-10.5-5.6-24.4-12.555-42.791,0,0,2.553-4.227,6.12-10.577,4.38-7.8,10.282-18.789,14.869-29.1,3.629-8.156,6.439-15.882,7.005-21.249.528-5-2.98-6.968-8.9-6.352-4.952.516-11.6,2.858-18.983,6.745a138.942,138.942,0,0,0-45.6,39.895c-.233.318-.473.627-.7.948-.494-.326-.924-.738-1.394-1.1a24.706,24.706,0,0,1-3.356-3.109c-.469-.522-.981-1-1.407-1.562a215.445,215.445,0,0,0-29.125-31.055c-13.8-12.038-31.491-24.089-51.817-30.435a99.93,99.93,0,0,0-19.285-4.032,90.537,90.537,0,0,0-20.094.11,93.26,93.26,0,0,0-20.6,4.887,107.489,107.489,0,0,0-17.157,7.879c-23.585,13.463-41.693,26.454-55.214,38.564-22.078,19.774-31.82,37.167-32.673,50.323C1292.912,427.33,1296.244,434.22,1302.515,438.667Z" transform="translate(-652.987 -160.768)" fill="none" stroke="#61b0bc" stroke-miterlimit="10" stroke-width="1.375"/>
    <path id="Path_7800" data-name="Path 7800" d="M1803.371,1030.054c-10.644-6.477-103.95-70.333-186.093,6a261.214,261.214,0,0,0,11.258-65.88c.617-16.468-.529-34.333-5.127-51.545-4.737-17.734-13.115-34.762-27.074-48.783,0,0-3.389,7.171-7.731,18.837-13.2,35.459-35.254,112.735,1.722,158.787a81.819,81.819,0,0,0,19.079,17.247c.773.506,1.568.917,2.349,1.4,17.953,11.092,37.441,15.436,56.912,15.459,17.919.024,35.8-3.54,52.413-8.867,7.8-2.5,15.326-5.37,22.437-8.427A308.12,308.12,0,0,0,1803.371,1030.054Z" transform="translate(-723.695 -280.84)" fill="none" stroke="#61b0bc" stroke-miterlimit="10" stroke-width="1.375"/>
    <path id="Path_7801" data-name="Path 7801" d="M1861.094,906.573s-61.264-22.942-123.727,2.968c-1.094.453-2.184.877-3.277,1.36a152.966,152.966,0,0,0-27.241,15.569,278.412,278.412,0,0,0,13.548-59.911,222.281,222.281,0,0,0,1.422-26.553,173.229,173.229,0,0,0-1.509-21.558c-1.888-13.993-5.692-27.831-12.36-40.448a321.239,321.239,0,0,0-26.286,59.164c-8.854,26.976-15.262,59.6-9.8,89.932a44.275,44.275,0,0,0,1.788,6.719c11.4,32.762,58.144,32.9,103.035,19.645,6.8-2.006,13.553-4.288,20.131-6.84,5.132-1.992,10.153-4.13,15.01-6.38C1833.219,930.334,1851.385,918.213,1861.094,906.573Z" transform="translate(-749.242 -260.919)" fill="none" stroke="#61b0bc" stroke-miterlimit="10" stroke-width="1.375"/>
    <path id="Path_7802" data-name="Path 7802" d="M1793.711,821.724a181.516,181.516,0,0,0,7.923-16.824c8.079-19.351,18.808-52.608,14.409-84.844a89.583,89.583,0,0,0-9.667-30.577s-8.169,13.765-17.389,33.318c-12.9,27.362-27.867,66.088-25.477,94.634,1.159,13.826,6.381,25.259,17.9,31.829.012.008.026.013.038.02,52.305,29.775,149.6-36.317,149.6-36.317s-22.767-9.969-56.123-10.508A167.85,167.85,0,0,0,1793.711,821.724Z" transform="translate(-773.128 -241.716)" fill="none" stroke="#61b0bc" stroke-miterlimit="10" stroke-width="1.375"/>
    <path id="Path_7803" data-name="Path 7803" d="M1975.1,718.385c-1.578-.486-3.241-.94-5.014-1.341a74.294,74.294,0,0,0-18.987-1.722,97.419,97.419,0,0,0-33.455,7.559c-11.238,4.564-23.594,11.51-36.992,21.712,0,0,29.921-42.005,27.791-85.212a82.12,82.12,0,0,0-1.313-11.35s-17.568,15.25-30.922,47.54c-7.548,18.251-13.756,41.926-14.67,71.418a87.26,87.26,0,0,0,13.613,3.308,125.728,125.728,0,0,0,76.556-11.077,139.2,139.2,0,0,0,31.107-21.01c3.606-3.192,7.2-6.637,10.755-10.421C1993.567,727.79,1987.141,722.1,1975.1,718.385Z" transform="translate(-798.258 -232.725)" fill="none" stroke="#61b0bc" stroke-miterlimit="10" stroke-width="1.375"/>
    <path id="Path_7804" data-name="Path 7804" d="M1109.9,694.992c16.91,10.82,37.432,26.4,26.28,34.219s-24.579,21.83-2.626,29.277,59.181,22.824,70.738,9.955c9.619-10.71,20.89-38.19,26.343-58.82,1.1-4.157,1.982-8.062,2.546-11.468,3.358-20.3-10.512-28.331-26.385-23.177s-3.5-9.779,13.106-33.041,5.814-42.547-18.468-34.781-22.484-52.548-53.344-43.305c0,0-35.118,39.64-18.467,64.522s2.612,28.9-11.428,32.921a22.7,22.7,0,0,0-3.744,1.493C1102.362,668.73,1094.532,685.16,1109.9,694.992Z" transform="translate(-603.882 -214.256)" fill="none" stroke="#61b0bc" stroke-miterlimit="10" stroke-width="1.375"/>
  </g>
</svg>
