<svg xmlns="http://www.w3.org/2000/svg" xmlns:xlink="http://www.w3.org/1999/xlink" width="329" height="399.163" viewBox="0 0 329 399.163">
  <defs>
    <clipPath id="clip-path">
      <rect id="Rectangle_385" data-name="Rectangle 385" width="329" height="399.163" rx="30" transform="translate(0 -23)" fill="#f1e6b2"/>
    </clipPath>
  </defs>
  <g id="pop-pattern" transform="translate(-30.156 -338.144)">
    <g id="pop-pattern-2" data-name="pop-pattern" transform="translate(-9.844 -3870.162)">
      <g id="pop-pattern-3" data-name="pop-pattern" transform="translate(40 4231.307)" opacity="0.101" clip-path="url(#clip-path)">
        <g id="Group_2796" data-name="Group 2796" transform="translate(-119.114 -67.039)" style="mix-blend-mode: multiply;isolation: isolate">
          <g id="Group_2795" data-name="Group 2795">
            <path id="Path_8442" data-name="Path 8442" d="M998.924,645.988a20.048,20.048,0,0,1,1.874-1.9c-.679.306-1.386.582-2.111.841C998.769,645.281,998.85,645.632,998.924,645.988Z" transform="translate(-750.504 -399.325)" fill="none" stroke="#61b0bc" stroke-miterlimit="10" stroke-width="1.375"/>
            <path id="Path_8443" data-name="Path 8443" d="M1013.38,637.323c.319-.477.633-.956.96-1.43l.275-.4a31.287,31.287,0,0,1-2.82,2.018A7.162,7.162,0,0,1,1013.38,637.323Z" transform="translate(-757.862 -394.728)" fill="none" stroke="#61b0bc" stroke-miterlimit="10" stroke-width="1.375"/>
            <path id="Path_8444" data-name="Path 8444" d="M673.494,251.2a181.8,181.8,0,0,1,6.833-46.5c13.727-30.769,64.406-50.5,84.566-57.974,13.377-4.96,39.368,4.509,63.181,23.6-9.507-11.652,1.469-16.051,20.594-15.578-31.468-27.791-67.867-42.116-85.889-35.435-25.112,9.31-88.243,33.888-105.342,72.217,0,0-12.235,38.823-7.428,82.468A68.1,68.1,0,0,1,673.494,251.2Z" transform="translate(-554.164 -117.682)" fill="none" stroke="#61b0bc" stroke-miterlimit="10" stroke-width="1.375"/>
            <path id="Path_8445" data-name="Path 8445" d="M853.3,340.965c4.639,7.2,4.448,16.272,3.059,23.653a6.638,6.638,0,0,1,3.766-.4q4.077-6.279,7.936-12.74a12.065,12.065,0,0,1,.626-11.244,9.75,9.75,0,0,1,8.356-4.828q9.312-17.594,16.979-36.093c.148-.358.3-.745.452-1.116-5.241,4.051-13.359,6.841-24.866,1.8a27.02,27.02,0,0,1-6.27-3.8c2.1,4.987-2.791,11.946-8.268,10.1a25.177,25.177,0,0,1-14.514-12.528c-5.349.031-7.118-6.214-5.234-12.577.24-.812,1.164-1.06,1.773-1.4a36.606,36.606,0,0,1,.27-5.476c-3.213-2.394-3.022-4.444-1.231-11.186.661-2.487,3.7-2.378,5.549-2.086a46.125,46.125,0,0,1,2.926-4.717c.056-.132.112-.262.168-.393-2.1-2.63-1.748-4.989.284-9.72,1.158-2.7,4.292-2.521,6.351-1.912a60.417,60.417,0,0,1,10.414-11.028,6.953,6.953,0,0,1,1.9-6.271,6.09,6.09,0,0,1,7.924-1.213,37.886,37.886,0,0,1,5.53-3.836,135.037,135.037,0,0,0-8.8-11.374,57.5,57.5,0,0,1-8.829-8.346c-23.812-19.093-49.8-28.562-63.181-23.6-20.16,7.474-70.84,27.2-84.567,57.974a181.785,181.785,0,0,0-6.833,46.5,68.534,68.534,0,0,1,29.4-9.148c4.877-9.616,20.726-15.8,27.129-18.179,6.55-2.429,22.409,5.781,31.125,19.31,5.364,8.328,3.732,19.365,1.687,26.633a64.356,64.356,0,0,1,10.667,24.769,110.062,110.062,0,0,1,14.553-6.476C826.641,317.382,843.844,326.286,853.3,340.965ZM773.992,201.632c2.071-8.119,13.59-16.38,18.187-19.579s17.519-.916,25.766,6.76,3.582,24.615,3.582,24.615-5.449,21.428-28.457,18.928S773.992,201.632,773.992,201.632Zm16.145,40.039c8.682-4.649,25.85,11.428,25.85,11.428,4.961-25,37.22-32.98,37.22-32.98s-6.018,27.776-29.395,42.277S781.455,246.319,790.137,241.67Z" transform="translate(-585.643 -149.592)" fill="none" stroke="#61b0bc" stroke-miterlimit="10" stroke-width="1.375"/>
            <path id="Path_8446" data-name="Path 8446" d="M927.643,524.463a47.856,47.856,0,0,1,31.168,34.4c.725-.258,1.432-.534,2.11-.84a8.5,8.5,0,0,1,3.64-1.977,31.45,31.45,0,0,0,2.819-2.017q1.844-2.676,3.686-5.343c-3.439-5.385-2.925-9.325,2.179-14.229,2.559-2.459,5.247-5.093,8.1-6.169,1.389-7.382,1.58-16.452-3.059-23.654-9.455-14.678-26.658-23.582-33.765-20.948a110.086,110.086,0,0,0-14.552,6.476q.287,1.446.513,2.914c3.889-2.154,6.449-3.288,6.449-3.288C940.09,504.63,935.23,515.977,927.643,524.463Z" transform="translate(-710.627 -313.256)" fill="none" stroke="#61b0bc" stroke-miterlimit="10" stroke-width="1.375"/>
            <path id="Path_8447" data-name="Path 8447" d="M1093.081,351.383c1.394,10.157-2.682,22.081-6.2,30.73-5.241,4.051-13.36,6.841-24.867,1.8a27.023,27.023,0,0,1-6.269-3.8,6.137,6.137,0,0,0-1.591-2.239c-11.766-10.489-5.132-25.715,2.708-37.42,8.458-5.99,20.885-9.414,29.295-2.3a19.138,19.138,0,0,1,3.291,3.659S1092.81,347.763,1093.081,351.383Z" transform="translate(-778.052 -233.505)" fill="none" stroke="#61b0bc" stroke-miterlimit="10" stroke-width="1.375"/>
            <path id="Path_8448" data-name="Path 8448" d="M830.247,364.879c-8.716-13.529-24.574-21.739-31.124-19.31-6.4,2.373-22.253,8.563-27.129,18.179.087-.007.173-.02.26-.026a67.017,67.017,0,0,1,59.68,27.79C833.98,384.244,835.611,373.207,830.247,364.879Z" transform="translate(-623.261 -239.382)" fill="none" stroke="#61b0bc" stroke-miterlimit="10" stroke-width="1.375"/>
            <path id="Path_8449" data-name="Path 8449" d="M909.508,217.255s4.666-16.94-3.581-24.615-21.169-9.959-25.766-6.759-16.117,11.46-18.187,19.579c0,0-3.932,28.223,19.078,30.723S909.508,217.255,909.508,217.255Z" transform="translate(-673.624 -153.42)" fill="none" stroke="#61b0bc" stroke-miterlimit="10" stroke-width="1.375"/>
            <path id="Path_8450" data-name="Path 8450" d="M959.429,269.362s-32.258,7.984-37.221,32.98c0,0-17.167-16.076-25.849-11.428s10.3,35.226,33.676,20.725S959.429,269.362,959.429,269.362Z" transform="translate(-691.864 -198.835)" fill="none" stroke="#61b0bc" stroke-miterlimit="10" stroke-width="1.375"/>
            <path id="Path_8451" data-name="Path 8451" d="M1710.29,260.741q4.626,3.815,8.785,7.959c-.2.272-.406.545-.6.823,20.022,20.809,31.05,46.942,29.292,72.191a139.788,139.788,0,0,1,29.2-20.446c4.506,17.762-.833,31.718-9.6,42.36a58.3,58.3,0,0,1,28.142,18.5l-8.432-108.4c.7,10.841,18.124,14.855,20.721,25.482,3.22,13.174-18.6,25.217-11.044,36.821,4.7,7.213,17.8,7.048,21.229,14.841,4.07,9.254-10.108,18.568-6.542,27.993,3.428,9.064,18.579,7.747,25.417,14.985-8.679,7.861-18.035,19.317-12.121,29.435,1.5,2.565,3.888,4.7,4.873,7.463.96,2.7.442,5.383-.48,8.082,9.967-9.123,23.97-16.246,43.056-14.782-12.669-65.855-26.67-123.389-26.67-123.389,7.7,5.648,22.749,11.3,30.446,16.943,2.125,1.559,4.4,3.339,4.913,5.8.707,3.385-2.225,6.6-1.777,10.021.591,4.5,6.353,6.685,8.886,10.59,1.94,2.995,1.792,6.705,1.485,10.154-1.257,14.148-3.406,30.369,7.061,40.92,3.445,3.474,8.275,6.372,9.2,10.995,1.746,8.7-4.094,16.724,3.04,22.648,2.468,2.051,6.14,1.961,9.191,3.117,8.152,3.089,9.312,13.6,7.008,21.42s-13.791,17.476-11.814,25.46c.781,3.149,2.513,6.023,3.918,8.988a51.262,51.262,0,0,1,4.558,17.673c6.849,9.6,13.872,23.945,17.991,40.009.906-5.408,1.318-9.537,1.654-12.922.975-9.836,1.421-14.326,11.539-26.873a71.669,71.669,0,0,1,14.343-13.333c13.984-102.021-69.9-220.993-185.92-232.57-29.2-2.913-53.774-3.97-75.049-1.333,1.232.982,2.434,1.986,3.618,3C1709.969,261.161,1710.131,260.951,1710.29,260.741Z" transform="translate(-1147.628 -192.146)" fill="none" stroke="#61b0bc" stroke-miterlimit="10" stroke-width="1.375"/>
            <path id="Path_8452" data-name="Path 8452" d="M1352.668,235.266a20.8,20.8,0,0,1,2.139,5.488,20.636,20.636,0,0,1,7.889.715c.014-1.831.089-3.664.286-5.5A85.306,85.306,0,0,1,1370,211.211a93.237,93.237,0,0,1,18.974-8.575c-7.648,9.048-13.183,24.008-14.284,35.105a51.328,51.328,0,0,0-.029,9.256,84.142,84.142,0,0,1,11.382,8.624,54.687,54.687,0,0,1,12.143-2.9,114.078,114.078,0,0,1-2.561-20.266,59.473,59.473,0,0,1,10.615-33.891,117.11,117.11,0,0,1,18.3-1.233c-19.806,11.975-18.113,34.1-14.51,55.325a58.506,58.506,0,0,1,11.367,2.395,71.516,71.516,0,0,1,5.953-6.549c-.078-.439-.161-.876-.231-1.317-2.883-18.024,1.116-34.912,10.951-49.013a132.35,132.35,0,0,1,13.246,2.263c-9.7,11.177-14.359,24.441-13.314,39.263,9.267-6.45,19.107-10.349,25.275-8.089.034-.3.055-.6.1-.9,1.191-8.567,5.871-16.144,11.085-22.869-2.095-.9-4.212-1.778-6.375-2.588-47.542-17.8-96.269-6.6-120.02,24.535A24.072,24.072,0,0,1,1352.668,235.266Z" transform="translate(-946.605 -159.999)" fill="none" stroke="#61b0bc" stroke-miterlimit="10" stroke-width="1.375"/>
            <path id="Path_8453" data-name="Path 8453" d="M1585.078,342.848c-.075.1-.161.207-.239.311a127.579,127.579,0,0,1,17.166,18.439c.252.335.552.618.829.928a113.509,113.509,0,0,0-1.8-27.074c-.45-2.522-1.03-5.124-1.635-7.771C1595.521,332.8,1589.5,336.748,1585.078,342.848Z" transform="translate(-1079.51 -230.038)" fill="none" stroke="#61b0bc" stroke-miterlimit="10" stroke-width="1.375"/>
            <path id="Path_8454" data-name="Path 8454" d="M1715.027,313.449c3.489-.366,5.557.8,5.245,3.772-.333,3.185-1.99,7.774-4.129,12.617.04.544.083,1.1.119,1.631a136.527,136.527,0,0,1,.061,18.744,67.508,67.508,0,0,1,11.154,5.375c10.4,6.634,12.35,27.234-12.177,23.729-1.389-.2-2.763-.365-4.127-.517a60.341,60.341,0,0,1,.83,6.806q1.763,1.533,3.443,3.211a60.508,60.508,0,0,1,16.861-9.409c4.567-8.922,11.284-16.7,18.254-23.121,1.758-25.249-9.27-51.381-29.293-72.19C1715.573,292.288,1714.647,302.839,1715.027,313.449Z" transform="translate(-1150.421 -206.719)" fill="none" stroke="#61b0bc" stroke-miterlimit="10" stroke-width="1.375"/>
            <path id="Path_8455" data-name="Path 8455" d="M1637,257.14c.132,9.532,3.917,20.316,5.521,29.772.883,5.2,1.628,10.443,2.036,15.7a79.884,79.884,0,0,1,17.647-13.041c-.593-15.073.371-29.924,8.77-41.509q-1.775-1.527-3.617-3a133.567,133.567,0,0,0-19.806-13.077C1641.552,239.294,1636.851,246.528,1637,257.14Z" transform="translate(-1108.786 -178.835)" fill="none" stroke="#61b0bc" stroke-miterlimit="10" stroke-width="1.375"/>
            <path id="Path_8456" data-name="Path 8456" d="M1393.413,244.484c1.1-11.1,6.636-26.056,14.285-35.105a93.271,93.271,0,0,0-18.974,8.575,85.3,85.3,0,0,0-7.015,24.754c-.2,1.84-.271,3.673-.285,5.5a46.165,46.165,0,0,1,11.961,5.528A51.379,51.379,0,0,1,1393.413,244.484Z" transform="translate(-965.333 -166.743)" fill="none" stroke="#61b0bc" stroke-miterlimit="10" stroke-width="1.375"/>
            <path id="Path_8457" data-name="Path 8457" d="M1470.876,253.286c-3.6-21.225-5.3-43.35,14.51-55.325a117.186,117.186,0,0,0-18.3,1.232,59.471,59.471,0,0,0-10.615,33.892,114,114,0,0,0,2.562,20.266A52.939,52.939,0,0,1,1470.876,253.286Z" transform="translate(-1007.456 -160.631)" fill="none" stroke="#61b0bc" stroke-miterlimit="10" stroke-width="1.375"/>
            <path id="Path_8458" data-name="Path 8458" d="M1551.288,202.04a131.784,131.784,0,0,0-13.246-2.263c-9.834,14.1-13.833,30.988-10.951,49.012.071.442.155.879.232,1.318a84.933,84.933,0,0,1,10.651-8.8C1536.929,226.479,1541.589,213.216,1551.288,202.04Z" transform="translate(-1046.582 -161.605)" fill="none" stroke="#61b0bc" stroke-miterlimit="10" stroke-width="1.375"/>
            <path id="Path_8459" data-name="Path 8459" d="M1610.684,244.26a8.657,8.657,0,0,1,5.3,5.673c3.346,9.689,1.587,15.541-2.072,20.361.605,2.647,1.184,5.25,1.635,7.771a113.5,113.5,0,0,1,1.795,27.074,14.47,14.47,0,0,0,1.979,1.845c.41.034.825.054,1.233.09a79.7,79.7,0,0,1,9.234-10.647c-.41-5.255-1.154-10.5-2.037-15.7-1.6-9.457-5.389-20.241-5.522-29.773-.147-10.611,4.555-17.846,10.551-25.159.062-.077.127-.155.19-.232q-5.349-2.785-11.049-5.142c-.019.025-.038.048-.057.072-5.213,6.725-9.893,14.3-11.085,22.869C1610.739,243.66,1610.718,243.961,1610.684,244.26Z" transform="translate(-1094.017 -172.651)" fill="none" stroke="#61b0bc" stroke-miterlimit="10" stroke-width="1.375"/>
            <path id="Path_8460" data-name="Path 8460" d="M1711.7,273.991c.193-.278.4-.551.6-.823q-4.163-4.132-8.784-7.959c-.16.21-.321.419-.475.631-8.4,11.586-9.364,26.436-8.77,41.508,4.353-2.308,8.269-3.7,11.189-4.005C1705.081,292.733,1706.006,282.183,1711.7,273.991Z" transform="translate(-1140.854 -196.613)" fill="none" stroke="#61b0bc" stroke-miterlimit="10" stroke-width="1.375"/>
            <path id="Path_8461" data-name="Path 8461" d="M1711.411,384.1c-.036-.536-.08-1.089-.119-1.632-2.7,6.119-6.183,12.647-8.764,17.275,3.253,1,6.25,2.047,8.943,3.1A136.473,136.473,0,0,0,1711.411,384.1Z" transform="translate(-1145.569 -259.352)" fill="none" stroke="#61b0bc" stroke-miterlimit="10" stroke-width="1.375"/>
            <path id="Path_8462" data-name="Path 8462" d="M1814.82,768.318a189.83,189.83,0,0,0,28.518-15.207,51.157,51.157,0,0,1-8.024-1.964,120.662,120.662,0,0,1,8.648-42.406,60.547,60.547,0,0,1-20.65,9.2C1825.906,737.08,1819.582,756.828,1814.82,768.318Z" transform="translate(-1208.599 -433.917)" fill="none" stroke="#61b0bc" stroke-miterlimit="10" stroke-width="1.375"/>
            <path id="Path_8463" data-name="Path 8463" d="M1764.048,731.031a59.533,59.533,0,0,1-8.411-.864c-1.4,14.173-4.854,27.523-11.322,37.861a46.658,46.658,0,0,1-6.667,8.4,103.751,103.751,0,0,1,.889,12.8c3.287-.47,6.791-1.125,10.5-2C1747.623,770.273,1756.442,747.278,1764.048,731.031Z" transform="translate(-1165.282 -445.381)" fill="none" stroke="#61b0bc" stroke-miterlimit="10" stroke-width="1.375"/>
            <path id="Path_8464" data-name="Path 8464" d="M2016.015,972.5c-5.08,1.594-9.767,8.48-13.534,14.014-3.521,5.174-6.3,9.26-9.411,9.65-1.957.245-3.943,1.785-6.046,3.415-2.675,2.074-5.441,4.219-8.8,4.219-.176,0-.351-.007-.529-.018-.234-.016-.491-.023-.773-.023-5.984,0-21.469,3.2-21.624,3.233a1.672,1.672,0,0,1-.355.037,1.8,1.8,0,0,1-1.375-.654,1.977,1.977,0,0,1-.422-.976c-22.889,4.58-50.325,6.009-78.035,4.728-2.831,2.6-4.34,5.739-3.2,10.093.07.269.1.513.162.777,6.4.567,13.014,1.085,19.912,1.539,109.2,7.19,141.578-33.222,143.93-75.234a53.174,53.174,0,0,1-5.437,11.789C2027.95,963.2,2022.713,970.4,2016.015,972.5Z" transform="translate(-1240.429 -561.555)" fill="none" stroke="#61b0bc" stroke-miterlimit="10" stroke-width="1.375"/>
            <path id="Path_8465" data-name="Path 8465" d="M1804.174,826.451a98.346,98.346,0,0,1,47.869-11.441c7.17-5.475,14.229-11.123,20.5-16.287a73.974,73.974,0,0,1-35.184,2.532,189.739,189.739,0,0,1-28.519,15.206A108.082,108.082,0,0,1,1804.174,826.451Z" transform="translate(-1202.623 -482.06)" fill="none" stroke="#61b0bc" stroke-miterlimit="10" stroke-width="1.375"/>
            <path id="Path_8466" data-name="Path 8466" d="M1749.1,852.875c-3.7.879-7.208,1.534-10.5,2a132.92,132.92,0,0,1-.838,15.765,196.723,196.723,0,0,0,21.906,1.141.121.121,0,0,1-.023-.011C1752.858,867.873,1749.781,861.085,1749.1,852.875Z" transform="translate(-1165.347 -511.033)" fill="none" stroke="#61b0bc" stroke-miterlimit="10" stroke-width="1.375"/>
            <path id="Path_8467" data-name="Path 8467" d="M1825.263,993.33c-3.878,1.516-7.859,2.871-11.865,4.062C1816.109,997.971,1819.9,996.872,1825.263,993.33Z" transform="translate(-1207.8 -586.181)" fill="none" stroke="#61b0bc" stroke-miterlimit="10" stroke-width="1.375"/>
            <path id="Path_8468" data-name="Path 8468" d="M1804.551,810.354c19.66.32,33.08,6.24,33.08,6.24s-57.348,39.243-88.178,21.563a196.788,196.788,0,0,1-21.905-1.141,166.218,166.218,0,0,1-7.985,35.573,90.018,90.018,0,0,1,16.056-9.243,8.677,8.677,0,0,1,1.931-.808c36.817-15.384,72.928-1.762,72.928-1.762-5.722,6.911-16.43,14.108-29.037,19.991,15.686-1.94,34.27,17.351,34.27,17.351,4.138,17.024-17.181,19.861-25.9,27.861,27.71,1.281,55.146-.148,78.035-4.729a2.039,2.039,0,0,1,.044-.913l.273-.907c-.7-4.25-1.6-11.721-.536-17.376.241-1.28.516-2.463.782-3.606,1.32-5.662,2.272-9.753-2.854-17.956a30.438,30.438,0,0,0-5.231-6.5,13.364,13.364,0,0,1-1.838-2.083,24.269,24.269,0,0,1-18.288,7.862c-12.651,0-22.906-8.807-22.906-19.673s10.255-19.671,22.906-19.671a25.23,25.23,0,0,1,14.307,4.322A69.956,69.956,0,0,0,1850.28,838a6.63,6.63,0,0,0-4.048-3.107c-3.251-1.046-4.348-2.677-4.026-9.753.145-3.217.316-5.433.453-7.213.338-4.385.408-5.3-.862-10.67-.564-2.379-.757-3.59-.885-4.392-.21-1.316-.21-1.316-2.418-6.07l-1.465-3.162a22.7,22.7,0,0,0-2.036-3.615,74.362,74.362,0,0,1-9.939,4.046C1818.78,799.232,1811.721,804.879,1804.551,810.354Z" transform="translate(-1155.13 -477.404)" fill="none" stroke="#61b0bc" stroke-miterlimit="10" stroke-width="1.375"/>
            <path id="Path_8469" data-name="Path 8469" d="M1295.241,482.56c-16.188-8.809-29.288-19.786-34.8-23.726-3.7-2.639-5.66-6.731-5.325-11.929-14.5,20.394-28.787,37.84-29.921,44.068-1.294,7.109,12.5,21.6,28.218,39.525.5-11.522,1.823-21.889,4.182-28.8C1261.274,490.92,1277.25,485.62,1295.241,482.56Z" transform="translate(-877.593 -293.826)" fill="none" stroke="#61b0bc" stroke-miterlimit="10" stroke-width="1.375"/>
            <path id="Path_8470" data-name="Path 8470" d="M1369.944,310.764a63.146,63.146,0,0,1,10.113-4.678,84.021,84.021,0,0,0-11.383-8.623,46.138,46.138,0,0,0-11.961-5.528,20.639,20.639,0,0,0-7.888-.715c2.84,11.439-2.677,26.679-11.425,42.443C1345.37,326.472,1356.043,318.758,1369.944,310.764Z" transform="translate(-940.623 -210.465)" fill="none" stroke="#61b0bc" stroke-miterlimit="10" stroke-width="1.375"/>
            <path id="Path_8471" data-name="Path 8471" d="M1718.009,428.1a67.517,67.517,0,0,0-11.154-5.375c-2.692-1.054-5.69-2.1-8.943-3.1-2.1,3.77-3.608,6.28-3.608,6.28a144.356,144.356,0,0,1,7.4,25.408c1.365.151,2.738.318,4.128.516C1730.358,455.334,1728.406,434.734,1718.009,428.1Z" transform="translate(-1140.952 -279.23)" fill="none" stroke="#61b0bc" stroke-miterlimit="10" stroke-width="1.375"/>
            <path id="Path_8472" data-name="Path 8472" d="M1545.763,312.457c.078-.1.164-.208.24-.311,4.417-6.1,10.443-10.052,14.326-15.167,3.66-4.82,5.419-10.672,2.074-20.361a8.661,8.661,0,0,0-5.3-5.673c-6.168-2.26-16.008,1.64-25.275,8.09a84.806,84.806,0,0,0-10.651,8.8,71.432,71.432,0,0,0-5.953,6.548C1527.2,298.154,1537.63,305.309,1545.763,312.457Z" transform="translate(-1040.434 -199.336)" fill="none" stroke="#61b0bc" stroke-miterlimit="10" stroke-width="1.375"/>
            <path id="Path_8473" data-name="Path 8473" d="M1631.27,467.945a24.96,24.96,0,0,0-2-2.015c.381.627.727,1.284,1.059,1.955C1630.645,467.9,1630.959,467.924,1631.27,467.945Z" transform="translate(-1104.452 -304.005)" fill="none" stroke="#61b0bc" stroke-miterlimit="10" stroke-width="1.375"/>
            <path id="Path_8474" data-name="Path 8474" d="M1631.6,406.68c-.407-.036-.824-.056-1.233-.089.276.213.53.458.821.651C1631.326,407.052,1631.467,406.87,1631.6,406.68Z" transform="translate(-1105.067 -272.257)" fill="none" stroke="#61b0bc" stroke-miterlimit="10" stroke-width="1.375"/>
            <path id="Path_8475" data-name="Path 8475" d="M473.067,567.181c2.6,3.165,5.984,8.248,10.181,14.407a3.079,3.079,0,0,1,1.094,1.6c6.652,9.72,15.237,21.812,25.936,33.31a24.829,24.829,0,0,1,7.3-.261c1.025.12,2.049.239,3.068.35-10.893-16.668-24.125-36.9-24.407-36.417-9.458-10.91-47.4-36.281-46.31-46.6-.8-25.406,30.541-31.088,36.166.547,9.994,36.672,25.656,60.244,41.2,82.963a26.549,26.549,0,0,0,7.027-.633c-16.791-36.529-67.114-101.205-11.052-88.4,15,11.573,1.825,34.338,15.136,86.628,4.946-3.392,7-11.057,3.3-27.249-3.206-14.018,4.408-26.75,14.1-36.708a65.1,65.1,0,0,1-29.176-89.573,29.1,29.1,0,0,0-10.228-.431c-26.424,2.749-72.432,4.489-79.025,23.794s-5.168,65.572.136,88.8c1.85,8.105,5.285,13.546,9.562,16.706C442.032,577.231,451.41,554.671,473.067,567.181Z" transform="translate(-432.966 -301.085)" fill="none" stroke="#61b0bc" stroke-miterlimit="10" stroke-width="1.375"/>
            <path id="Path_8476" data-name="Path 8476" d="M1292.579,1020.773c-18.047-.064-25.6,2.11-13.091,12.343a49.576,49.576,0,0,1,4.848,4.528c3.918-6.5,7.181-12.086,9.3-15.767A6.481,6.481,0,0,1,1292.579,1020.773Z" transform="translate(-904.648 -600.863)" fill="none" stroke="#61b0bc" stroke-miterlimit="10" stroke-width="1.375"/>
            <path id="Path_8477" data-name="Path 8477" d="M1476.793,1096.669a52.6,52.6,0,0,1-4.635,6.3c-22.837,25.632-62.919,27-89.576,5.821a102,102,0,0,1,.948,15.743c13.838,7.28,28.372,11.133,42.808,10.086a106.37,106.37,0,0,0,63.083-26.877c-.46-.286-.929-.529-1.384-.83A48.321,48.321,0,0,1,1476.793,1096.669Z" transform="translate(-965.985 -641.47)" fill="none" stroke="#61b0bc" stroke-miterlimit="10" stroke-width="1.375"/>
            <path id="Path_8478" data-name="Path 8478" d="M1661.058,853.555c-.669.093-1.32.228-2,.291a16.383,16.383,0,0,0-11.994,7.114c-.6.857-1.244,1.628-1.875,2.426a112.205,112.205,0,0,1-3.406,26.706A105.123,105.123,0,0,1,1644.8,920.7c.292-.861.581-1.715.848-2.523,2.88-8.7,6.868-9.575,10.688-7.233a26.454,26.454,0,0,1-1.054-3.989C1652.063,888.941,1655.84,869.572,1661.058,853.555Z" transform="translate(-1111.471 -511.397)" fill="none" stroke="#61b0bc" stroke-miterlimit="10" stroke-width="1.375"/>
            <path id="Path_8479" data-name="Path 8479" d="M628.872,455.725a65.207,65.207,0,0,0,36.82,54.451c12.786-13.136,29.195-21.438,29.195-21.438a22.381,22.381,0,0,1,7.561,2.1,49.7,49.7,0,0,1,26.064-19.386c8.595-15.316,25.078-26.039,34.192-31.085q-.223-1.47-.513-2.915a64.355,64.355,0,0,0-10.668-24.769,67.015,67.015,0,0,0-59.68-27.79c-.087.007-.173.019-.26.025A68.367,68.367,0,0,0,638.7,416.859c-.763,1.226-1.5,2.47-2.18,3.744A65.248,65.248,0,0,0,628.872,455.725Z" transform="translate(-542.851 -260.548)" fill="none" stroke="#61b0bc" stroke-miterlimit="10" stroke-width="1.375"/>
            <path id="Path_8480" data-name="Path 8480" d="M1749.343,513.867c.136.252.282.494.417.748,7.658,14.461,15.7,52.078,12.442,85.176a59.573,59.573,0,0,0,8.411.864c5.436-11.611,10.249-19.784,10.249-19.784a53.447,53.447,0,0,1,5.7,18.156,60.551,60.551,0,0,0,20.649-9.2c7.872-19.173,18.226-28.228,18.226-28.228a49.119,49.119,0,0,1,.773,6.739q1.311-2.5,2.381-5.123a57.524,57.524,0,0,0,3.99-27.716,56.546,56.546,0,0,0-12.846-30.511,58.3,58.3,0,0,0-28.143-18.5C1777.608,503.468,1754.917,511.974,1749.343,513.867Z" transform="translate(-1171.846 -315.004)" fill="none" stroke="#61b0bc" stroke-miterlimit="10" stroke-width="1.375"/>
            <path id="Path_8481" data-name="Path 8481" d="M1731.972,512.758a49.747,49.747,0,0,1,5.8-23.677,60.536,60.536,0,0,0-16.863,9.41A72.278,72.278,0,0,1,1731.972,512.758Z" transform="translate(-1155.886 -316.392)" fill="none" stroke="#61b0bc" stroke-miterlimit="10" stroke-width="1.375"/>
            <path id="Path_8482" data-name="Path 8482" d="M1751.917,438.949a49.76,49.76,0,0,0-5.8,23.677c.485.817.952,1.653,1.411,2.5,5.575-1.893,28.266-10.4,42.249-27.38,8.764-10.642,14.1-24.6,9.6-42.361a139.788,139.788,0,0,0-29.2,20.447C1763.2,422.25,1756.484,430.027,1751.917,438.949Z" transform="translate(-1170.032 -266.26)" fill="none" stroke="#61b0bc" stroke-miterlimit="10" stroke-width="1.375"/>
            <path id="Path_8483" data-name="Path 8483" d="M1499.036,594.267c-.036-1.066-.13-2.218-.255-3.417A6.868,6.868,0,0,0,1499.036,594.267Z" transform="translate(-1031.146 -370.842)" fill="none" stroke="#61b0bc" stroke-miterlimit="10" stroke-width="1.375"/>
            <path id="Path_8484" data-name="Path 8484" d="M1676.486,628.9c6.47-10.338,9.926-23.688,11.323-37.861,3.261-33.1-4.784-70.716-12.442-85.177-.134-.253-.28-.5-.417-.747-.459-.844-.927-1.68-1.411-2.5a72.246,72.246,0,0,0-11.063-14.267q-1.679-1.676-3.442-3.212c.547,9.29-2.179,11.479-2.179,11.479-13.028.251-25.642-18.732-32.583-26.426-.312-.021-.625-.045-.937-.06,9.236,18.717.306,53.733,21.106,55.513,27.606,2.361,31.219,26.66,5.514,43.4s-43.95,26.763-25.877,28.227,29.1,15.559,17.963,34.9a158.633,158.633,0,0,1-11.615,16.944,61.971,61.971,0,0,1,.742,9.126c.63-.8,1.277-1.57,1.874-2.427a16.381,16.381,0,0,1,11.994-7.114c.684-.064,1.334-.2,2-.291a191.443,191.443,0,0,1,15.493-35.131,72.085,72.085,0,0,1,7.285,24.016A46.659,46.659,0,0,0,1676.486,628.9Z" transform="translate(-1097.453 -306.255)" fill="none" stroke="#61b0bc" stroke-miterlimit="10" stroke-width="1.375"/>
            <path id="Path_8485" data-name="Path 8485" d="M1575.871,628c11.134-19.337.111-33.433-17.964-34.9s.172-11.483,25.877-28.227,22.092-41.042-5.514-43.4c-20.8-1.779-11.87-36.8-21.107-55.512-.33-.672-.679-1.328-1.059-1.956a8.525,8.525,0,0,0-.9-.706c-5.775-3.789.549,2.915-37.677,30.9a45.92,45.92,0,0,1-9.385,5.285c-.857,6.14-4.322,13.3-7.851,19.1a9.99,9.99,0,0,0-1.378,3.511c.125,1.2.219,2.35.256,3.417,3.111,9.143,25.4,14.015,43.785,16.693,22.57,3.289,19,28.775,5.928,39.874s-26.142,22.2,2.283,40.568c7.786,5.032,11.612,13.161,13.088,22.3A158.85,158.85,0,0,0,1575.871,628Z" transform="translate(-1031.282 -302.076)" fill="none" stroke="#61b0bc" stroke-miterlimit="10" stroke-width="1.375"/>
            <path id="Path_8486" data-name="Path 8486" d="M719.508,716c6.9-13.05,19.149-24.793,30.87-33.94a47.417,47.417,0,0,1-22.912-71.517,22.378,22.378,0,0,0-7.561-2.1s-16.408,8.3-29.195,21.437c-9.692,9.958-17.306,22.691-14.1,36.708,3.7,16.191,1.645,23.857-3.3,27.248a266.57,266.57,0,0,0,8.423,26.819C690.755,713.989,706.159,711.811,719.508,716Z" transform="translate(-567.869 -380.257)" fill="none" stroke="#61b0bc" stroke-miterlimit="10" stroke-width="1.375"/>
            <path id="Path_8487" data-name="Path 8487" d="M1090.322,1075.728c10.23-7.043,28.978-36.323,41.278-56.715a49.384,49.384,0,0,0-4.847-4.528c-12.512-10.233-4.955-12.407,13.091-12.343a8,8,0,0,1-.9-1.426,42.1,42.1,0,0,0-12.053-14.766,24.713,24.713,0,0,1-1.066,6.569c-4.219,14.1-26.607,63.8-61.914,64.188-18.241.2-28.764-13.63-34.686-27.045a101.621,101.621,0,0,1-6.014,13.069c-9.963,17.8-16.243,26.664-22.017,30.466,5.531,8.968,11.812,15.134,19.031,16.235,15.156,2.31,41.947-2.279,66.04-9.195C1085.887,1079.464,1086.974,1078.034,1090.322,1075.728Z" transform="translate(-751.914 -582.232)" fill="none" stroke="#61b0bc" stroke-miterlimit="10" stroke-width="1.375"/>
            <path id="Path_8488" data-name="Path 8488" d="M1741.532,1024.723c8.715-8,30.034-10.838,25.9-27.862,0,0-18.584-19.29-34.271-17.351-2.863,1.336-5.823,2.606-8.847,3.788-5.364,3.542-9.155,4.64-11.865,4.062-26.46,7.87-54.014,7.789-60.732-11.664-3.821-2.343-7.809-1.471-10.688,7.232-.267.809-.556,1.661-.848,2.523a156.169,156.169,0,0,1-6.636,39.118c48.417-45.321,103.412-7.406,109.687-3.559a181.349,181.349,0,0,1-35.28,20.319c2.279,1.926,4.762,4.049,7.427,6.283,14.626,12.262,27.163,5.159,23.114-12.018-.063-.264-.092-.508-.163-.778C1737.192,1030.462,1738.7,1027.321,1741.532,1024.723Z" transform="translate(-1106.848 -576.149)" fill="none" stroke="#61b0bc" stroke-miterlimit="10" stroke-width="1.375"/>
            <path id="Path_8489" data-name="Path 8489" d="M1756.161,946.787c.645-.288,1.288-.539,1.931-.808A8.7,8.7,0,0,0,1756.161,946.787Z" transform="translate(-1175.673 -560.846)" fill="none" stroke="#61b0bc" stroke-miterlimit="10" stroke-width="1.375"/>
            <path id="Path_8490" data-name="Path 8490" d="M1447.519,686.844a61.882,61.882,0,0,0-.742-9.125c-1.475-9.141-5.3-17.27-13.088-22.3-28.425-18.37-15.354-29.47-2.283-40.568s16.642-36.586-5.928-39.874c-18.387-2.679-40.675-7.552-43.785-16.694a6.859,6.859,0,0,1-.255-3.417,9.991,9.991,0,0,1,1.377-3.511c3.53-5.8,7-12.958,7.852-19.1-19.452,8.182-41.235,1.119-59.216-8.666-17.99,3.059-33.967,8.36-37.65,19.141-2.358,6.908-3.687,17.274-4.182,28.8,10.955,12.5,22.816,26.664,31.177,41.183a52.912,52.912,0,0,1,4.551-2.975,40.816,40.816,0,0,1,12.55-4.787,71.768,71.768,0,0,1,9.469-12.782c28.238-30.767,49.869-7.976,57.29,11.334,14.159,36.84-6.91,51.959,18.943,92.272,2.559-6.927,4.556-11.185,4.556-11.185,8.227,8.325,13.167,18.436,15.958,28.966A112.275,112.275,0,0,0,1447.519,686.844Z" transform="translate(-913.804 -334.855)" fill="none" stroke="#61b0bc" stroke-miterlimit="10" stroke-width="1.375"/>
            <path id="Path_8491" data-name="Path 8491" d="M873.73,773.183c-2.815-3.979-6.138-6.08-3.826-10.47a13.216,13.216,0,0,1,5.084-5.145c-.813-2.91-1.512-5.859-2.114-8.825-6.021.064-8.883-3.432-8.883-10.349,0-.157,0-.306,0-.463a49.84,49.84,0,0,1-54.505,13.407c-11.722,9.146-23.966,20.889-30.87,33.939,15.363,4.821,27.991,18.069,25.006,42.582L851.238,812l8.938-2.987,0,.008,7.557-2.518a200.976,200.976,0,0,1,8.865-29.312C875.691,775.994,874.765,774.646,873.73,773.183Z" transform="translate(-626.981 -449.534)" fill="none" stroke="#61b0bc" stroke-miterlimit="10" stroke-width="1.375"/>
            <path id="Path_8492" data-name="Path 8492" d="M966.589,1066.287a101.634,101.634,0,0,0,6.014-13.068,98.453,98.453,0,0,1-5.989-18.775,27.7,27.7,0,0,1-13.863-4.465c-6.282,21.536-21.147,43.757-52.438,60.12,25.2,3.994,33.929,13.46,44.26,6.655C950.346,1092.952,956.627,1084.085,966.589,1066.287Z" transform="translate(-695.287 -605.789)" fill="none" stroke="#61b0bc" stroke-miterlimit="10" stroke-width="1.375"/>
            <path id="Path_8493" data-name="Path 8493" d="M1052.877,212.925a57.457,57.457,0,0,0,8.829,8.345,135.078,135.078,0,0,1,8.8,11.374,30.7,30.7,0,0,1,3.9-1.907c8.825-3.481,18.618-1.9,26.9,2.464,17.505,9.22,25.444,31.112,28.93,50.269,4.01,22.045-5.207,39.246-15.788,57.426-11.224,19.286-25.592,38.671-32.233,60.437a61.9,61.9,0,0,0-2.309,25.279,13.338,13.338,0,0,1,2.207-.887c8.274-2.387,16.549-4.773,6.735-19.547s10.885-38.311,10.885-38.311c18.19-5.488,17.129,30.325,31.441,25.714s20.671,6.84,10.887,20.652-17.081,22.679-7.725,19.619,17.53,1.706,15.551,13.762c-.333,2.022-.853,4.34-1.5,6.808a80.876,80.876,0,0,1,19.08,3.8,74.96,74.96,0,0,1,18.494-20.083c-8.361-14.519-20.221-28.684-31.176-41.183-15.713-17.926-29.512-32.416-28.217-39.525,1.134-6.229,15.417-23.675,29.92-44.068.5-7.812,6.245-18.139,19.258-29.88,8.749-15.764,14.266-31,11.426-42.444a20.834,20.834,0,0,0-2.139-5.487,24.051,24.051,0,0,0-4.61-5.477c-18.658-17.113-74.488-31.926-106.949-32.73C1054.347,196.874,1043.37,201.274,1052.877,212.925Z" transform="translate(-778.966 -160.287)" fill="none" stroke="#61b0bc" stroke-miterlimit="10" stroke-width="1.375"/>
            <path id="Path_8494" data-name="Path 8494" d="M1031.506,874.136a41.932,41.932,0,0,1,13.251,1.75,19.012,19.012,0,0,1,.947-7.158,27.1,27.1,0,0,1-2.273-2.118c-3.646-1.923-7.243-3.953-10.729-6.212-.517-.334-1.028-.681-1.54-1.024-5.534,3.091-9.986,1.2-15.282-3.554-4.608-4.139-7.369-8.533-4.96-13.538a95.074,95.074,0,0,1-11.7-15.4c-3.877.659-6.175-1.327-8.6-4.516a200.926,200.926,0,0,0-8.865,29.312l13.155-4.382s14.293,34.791,3.554,71.6a27.7,27.7,0,0,0,13.863,4.466c-.779-3.643-1.07-5.97-1.07-5.97C1008.874,906,1011.049,874.533,1031.506,874.136Z" transform="translate(-740.999 -494.708)" fill="none" stroke="#61b0bc" stroke-miterlimit="10" stroke-width="1.375"/>
            <path id="Path_8495" data-name="Path 8495" d="M1277.264,1069.449a69.231,69.231,0,0,1-23.027-34.25,87.184,87.184,0,0,1-2.638-11.062,5.5,5.5,0,0,1-1.942-.992c-2.123,3.682-5.386,9.272-9.3,15.768-12.3,20.392-31.049,49.671-41.279,56.715-3.349,2.307-4.435,3.738-4.052,4.51,1.457,2.941,24.464-3.757,27.91-9.237a5.317,5.317,0,0,1,.389-.549c.4-.482.7-.583.928-.4,1.9,1.573-2.334,24.8-14.515,34.856-11.778,9.727,20.908,22.2,33.171-20.255,13.462-46.6,19.424,4.942,23.937,11.509s8.1-9.379,4.641-16.744-1.836-16.527,4.492-10.757c1.355,1.235,2.043-.195,2.237-3.373A101.817,101.817,0,0,0,1277.264,1069.449Z" transform="translate(-860.665 -602.133)" fill="none" stroke="#61b0bc" stroke-miterlimit="10" stroke-width="1.375"/>
            <path id="Path_8496" data-name="Path 8496" d="M1114.149,938.514c-1.129.315-2.163.551-3.2.785-1.225.278-2.383.5-3.487.674-12.223,1.935-17.6-2.044-25.95-4.524a41.922,41.922,0,0,0-13.252-1.75c-20.457.4-22.632,31.866-20.251,43.258,0,0,.292,2.326,1.071,5.969a98.5,98.5,0,0,0,5.988,18.775c5.924,13.416,16.447,27.245,34.687,27.044,35.307-.388,57.7-50.085,61.915-64.188a24.675,24.675,0,0,0,1.065-6.568C1153.09,941.828,1135.092,932.668,1114.149,938.514Z" transform="translate(-777.757 -554.271)" fill="none" stroke="#61b0bc" stroke-miterlimit="10" stroke-width="1.375"/>
            <path id="Path_8497" data-name="Path 8497" d="M1113.477,883.442c4.852,4.066,11.386,6.585,19.815,5.827,31.215-2.805,50.543-28.629,50.543-28.629s-37.429-8.684-54.348,14.794c0,0-10.373-25.841-21.621-25.568-7.71.186-7.567,19.948,3.337,31.458A27.049,27.049,0,0,0,1113.477,883.442Z" transform="translate(-808.771 -509.422)" fill="none" stroke="#61b0bc" stroke-miterlimit="10" stroke-width="1.375"/>
            <path id="Path_8498" data-name="Path 8498" d="M1422.585,665.067c-7.421-19.309-29.052-42.1-57.29-11.334a71.886,71.886,0,0,0-9.469,12.781,34.6,34.6,0,0,1,26.027,5.126c5.474,12.726-10.608,32.375-30.335,38.139a26.1,26.1,0,0,0-2.793,1.013c.433,4.1.947,8.086,1.315,11.93a47.569,47.569,0,0,1,8.354-3.386c19.728-5.765,30.217-35.173,34.956-38.973s11.663,12.232,9.374,24.277-14.359,40.681-36.089,53.174c-12.926,7.43-24.121,5.9-31.073,3.443-8.663,14.622-17.075,32.773-12.9,57.172a87.021,87.021,0,0,0,2.639,11.061,69.221,69.221,0,0,0,23.026,34.25c26.656,21.183,66.739,19.811,89.576-5.821a52.592,52.592,0,0,0,4.635-6.3c-21.795-27.345-8.792-73.229-1.014-94.283C1415.675,717.025,1436.745,701.907,1422.585,665.067Zm3.117,131.774c1.217,18.858-12.22,35.191-30.012,36.481s-33.2-12.952-34.42-31.81,12.22-35.19,30.013-36.48S1424.486,777.983,1425.7,796.841Z" transform="translate(-931.734 -396.423)" fill="none" stroke="#61b0bc" stroke-miterlimit="10" stroke-width="1.375"/>
            <path id="Path_8499" data-name="Path 8499" d="M1441.988,910.347c-17.793,1.289-31.23,17.622-30.013,36.48s16.627,33.1,34.419,31.81,31.231-17.622,30.013-36.481S1459.781,909.056,1441.988,910.347Z" transform="translate(-982.439 -541.739)" fill="none" stroke="#61b0bc" stroke-miterlimit="10" stroke-width="1.375"/>
            <path id="Path_8500" data-name="Path 8500" d="M883.221,897.225l-47.611,15.861c0,.018-.006.036-.008.055Z" transform="translate(-658.965 -534.762)" fill="none" stroke="#61b0bc" stroke-miterlimit="10" stroke-width="1.375"/>
            <path id="Path_8501" data-name="Path 8501" d="M756.367,947.585c10.739-36.814-3.554-71.6-3.554-71.6l-13.155,4.382L732.1,882.88c.151.362,31.277,74.99-46.252,108.771-77.717,33.862-114.44-55.075-114.44-55.075l27.888-9.321c-.023-.037-.043-.075-.066-.111l-40.86,13.611-7.932,2.643s46.059,111.55,143.535,69.078c3.5-1.523,6.8-3.121,9.955-4.77C735.219,991.342,750.085,969.121,756.367,947.585Z" transform="translate(-498.903 -523.395)" fill="none" stroke="#61b0bc" stroke-miterlimit="10" stroke-width="1.375"/>
            <path id="Path_8502" data-name="Path 8502" d="M749.987,893.788,702.369,909.7c-1.321,10.776-5.653,23.724-14.1,39.093-.248-.121-40.21,8.562-57.369-7.207a44.874,44.874,0,0,1-4.778-6.405L598.236,944.5s36.723,88.938,114.441,55.076c77.529-33.781,46.4-108.409,46.251-108.771l0-.009Z" transform="translate(-525.732 -531.325)" fill="none" stroke="#61b0bc" stroke-miterlimit="10" stroke-width="1.375"/>
            <path id="Path_8503" data-name="Path 8503" d="M777.746,620.639a47.647,47.647,0,0,0,31.2,41.524,49.84,49.84,0,0,0,54.505-13.406,47.97,47.97,0,0,0,12.334-35.225,47.432,47.432,0,0,0-.928-6.508c-.074-.356-.155-.707-.236-1.062a47.855,47.855,0,0,0-31.168-34.4c-13.865,15.508-36.868,21.42-36.868,21.42A40.423,40.423,0,0,1,812.1,571.26a49.693,49.693,0,0,0-26.065,19.387A47.675,47.675,0,0,0,777.746,620.639Z" transform="translate(-626.435 -360.36)" fill="none" stroke="#61b0bc" stroke-miterlimit="10" stroke-width="1.375"/>
            <path id="Path_8504" data-name="Path 8504" d="M880.428,532.013c7.587-8.486,12.447-19.833,9.286-34.681,0,0-2.559,1.134-6.449,3.288-9.115,5.048-25.6,15.771-34.193,31.087a40.431,40.431,0,0,0-5.513,21.727S866.562,547.521,880.428,532.013Z" transform="translate(-663.412 -320.806)" fill="none" stroke="#61b0bc" stroke-miterlimit="10" stroke-width="1.375"/>
            <path id="Path_8505" data-name="Path 8505" d="M517.777,679.575c23.033,14.031,31.911,25.5,37.2,29.051a44.084,44.084,0,0,1,6.652-6.148c.488-.427,1.01-.833,1.544-1.228a266.975,266.975,0,0,1-8.423-26.819c-13.31-52.291-.136-75.055-15.135-86.628-56.063-12.8-5.74,51.874,11.051,88.4,3.5,7.626,5.55,14.026,4.86,18.236-3.889-5.949-7.884-11.749-11.888-17.6-15.541-22.72-31.2-46.292-41.2-82.963-5.624-31.635-36.961-25.954-36.165-.547-1.091,10.321,36.85,35.692,46.309,46.6.282-.483,13.514,19.748,24.408,36.417,7.241,11.081,13.451,20.589,14.129,21.381a148.665,148.665,0,0,1-24.5-21.47c-10.7-11.5-19.284-23.589-25.937-33.31q-.554-.81-1.093-1.6c-4.2-6.159-7.578-11.242-10.181-14.407-21.658-12.51-31.035,10.05-25.99,22.826a11.813,11.813,0,0,0,7.6,7.427c10.208,3.89,19.1,7.788,26.936,11.608C505.541,672.5,512.09,676.111,517.777,679.575Z" transform="translate(-449.312 -360.846)" fill="none" stroke="#61b0bc" stroke-miterlimit="10" stroke-width="1.375"/>
            <path id="Path_8506" data-name="Path 8506" d="M715.376,919.026c8.446-15.368,12.777-28.317,14.1-39.093,0-.019.005-.037.008-.054,2.985-24.513-9.643-37.762-25.007-42.582-13.349-4.188-28.753-2.011-37.777,4.661-.535.4-1.057.8-1.545,1.228a44.111,44.111,0,0,0-6.653,6.148c-13.139,14.866-16.279,38.1-5.337,55.969.023.037.042.075.065.111a44.87,44.87,0,0,0,4.778,6.405C675.166,927.587,715.128,918.905,715.376,919.026Z" transform="translate(-552.836 -501.554)" fill="none" stroke="#61b0bc" stroke-miterlimit="10" stroke-width="1.375"/>
            <path id="Path_8507" data-name="Path 8507" d="M1288.219,755.758c-2.29,12.045,4.635,28.076,9.374,24.277,4.51-3.616,14.234-30.407,32.163-37.96a25.968,25.968,0,0,1,2.792-1.013c19.727-5.765,35.811-25.413,30.335-38.14a34.591,34.591,0,0,0-26.026-5.126,40.79,40.79,0,0,0-12.55,4.788,52.723,52.723,0,0,0-4.551,2.974,74.962,74.962,0,0,0-18.495,20.083C1293.859,737.05,1289.5,749.008,1288.219,755.758Z" transform="translate(-912.765 -427.705)" fill="none" stroke="#61b0bc" stroke-miterlimit="10" stroke-width="1.375"/>
            <path id="Path_8508" data-name="Path 8508" d="M1334.991,804.8a29.9,29.9,0,0,0,7.5,3.781c6.952,2.457,18.147,3.987,31.073-3.443,21.73-12.493,33.8-41.129,36.089-53.175s-4.635-28.076-9.374-24.276-15.228,33.208-34.956,38.973a47.563,47.563,0,0,0-8.354,3.385C1341.37,778.061,1330.317,793.94,1334.991,804.8Z" transform="translate(-938.664 -443.752)" fill="none" stroke="#61b0bc" stroke-miterlimit="10" stroke-width="1.375"/>
            <path id="Path_8509" data-name="Path 8509" d="M1298.78,388.96c5.516,3.94,18.616,14.917,34.8,23.726,17.981,9.785,39.765,16.849,59.216,8.667a45.913,45.913,0,0,0,9.385-5.286c38.226-27.982,31.9-34.686,37.676-30.9a8.814,8.814,0,0,1,.9.706,24.94,24.94,0,0,1,2,2.015c6.94,7.695,19.554,26.678,32.582,26.427,0,0,2.726-2.188,2.18-11.479a59.967,59.967,0,0,0-.83-6.805,144.344,144.344,0,0,0-7.4-25.408s1.505-2.51,3.607-6.28c2.582-4.629,6.06-11.156,8.764-17.276,2.139-4.843,3.8-9.431,4.129-12.617.311-2.968-1.756-4.137-5.246-3.771-2.919.306-6.836,1.7-11.189,4a82.1,82.1,0,0,0-26.879,23.688c-.138.189-.279.372-.413.563-.291-.193-.545-.438-.822-.652a14.586,14.586,0,0,1-1.978-1.846c-.277-.31-.578-.593-.829-.927a127.581,127.581,0,0,0-17.167-18.439c-8.133-7.148-18.561-14.3-30.542-18.072a58.518,58.518,0,0,0-11.367-2.394,52.973,52.973,0,0,0-11.844.065,54.633,54.633,0,0,0-12.142,2.9,63.132,63.132,0,0,0-10.113,4.678c-13.9,7.994-24.574,15.708-32.544,22.9-13.013,11.741-18.755,22.068-19.258,29.88C1293.12,382.229,1295.084,386.32,1298.78,388.96Z" transform="translate(-915.936 -223.953)" fill="none" stroke="#61b0bc" stroke-miterlimit="10" stroke-width="1.375"/>
            <path id="Path_8510" data-name="Path 8510" d="M1707.527,964.971c-6.273-3.846-61.27-41.762-109.687,3.56a156.13,156.13,0,0,0,6.636-39.117,105.1,105.1,0,0,0-3.022-30.606c-2.792-10.53-7.731-20.64-15.958-28.966,0,0-2,4.258-4.557,11.185-7.779,21.055-20.779,66.939,1.015,94.283a48.356,48.356,0,0,0,11.245,10.241c.456.3.924.544,1.385.829a62.531,62.531,0,0,0,33.545,9.179,100.97,100.97,0,0,0,30.893-5.265c4.6-1.483,9.033-3.189,13.225-5A181.32,181.32,0,0,0,1707.527,964.971Z" transform="translate(-1071.146 -520.11)" fill="none" stroke="#61b0bc" stroke-miterlimit="10" stroke-width="1.375"/>
            <path id="Path_8511" data-name="Path 8511" d="M1782.571,854.343s-36.11-13.622-72.927,1.762c-.645.269-1.288.521-1.932.808a89.963,89.963,0,0,0-16.056,9.244,166.324,166.324,0,0,0,7.985-35.574,132.951,132.951,0,0,0,.838-15.766,103.693,103.693,0,0,0-.889-12.8A72.129,72.129,0,0,0,1692.305,778a191.39,191.39,0,0,0-15.493,35.13c-5.219,16.017-9,35.386-5.775,53.4a26.438,26.438,0,0,0,1.054,3.989c6.717,19.453,34.271,19.534,60.731,11.664,4.005-1.191,7.988-2.546,11.866-4.062,3.025-1.183,5.984-2.452,8.847-3.788C1766.141,868.452,1776.848,861.255,1782.571,854.343Z" transform="translate(-1127.224 -470.973)" fill="none" stroke="#61b0bc" stroke-miterlimit="10" stroke-width="1.375"/>
            <path id="Path_8512" data-name="Path 8512" d="M1781.207,768a108.09,108.09,0,0,0,4.67-9.99c4.762-11.49,11.086-31.237,8.493-50.378a53.479,53.479,0,0,0-5.7-18.156s-4.815,8.173-10.25,19.783c-7.606,16.247-16.425,39.241-15.016,56.191.683,8.21,3.761,15,10.55,18.9l.023.012c30.83,17.68,88.177-21.564,88.177-21.564s-13.419-5.919-33.08-6.239A98.341,98.341,0,0,0,1781.207,768Z" transform="translate(-1179.656 -423.611)" fill="none" stroke="#61b0bc" stroke-miterlimit="10" stroke-width="1.375"/>
            <path id="Path_8513" data-name="Path 8513" d="M1928.473,689.805c-.93-.289-1.91-.558-2.955-.8a43.494,43.494,0,0,0-11.191-1.022,57.064,57.064,0,0,0-19.719,4.489,95.5,95.5,0,0,0-21.8,12.892s17.636-24.941,16.38-50.6a49.1,49.1,0,0,0-.774-6.739s-10.355,9.055-18.226,28.228a120.672,120.672,0,0,0-8.647,42.406,51.121,51.121,0,0,0,8.024,1.964,73.657,73.657,0,0,0,45.124-6.577,82.036,82.036,0,0,0,18.335-12.475c2.125-1.9,4.242-3.941,6.339-6.188A31.526,31.526,0,0,0,1928.473,689.805Z" transform="translate(-1234.82 -401.436)" fill="none" stroke="#61b0bc" stroke-miterlimit="10" stroke-width="1.375"/>
            <path id="Path_8514" data-name="Path 8514" d="M1106.4,641.326c9.967,6.425,22.063,15.673,15.49,20.318s-14.488,12.962-1.548,17.384,34.883,13.552,41.694,5.911c5.67-6.359,12.313-22.676,15.527-34.925.648-2.469,1.168-4.787,1.5-6.809,1.979-12.055-6.2-16.822-15.552-13.762s-2.061-5.806,7.725-19.619,3.427-25.263-10.885-20.652-13.252-31.2-31.442-25.713c0,0-20.7,23.537-10.885,38.311s1.539,17.161-6.736,19.548a13.3,13.3,0,0,0-2.207.887C1101.959,625.733,1097.344,635.488,1106.4,641.326Z" transform="translate(-808.145 -355.88)" fill="none" stroke="#61b0bc" stroke-miterlimit="10" stroke-width="1.375"/>
          </g>
        </g>
      </g>
    </g>
  </g>
</svg>
