<svg xmlns="http://www.w3.org/2000/svg" xmlns:xlink="http://www.w3.org/1999/xlink" width="325.176" height="345.68" viewBox="0 0 325.176 345.68">
  <defs>
    <clipPath id="clip-path">
      <path id="Path_7221" data-name="Path 7221" d="M7058.415,829.525c0,12.72,47.664,23.032,106.459,23.032s106.459-10.312,106.459-23.032,3.822-69.858-54.975-69.858c-23.777,0-104.316,1.7-119.258,5.281C7019.31,783.566,7058.415,818.855,7058.415,829.525Z" transform="translate(-7048.586 -759.667)" fill="none"/>
    </clipPath>
  </defs>
  <g id="shopper-illustration" transform="translate(-6877.091 -750.82)">
    <ellipse id="Ellipse_128" data-name="Ellipse 128" cx="68.45" cy="11.048" rx="68.45" ry="11.048" transform="translate(6909.704 1074.403)" fill="#ceeae0"/>
    <g id="Group_2384" data-name="Group 2384" transform="translate(6877.091 750.82)">
      <path id="Path_7079" data-name="Path 7079" d="M7067.225,829.732a2.938,2.938,0,0,1,4.387-2.519c14.754,8.336,61.781,36.123,53.178,47.008-10.177,12.877-57.052-18.485-57.5-19.108C7066.958,854.65,7067.12,838.194,7067.225,829.732Z" transform="translate(-6952.174 -781.316)" fill="#b8d2d8"/>
      <g id="Group_2342" data-name="Group 2342" transform="translate(83.037 316.48)">
        <path id="Path_7080" data-name="Path 7080" d="M7035.384,1233.36c.15.312,3.812,1.57,6.683,3.1,1.276,1.151,2.515,2.623,1.108,3.053-2.409.735-16.474.522-17.758-1.826a6.226,6.226,0,0,0-1.6-1.9c1.5-2.141,1.525-.847,1.653-8.135.025-1.482,6.2-1.216,9.664.65C7036.743,1229.165,7035.326,1233.239,7035.384,1233.36Z" transform="translate(-7021.262 -1226.696)" fill="#ff6161"/>
        <path id="Path_7081" data-name="Path 7081" d="M7024.2,1242.012c1.283,2.349,15.35,2.562,17.758,1.826,1.407-.43.167-1.9-1.108-3.053,4.309,2.3,9.627,5.259,9.79,6.747.27,2.479-25.321,2-29.535-.465-2.2-1.288-.607-3.956,1.5-6.959A6.23,6.23,0,0,1,7024.2,1242.012Z" transform="translate(-7020.046 -1231.02)" fill="#503629"/>
      </g>
      <g id="Group_2343" data-name="Group 2343" transform="translate(0 256.445)">
        <path id="Path_7082" data-name="Path 7082" d="M6914.421,1149.567c-.213.273.287,4.112.189,7.365-.465,1.654-1.233,3.419-2.243,2.349-1.729-1.832-7.786-14.528-6.252-16.722a6.216,6.216,0,0,0,1-2.276c2.585.394,1.438.991,8.022-2.133,1.34-.635,3.843,5.012,3.711,8.946C6918.783,1148.921,6914.5,1149.461,6914.421,1149.567Z" transform="translate(-6900.203 -1138.102)" fill="#ff6161"/>
        <path id="Path_7083" data-name="Path 7083" d="M6903.421,1143.426c-1.534,2.193,4.523,14.89,6.252,16.722,1.01,1.069,1.777-.7,2.243-2.349-.146,4.882-.436,10.962-1.7,11.767-2.1,1.344-13.037-21.8-12.7-26.667.175-2.547,3.275-2.3,6.9-1.748A6.233,6.233,0,0,1,6903.421,1143.426Z" transform="translate(-6897.509 -1138.968)" fill="#503629"/>
      </g>
      <path id="Path_7084" data-name="Path 7084" d="M7014.373,766.282s.791-2.736,7.067-.917c9.231,2.675,9.229,19.908,7.756,26.673s-38.927,49.46-53.269,50.287c-35.455,2.045-37.956-19.4-34.6-27.109,1.658-3.807,9.429-3.005,9.429-3.005s14.233,1.141,27.639-20.173C6981.9,786.466,7014.373,766.282,7014.373,766.282Z" transform="translate(-6911.281 -761.303)" fill="#2a0f00"/>
      <path id="Path_7085" data-name="Path 7085" d="M6965.123,1028.807c7.2-2.583-.968-45.09-.807-72.164.111-18.648,12.951-30.049,19.309-37.784.48-.583.958-1.148,1.432-1.7,25.809,9.767,41.268,5.429,48.613,1.546,42.848,89.312,3.49,160.153-32.311,212.871-1.9,2.8-12.767,1.911-15.326-.949-9.416-10.523,12.684-65.907,26.3-88.059,4.964-8.076.135-76.031-1.892-75.792-1.424.169,15.325,101.828-84.519,117.065a5.254,5.254,0,0,1-5.774-3.585l-4.1-12.622S6938.53,1038.342,6965.123,1028.807Z" transform="translate(-6903.487 -810.435)" fill="#61b0bc"/>
      <g id="Group_2344" data-name="Group 2344" transform="translate(12.567 106.723)">
        <path id="Path_7086" data-name="Path 7086" d="M6984.214,1000.748c1.681,10.8,3.476,29.077-14.1,39.323s-18.665,16.749-36,23.261c-6.46,2.427-12.219,4.93-17.1,7.229l-.95-2.927s22.476-29.292,49.069-38.827c7.2-2.583-.968-45.09-.807-72.164.11-18.649,12.951-30.049,19.308-37.784.48-.583.958-1.148,1.432-1.7,3.335,1.262,6.494,2.284,9.488,3.107-.569,11.635-1.888,23.105-4.773,27.313C6983.125,957.27,6982.534,989.947,6984.214,1000.748Z" transform="translate(-6916.054 -917.158)" fill="#008675"/>
      </g>
      <path id="Path_7087" data-name="Path 7087" d="M7005.844,927.933l20.682,8.25s-13.314,2.74-26.458-1.03C7001.965,932.485,7003.96,930.1,7005.844,927.933Z" transform="translate(-6930.569 -813.908)" fill="#2a0f00"/>
      <path id="Path_7088" data-name="Path 7088" d="M7004.235,897.307c2.761-6.5,6.677-19.078,6.346-25.8-.776-15.7-9.427-25.309-.381-36.245,5.567-6.73,18.475-16.675,36.828-11.985,2.946.753,11.2,8.145,12.845,11.985,4.09,9.564-1.686,15.557-1.246,29.945a108.424,108.424,0,0,0,3.467,22.843C7054.75,891.932,7043.535,910.692,7004.235,897.307Z" transform="translate(-6931.913 -779.781)" fill="#fff"/>
      <g id="Group_2345" data-name="Group 2345" transform="translate(72.323 42.605)">
        <path id="Path_7089" data-name="Path 7089" d="M7010.582,871.661c-.776-15.7-9.427-25.309-.381-36.245a36.771,36.771,0,0,1,22.763-12.877c-12.69,10.441-6.378,34.533-5.822,47.391a172.735,172.735,0,0,1-1.543,32.141,83.821,83.821,0,0,1-21.363-4.611C7007,890.964,7010.913,878.382,7010.582,871.661Z" transform="translate(-7004.235 -822.539)" fill="#b8d2d8"/>
      </g>
      <path id="Path_7090" data-name="Path 7090" d="M7080.372,946.892c-15.051-5.2-43.9-22.546-50.9-30.068-7.886-8.475-11.064-29.191-11.064-29.191l53.446,33.257A189.327,189.327,0,0,1,7080.372,946.892Z" transform="translate(-6936.479 -800.917)" fill="#2a0f00"/>
      <path id="Path_7091" data-name="Path 7091" d="M7043.152,802.209l.169,15.5c.039,2.552,6.754,8.965,10.88,5.643,1.208-.972-.492-4.444-1.715-7.067L7049,803.045Z" transform="translate(-6944.458 -773.381)" fill="#ff6161"/>
      <path id="Path_7092" data-name="Path 7092" d="M7051.486,812.115a9.1,9.1,0,0,1-7.042-6.169l5.469.193Z" transform="translate(-6944.874 -774.585)" fill="#311e69"/>
      <g id="Group_2380" data-name="Group 2380" transform="translate(102.377)">
        <path id="Path_7093" data-name="Path 7093" d="M7169.549,830.487c58.8,0,106.46,10.311,106.46,23.031s-19.851,66.766-106.46,66.766-106.459-54.047-106.459-66.766S7110.755,830.487,7169.549,830.487Z" transform="translate(-7053.261 -782.496)" fill="#ed8b00"/>
        <ellipse id="Ellipse_124" data-name="Ellipse 124" cx="106.459" cy="23.031" rx="106.459" ry="23.031" transform="translate(9.829 46.827)" fill="#cfe1e6"/>
        <g id="Group_2379" data-name="Group 2379">
          <g id="Group_2378" data-name="Group 2378" clip-path="url(#clip-path)">
            <g id="Group_2352" data-name="Group 2352" transform="translate(29.323 54.501)">
              <g id="Group_2350" data-name="Group 2350" transform="translate(0 0)">
                <g id="Group_2346" data-name="Group 2346">
                  <ellipse id="Ellipse_125" data-name="Ellipse 125" cx="12.644" cy="12.644" rx="12.644" ry="12.644" transform="translate(0 25.245) rotate(-86.63)" fill="#311e69"/>
                </g>
                <g id="Group_2347" data-name="Group 2347" transform="translate(0.72 1.97)">
                  <path id="Path_7094" data-name="Path 7094" d="M7111.042,843a15.785,15.785,0,0,1,1.363,5.1c-.042,2.551-1.762,1.719-3.636,2.721s-5.3,5.231-9.406,4.771c-2.758-.308-5.023-2.279-6.217-3.542-.017.084-.035.167-.049.252a12.644,12.644,0,1,0,17.944-9.3Z" transform="translate(-7092.92 -843)" fill="#1e1240"/>
                </g>
                <g id="Group_2348" data-name="Group 2348" transform="translate(7.773 2.998)">
                  <path id="Path_7095" data-name="Path 7095" d="M7103.824,848.822s-1.179-1.748.1-2.889a4.691,4.691,0,0,1,3.758-1.382c1.174.159,4.3.453,4.571,1.39s-.835,4.277-3.323,4.09S7103.959,850.55,7103.824,848.822Z" transform="translate(-7103.328 -844.517)" fill="#1e1240"/>
                </g>
                <g id="Group_2349" data-name="Group 2349" transform="translate(10.862 4.934)">
                  <path id="Path_7096" data-name="Path 7096" d="M7108.94,847.412s-1.384-.291-.979.756,2.12,1.219,2.233.541A1.094,1.094,0,0,0,7108.94,847.412Z" transform="translate(-7107.887 -847.375)" fill="#614cd2"/>
                </g>
              </g>
              <g id="Group_2351" data-name="Group 2351" transform="translate(2.773 2.545)">
                <path id="Path_7097" data-name="Path 7097" d="M7096.38,849.95s3.47-5.532,5.068-6.032-1.449,1.813-1.534,4.292,2.462,5.289-.835,5.455S7095.5,852.219,7096.38,849.95Z" transform="translate(-7095.951 -843.85)" fill="#614cd2"/>
              </g>
            </g>
            <g id="Group_2359" data-name="Group 2359" transform="translate(12.885 59.798)">
              <g id="Group_2357" data-name="Group 2357" transform="translate(0 0)">
                <g id="Group_2353" data-name="Group 2353">
                  <ellipse id="Ellipse_126" data-name="Ellipse 126" cx="12.644" cy="12.644" rx="12.644" ry="12.644" transform="translate(0 25.245) rotate(-86.63)" fill="#311e69"/>
                </g>
                <g id="Group_2354" data-name="Group 2354" transform="translate(0.72 1.969)">
                  <path id="Path_7098" data-name="Path 7098" d="M7086.785,850.817a15.769,15.769,0,0,1,1.362,5.1c-.041,2.551-1.762,1.719-3.635,2.721s-5.3,5.231-9.406,4.772c-2.758-.308-5.025-2.28-6.217-3.543-.016.085-.035.167-.05.253a12.644,12.644,0,1,0,17.945-9.3Z" transform="translate(-7068.663 -850.817)" fill="#1e1240"/>
                </g>
                <g id="Group_2355" data-name="Group 2355" transform="translate(7.773 2.997)">
                  <path id="Path_7099" data-name="Path 7099" d="M7079.566,856.64s-1.177-1.748.1-2.889a4.689,4.689,0,0,1,3.759-1.382c1.174.159,4.3.453,4.571,1.389s-.836,4.277-3.324,4.091S7079.7,858.368,7079.566,856.64Z" transform="translate(-7079.071 -852.335)" fill="#1e1240"/>
                </g>
                <g id="Group_2356" data-name="Group 2356" transform="translate(10.862 4.934)">
                  <path id="Path_7100" data-name="Path 7100" d="M7084.684,855.23s-1.384-.292-.981.755,2.12,1.22,2.234.541A1.094,1.094,0,0,0,7084.684,855.23Z" transform="translate(-7083.629 -855.193)" fill="#614cd2"/>
                </g>
              </g>
              <g id="Group_2358" data-name="Group 2358" transform="translate(2.773 2.545)">
                <path id="Path_7101" data-name="Path 7101" d="M7072.122,857.768s3.47-5.531,5.069-6.032-1.45,1.813-1.535,4.292,2.463,5.29-.834,5.456S7071.242,860.037,7072.122,857.768Z" transform="translate(-7071.694 -851.668)" fill="#614cd2"/>
              </g>
            </g>
            <g id="Group_2366" data-name="Group 2366" transform="translate(33.143 71.075)">
              <g id="Group_2364" data-name="Group 2364" transform="translate(0 0)">
                <g id="Group_2360" data-name="Group 2360">
                  <ellipse id="Ellipse_127" data-name="Ellipse 127" cx="12.644" cy="12.644" rx="12.644" ry="12.644" transform="translate(0 25.245) rotate(-86.63)" fill="#311e69"/>
                </g>
                <g id="Group_2361" data-name="Group 2361" transform="translate(0.72 1.969)">
                  <path id="Path_7102" data-name="Path 7102" d="M7116.68,867.459a15.784,15.784,0,0,1,1.363,5.1c-.042,2.551-1.762,1.718-3.636,2.721s-5.3,5.231-9.405,4.772c-2.758-.308-5.025-2.28-6.217-3.543-.016.084-.035.167-.049.252a12.644,12.644,0,1,0,17.945-9.3Z" transform="translate(-7098.558 -867.459)" fill="#1e1240"/>
                </g>
                <g id="Group_2362" data-name="Group 2362" transform="translate(7.772 2.997)">
                  <path id="Path_7103" data-name="Path 7103" d="M7109.461,873.282s-1.177-1.749.1-2.89a4.694,4.694,0,0,1,3.759-1.382c1.175.159,4.3.453,4.571,1.39s-.836,4.277-3.323,4.09S7109.6,875.009,7109.461,873.282Z" transform="translate(-7108.966 -868.976)" fill="#1e1240"/>
                </g>
                <g id="Group_2363" data-name="Group 2363" transform="translate(10.862 4.934)">
                  <path id="Path_7104" data-name="Path 7104" d="M7114.578,871.872s-1.384-.292-.979.755,2.12,1.219,2.234.541A1.094,1.094,0,0,0,7114.578,871.872Z" transform="translate(-7113.524 -871.835)" fill="#614cd2"/>
                </g>
              </g>
              <g id="Group_2365" data-name="Group 2365" transform="translate(2.773 2.545)">
                <path id="Path_7105" data-name="Path 7105" d="M7102.017,874.409s3.47-5.532,5.069-6.032-1.45,1.813-1.535,4.292,2.462,5.289-.834,5.455S7101.137,876.679,7102.017,874.409Z" transform="translate(-7101.588 -868.309)" fill="#614cd2"/>
              </g>
            </g>
            <g id="Group_2368" data-name="Group 2368" transform="translate(62.768 11.124)">
              <g id="Group_2367" data-name="Group 2367" transform="translate(0 0.354)">
                <path id="Path_7106" data-name="Path 7106" d="M7203.67,788.11c-24.938-16.692-47.578-14.184-57.647.859-4.178,6.24-6.011,16.825-3.978,24.836,2.869,11.3,12.421,20.258,25.158,28.783,14.257,9.544,29.219,14.73,41.385,11.525,6.409-1.688,12.786-7.191,16.26-12.381a21.894,21.894,0,0,0,3.259-7.69C7231.1,819.921,7228.913,805.007,7203.67,788.11Zm-21.325,24.305c-7.792-6.041-7.817-9.086-7.817-9.086l4.155-.246s10.512.349,16.66,8.007a42.457,42.457,0,0,1,5.417,8.56S7190.137,818.457,7182.346,812.415Z" transform="translate(-7141.213 -776.606)" fill="#ffbb73"/>
              </g>
              <path id="Path_7107" data-name="Path 7107" d="M7208.588,861.009c6.408-1.688,12.786-7.191,16.26-12.381a22.443,22.443,0,0,0,1.529-2.659c-2.915,1.037-6.953,2.106-10.241,1.6-5.866-.9-18.274,2.218-28.8-.974s-12.818-3.535-19.621-12.08-15.973-12.527-18.788-17.163c-2.246-3.7-2.468-15.08-4.154-19.36a34.8,34.8,0,0,0-2.729,22.706c2.869,11.3,12.42,20.258,25.158,28.783C7181.46,859.028,7196.422,864.214,7208.588,861.009Z" transform="translate(-7141.213 -783.146)" fill="#efa765"/>
              <path id="Path_7108" data-name="Path 7108" d="M7216.61,817.647c-2.382-3.98-6.063-3.416-9.633-5.347s-8.407-4.985-11.961-3.787-4.641,5.013-4.641,5.013l4.156-.246s10.512.349,16.66,8.007a42.45,42.45,0,0,1,5.417,8.56C7223.734,830.031,7218.993,821.627,7216.61,817.647Z" transform="translate(-7157.061 -786.45)" fill="#efa765"/>
              <path id="Path_7109" data-name="Path 7109" d="M7185.848,830.412a.757.757,0,0,0,1.348-.331c.236-1.344.19-3.123-1.691-3.2C7183.44,826.8,7184.779,829,7185.848,830.412Z" transform="translate(-7155.142 -792.458)" fill="#fff2e9"/>
              <path id="Path_7110" data-name="Path 7110" d="M7204.282,835.736a.756.756,0,0,0,.411-1.325c-1.028-.9-2.576-1.773-3.61-.2C7199.947,835.939,7202.519,835.923,7204.282,835.736Z" transform="translate(-7160.422 -794.541)" fill="#fff2e9"/>
              <path id="Path_7111" data-name="Path 7111" d="M7209.506,846.137a.757.757,0,0,0,1.348-.33c.238-1.344.192-3.122-1.688-3.2C7207.1,842.524,7208.438,844.721,7209.506,846.137Z" transform="translate(-7162.77 -797.527)" fill="#fff2e9"/>
              <path id="Path_7112" data-name="Path 7112" d="M7215.248,841.974a.756.756,0,0,0,.652,1.224c1.361-.1,3.074-.583,2.684-2.425C7218.155,838.751,7216.356,840.59,7215.248,841.974Z" transform="translate(-7165.024 -796.647)" fill="#fff2e9"/>
              <path id="Path_7113" data-name="Path 7113" d="M7251.185,860.19a.756.756,0,0,0,.652,1.225c1.361-.1,3.074-.583,2.684-2.425C7254.093,856.968,7252.293,858.806,7251.185,860.19Z" transform="translate(-7176.609 -802.519)" fill="#fff2e9"/>
              <path id="Path_7114" data-name="Path 7114" d="M7252.53,832.392a.756.756,0,0,0,.652,1.224c1.36-.1,3.073-.583,2.684-2.425C7255.438,829.169,7253.639,831.008,7252.53,832.392Z" transform="translate(-7177.043 -793.558)" fill="#fff2e9"/>
              <path id="Path_7115" data-name="Path 7115" d="M7261.876,824.8a.757.757,0,0,0-.515,1.288c.955.975,2.429,1.971,3.584.485C7266.213,824.94,7263.648,824.752,7261.876,824.8Z" transform="translate(-7179.873 -791.785)" fill="#fff2e9"/>
              <path id="Path_7116" data-name="Path 7116" d="M7241.4,849.02a.757.757,0,0,0,.652,1.224c1.362-.1,3.074-.583,2.684-2.425C7244.307,845.8,7242.508,847.636,7241.4,849.02Z" transform="translate(-7173.455 -798.918)" fill="#fff2e9"/>
              <path id="Path_7117" data-name="Path 7117" d="M7224.014,807.032a.756.756,0,0,0,.652,1.224c1.362-.1,3.074-.583,2.685-2.425C7226.922,803.81,7225.124,805.648,7224.014,807.032Z" transform="translate(-7167.85 -785.383)" fill="#fff2e9"/>
              <path id="Path_7118" data-name="Path 7118" d="M7243.7,812.479a.756.756,0,0,0,1.3-.473c.093-1.362-.145-3.125-2.022-3C7240.917,809.148,7242.483,811.187,7243.7,812.479Z" transform="translate(-7173.695 -786.694)" fill="#fff2e9"/>
              <path id="Path_7119" data-name="Path 7119" d="M7245.254,804.859a.756.756,0,0,0,1.3-.473c.092-1.362-.145-3.125-2.022-3C7242.471,801.526,7244.04,803.566,7245.254,804.859Z" transform="translate(-7174.196 -784.238)" fill="#fff2e9"/>
              <path id="Path_7120" data-name="Path 7120" d="M7235.385,814.874a.757.757,0,0,0,1.31-.457c.108-1.361-.106-3.127-1.985-3.024C7232.645,811.508,7234.186,813.567,7235.385,814.874Z" transform="translate(-7171.025 -787.464)" fill="#fff2e9"/>
              <path id="Path_7121" data-name="Path 7121" d="M7188.075,779.567a.757.757,0,0,0,1.311-.457c.109-1.361-.107-3.127-1.986-3.024C7185.335,776.2,7186.877,778.26,7188.075,779.567Z" transform="translate(-7155.775 -776.083)" fill="#fff2e9"/>
              <path id="Path_7122" data-name="Path 7122" d="M7214.264,805.455a.756.756,0,0,0,1.347-.33c.238-1.344.192-3.122-1.687-3.2C7211.858,801.842,7213.195,804.04,7214.264,805.455Z" transform="translate(-7164.303 -784.413)" fill="#fff2e9"/>
              <path id="Path_7123" data-name="Path 7123" d="M7213.554,797.466a.757.757,0,0,0,.7-1.2c-.8-1.106-2.109-2.311-3.472-1.013C7209.286,796.68,7211.8,797.248,7213.554,797.466Z" transform="translate(-7163.493 -782.082)" fill="#fff2e9"/>
              <path id="Path_7124" data-name="Path 7124" d="M7231.492,792.75a.757.757,0,0,0,.7-1.2c-.8-1.107-2.109-2.311-3.473-1.013C7227.223,791.965,7229.732,792.533,7231.492,792.75Z" transform="translate(-7169.274 -780.562)" fill="#fff2e9"/>
              <path id="Path_7125" data-name="Path 7125" d="M7212.006,788.85a.756.756,0,0,0,.892-1.063c-.6-1.225-1.69-2.633-3.251-1.582C7207.929,787.358,7210.306,788.339,7212.006,788.85Z" transform="translate(-7163.082 -779.227)" fill="#fff2e9"/>
              <path id="Path_7126" data-name="Path 7126" d="M7220,801.292a.756.756,0,0,0,.651,1.224c1.362-.1,3.075-.583,2.684-2.425C7222.912,798.069,7221.114,799.908,7220,801.292Z" transform="translate(-7166.558 -783.533)" fill="#fff2e9"/>
              <path id="Path_7127" data-name="Path 7127" d="M7218.112,791.833a.757.757,0,0,0-.158,1.378c1.179.689,4.013,1.5,3.96-.381C7221.873,791.335,7219.81,791.321,7218.112,791.833Z" transform="translate(-7165.83 -781.062)" fill="#fff2e9"/>
              <path id="Path_7128" data-name="Path 7128" d="M7162.344,812a.757.757,0,0,0-.157,1.378c1.178.688,4.013,1.5,3.96-.381C7166.1,811.5,7164.042,811.49,7162.344,812Z" transform="translate(-7147.852 -787.563)" fill="#fff2e9"/>
              <path id="Path_7129" data-name="Path 7129" d="M7161.088,803.932a.756.756,0,0,0-.157,1.378c1.178.689,4.013,1.5,3.96-.381C7164.848,803.434,7162.785,803.42,7161.088,803.932Z" transform="translate(-7147.448 -784.962)" fill="#fff2e9"/>
              <path id="Path_7130" data-name="Path 7130" d="M7201.056,792.288a.756.756,0,0,0-.592,1.254c.894,1.032,3.314,2.714,3.871.916C7204.777,793.028,7202.828,792.35,7201.056,792.288Z" transform="translate(-7160.252 -781.306)" fill="#fff2e9"/>
              <path id="Path_7131" data-name="Path 7131" d="M7173.946,782.4a.756.756,0,0,0-.592,1.254c.893,1.031,3.314,2.714,3.871.915C7177.667,783.144,7175.719,782.466,7173.946,782.4Z" transform="translate(-7151.513 -778.12)" fill="#fff2e9"/>
              <path id="Path_7132" data-name="Path 7132" d="M7186.225,784.889a.756.756,0,0,0-.593,1.254c.893,1.031,3.314,2.713,3.871.915C7189.944,785.629,7188,784.951,7186.225,784.889Z" transform="translate(-7155.471 -778.921)" fill="#fff2e9"/>
              <path id="Path_7133" data-name="Path 7133" d="M7220.858,852a.756.756,0,0,0,1.1-.848c-.327-1.325-1.089-2.932-2.84-2.24C7217.193,849.672,7219.307,851.138,7220.858,852Z" transform="translate(-7166.078 -799.506)" fill="#fff2e9"/>
              <path id="Path_7134" data-name="Path 7134" d="M7213.771,860.048a.757.757,0,0,0,1.1-.848c-.327-1.325-1.089-2.933-2.839-2.24C7210.108,857.72,7212.221,859.187,7213.771,860.048Z" transform="translate(-7163.794 -802.1)" fill="#fff2e9"/>
              <path id="Path_7135" data-name="Path 7135" d="M7193.657,839.829a.756.756,0,0,0,.411-1.324c-1.028-.9-2.576-1.773-3.61-.2C7189.322,840.032,7191.895,840.016,7193.657,839.829Z" transform="translate(-7156.998 -795.861)" fill="#fff2e9"/>
              <path id="Path_7136" data-name="Path 7136" d="M7172.568,833.534a.756.756,0,0,0,.411-1.324c-1.029-.9-2.577-1.773-3.611-.2C7168.233,833.737,7170.805,833.721,7172.568,833.534Z" transform="translate(-7150.199 -793.831)" fill="#fff2e9"/>
              <path id="Path_7137" data-name="Path 7137" d="M7191.465,846.6a.757.757,0,0,0,1.348-.33c.239-1.344.193-3.123-1.687-3.2C7189.06,842.986,7190.4,845.183,7191.465,846.6Z" transform="translate(-7156.954 -797.676)" fill="#fff2e9"/>
              <path id="Path_7138" data-name="Path 7138" d="M7197.207,842.436a.756.756,0,0,0,.652,1.224c1.36-.1,3.073-.583,2.684-2.425C7200.114,839.213,7198.314,841.052,7197.207,842.436Z" transform="translate(-7159.209 -796.796)" fill="#fff2e9"/>
              <path id="Path_7139" data-name="Path 7139" d="M7195.336,826.538a.757.757,0,0,0-.817,1.121c.686,1.18,1.869,2.509,3.354,1.354C7199.506,827.744,7197.066,826.929,7195.336,826.538Z" transform="translate(-7158.363 -792.341)" fill="#fff2e9"/>
              <path id="Path_7140" data-name="Path 7140" d="M7222.924,860.845a.757.757,0,0,0,.652,1.224c1.362-.1,3.074-.583,2.685-2.425C7225.832,857.622,7224.033,859.461,7222.924,860.845Z" transform="translate(-7167.499 -802.73)" fill="#fff2e9"/>
              <path id="Path_7141" data-name="Path 7141" d="M7265.7,851.313a.757.757,0,0,0-.381,1.334c1.049.873,2.617,1.714,3.615.119C7270.031,851.014,7267.46,851.087,7265.7,851.313Z" transform="translate(-7181.131 -800.296)" fill="#fff2e9"/>
              <path id="Path_7142" data-name="Path 7142" d="M7250.236,814.381a.756.756,0,0,0-.426,1.32c1.021.907,2.559,1.8,3.61.239C7254.574,814.225,7252,814.213,7250.236,814.381Z" transform="translate(-7176.137 -788.406)" fill="#fff2e9"/>
              <path id="Path_7143" data-name="Path 7143" d="M7202.816,852.461a.756.756,0,0,0,1.1-.848c-.327-1.325-1.089-2.932-2.839-2.24C7199.152,850.134,7201.266,851.6,7202.816,852.461Z" transform="translate(-7160.263 -799.655)" fill="#fff2e9"/>
              <path id="Path_7144" data-name="Path 7144" d="M7243.407,834.429a.756.756,0,0,0,1.384-.1c.462-1.284.719-3.045-1.123-3.438C7241.647,830.461,7242.594,832.853,7243.407,834.429Z" transform="translate(-7173.85 -793.735)" fill="#fff2e9"/>
              <path id="Path_7145" data-name="Path 7145" d="M7241.347,823.44a.756.756,0,0,0,.992.969c1.266-.509,2.751-1.487,1.821-3.125C7243.14,819.487,7241.982,821.785,7241.347,823.44Z" transform="translate(-7173.475 -790.443)" fill="#fff2e9"/>
              <path id="Path_7146" data-name="Path 7146" d="M7233.995,802.034a.756.756,0,0,0,1.1-.848c-.326-1.326-1.088-2.933-2.839-2.24C7230.331,799.706,7232.444,801.172,7233.995,802.034Z" transform="translate(-7170.313 -783.399)" fill="#fff2e9"/>
              <path id="Path_7147" data-name="Path 7147" d="M7251.52,846.947a.756.756,0,0,0,.652,1.224c1.362-.1,3.073-.583,2.684-2.425C7254.428,843.724,7252.629,845.562,7251.52,846.947Z" transform="translate(-7176.717 -798.25)" fill="#fff2e9"/>
              <path id="Path_7148" data-name="Path 7148" d="M7197.917,784.218a.756.756,0,0,0,.652,1.224c1.361-.1,3.074-.583,2.684-2.425C7200.825,781,7199.026,782.834,7197.917,784.218Z" transform="translate(-7159.438 -778.029)" fill="#fff2e9"/>
              <path id="Path_7149" data-name="Path 7149" d="M7251.962,823.107a.756.756,0,0,0,.65,1.225c1.362-.1,3.075-.583,2.685-2.425C7254.869,819.884,7253.07,821.723,7251.962,823.107Z" transform="translate(-7176.86 -790.565)" fill="#fff2e9"/>
              <path id="Path_7150" data-name="Path 7150" d="M7241.769,845.369a.756.756,0,0,0,1.347-.329c.239-1.344.193-3.123-1.687-3.2C7239.363,841.756,7240.7,843.954,7241.769,845.369Z" transform="translate(-7173.169 -797.279)" fill="#fff2e9"/>
              <path id="Path_7151" data-name="Path 7151" d="M7239.511,828.764a.756.756,0,0,0,.892-1.062c-.6-1.225-1.69-2.633-3.251-1.583C7235.435,827.272,7237.813,828.254,7239.511,828.764Z" transform="translate(-7171.947 -792.094)" fill="#fff2e9"/>
              <path id="Path_7152" data-name="Path 7152" d="M7247.51,841.206a.756.756,0,0,0,.651,1.225c1.362-.1,3.074-.583,2.684-2.425C7250.418,837.983,7248.62,839.822,7247.51,841.206Z" transform="translate(-7175.424 -796.4)" fill="#fff2e9"/>
              <path id="Path_7153" data-name="Path 7153" d="M7172.783,819.7a.756.756,0,0,0,.652,1.224c1.361-.1,3.073-.583,2.684-2.425C7175.69,816.475,7173.891,818.314,7172.783,819.7Z" transform="translate(-7151.336 -789.466)" fill="#fff2e9"/>
              <path id="Path_7154" data-name="Path 7154" d="M7179.453,812.222a.757.757,0,0,0-.948,1.013c.536,1.256,1.547,2.719,3.163,1.754C7183.442,813.93,7181.121,812.822,7179.453,812.222Z" transform="translate(-7153.214 -787.718)" fill="#fff2e9"/>
              <path id="Path_7155" data-name="Path 7155" d="M7245.618,831.748a.756.756,0,0,0-.157,1.378c1.178.689,4.013,1.5,3.96-.381C7249.379,831.249,7247.315,831.235,7245.618,831.748Z" transform="translate(-7174.696 -793.928)" fill="#fff2e9"/>
              <path id="Path_7156" data-name="Path 7156" d="M7235.844,854.189a.757.757,0,0,0-.593,1.254c.894,1.031,3.315,2.713,3.872.915C7239.564,854.929,7237.616,854.251,7235.844,854.189Z" transform="translate(-7171.466 -801.26)" fill="#fff2e9"/>
              <path id="Path_7157" data-name="Path 7157" d="M7227.431,842.71a.756.756,0,0,0-.591,1.254c.893,1.031,3.314,2.714,3.871.916C7231.152,843.45,7229.2,842.772,7227.431,842.71Z" transform="translate(-7168.755 -797.56)" fill="#fff2e9"/>
              <path id="Path_7158" data-name="Path 7158" d="M7261.5,841.948a.756.756,0,0,0,1.1-.848c-.326-1.325-1.088-2.932-2.839-2.24C7257.837,839.62,7259.95,841.087,7261.5,841.948Z" transform="translate(-7179.18 -796.266)" fill="#fff2e9"/>
              <path id="Path_7159" data-name="Path 7159" d="M7267.5,837.269a.756.756,0,0,0,1.1-.848c-.326-1.325-1.088-2.932-2.839-2.24C7263.836,834.942,7265.95,836.408,7267.5,837.269Z" transform="translate(-7181.114 -794.758)" fill="#fff2e9"/>
              <path id="Path_7160" data-name="Path 7160" d="M7162.777,795.958a.757.757,0,0,0,1.1-.848c-.328-1.325-1.09-2.932-2.841-2.24C7159.113,793.63,7161.227,795.1,7162.777,795.958Z" transform="translate(-7147.355 -781.44)" fill="#fff2e9"/>
              <path id="Path_7161" data-name="Path 7161" d="M7188.771,797.779a.756.756,0,0,0-.616,1.243c.874,1.048,2.264,2.159,3.533.77C7193.084,798.267,7190.542,797.874,7188.771,797.779Z" transform="translate(-7156.288 -783.076)" fill="#fff2e9"/>
              <path id="Path_7162" data-name="Path 7162" d="M7168.771,798.413a.756.756,0,0,0-.616,1.243c.875,1.048,2.263,2.159,3.534.77C7173.084,798.9,7170.543,798.508,7168.771,798.413Z" transform="translate(-7149.84 -783.281)" fill="#fff2e9"/>
              <path id="Path_7163" data-name="Path 7163" d="M7176.351,805.433a.757.757,0,0,0-.616,1.243c.874,1.048,2.264,2.159,3.534.77C7180.663,805.921,7178.121,805.528,7176.351,805.433Z" transform="translate(-7152.284 -785.544)" fill="#fff2e9"/>
              <path id="Path_7164" data-name="Path 7164" d="M7175.106,791.6a.756.756,0,0,0,1.052.9c1.232-.589,2.651-1.662,1.618-3.235C7176.642,787.538,7175.635,789.905,7175.106,791.6Z" transform="translate(-7152.127 -780.138)" fill="#fff2e9"/>
              <path id="Path_7165" data-name="Path 7165" d="M7178.682,798.831a.756.756,0,0,0-.616,1.243c.875,1.047,2.265,2.159,3.535.77C7183,799.319,7180.453,798.926,7178.682,798.831Z" transform="translate(-7153.035 -783.415)" fill="#fff2e9"/>
              <path id="Path_7166" data-name="Path 7166" d="M7185.865,791.356a.757.757,0,0,0-1.212.675c.126,1.359,1.118,4.136,2.617,3C7188.46,794.123,7187.271,792.438,7185.865,791.356Z" transform="translate(-7155.215 -780.955)" fill="#fff2e9"/>
              <path id="Path_7167" data-name="Path 7167" d="M7186.759,810.2a.756.756,0,0,0,1.328.4c.886-1.037,1.75-2.593.167-3.613C7186.517,805.87,7186.557,808.442,7186.759,810.2Z" transform="translate(-7155.864 -785.958)" fill="#fff2e9"/>
            </g>
            <g id="Group_2371" data-name="Group 2371" transform="translate(116.289 6.874)">
              <path id="Path_7168" data-name="Path 7168" d="M7252,807.385a19.416,19.416,0,0,0,11.024-.359c4.57-1.523,11.978-2.629,21.324.744,14.842,5.357,18.637,33.034,5.245,54.016s-36.227,15.829-41.74,14.958c-21.2-3.351-33.357-39.349-25-57.144C7230.031,804.319,7244.04,805.316,7252,807.385Z" transform="translate(-7220.193 -781.335)" fill="#92a348"/>
              <g id="Group_2370" data-name="Group 2370" transform="translate(3.02)">
                <path id="Path_7169" data-name="Path 7169" d="M7258.645,799.293s-1.138-10.842-8.541-16.164c-2.975-2.139-6.331-7.562-9.429-9.863s-16.025-3.455-16.025-3.455,3.563,16.9,10.083,21.372S7258.645,799.293,7258.645,799.293Z" transform="translate(-7224.65 -769.811)" fill="#4cb4d4"/>
                <g id="Group_2369" data-name="Group 2369">
                  <path id="Path_7170" data-name="Path 7170" d="M7231.408,775.633c4.235,2.03,4.755,1.36,5.265,4.077s-.828,3.07,2.586,4.349,5.146.8,6.466,2.442,5.294,4.842,7.312,7.552,4.376,3.989,5.608,5.24c0,0-17.391-3.635-23.912-8.11s-10.083-21.372-10.083-21.372A18.787,18.787,0,0,0,7231.408,775.633Z" transform="translate(-7224.65 -769.811)" fill="#2e88bf"/>
                </g>
              </g>
              <path id="Path_7171" data-name="Path 7171" d="M7237.944,807.38c-1.979,3.82-5.211,10.99-4.266,15.486,1.34,6.361,4.017.781,9.151,8.817s0,25.222,9.152,23.325,16.852-6.362,19.419-.781,13.393-2.961,16.295-1.592c1.692.8,4.468.032,6.716.117a52.437,52.437,0,0,1-4.819,9.623c-13.392,20.982-36.227,15.829-41.74,14.958-21.2-3.351-33.357-39.349-25-57.144C7226.622,812.164,7232.274,808.629,7237.944,807.38Z" transform="translate(-7220.193 -781.922)" fill="#747f2f"/>
              <path id="Path_7172" data-name="Path 7172" d="M7279.83,813.508s.447,2.9-4.39,4.166-10.045-.148-10.937-2.753,2.157-1.488,4.687-1.042a12.532,12.532,0,0,0,4.612.223C7275.738,813.955,7277.3,810.234,7279.83,813.508Z" transform="translate(-7234.425 -783.464)" fill="#747f2f"/>
              <path id="Path_7173" data-name="Path 7173" d="M7273.673,804.063s-2.787-13.551-3.085-16.452.372-9.524-2.6-9.822-2.455,1.637-1.786,4.018,5.433,21.874,6.325,22.619S7273.673,804.063,7273.673,804.063Z" transform="translate(-7234.856 -772.373)" fill="#311e69"/>
              <path id="Path_7174" data-name="Path 7174" d="M7297.887,807.907s6.994,1.712,10.491,7.217,7.44,10.565,6.622,20.907-2.976,15.625-6.995,15.1-2.752-1.339-7.067-.52S7274,836.106,7278.17,830.6s19.465-13.988,18.214-17.336S7295.132,806.923,7297.887,807.907Z" transform="translate(-7238.717 -782.03)" fill="#c7d866"/>
              <path id="Path_7175" data-name="Path 7175" d="M7307.681,827.173s4.353-3.177,8.482,1.51,1.339,18.415-5.692,16.964-12.5-9.6-9.375-13.058A29.66,29.66,0,0,1,7307.681,827.173Z" transform="translate(-7245.982 -787.963)" fill="#e6ef8f"/>
              <path id="Path_7176" data-name="Path 7176" d="M7266.446,829.647s-9.971-.669-12.723-3.571-2.158-7.514-4.985-7.44-4.433,3.846-3.051,6.853a13.411,13.411,0,0,0,12.724,7.474C7263.842,832.622,7266.446,829.647,7266.446,829.647Z" transform="translate(-7228.249 -785.549)" fill="#c7d866"/>
            </g>
            <g id="Group_2375" data-name="Group 2375" transform="translate(169.43 46.571)">
              <path id="Path_7177" data-name="Path 7177" d="M7324.861,837.056s22.325,4.2,24.213,14.684-23.415,36.184-39.614,28.575S7292.775,817.622,7324.861,837.056Z" transform="translate(-7298.613 -829.854)" fill="#ff6161"/>
              <g id="Group_2372" data-name="Group 2372" transform="translate(4.793 8.946)">
                <path id="Path_7178" data-name="Path 7178" d="M7351.354,854.533c-1.207-6.7-10.75-10.827-17.489-12.939,2.17,2.7,4.929,6.95,1.607,7.864-4.943,1.361-10.446-3.647-10.188.11s5.918,8.109,2.358,11.418-4.848-2.08-6.392,4.942c-1.156,5.26-9.045,10.728-15.563,11.154a14.688,14.688,0,0,0,6.053,6.026C7327.938,890.717,7353.24,865.014,7351.354,854.533Z" transform="translate(-7305.686 -841.594)" fill="#ad263d"/>
              </g>
              <path id="Path_7179" data-name="Path 7179" d="M7337.2,835.628a25.647,25.647,0,0,0-7.308-1.958c-3.052-.341-6.387-.316-5.137,1.7,2.169,3.494,5.675,5.254,8.042,5.01s5.23,2.536,6.551,1.351c.535-.48,4.134,4.2,6.42,3.823s1.828-4.76-.914-6.338C7343.216,838.269,7339.734,836.72,7337.2,835.628Z" transform="translate(-7306.954 -830.04)" fill="#92a348"/>
              <g id="Group_2373" data-name="Group 2373" transform="translate(30.499 5.722)">
                <path id="Path_7180" data-name="Path 7180" d="M7351.024,840.287c-1.575-.907-4.846-2.37-7.345-3.451a4.25,4.25,0,0,1-.046,1.515c-.351,1.475,6.348,3.16,7.179,4.4.5.745-.021,2.344-.514,3.5a2.761,2.761,0,0,0,1.639.377C7354.222,846.246,7353.766,841.865,7351.024,840.287Z" transform="translate(-7343.62 -836.836)" fill="#747f2f"/>
              </g>
              <path id="Path_7181" data-name="Path 7181" d="M7341.065,835.847s3.54-7.932,7.081-7.433,2.13,3.51.2,3.858-4.935,4.712-5.887,4.832S7341.065,835.847,7341.065,835.847Z" transform="translate(-7312.298 -828.392)" fill="#92a348"/>
              <path id="Path_7182" data-name="Path 7182" d="M7308.646,847.66s-2.922,1.843-1.848,2.908S7308.646,847.66,7308.646,847.66Z" transform="translate(-7301.175 -834.603)" fill="#f4cc5b"/>
              <path id="Path_7183" data-name="Path 7183" d="M7320.66,854.876s-2.649,2.218-1.443,3.129S7320.66,854.876,7320.66,854.876Z" transform="translate(-7305.153 -836.929)" fill="#f4cc5b"/>
              <path id="Path_7184" data-name="Path 7184" d="M7309.771,860.964s-2.242,2.629-.9,3.326S7309.771,860.964,7309.771,860.964Z" transform="translate(-7301.781 -838.892)" fill="#f4cc5b"/>
              <path id="Path_7185" data-name="Path 7185" d="M7323.645,869.7s-2.688,2.171-1.5,3.1S7323.645,869.7,7323.645,869.7Z" transform="translate(-7306.101 -841.707)" fill="#f4cc5b"/>
              <path id="Path_7186" data-name="Path 7186" d="M7312.478,876.848s.754,3.372-.758,3.361S7312.478,876.848,7312.478,876.848Z" transform="translate(-7302.671 -844.012)" fill="#f4cc5b"/>
              <path id="Path_7187" data-name="Path 7187" d="M7336.073,859.916s-2.65,2.218-1.443,3.129S7336.073,859.916,7336.073,859.916Z" transform="translate(-7310.122 -838.554)" fill="#f4cc5b"/>
              <g id="Group_2374" data-name="Group 2374" transform="translate(17.777 21.406)">
                <path id="Path_7188" data-name="Path 7188" d="M7339.215,874.456s-2.2,2.669-.841,3.341S7339.215,874.456,7339.215,874.456Z" transform="translate(-7329.064 -864.647)" fill="#d17045"/>
                <path id="Path_7189" data-name="Path 7189" d="M7357.327,874.936s.753,3.373-.759,3.361S7357.327,874.936,7357.327,874.936Z" transform="translate(-7334.904 -864.802)" fill="#d17045"/>
                <path id="Path_7190" data-name="Path 7190" d="M7326.125,885.363s.754,3.372-.759,3.361S7326.125,885.363,7326.125,885.363Z" transform="translate(-7324.847 -868.163)" fill="#d17045"/>
                <path id="Path_7191" data-name="Path 7191" d="M7344.136,885.517s-.2,3.449-1.652,3.024S7344.136,885.517,7344.136,885.517Z" transform="translate(-7330.408 -868.213)" fill="#d17045"/>
                <path id="Path_7192" data-name="Path 7192" d="M7350.7,863.339s-2.274,2.6-.941,3.314S7350.7,863.339,7350.7,863.339Z" transform="translate(-7332.743 -861.063)" fill="#d17045"/>
                <path id="Path_7193" data-name="Path 7193" d="M7364.6,859.981s-.584,3.406.926,3.319S7364.6,859.981,7364.6,859.981Z" transform="translate(-7337.624 -859.981)" fill="#d17045"/>
              </g>
            </g>
            <g id="Group_2377" data-name="Group 2377" transform="translate(19.643 32.774)">
              <path id="Path_7194" data-name="Path 7194" d="M7096.249,840.381s-10.524,10.625-15.422,2.713-3.825-9.57.3-14.748S7096.22,834.791,7096.249,840.381Z" transform="translate(-7077.574 -814.161)" fill="#cea249"/>
              <path id="Path_7195" data-name="Path 7195" d="M7112.8,871.461s6.757.333,12.8-5.743.1-16.467-11-21.615S7116.851,859.873,7112.8,871.461Z" transform="translate(-7088.052 -819.401)" fill="#cea249"/>
              <path id="Path_7196" data-name="Path 7196" d="M7154.731,894.882a20.825,20.825,0,0,0,14.349-3.081c7.521-4.617,3.759-15.457-6.434-22.3S7161.439,884.725,7154.731,894.882Z" transform="translate(-7102.446 -827.429)" fill="#cea249"/>
              <path id="Path_7197" data-name="Path 7197" d="M7176.349,907.737a21.84,21.84,0,0,0,14.783-2.06c8-4.028,5.083-14.929-4.671-22.337S7183.98,898.212,7176.349,907.737Z" transform="translate(-7109.414 -831.829)" fill="#cea249"/>
              <path id="Path_7198" data-name="Path 7198" d="M7220.042,930.758a22.223,22.223,0,0,0,14.925-1.676c8.164-3.8,5.573-14.71-4-22.32S7228.009,921.483,7220.042,930.758Z" transform="translate(-7123.499 -839.357)" fill="#cea249"/>
              <path id="Path_7199" data-name="Path 7199" d="M7258.081,915.094a13.81,13.81,0,0,0,10.335-5.143c4.074-5.246-3.848-13.792-15.232-17.813S7259.012,905.284,7258.081,915.094Z" transform="translate(-7132.922 -834.95)" fill="#cea249"/>
              <path id="Path_7200" data-name="Path 7200" d="M7236.952,930.549s5.948-13.487,3.469-22.4-6.636-8.782-8.268-18.355c-3.317-19.464,11.776-13.324,16.254-6,4.262,6.969,7.327,27.035,2.049,35.609A27.053,27.053,0,0,1,7236.952,930.549Z" transform="translate(-7127.251 -830.182)" fill="#edc469"/>
              <path id="Path_7201" data-name="Path 7201" d="M7242.007,877.2a16.5,16.5,0,0,1,5.71,5.387c4.263,6.969,7.328,27.035,2.05,35.609a27.47,27.47,0,0,1-8.943,8.921c-.75,2.185-1.365,3.579-1.365,3.579a27.053,27.053,0,0,0,13.5-11.15c5.278-8.574,2.213-28.64-2.049-35.609A16.294,16.294,0,0,0,7242.007,877.2Z" transform="translate(-7129.758 -830.328)" fill="#ffdea4"/>
              <path id="Path_7202" data-name="Path 7202" d="M7232.154,889.81c1.46,8.57,4.942,9.368,7.435,15.832a52.328,52.328,0,0,0,2.366-9.864c.342-3.738-2.543-14.35-5.271-18.981C7233.112,877.157,7230.591,880.644,7232.154,889.81Z" transform="translate(-7127.251 -830.198)" fill="#cea249"/>
              <path id="Path_7203" data-name="Path 7203" d="M7199.522,917.293a21.069,21.069,0,0,0,14.461-2.834c7.641-4.475,4.083-15.336-6.007-22.322S7206.458,907.284,7199.522,917.293Z" transform="translate(-7116.884 -834.711)" fill="#cea249"/>
              <path id="Path_7204" data-name="Path 7204" d="M7215.75,916.979s4.728-14.057,1.556-22.914-7.243-8.445-9.635-18.028c-4.866-19.484,10.465-14.283,15.467-7.173,4.763,6.769,9.431,26.88,4.954,35.917A26.26,26.26,0,0,1,7215.75,916.979Z" transform="translate(-7119.208 -825.578)" fill="#edc469"/>
              <path id="Path_7205" data-name="Path 7205" d="M7217.213,862.729a16.781,16.781,0,0,1,6.054,5.07c4.763,6.77,9.432,26.88,4.955,35.917a26.951,26.951,0,0,1-8.046,9.634c-.557,2.263-1.046,3.716-1.046,3.716a26.262,26.262,0,0,0,12.342-12.2c4.477-9.037-.191-29.148-4.954-35.917A16.4,16.4,0,0,0,7217.213,862.729Z" transform="translate(-7122.586 -825.663)" fill="#ffdea4"/>
              <path id="Path_7206" data-name="Path 7206" d="M7207.67,876.081c2.142,8.578,5.628,9.152,8.61,15.53a54.149,54.149,0,0,0,1.508-10.146c.027-3.808-3.684-14.359-6.744-18.864C7207.567,863.206,7205.379,866.906,7207.67,876.081Z" transform="translate(-7119.208 -825.622)" fill="#cea249"/>
              <path id="Path_7207" data-name="Path 7207" d="M7193.177,903.727s3.318-14.609-.617-23.347-7.882-8.01-11.12-17.544c-6.585-19.382,8.917-15.276,14.479-8.448,5.3,6.5,11.746,26.532,8.207,36.033A25.615,25.615,0,0,1,7193.177,903.727Z" transform="translate(-7110.539 -821.146)" fill="#edc469"/>
              <path id="Path_7208" data-name="Path 7208" d="M7189.264,848.826a17.027,17.027,0,0,1,6.4,4.678c5.3,6.5,11.746,26.533,8.205,36.034a26.636,26.636,0,0,1-6.979,10.378c-.336,2.337-.678,3.846-.678,3.846a25.613,25.613,0,0,0,10.948-13.3c3.541-9.5-2.908-29.533-8.205-36.033A16.407,16.407,0,0,0,7189.264,848.826Z" transform="translate(-7113.578 -821.182)" fill="#ffdea4"/>
              <path id="Path_7209" data-name="Path 7209" d="M7171.381,894.02s4.264-14.25.838-23.074-7.46-8.308-10.135-17.882c-5.437-19.465,9.961-14.622,15.152-7.6,4.943,6.685,10.2,26.785,6.034,35.982A26.012,26.012,0,0,1,7171.381,894.02Z" transform="translate(-7104.446 -818.112)" fill="#edc469"/>
              <path id="Path_7210" data-name="Path 7210" d="M7171.057,839.511a16.888,16.888,0,0,1,6.175,4.944c4.942,6.686,10.2,26.785,6.035,35.982a26.8,26.8,0,0,1-7.7,9.888c-.483,2.289-.923,3.761-.923,3.761a26.014,26.014,0,0,0,11.89-12.574c4.169-9.2-1.092-29.3-6.035-35.982A16.424,16.424,0,0,0,7171.057,839.511Z" transform="translate(-7107.708 -818.179)" fill="#ffdea4"/>
              <path id="Path_7211" data-name="Path 7211" d="M7162.084,853.123c2.394,8.569,5.876,9.059,9.039,15.4a55.01,55.01,0,0,0,1.185-10.239c-.09-3.829-4.1-14.342-7.285-18.794C7161.583,840.182,7159.523,843.956,7162.084,853.123Z" transform="translate(-7104.446 -818.171)" fill="#cea249"/>
              <path id="Path_7212" data-name="Path 7212" d="M7134.127,883.644a19.714,19.714,0,0,0,13.767-4.214c6.935-5.252,2.238-15.956-8.383-22.12S7139.749,872.836,7134.127,883.644Z" transform="translate(-7095.804 -823.568)" fill="#cea249"/>
              <path id="Path_7213" data-name="Path 7213" d="M7147.942,881.373s3.011-14.715-1.084-23.419-8.012-7.91-11.43-17.423c-6.95-19.343,8.576-15.476,14.254-8.715,5.407,6.436,12.235,26.434,8.9,36.026A25.51,25.51,0,0,1,7147.942,881.373Z" transform="translate(-7095.656 -813.919)" fill="#edc469"/>
              <path id="Path_7214" data-name="Path 7214" d="M7142.881,826.383a17.047,17.047,0,0,1,6.473,4.59c5.407,6.437,12.234,26.434,8.9,36.027a26.61,26.61,0,0,1-6.745,10.529c-.285,2.351-.6,3.871-.6,3.871a25.509,25.509,0,0,0,10.639-13.531c3.336-9.593-3.492-29.59-8.9-36.026A16.4,16.4,0,0,0,7142.881,826.383Z" transform="translate(-7098.625 -813.947)" fill="#ffdea4"/>
              <path id="Path_7215" data-name="Path 7215" d="M7135.428,840.638c3.059,8.515,6.52,8.778,10.148,14.979a57.177,57.177,0,0,0,.318-10.446c-.4-3.871-5.216-14.245-8.708-18.54C7133.868,827.568,7132.156,831.529,7135.428,840.638Z" transform="translate(-7095.657 -814.027)" fill="#cea249"/>
              <path id="Path_7216" data-name="Path 7216" d="M7125.275,870.441s1.575-15.147-3.248-23.658-8.586-7.409-12.822-16.794c-8.612-19.08,6.953-16.341,13.146-9.919,5.9,6.114,14.452,25.866,12.08,35.845A25.2,25.2,0,0,1,7125.275,870.441Z" transform="translate(-7086.952 -810.365)" fill="#edc469"/>
              <path id="Path_7217" data-name="Path 7217" d="M7114.94,815.282a17.112,17.112,0,0,1,6.768,4.161c5.9,6.114,14.452,25.866,12.081,35.845a26.687,26.687,0,0,1-5.625,11.187c-.061,2.4-.223,3.969-.223,3.969a25.2,25.2,0,0,0,9.156-14.526c2.372-9.979-6.183-29.732-12.08-35.845A16.26,16.26,0,0,0,7114.94,815.282Z" transform="translate(-7089.619 -810.369)" fill="#ffdea4"/>
              <path id="Path_7218" data-name="Path 7218" d="M7109.205,830.173c3.791,8.4,7.205,8.4,11.338,14.413a60.265,60.265,0,0,0-.662-10.614c-.759-3.893-6.44-14.044-10.261-18.132C7106.456,817.042,7105.149,821.188,7109.205,830.173Z" transform="translate(-7086.952 -810.549)" fill="#cea249"/>
              <path id="Path_7219" data-name="Path 7219" d="M7103.989,860.091s-.439-15.575-6.221-23.724-17.371-7.172-14.612-15.727,3.655-13.943,7.583-12.321c19.265,7.958,21.245,25.625,20.241,36.027S7103.989,860.091,7103.989,860.091Z" transform="translate(-7079.238 -808.031)" fill="#edc469"/>
              <g id="Group_2376" data-name="Group 2376" transform="translate(10.241 0.004)">
                <path id="Path_7220" data-name="Path 7220" d="M7093.945,808.321a3.419,3.419,0,0,0-1.259-.284,97.167,97.167,0,0,1,8.79,7.011c7.531,6.726,11.74,22.734,8.981,31.851a71.088,71.088,0,0,1-3.515,9.595c.213,2.191.253,3.6.253,3.6s5.988-5.344,6.992-15.745S7113.211,816.279,7093.945,808.321Z" transform="translate(-7092.686 -808.037)" fill="#ffdea4"/>
              </g>
            </g>
          </g>
        </g>
      </g>
      <g id="Group_2382" data-name="Group 2382" transform="translate(95.503 13.729)">
        <path id="Path_7222" data-name="Path 7222" d="M7042.771,785.709l-.83,5.971a8.956,8.956,0,0,0,7.528,10.07,7.894,7.894,0,0,0,9.4-7.422c.478-4.887-3.235-9.015-4.595-11.19C7051.179,778.179,7044.25,778.91,7042.771,785.709Z" transform="translate(-7039.542 -779.927)" fill="#ff6161"/>
        <path id="Path_7223" data-name="Path 7223" d="M7041.982,795.331a7.213,7.213,0,0,1-.449-1.522c-.193-.989-.72-2.417-2.11-1.42-2.023,1.45-.692,6.665,1.938,6.609C7043.314,798.957,7042.521,796.561,7041.982,795.331Z" transform="translate(-7038.441 -783.835)" fill="#ff6161"/>
        <path id="Path_7224" data-name="Path 7224" d="M7062.821,792.04a7.168,7.168,0,0,0,0-1.582c-.094-1,.006-2.513,1.628-1.917,2.359.867,2.56,6.234.013,6.866C7062.57,795.876,7062.653,793.364,7062.821,792.04Z" transform="translate(-7046.274 -782.66)" fill="#ff6161"/>
        <path id="Path_7225" data-name="Path 7225" d="M7052.37,800.2a18.966,18.966,0,0,0,5.948-.884s-.4,2.526-1.618,3.521S7053.69,802.63,7052.37,800.2Z" transform="translate(-7042.931 -786.176)" fill="#fff"/>
        <g id="Group_2381" data-name="Group 2381" transform="translate(3.25 14.132)" style="mix-blend-mode: multiply;isolation: isolate">
          <path id="Path_7226" data-name="Path 7226" d="M7050.418,806.524c1.864.013,5.155-.765,6.491-1.882a11.965,11.965,0,0,0,2.42-3.861c-.006.09,0,.178-.012.269a7.9,7.9,0,0,1-9.4,7.422,8.878,8.878,0,0,1-6.678-4.891A11.814,11.814,0,0,0,7050.418,806.524Z" transform="translate(-7043.236 -800.782)" fill="#ad263d"/>
        </g>
      </g>
      <path id="Path_7227" data-name="Path 7227" d="M7022.1,776.786a18.486,18.486,0,0,1-13.885,12.318c-11.092,2.246-14.737,4.386-21.8,6.584-3.51,1.092-11.359,19.469-30.656,16.463,0,0,14.754-4.379,20.339-19.548,2.375-6.451,7.292-15.669,15.824-16.636s12.954-5.759,16.522-8.88,11.4-3.529,13.653-.26S7022.1,776.786,7022.1,776.786Z" transform="translate(-6916.288 -761.243)" fill="#503629"/>
      <path id="Path_7228" data-name="Path 7228" d="M7060.113,889.547c6.666,3.92,55.863,15.851,50.8,28.8-8.966,22.924-53.354-1.2-67.6-9.414-19.2-11.078-26.414-25.7-30.419-40.741-3.755-14.113-3.552-27.224,4.848-27.106C7025.753,841.2,7043.928,880.03,7060.113,889.547Z" transform="translate(-6933.951 -785.912)" fill="#fff"/>
      <path id="Path_7229" data-name="Path 7229" d="M7042.824,990.582c1.51,1.241,12.706,11.1,12.319,29.888-.415,20.146-5.608,20.146-1.039,35.516s3.1,28.038-5.2,43.2c-7.663,14-23.937,34.787-25.19,57.4-2.384-.427-4.511-1.223-5.47-2.295-9.416-10.523,12.684-65.907,26.3-88.059C7049.372,1058.38,7044.935,993.861,7042.824,990.582Z" transform="translate(-6935.697 -834.104)" fill="#008675"/>
      <g id="Group_2383" data-name="Group 2383" transform="translate(76.612 56.229)">
        <path id="Path_7230" data-name="Path 7230" d="M7014.126,842.644c-.276,4.991-.38,11.729.553,16.806,1.681,9.138,11.125,24.231,20.526,32.261s16.186,16.339,26.847,19.662,38.077,2.492,42.508,3.739a30.794,30.794,0,0,1,6.463,3.4c-.036.112-.067.224-.11.336-8.967,22.924-53.354-1.2-67.6-9.414-19.2-11.077-26.415-25.7-30.418-40.741C7009.788,857,7009.4,846.011,7014.126,842.644Z" transform="translate(-7010.564 -842.644)" fill="#b8d2d8"/>
      </g>
      <path id="Path_7231" data-name="Path 7231" d="M7149.5,949.365c.878-.863,11.979-4.47,11.838-.7-.082,2.149,10.982,5.1,5.566,6.814a16.69,16.69,0,0,0-5.369,2.727c-2.506,1.6-4.14,1.067-9.177.017C7149.893,957.705,7144.607,954.173,7149.5,949.365Z" transform="translate(-6978.093 -820.048)" fill="#ff6161"/>
    </g>
  </g>
</svg>
