<svg id="shipper-illustration" xmlns="http://www.w3.org/2000/svg" xmlns:xlink="http://www.w3.org/1999/xlink" width="265.47" height="279.501" viewBox="0 0 265.47 279.501">
  <defs>
    <clipPath id="clip-path">
      <path id="Path_7221" data-name="Path 7221" d="M7222.451,816.7c0,10.384-38.912,18.8-86.912,18.8s-86.912-8.418-86.912-18.8-3.12-57.031,44.881-57.031c19.411,0,85.162,1.392,97.36,4.311C7254.376,779.178,7222.451,807.987,7222.451,816.7Z" transform="translate(-7048.586 -759.667)" fill="none"/>
    </clipPath>
  </defs>
  <ellipse id="Ellipse_128" data-name="Ellipse 128" cx="55.881" cy="9.02" rx="55.881" ry="9.02" transform="translate(131.592 261.462)" fill="#ceeae0"/>
  <g id="Group_2384" data-name="Group 2384" transform="translate(0 0)">
    <path id="Path_7079" data-name="Path 7079" d="M7114.938,829.2a2.4,2.4,0,0,0-3.582-2.057c-12.044,6.806-50.437,29.49-43.414,38.376,8.308,10.513,46.576-15.091,46.941-15.6C7115.156,849.541,7115.023,836.107,7114.938,829.2Z" transform="translate(-6943.395 -789.673)" fill="#b8d2d8"/>
    <g id="Group_2342" data-name="Group 2342" transform="translate(172.7 258.37)">
      <path id="Path_7080" data-name="Path 7080" d="M7030.69,1232.137c-.123.254-3.112,1.282-5.457,2.533-1.042.94-2.053,2.141-.9,2.492,1.966.6,13.45.427,14.5-1.491a5.086,5.086,0,0,1,1.3-1.554c-1.226-1.748-1.246-.692-1.35-6.642-.02-1.21-5.06-.992-7.889.531C7029.58,1228.712,7030.737,1232.037,7030.69,1232.137Z" transform="translate(-7017.239 -1226.696)" fill="#ff6161"/>
      <path id="Path_7081" data-name="Path 7081" d="M7041.633,1241.663c-1.048,1.918-12.531,2.091-14.5,1.491-1.148-.351-.137-1.552.9-2.492-3.518,1.876-7.859,4.293-7.992,5.508-.22,2.024,20.671,1.632,24.112-.379,1.8-1.052.5-3.23-1.223-5.681A5.082,5.082,0,0,0,7041.633,1241.663Z" transform="translate(-7020.046 -1232.689)" fill="#503629"/>
    </g>
    <g id="Group_2343" data-name="Group 2343" transform="translate(250.246 209.358)">
      <path id="Path_7082" data-name="Path 7082" d="M6909.484,1147.462c.174.223-.234,3.357-.154,6.013.38,1.35,1.006,2.791,1.831,1.918,1.412-1.5,6.356-11.861,5.1-13.651a5.063,5.063,0,0,1-.812-1.858c-2.111.321-1.174.809-6.55-1.741-1.093-.519-3.137,4.092-3.03,7.3C6905.923,1146.935,6909.417,1147.375,6909.484,1147.462Z" transform="translate(-6905.869 -1138.102)" fill="#ff6161"/>
      <path id="Path_7083" data-name="Path 7083" d="M6904.444,1142.942c1.252,1.791-3.693,12.156-5.1,13.651-.825.873-1.451-.568-1.832-1.918.119,3.985.356,8.949,1.386,9.607,1.714,1.1,10.644-17.794,10.37-21.771-.143-2.079-2.674-1.878-5.632-1.427A5.088,5.088,0,0,0,6904.444,1142.942Z" transform="translate(-6894.048 -1139.302)" fill="#503629"/>
    </g>
    <path id="Path_7084" data-name="Path 7084" d="M6952.924,766s-.645-2.233-5.769-.748c-7.536,2.183-7.534,16.253-6.332,21.776s31.78,40.378,43.488,41.054c28.944,1.67,30.986-15.841,28.246-22.131-1.354-3.108-7.7-2.453-7.7-2.453s-11.62.932-22.564-16.469C6979.434,782.477,6952.924,766,6952.924,766Z" transform="translate(-6771.619 -761.934)" fill="#2a0f00"/>
    <path id="Path_7085" data-name="Path 7085" d="M6987.283,1008.306c-5.878-2.108.791-36.811.659-58.914-.09-15.224-10.573-24.531-15.763-30.846-.392-.476-.782-.937-1.169-1.389-21.07,7.974-33.691,4.432-39.687,1.263-34.98,72.913-2.849,130.746,26.379,173.784,1.552,2.284,10.422,1.56,12.512-.775,7.687-8.591-10.354-53.806-21.473-71.89-4.052-6.593-.11-62.071,1.545-61.875,1.162.138-12.511,83.131,69,95.57a4.29,4.29,0,0,0,4.714-2.927l3.343-10.3S7008.994,1016.091,6987.283,1008.306Z" transform="translate(-6772.133 -830.031)" fill="#61b0bc"/>
    <g id="Group_2344" data-name="Group 2344" transform="translate(191.131 87.127)">
      <path id="Path_7086" data-name="Path 7086" d="M6924.488,985.4c-1.372,8.817-2.837,23.738,11.515,32.1s15.237,13.673,29.391,18.99c5.274,1.982,9.976,4.025,13.963,5.9l.775-2.39s-18.348-23.914-40.059-31.7c-5.879-2.108.79-36.811.659-58.913-.09-15.225-10.573-24.532-15.763-30.846-.392-.476-.782-.937-1.169-1.389-2.723,1.03-5.3,1.865-7.746,2.537.465,9.5,1.542,18.863,3.9,22.3C6925.378,949.9,6925.86,976.582,6924.488,985.4Z" transform="translate(-6916.055 -917.158)" fill="#f1be48"/>
    </g>
    <path id="Path_7087" data-name="Path 7087" d="M7016.953,927.933l-16.884,6.735s10.87,2.237,21.6-.841C7020.119,931.649,7018.491,929.7,7016.953,927.933Z" transform="translate(-6812.937 -834.845)" fill="#2a0f00"/>
    <path id="Path_7088" data-name="Path 7088" d="M7051.471,883.491c-2.254-5.3-5.451-15.575-5.181-21.062.634-12.818,7.7-20.662.311-29.59a29.168,29.168,0,0,0-30.066-9.784c-2.4.615-9.145,6.649-10.486,9.784-3.339,7.808,1.377,12.7,1.017,24.447a88.527,88.527,0,0,1-2.831,18.648C7010.232,879.1,7019.388,894.418,7051.471,883.491Z" transform="translate(-6845.045 -787.544)" fill="#fff"/>
    <g id="Group_2345" data-name="Group 2345" transform="translate(182.973 34.782)">
      <path id="Path_7089" data-name="Path 7089" d="M7022.507,862.641c.633-12.818,7.7-20.662.311-29.59a30.018,30.018,0,0,0-18.583-10.512c10.36,8.524,5.207,28.192,4.752,38.689a141.037,141.037,0,0,0,1.26,26.239,68.429,68.429,0,0,0,17.44-3.764C7025.434,878.4,7022.237,868.128,7022.507,862.641Z" transform="translate(-7004.235 -822.539)" fill="#b8d2d8"/>
    </g>
    <path id="Path_7090" data-name="Path 7090" d="M7018.4,936.011c12.286-4.249,35.843-18.406,41.557-24.547,6.438-6.919,9.033-23.831,9.033-23.831l-43.633,27.15A154.525,154.525,0,0,0,7018.4,936.011Z" transform="translate(-6870.407 -816.84)" fill="#2a0f00"/>
    <path id="Path_7091" data-name="Path 7091" d="M7052.511,802.209l-.138,12.657c-.032,2.083-5.514,7.319-8.883,4.607-.986-.794.4-3.628,1.4-5.77l2.848-10.812Z" transform="translate(-6867.614 -778.674)" fill="#ff6161"/>
    <path id="Path_7092" data-name="Path 7092" d="M7044.444,810.983a7.426,7.426,0,0,0,5.75-5.036l-4.465.158Z" transform="translate(-6866.012 -780.344)" fill="#311e69"/>
    <g id="Group_2380" data-name="Group 2380">
      <path id="Path_7093" data-name="Path 7093" d="M7150,830.487c-48,0-86.913,8.418-86.913,18.8S7079.3,903.8,7150,903.8s86.911-44.123,86.911-54.507S7198,830.487,7150,830.487Z" transform="translate(-7063.05 -791.308)" fill="#ed8b00"/>
      <ellipse id="Ellipse_124" data-name="Ellipse 124" cx="86.912" cy="18.802" rx="86.912" ry="18.802" transform="translate(0.042 38.229)" fill="#cfe1e6"/>
      <g id="Group_2379" data-name="Group 2379">
        <g id="Group_2378" data-name="Group 2378" clip-path="url(#clip-path)">
          <g id="Group_2352" data-name="Group 2352" transform="translate(136.127 44.493)">
            <g id="Group_2350" data-name="Group 2350" transform="translate(0 0)">
              <g id="Group_2346" data-name="Group 2346">
                <ellipse id="Ellipse_125" data-name="Ellipse 125" cx="10.323" cy="10.323" rx="10.323" ry="10.323" transform="matrix(-0.059, -0.998, 0.998, -0.059, 1.214, 21.823)" fill="#311e69"/>
              </g>
              <g id="Group_2347" data-name="Group 2347" transform="translate(0.588 1.608)">
                <path id="Path_7094" data-name="Path 7094" d="M7098.773,843a12.889,12.889,0,0,0-1.113,4.16c.035,2.082,1.438,1.4,2.969,2.221s4.325,4.27,7.679,3.9a8.857,8.857,0,0,0,5.075-2.892c.014.069.029.137.04.206a10.322,10.322,0,1,1-14.649-7.59Z" transform="translate(-7092.919 -843)" fill="#1e1240"/>
              </g>
              <g id="Group_2348" data-name="Group 2348" transform="translate(8.159 2.447)">
                <path id="Path_7095" data-name="Path 7095" d="M7110.242,848.032s.962-1.427-.081-2.359a3.83,3.83,0,0,0-3.068-1.129c-.958.13-3.513.37-3.732,1.135s.682,3.491,2.713,3.339S7110.131,849.442,7110.242,848.032Z" transform="translate(-7103.328 -844.517)" fill="#1e1240"/>
              </g>
              <g id="Group_2349" data-name="Group 2349" transform="translate(11.058 4.028)">
                <path id="Path_7096" data-name="Path 7096" d="M7108.926,847.405s1.129-.238.8.617-1.73,1-1.824.441A.894.894,0,0,1,7108.926,847.405Z" transform="translate(-7107.887 -847.375)" fill="#614cd2"/>
              </g>
            </g>
            <g id="Group_2351" data-name="Group 2351" transform="translate(14.693 2.078)">
              <path id="Path_7097" data-name="Path 7097" d="M7100.467,848.83s-2.833-4.516-4.138-4.924,1.183,1.48,1.252,3.5-2.01,4.318.682,4.453S7101.186,850.683,7100.467,848.83Z" transform="translate(-7095.951 -843.85)" fill="#614cd2"/>
            </g>
          </g>
          <g id="Group_2359" data-name="Group 2359" transform="translate(149.547 48.818)">
            <g id="Group_2357" data-name="Group 2357" transform="translate(0 0)">
              <g id="Group_2353" data-name="Group 2353" transform="translate(0 0)">
                <ellipse id="Ellipse_126" data-name="Ellipse 126" cx="10.323" cy="10.323" rx="10.323" ry="10.323" transform="matrix(-0.059, -0.998, 0.998, -0.059, 1.214, 21.823)" fill="#311e69"/>
              </g>
              <g id="Group_2354" data-name="Group 2354" transform="translate(0.587 1.608)">
                <path id="Path_7098" data-name="Path 7098" d="M7074.516,850.817a12.872,12.872,0,0,0-1.112,4.16c.033,2.082,1.438,1.4,2.968,2.221s4.325,4.27,7.679,3.9a8.853,8.853,0,0,0,5.075-2.892c.014.069.029.137.041.206a10.323,10.323,0,1,1-14.65-7.591Z" transform="translate(-7068.662 -850.817)" fill="#1e1240"/>
              </g>
              <g id="Group_2355" data-name="Group 2355" transform="translate(8.159 2.447)">
                <path id="Path_7099" data-name="Path 7099" d="M7085.985,855.849s.961-1.427-.081-2.359a3.828,3.828,0,0,0-3.069-1.129c-.959.129-3.513.37-3.732,1.134s.683,3.492,2.713,3.34S7085.874,857.26,7085.985,855.849Z" transform="translate(-7079.07 -852.335)" fill="#1e1240"/>
              </g>
              <g id="Group_2356" data-name="Group 2356" transform="translate(11.058 4.028)">
                <path id="Path_7100" data-name="Path 7100" d="M7084.666,855.223s1.13-.238.8.616-1.731,1-1.825.442A.893.893,0,0,1,7084.666,855.223Z" transform="translate(-7083.629 -855.193)" fill="#614cd2"/>
              </g>
            </g>
            <g id="Group_2358" data-name="Group 2358" transform="translate(14.693 2.078)">
              <path id="Path_7101" data-name="Path 7101" d="M7076.21,856.648s-2.833-4.516-4.138-4.924,1.184,1.48,1.253,3.5-2.011,4.318.681,4.454S7076.928,858.5,7076.21,856.648Z" transform="translate(-7071.693 -851.668)" fill="#614cd2"/>
            </g>
          </g>
          <g id="Group_2366" data-name="Group 2366" transform="translate(133.008 58.025)">
            <g id="Group_2364" data-name="Group 2364" transform="translate(0 0)">
              <g id="Group_2360" data-name="Group 2360" transform="translate(0 0)">
                <ellipse id="Ellipse_127" data-name="Ellipse 127" cx="10.323" cy="10.323" rx="10.323" ry="10.323" transform="matrix(-0.059, -0.998, 0.998, -0.059, 1.214, 21.823)" fill="#311e69"/>
              </g>
              <g id="Group_2361" data-name="Group 2361" transform="translate(0.587 1.608)">
                <path id="Path_7102" data-name="Path 7102" d="M7104.411,867.459a12.873,12.873,0,0,0-1.112,4.16c.034,2.082,1.438,1.4,2.968,2.221s4.325,4.27,7.679,3.9a8.853,8.853,0,0,0,5.075-2.892c.014.069.029.137.04.206a10.322,10.322,0,1,1-14.649-7.59Z" transform="translate(-7098.558 -867.459)" fill="#1e1240"/>
              </g>
              <g id="Group_2362" data-name="Group 2362" transform="translate(8.16 2.447)">
                <path id="Path_7103" data-name="Path 7103" d="M7115.88,872.491s.961-1.428-.081-2.359A3.832,3.832,0,0,0,7112.73,869c-.959.13-3.513.37-3.732,1.135s.683,3.491,2.713,3.339S7115.769,873.9,7115.88,872.491Z" transform="translate(-7108.966 -868.976)" fill="#1e1240"/>
              </g>
              <g id="Group_2363" data-name="Group 2363" transform="translate(11.058 4.028)">
                <path id="Path_7104" data-name="Path 7104" d="M7114.563,871.865s1.129-.239.8.616-1.73,1-1.824.441A.894.894,0,0,1,7114.563,871.865Z" transform="translate(-7113.524 -871.835)" fill="#614cd2"/>
              </g>
            </g>
            <g id="Group_2365" data-name="Group 2365" transform="translate(14.692 2.078)">
              <path id="Path_7105" data-name="Path 7105" d="M7106.1,873.289s-2.832-4.516-4.138-4.924,1.184,1.48,1.253,3.5-2.01,4.318.682,4.453S7106.824,875.142,7106.1,873.289Z" transform="translate(-7101.588 -868.309)" fill="#614cd2"/>
            </g>
          </g>
          <g id="Group_2368" data-name="Group 2368" transform="translate(58.75 9.081)">
            <g id="Group_2367" data-name="Group 2367" transform="translate(0.112 0.289)">
              <path id="Path_7106" data-name="Path 7106" d="M7162.008,786c20.36-13.627,38.842-11.579,47.063.7,3.411,5.095,4.908,13.735,3.248,20.276-2.341,9.226-10.14,16.538-20.539,23.5-11.639,7.792-23.854,12.025-33.786,9.409-5.232-1.378-10.439-5.87-13.274-10.107a17.872,17.872,0,0,1-2.661-6.278C7139.613,811.968,7141.4,799.792,7162.008,786Zm17.409,19.842c6.361-4.932,6.382-7.418,6.382-7.418l-3.392-.2s-8.582.285-13.6,6.537a34.661,34.661,0,0,0-4.423,6.988S7173.056,810.772,7179.417,805.84Z" transform="translate(-7141.213 -776.606)" fill="#ffbb73"/>
            </g>
            <path id="Path_7107" data-name="Path 7107" d="M7155.737,849.438c-5.231-1.378-10.438-5.87-13.274-10.107a18.275,18.275,0,0,1-1.248-2.171c2.379.847,5.676,1.719,8.36,1.308,4.789-.734,14.919,1.811,23.511-.795s10.465-2.886,16.019-9.862,13.04-10.227,15.338-14.011c1.833-3.021,2.015-12.311,3.391-15.805a28.411,28.411,0,0,1,2.229,18.537c-2.342,9.226-10.14,16.538-20.538,23.5C7177.884,847.821,7165.67,852.055,7155.737,849.438Z" transform="translate(-7138.845 -785.873)" fill="#efa765"/>
            <path id="Path_7108" data-name="Path 7108" d="M7193.448,815.921c1.945-3.249,4.95-2.789,7.864-4.365s6.863-4.07,9.765-3.091a6.506,6.506,0,0,1,3.789,4.093l-3.393-.2s-8.582.285-13.6,6.537a34.668,34.668,0,0,0-4.422,6.988C7187.632,826.03,7191.5,819.17,7193.448,815.921Z" transform="translate(-7170.167 -790.451)" fill="#efa765"/>
            <path id="Path_7109" data-name="Path 7109" d="M7185.606,829.764a.618.618,0,0,1-1.1-.27c-.193-1.1-.155-2.549,1.381-2.611C7187.572,826.816,7186.479,828.609,7185.606,829.764Z" transform="translate(-7138.777 -798.779)" fill="#fff2e9"/>
            <path id="Path_7110" data-name="Path 7110" d="M7201.353,835.3a.617.617,0,0,1-.335-1.082c.839-.731,2.1-1.447,2.947-.163C7204.893,835.462,7202.792,835.45,7201.353,835.3Z" transform="translate(-7165.263 -801.666)" fill="#fff2e9"/>
            <path id="Path_7111" data-name="Path 7111" d="M7209.268,845.489a.618.618,0,0,1-1.1-.269c-.194-1.1-.157-2.549,1.378-2.612C7211.231,842.539,7210.139,844.333,7209.268,845.489Z" transform="translate(-7175.526 -805.804)" fill="#fff2e9"/>
            <path id="Path_7112" data-name="Path 7112" d="M7217.851,841.589a.617.617,0,0,1-.532,1c-1.111-.082-2.509-.476-2.191-1.979C7215.477,838.958,7216.946,840.459,7217.851,841.589Z" transform="translate(-7186.955 -804.585)" fill="#fff2e9"/>
            <path id="Path_7113" data-name="Path 7113" d="M7253.788,859.805a.617.617,0,0,1-.532,1c-1.111-.082-2.509-.476-2.191-1.979C7251.414,857.174,7252.883,858.675,7253.788,859.805Z" transform="translate(-7242.774 -812.724)" fill="#fff2e9"/>
            <path id="Path_7114" data-name="Path 7114" d="M7255.133,832.007a.617.617,0,0,1-.533,1c-1.11-.082-2.508-.476-2.19-1.979C7252.759,829.376,7254.228,830.877,7255.133,832.007Z" transform="translate(-7244.863 -800.304)" fill="#fff2e9"/>
            <path id="Path_7115" data-name="Path 7115" d="M7263.925,824.8a.618.618,0,0,1,.421,1.052c-.78.8-1.983,1.609-2.927.4C7260.384,824.913,7262.479,824.76,7263.925,824.8Z" transform="translate(-7258.975 -797.845)" fill="#fff2e9"/>
            <path id="Path_7116" data-name="Path 7116" d="M7244,848.635a.618.618,0,0,1-.532,1c-1.111-.083-2.509-.476-2.191-1.98C7241.628,846,7243.1,847.5,7244,848.635Z" transform="translate(-7227.574 -807.733)" fill="#fff2e9"/>
            <path id="Path_7117" data-name="Path 7117" d="M7226.617,806.647a.617.617,0,0,1-.532,1c-1.111-.082-2.51-.476-2.191-1.979C7224.243,804.016,7225.711,805.517,7226.617,806.647Z" transform="translate(-7200.572 -788.973)" fill="#fff2e9"/>
            <path id="Path_7118" data-name="Path 7118" d="M7243.056,811.841a.617.617,0,0,1-1.064-.386c-.076-1.112.118-2.551,1.651-2.448C7245.326,809.121,7244.047,810.786,7243.056,811.841Z" transform="translate(-7228.309 -790.79)" fill="#fff2e9"/>
            <path id="Path_7119" data-name="Path 7119" d="M7244.61,804.22a.617.617,0,0,1-1.064-.386c-.076-1.112.118-2.551,1.651-2.448C7246.881,801.5,7245.6,803.165,7244.61,804.22Z" transform="translate(-7230.724 -787.385)" fill="#fff2e9"/>
            <path id="Path_7120" data-name="Path 7120" d="M7234.785,814.234a.618.618,0,0,1-1.069-.373c-.088-1.111.087-2.553,1.621-2.468C7237.022,811.486,7235.764,813.167,7234.785,814.234Z" transform="translate(-7215.431 -791.857)" fill="#fff2e9"/>
            <path id="Path_7121" data-name="Path 7121" d="M7187.477,778.927a.618.618,0,0,1-1.07-.373c-.089-1.111.087-2.553,1.622-2.469C7189.714,776.178,7188.455,777.86,7187.477,778.927Z" transform="translate(-7141.949 -776.083)" fill="#fff2e9"/>
            <path id="Path_7122" data-name="Path 7122" d="M7214.024,804.807a.617.617,0,0,1-1.1-.27c-.194-1.1-.157-2.549,1.377-2.612C7215.988,801.857,7214.9,803.651,7214.024,804.807Z" transform="translate(-7182.915 -787.628)" fill="#fff2e9"/>
            <path id="Path_7123" data-name="Path 7123" d="M7211.018,796.956a.618.618,0,0,1-.572-.977c.653-.9,1.722-1.886,2.834-.827C7214.5,796.315,7212.454,796.779,7211.018,796.956Z" transform="translate(-7179.991 -784.397)" fill="#fff2e9"/>
            <path id="Path_7124" data-name="Path 7124" d="M7228.954,792.241a.618.618,0,0,1-.573-.977c.653-.9,1.722-1.886,2.835-.827C7232.439,791.6,7230.391,792.064,7228.954,792.241Z" transform="translate(-7207.851 -782.29)" fill="#fff2e9"/>
            <path id="Path_7125" data-name="Path 7125" d="M7209.844,788.3a.618.618,0,0,1-.728-.867c.493-1,1.38-2.149,2.654-1.292C7213.173,787.078,7211.232,787.88,7209.844,788.3Z" transform="translate(-7177.889 -780.441)" fill="#fff2e9"/>
            <path id="Path_7126" data-name="Path 7126" d="M7222.607,800.907a.617.617,0,0,1-.532,1c-1.112-.082-2.51-.476-2.191-1.979C7220.233,798.276,7221.7,799.777,7222.607,800.907Z" transform="translate(-7194.344 -786.409)" fill="#fff2e9"/>
            <path id="Path_7127" data-name="Path 7127" d="M7220.683,791.777a.618.618,0,0,1,.128,1.125c-.962.562-3.276,1.225-3.233-.311C7217.612,791.37,7219.3,791.359,7220.683,791.777Z" transform="translate(-7191.468 -782.984)" fill="#fff2e9"/>
            <path id="Path_7128" data-name="Path 7128" d="M7164.914,811.946a.618.618,0,0,1,.128,1.125c-.962.562-3.276,1.225-3.233-.311C7161.844,811.539,7163.528,811.528,7164.914,811.946Z" transform="translate(-7104.849 -791.995)" fill="#fff2e9"/>
            <path id="Path_7129" data-name="Path 7129" d="M7163.658,803.876a.617.617,0,0,1,.128,1.125c-.961.562-3.276,1.225-3.232-.311C7160.588,803.469,7162.272,803.458,7163.658,803.876Z" transform="translate(-7102.897 -788.389)" fill="#fff2e9"/>
            <path id="Path_7130" data-name="Path 7130" d="M7203,792.288a.617.617,0,0,1,.483,1.023c-.73.843-2.706,2.216-3.16.748C7199.966,792.892,7201.557,792.339,7203,792.288Z" transform="translate(-7164.419 -783.323)" fill="#fff2e9"/>
            <path id="Path_7131" data-name="Path 7131" d="M7175.895,782.4a.617.617,0,0,1,.483,1.024c-.729.842-2.706,2.216-3.16.747C7172.857,783.008,7174.447,782.454,7175.895,782.4Z" transform="translate(-7122.312 -778.906)" fill="#fff2e9"/>
            <path id="Path_7132" data-name="Path 7132" d="M7188.173,784.889a.617.617,0,0,1,.483,1.024c-.729.842-2.705,2.215-3.16.747C7185.136,785.493,7186.726,784.94,7188.173,784.889Z" transform="translate(-7141.383 -780.017)" fill="#fff2e9"/>
            <path id="Path_7133" data-name="Path 7133" d="M7219.265,851.4a.617.617,0,0,1-.9-.692c.267-1.082.889-2.394,2.318-1.829C7222.256,849.5,7220.53,850.7,7219.265,851.4Z" transform="translate(-7192.089 -808.547)" fill="#fff2e9"/>
            <path id="Path_7134" data-name="Path 7134" d="M7212.18,859.45a.618.618,0,0,1-.9-.692c.268-1.082.889-2.394,2.318-1.829C7215.171,857.55,7213.445,858.747,7212.18,859.45Z" transform="translate(-7181.083 -812.143)" fill="#fff2e9"/>
            <path id="Path_7135" data-name="Path 7135" d="M7190.729,839.39a.617.617,0,0,1-.336-1.081c.84-.732,2.1-1.448,2.947-.164C7194.268,839.556,7192.168,839.543,7190.729,839.39Z" transform="translate(-7148.761 -803.495)" fill="#fff2e9"/>
            <path id="Path_7136" data-name="Path 7136" d="M7169.639,833.1a.617.617,0,0,1-.335-1.081c.84-.732,2.1-1.448,2.948-.164C7173.179,833.26,7171.079,833.248,7169.639,833.1Z" transform="translate(-7116.005 -800.682)" fill="#fff2e9"/>
            <path id="Path_7137" data-name="Path 7137" d="M7191.227,845.951a.618.618,0,0,1-1.1-.269c-.2-1.1-.158-2.549,1.377-2.612C7193.191,843,7192.1,844.795,7191.227,845.951Z" transform="translate(-7147.505 -806.01)" fill="#fff2e9"/>
            <path id="Path_7138" data-name="Path 7138" d="M7199.809,842.051a.617.617,0,0,1-.532,1c-1.111-.082-2.509-.476-2.192-1.979C7197.435,839.42,7198.9,840.921,7199.809,842.051Z" transform="translate(-7158.933 -804.791)" fill="#fff2e9"/>
            <path id="Path_7139" data-name="Path 7139" d="M7196.926,826.534a.618.618,0,0,1,.667.916c-.561.964-1.526,2.049-2.738,1.105C7193.521,827.519,7195.514,826.854,7196.926,826.534Z" transform="translate(-7155.214 -798.616)" fill="#fff2e9"/>
            <path id="Path_7140" data-name="Path 7140" d="M7225.528,860.46a.618.618,0,0,1-.533,1c-1.112-.082-2.51-.476-2.192-1.979C7223.153,857.829,7224.622,859.33,7225.528,860.46Z" transform="translate(-7198.879 -813.016)" fill="#fff2e9"/>
            <path id="Path_7141" data-name="Path 7141" d="M7267.9,851.292a.618.618,0,0,1,.312,1.089c-.857.713-2.137,1.4-2.952.1C7264.364,851.047,7266.463,851.107,7267.9,851.292Z" transform="translate(-7265.044 -809.642)" fill="#fff2e9"/>
            <path id="Path_7142" data-name="Path 7142" d="M7252.388,814.369a.617.617,0,0,1,.347,1.078c-.833.741-2.088,1.47-2.947.2C7248.847,814.241,7250.946,814.232,7252.388,814.369Z" transform="translate(-7240.985 -793.163)" fill="#fff2e9"/>
            <path id="Path_7143" data-name="Path 7143" d="M7201.224,851.863a.617.617,0,0,1-.9-.692c.267-1.082.889-2.394,2.318-1.829C7204.215,849.964,7202.49,851.16,7201.224,851.863Z" transform="translate(-7164.068 -808.753)" fill="#fff2e9"/>
            <path id="Path_7144" data-name="Path 7144" d="M7243.863,833.77a.618.618,0,0,1-1.13-.079c-.377-1.048-.587-2.486.917-2.807C7245.3,830.531,7244.527,832.483,7243.863,833.77Z" transform="translate(-7228.752 -800.548)" fill="#fff2e9"/>
            <path id="Path_7145" data-name="Path 7145" d="M7243.829,822.924a.617.617,0,0,1-.81.791c-1.034-.416-2.246-1.214-1.487-2.551C7242.365,819.7,7243.31,821.573,7243.829,822.924Z" transform="translate(-7227.342 -795.985)" fill="#fff2e9"/>
            <path id="Path_7146" data-name="Path 7146" d="M7232.4,801.436a.618.618,0,0,1-.9-.692c.267-1.082.889-2.394,2.318-1.829C7235.394,799.536,7233.668,800.733,7232.4,801.436Z" transform="translate(-7212.494 -786.223)" fill="#fff2e9"/>
            <path id="Path_7147" data-name="Path 7147" d="M7254.122,846.561a.617.617,0,0,1-.532,1c-1.112-.082-2.509-.476-2.191-1.979C7251.748,843.931,7253.216,845.431,7254.122,846.561Z" transform="translate(-7243.293 -806.806)" fill="#fff2e9"/>
            <path id="Path_7148" data-name="Path 7148" d="M7200.521,783.833a.617.617,0,0,1-.532,1c-1.111-.082-2.51-.476-2.191-1.979C7198.146,781.2,7199.616,782.7,7200.521,783.833Z" transform="translate(-7160.038 -778.78)" fill="#fff2e9"/>
            <path id="Path_7149" data-name="Path 7149" d="M7254.564,822.722a.617.617,0,0,1-.53,1c-1.113-.082-2.511-.476-2.193-1.979C7252.191,820.091,7253.66,821.592,7254.564,822.722Z" transform="translate(-7243.98 -796.155)" fill="#fff2e9"/>
            <path id="Path_7150" data-name="Path 7150" d="M7241.529,844.721a.617.617,0,0,1-1.1-.269c-.2-1.1-.158-2.549,1.377-2.612C7243.493,841.771,7242.4,843.565,7241.529,844.721Z" transform="translate(-7225.637 -805.461)" fill="#fff2e9"/>
            <path id="Path_7151" data-name="Path 7151" d="M7237.351,828.211a.617.617,0,0,1-.728-.867c.492-1,1.38-2.149,2.654-1.292C7240.678,826.992,7238.737,827.794,7237.351,828.211Z" transform="translate(-7220.612 -798.274)" fill="#fff2e9"/>
            <path id="Path_7152" data-name="Path 7152" d="M7250.112,840.821a.617.617,0,0,1-.532,1c-1.112-.082-2.509-.476-2.191-1.979C7247.738,838.19,7249.207,839.691,7250.112,840.821Z" transform="translate(-7237.065 -804.242)" fill="#fff2e9"/>
            <path id="Path_7153" data-name="Path 7153" d="M7175.384,819.313a.617.617,0,0,1-.532,1c-1.111-.082-2.509-.476-2.191-1.979C7173.011,816.682,7174.479,818.183,7175.384,819.313Z" transform="translate(-7120.997 -794.632)" fill="#fff2e9"/>
            <path id="Path_7154" data-name="Path 7154" d="M7180.77,812.214a.618.618,0,0,1,.774.827c-.437,1.025-1.263,2.22-2.582,1.432C7177.514,813.608,7179.409,812.7,7180.77,812.214Z" transform="translate(-7130.295 -792.208)" fill="#fff2e9"/>
            <path id="Path_7155" data-name="Path 7155" d="M7248.188,831.692a.617.617,0,0,1,.128,1.125c-.962.563-3.276,1.225-3.232-.311C7245.118,831.284,7246.8,831.273,7248.188,831.692Z" transform="translate(-7234.192 -800.817)" fill="#fff2e9"/>
            <path id="Path_7156" data-name="Path 7156" d="M7237.793,854.189a.618.618,0,0,1,.484,1.024c-.729.842-2.707,2.215-3.161.747C7234.756,854.793,7236.346,854.24,7237.793,854.189Z" transform="translate(-7218.454 -810.979)" fill="#fff2e9"/>
            <path id="Path_7157" data-name="Path 7157" d="M7229.381,842.71a.617.617,0,0,1,.482,1.024c-.729.842-2.706,2.216-3.159.747C7226.343,843.314,7227.934,842.761,7229.381,842.71Z" transform="translate(-7205.387 -805.85)" fill="#fff2e9"/>
            <path id="Path_7158" data-name="Path 7158" d="M7259.907,841.35a.617.617,0,0,1-.9-.692c.267-1.082.888-2.394,2.317-1.829C7262.9,839.45,7261.172,840.647,7259.907,841.35Z" transform="translate(-7255.215 -804.056)" fill="#fff2e9"/>
            <path id="Path_7159" data-name="Path 7159" d="M7265.907,836.672a.617.617,0,0,1-.9-.692c.267-1.082.889-2.394,2.318-1.828C7268.9,834.772,7267.173,835.969,7265.907,836.672Z" transform="translate(-7264.536 -801.966)" fill="#fff2e9"/>
            <path id="Path_7160" data-name="Path 7160" d="M7161.185,795.36a.618.618,0,0,1-.9-.692c.268-1.081.89-2.394,2.319-1.829C7164.176,793.46,7162.45,794.657,7161.185,795.36Z" transform="translate(-7101.878 -783.508)" fill="#fff2e9"/>
            <path id="Path_7161" data-name="Path 7161" d="M7190.687,797.779a.617.617,0,0,1,.5,1.015c-.714.856-1.849,1.763-2.885.628C7187.166,798.177,7189.241,797.857,7190.687,797.779Z" transform="translate(-7145.309 -785.776)" fill="#fff2e9"/>
            <path id="Path_7162" data-name="Path 7162" d="M7170.688,798.413a.617.617,0,0,1,.5,1.015c-.714.856-1.848,1.763-2.885.628C7167.167,798.811,7169.242,798.491,7170.688,798.413Z" transform="translate(-7114.247 -786.059)" fill="#fff2e9"/>
            <path id="Path_7163" data-name="Path 7163" d="M7178.267,805.433a.618.618,0,0,1,.5,1.015c-.713.856-1.848,1.763-2.885.629C7174.746,805.831,7176.821,805.511,7178.267,805.433Z" transform="translate(-7126.017 -789.195)" fill="#fff2e9"/>
            <path id="Path_7164" data-name="Path 7164" d="M7177.541,791.059a.617.617,0,0,1-.859.737c-1.006-.481-2.165-1.357-1.321-2.641C7176.287,787.745,7177.109,789.677,7177.541,791.059Z" transform="translate(-7124.404 -781.703)" fill="#fff2e9"/>
            <path id="Path_7165" data-name="Path 7165" d="M7180.6,798.831a.618.618,0,0,1,.5,1.015c-.715.855-1.849,1.762-2.886.628C7177.078,799.229,7179.153,798.909,7180.6,798.831Z" transform="translate(-7129.64 -786.246)" fill="#fff2e9"/>
            <path id="Path_7166" data-name="Path 7166" d="M7186.2,791.327a.618.618,0,0,1,.99.551c-.1,1.11-.913,3.377-2.137,2.447C7184.076,793.586,7185.047,792.21,7186.2,791.327Z" transform="translate(-7139.321 -782.836)" fill="#fff2e9"/>
            <path id="Path_7167" data-name="Path 7167" d="M7188.6,809.564a.618.618,0,0,1-1.084.326c-.724-.847-1.428-2.117-.137-2.95C7188.8,806.025,7188.768,808.125,7188.6,809.564Z" transform="translate(-7141.928 -789.769)" fill="#fff2e9"/>
          </g>
          <g id="Group_2371" data-name="Group 2371" transform="translate(23.575 5.612)">
            <path id="Path_7168" data-name="Path 7168" d="M7257.605,807.05a15.852,15.852,0,0,1-9-.293c-3.731-1.243-9.778-2.146-17.408.607-12.117,4.373-15.215,26.969-4.282,44.1s29.575,12.923,34.076,12.211c17.312-2.736,27.232-32.124,20.409-46.651C7275.54,804.547,7264.1,805.361,7257.605,807.05Z" transform="translate(-7220.193 -785.783)" fill="#92a348"/>
            <g id="Group_2370" data-name="Group 2370" transform="translate(33.16)">
              <path id="Path_7169" data-name="Path 7169" d="M7224.65,793.879s.929-8.851,6.972-13.2c2.429-1.746,5.168-6.173,7.7-8.052s13.083-2.82,13.083-2.82-2.909,13.793-8.231,17.447S7224.65,793.879,7224.65,793.879Z" transform="translate(-7224.65 -769.811)" fill="#4cb4d4"/>
              <g id="Group_2369" data-name="Group 2369">
                <path id="Path_7170" data-name="Path 7170" d="M7246.886,774.564c-3.457,1.657-3.882,1.11-4.3,3.329s.676,2.507-2.111,3.55-4.2.653-5.279,1.993-4.323,3.953-5.969,6.166-3.572,3.257-4.579,4.278c0,0,14.2-2.967,19.521-6.621s8.231-17.447,8.231-17.447A15.339,15.339,0,0,1,7246.886,774.564Z" transform="translate(-7224.65 -769.811)" fill="#2e88bf"/>
              </g>
            </g>
            <path id="Path_7171" data-name="Path 7171" d="M7266.292,807.38c1.616,3.119,4.255,8.972,3.483,12.642-1.094,5.193-3.28.638-7.471,7.2s0,20.591-7.472,19.042-13.758-5.194-15.853-.638-10.934-2.418-13.3-1.3c-1.382.652-3.647.026-5.483.1a42.81,42.81,0,0,0,3.934,7.856c10.934,17.129,29.575,12.922,34.076,12.211,17.311-2.736,27.232-32.124,20.409-46.651C7275.536,811.285,7270.921,808.4,7266.292,807.38Z" transform="translate(-7217.405 -786.596)" fill="#747f2f"/>
            <path id="Path_7172" data-name="Path 7172" d="M7264.354,813.261s-.365,2.369,3.583,3.4,8.2-.121,8.929-2.247-1.761-1.215-3.826-.85a10.232,10.232,0,0,1-3.766.182C7267.694,813.626,7266.419,810.589,7264.354,813.261Z" transform="translate(-7238.043 -788.734)" fill="#747f2f"/>
            <path id="Path_7173" data-name="Path 7173" d="M7265.681,799.234s2.275-11.063,2.518-13.431-.3-7.775,2.126-8.018,2,1.336,1.458,3.28-4.436,17.858-5.164,18.465S7265.681,799.234,7265.681,799.234Z" transform="translate(-7233.991 -773.362)" fill="#311e69"/>
            <path id="Path_7174" data-name="Path 7174" d="M7291.72,807.872s-5.709,1.4-8.564,5.892-6.074,8.625-5.406,17.068,2.43,12.756,5.711,12.33,2.246-1.093,5.769-.425,21.989-11.844,18.587-16.339-15.891-11.419-14.87-14.153S7293.97,807.069,7291.72,807.872Z" transform="translate(-7276.647 -786.747)" fill="#c7d866"/>
            <path id="Path_7175" data-name="Path 7175" d="M7308.693,826.98s-3.553-2.594-6.925,1.233-1.093,15.034,4.647,13.849,10.2-7.836,7.653-10.66A24.205,24.205,0,0,0,7308.693,826.98Z" transform="translate(-7295.685 -794.969)" fill="#e6ef8f"/>
            <path id="Path_7176" data-name="Path 7176" d="M7245.184,827.625s8.14-.547,10.387-2.915,1.762-6.135,4.07-6.074,3.619,3.14,2.491,5.595a10.949,10.949,0,0,1-10.388,6.1A9.793,9.793,0,0,1,7245.184,827.625Z" transform="translate(-7212.989 -791.624)" fill="#c7d866"/>
          </g>
          <g id="Group_2375" data-name="Group 2375" transform="translate(2.293 38.02)">
            <path id="Path_7177" data-name="Path 7177" d="M7318.462,836.3s-18.226,3.431-19.767,11.988,19.115,29.54,32.34,23.328S7344.656,820.433,7318.462,836.3Z" transform="translate(-7298.614 -830.419)" fill="#ff6161"/>
            <g id="Group_2372" data-name="Group 2372" transform="translate(0 7.304)">
              <path id="Path_7178" data-name="Path 7178" d="M7305.768,852.157c.985-5.467,8.776-8.839,14.277-10.563-1.771,2.2-4.023,5.674-1.312,6.42,4.035,1.111,8.528-2.977,8.317.09s-4.832,6.62-1.925,9.321,3.958-1.7,5.219,4.035c.944,4.294,7.384,8.758,12.706,9.106a11.991,11.991,0,0,1-4.941,4.92C7324.883,881.7,7304.227,860.714,7305.768,852.157Z" transform="translate(-7305.686 -841.594)" fill="#ad263d"/>
            </g>
            <path id="Path_7179" data-name="Path 7179" d="M7332.677,835.239a20.939,20.939,0,0,1,5.966-1.6c2.492-.278,5.214-.258,4.194,1.386-1.771,2.852-4.634,4.29-6.566,4.09s-4.27,2.071-5.349,1.1c-.437-.392-3.375,3.43-5.241,3.121s-1.492-3.886.747-5.174C7327.767,837.395,7330.61,836.13,7332.677,835.239Z" transform="translate(-7316.095 -830.677)" fill="#92a348"/>
            <g id="Group_2373" data-name="Group 2373" transform="translate(8.393 4.672)">
              <path id="Path_7180" data-name="Path 7180" d="M7345.56,839.653c1.286-.74,3.957-1.934,6-2.817a3.5,3.5,0,0,0,.038,1.236c.286,1.2-5.183,2.58-5.861,3.59-.408.609.018,1.914.42,2.857a2.255,2.255,0,0,1-1.338.308C7342.949,844.518,7343.321,840.941,7345.56,839.653Z" transform="translate(-7343.62 -836.836)" fill="#747f2f"/>
            </g>
            <path id="Path_7181" data-name="Path 7181" d="M7348.623,834.478s-2.89-6.475-5.781-6.068-1.738,2.866-.162,3.149,4.028,3.847,4.806,3.945S7348.623,834.478,7348.623,834.478Z" transform="translate(-7330.831 -828.392)" fill="#92a348"/>
            <path id="Path_7182" data-name="Path 7182" d="M7306.561,847.66s2.386,1.5,1.509,2.374S7306.561,847.66,7306.561,847.66Z" transform="translate(-7271.384 -837)" fill="#f4cc5b"/>
            <path id="Path_7183" data-name="Path 7183" d="M7318.9,854.876s2.163,1.811,1.178,2.555S7318.9,854.876,7318.9,854.876Z" transform="translate(-7290.285 -840.224)" fill="#f4cc5b"/>
            <path id="Path_7184" data-name="Path 7184" d="M7308.5,860.964s1.83,2.146.735,2.715S7308.5,860.964,7308.5,860.964Z" transform="translate(-7273.744 -842.944)" fill="#f4cc5b"/>
            <path id="Path_7185" data-name="Path 7185" d="M7321.843,869.7s2.2,1.772,1.223,2.533S7321.843,869.7,7321.843,869.7Z" transform="translate(-7294.889 -846.846)" fill="#f4cc5b"/>
            <path id="Path_7186" data-name="Path 7186" d="M7311.354,876.848s-.617,2.753.618,2.744S7311.354,876.848,7311.354,876.848Z" transform="translate(-7278.083 -850.041)" fill="#f4cc5b"/>
            <path id="Path_7187" data-name="Path 7187" d="M7334.314,859.916s2.164,1.811,1.178,2.555S7334.314,859.916,7334.314,859.916Z" transform="translate(-7314.224 -842.476)" fill="#f4cc5b"/>
            <g id="Group_2374" data-name="Group 2374" transform="translate(3.584 17.476)">
              <path id="Path_7188" data-name="Path 7188" d="M7338.011,874.456s1.792,2.178.686,2.728S7338.011,874.456,7338.011,874.456Z" transform="translate(-7323.118 -866.448)" fill="#d17045"/>
              <path id="Path_7189" data-name="Path 7189" d="M7356.2,874.936s-.615,2.754.62,2.744S7356.2,874.936,7356.2,874.936Z" transform="translate(-7351.327 -866.663)" fill="#d17045"/>
              <path id="Path_7190" data-name="Path 7190" d="M7325,885.363s-.616,2.753.619,2.744S7325,885.363,7325,885.363Z" transform="translate(-7302.864 -871.321)" fill="#d17045"/>
              <path id="Path_7191" data-name="Path 7191" d="M7342.1,885.517s.163,2.816,1.348,2.468S7342.1,885.517,7342.1,885.517Z" transform="translate(-7330.125 -871.39)" fill="#d17045"/>
              <path id="Path_7192" data-name="Path 7192" d="M7349.384,863.339s1.857,2.123.768,2.706S7349.384,863.339,7349.384,863.339Z" transform="translate(-7340.864 -861.481)" fill="#d17045"/>
              <path id="Path_7193" data-name="Path 7193" d="M7365.645,859.981s.477,2.78-.756,2.71S7365.645,859.981,7365.645,859.981Z" transform="translate(-7364.486 -859.981)" fill="#d17045"/>
            </g>
          </g>
          <g id="Group_2377" data-name="Group 2377" transform="translate(54.353 26.756)">
            <path id="Path_7194" data-name="Path 7194" d="M7077.573,837.933s8.592,8.674,12.591,2.215,3.122-7.813-.245-12.04S7077.6,833.369,7077.573,837.933Z" transform="translate(-6981.319 -816.528)" fill="#cea249"/>
            <path id="Path_7195" data-name="Path 7195" d="M7122.5,866.291a14.927,14.927,0,0,1-10.449-4.689c-4.933-4.96-.081-13.444,8.98-17.646S7119.193,856.83,7122.5,866.291Z" transform="translate(-7031.205 -823.79)" fill="#cea249"/>
            <path id="Path_7196" data-name="Path 7196" d="M7169.681,889.984a17,17,0,0,1-11.714-2.515c-6.141-3.769-3.069-12.619,5.252-18.208S7164.2,881.692,7169.681,889.984Z" transform="translate(-7100.866 -834.916)" fill="#cea249"/>
            <path id="Path_7197" data-name="Path 7197" d="M7192.189,902.985a17.83,17.83,0,0,1-12.069-1.682c-6.527-3.288-4.149-12.187,3.814-18.236S7185.958,895.209,7192.189,902.985Z" transform="translate(-7135.333 -841.015)" fill="#cea249"/>
            <path id="Path_7198" data-name="Path 7198" d="M7236.208,926.067a18.14,18.14,0,0,1-12.184-1.368c-6.665-3.1-4.55-12.009,3.27-18.221S7229.7,918.495,7236.208,926.067Z" transform="translate(-7203.525 -851.448)" fill="#cea249"/>
            <path id="Path_7199" data-name="Path 7199" d="M7258.6,910.768a11.276,11.276,0,0,1-8.438-4.2c-3.326-4.282,3.142-11.26,12.436-14.542S7257.839,902.76,7258.6,910.768Z" transform="translate(-7249.277 -845.34)" fill="#cea249"/>
            <path id="Path_7200" data-name="Path 7200" d="M7244.988,920.67s-4.856-11.011-2.832-18.287,5.417-7.169,6.75-14.985c2.708-15.89-9.614-10.877-13.27-4.9-3.479,5.689-5.982,22.071-1.673,29.071A22.087,22.087,0,0,0,7244.988,920.67Z" transform="translate(-7223.047 -838.733)" fill="#edc469"/>
            <path id="Path_7201" data-name="Path 7201" d="M7250.687,877.2a13.471,13.471,0,0,0-4.662,4.4c-3.48,5.689-5.982,22.071-1.673,29.071a22.429,22.429,0,0,0,7.3,7.283c.612,1.784,1.114,2.922,1.114,2.922a22.086,22.086,0,0,1-11.024-9.1c-4.31-7-1.807-23.381,1.673-29.071A13.3,13.3,0,0,1,7250.687,877.2Z" transform="translate(-7230.826 -838.935)" fill="#ffdea4"/>
            <path id="Path_7202" data-name="Path 7202" d="M7239.706,887.42c-1.192,7-4.034,7.648-6.069,12.925a42.7,42.7,0,0,1-1.932-8.053c-.279-3.052,2.077-11.715,4.3-15.5C7238.923,877.091,7240.981,879.938,7239.706,887.42Z" transform="translate(-7213.847 -838.755)" fill="#cea249"/>
            <path id="Path_7203" data-name="Path 7203" d="M7214.69,912.428a17.2,17.2,0,0,1-11.805-2.314c-6.238-3.654-3.333-12.52,4.9-18.223S7209.028,904.257,7214.69,912.428Z" transform="translate(-7170.655 -845.01)" fill="#cea249"/>
            <path id="Path_7204" data-name="Path 7204" d="M7218.281,906.969s-3.859-11.476-1.27-18.706,5.913-6.894,7.866-14.718c3.973-15.907-8.543-11.661-12.627-5.856-3.888,5.526-7.7,21.944-4.044,29.322A21.436,21.436,0,0,0,7218.281,906.969Z" transform="translate(-7185.598 -832.351)" fill="#edc469"/>
            <path id="Path_7205" data-name="Path 7205" d="M7230.33,862.729a13.7,13.7,0,0,0-4.942,4.139c-3.888,5.527-7.7,21.945-4.045,29.322a22,22,0,0,0,6.568,7.865c.454,1.848.854,3.033.854,3.033a21.438,21.438,0,0,1-10.076-9.958c-3.655-7.378.156-23.8,4.044-29.322A13.387,13.387,0,0,1,7230.33,862.729Z" transform="translate(-7196.082 -832.469)" fill="#ffdea4"/>
            <path id="Path_7206" data-name="Path 7206" d="M7214.99,873.606c-1.749,7-4.595,7.472-7.029,12.678a44.2,44.2,0,0,1-1.231-8.283c-.022-3.109,3.007-11.722,5.505-15.4C7215.075,863.095,7216.861,866.115,7214.99,873.606Z" transform="translate(-7175.71 -832.411)" fill="#cea249"/>
            <path id="Path_7207" data-name="Path 7207" d="M7189.605,893.626s-2.708-11.927.5-19.06,6.435-6.54,9.078-14.322c5.377-15.823-7.279-12.471-11.82-6.9-4.325,5.307-9.589,21.66-6.7,29.417A20.911,20.911,0,0,0,7189.605,893.626Z" transform="translate(-7145.57 -826.208)" fill="#edc469"/>
            <path id="Path_7208" data-name="Path 7208" d="M7204.706,848.826a13.9,13.9,0,0,0-5.227,3.819c-4.324,5.307-9.589,21.661-6.7,29.417a21.751,21.751,0,0,0,5.7,8.473c.274,1.908.553,3.14.553,3.14a20.911,20.911,0,0,1-8.938-10.862c-2.891-7.757,2.375-24.11,6.7-29.417A13.4,13.4,0,0,1,7204.706,848.826Z" transform="translate(-7154.995 -826.258)" fill="#ffdea4"/>
            <path id="Path_7209" data-name="Path 7209" d="M7171.879,883.973s-3.48-11.634-.685-18.837,6.091-6.782,8.274-14.6c4.439-15.891-8.132-11.937-12.37-6.205-4.035,5.458-8.33,21.867-4.926,29.375A21.235,21.235,0,0,0,7171.879,883.973Z" transform="translate(-7115.023 -822.003)" fill="#edc469"/>
            <path id="Path_7210" data-name="Path 7210" d="M7184.925,839.511a13.782,13.782,0,0,0-5.041,4.036c-4.035,5.458-8.33,21.867-4.927,29.375a21.88,21.88,0,0,0,6.287,8.073c.395,1.869.753,3.07.753,3.07a21.24,21.24,0,0,1-9.707-10.265c-3.4-7.508.892-23.918,4.927-29.375A13.406,13.406,0,0,1,7184.925,839.511Z" transform="translate(-7125.142 -822.096)" fill="#ffdea4"/>
            <path id="Path_7211" data-name="Path 7211" d="M7169.289,850.619c-1.954,7-4.8,7.4-7.379,12.569a44.871,44.871,0,0,1-.967-8.359c.073-3.126,3.35-11.708,5.946-15.344C7169.7,840.054,7171.379,843.135,7169.289,850.619Z" transform="translate(-7104.844 -822.084)" fill="#cea249"/>
            <path id="Path_7212" data-name="Path 7212" d="M7148.037,878.61a16.092,16.092,0,0,1-11.238-3.44c-5.662-4.287-1.828-13.026,6.844-18.058S7143.447,869.786,7148.037,878.61Z" transform="translate(-7067.824 -829.564)" fill="#cea249"/>
            <path id="Path_7213" data-name="Path 7213" d="M7143.076,871.26s-2.458-12.013.885-19.119,6.541-6.457,9.332-14.224c5.673-15.792-7-12.634-11.637-7.115-4.414,5.254-9.988,21.58-7.265,29.411A20.824,20.824,0,0,0,7143.076,871.26Z" transform="translate(-7074.261 -816.192)" fill="#edc469"/>
            <path id="Path_7214" data-name="Path 7214" d="M7158.842,826.383a13.929,13.929,0,0,0-5.284,3.747c-4.415,5.255-9.988,21.581-7.266,29.412a21.735,21.735,0,0,0,5.507,8.6c.232,1.919.487,3.16.487,3.16a20.827,20.827,0,0,1-8.686-11.047c-2.723-7.831,2.851-24.157,7.266-29.411A13.386,13.386,0,0,1,7158.842,826.383Z" transform="translate(-7083.472 -816.23)" fill="#ffdea4"/>
            <path id="Path_7215" data-name="Path 7215" d="M7142.327,838.067c-2.5,6.952-5.323,7.166-8.285,12.229a46.672,46.672,0,0,1-.26-8.528c.33-3.16,4.258-11.629,7.109-15.136C7143.6,827.4,7145,830.63,7142.327,838.067Z" transform="translate(-7063.295 -816.342)" fill="#cea249"/>
            <path id="Path_7216" data-name="Path 7216" d="M7114.472,860.311s-1.286-12.365,2.652-19.314,7.01-6.049,10.468-13.71c7.031-15.577-5.676-13.34-10.732-8.1-4.814,4.991-11.8,21.117-9.862,29.264A20.576,20.576,0,0,0,7114.472,860.311Z" transform="translate(-7034.259 -811.265)" fill="#edc469"/>
            <path id="Path_7217" data-name="Path 7217" d="M7133.359,815.282a13.975,13.975,0,0,0-5.525,3.4c-4.814,4.991-11.8,21.117-9.862,29.264a21.793,21.793,0,0,0,4.591,9.133c.05,1.963.182,3.24.182,3.24a20.574,20.574,0,0,1-7.475-11.859c-1.937-8.147,5.047-24.273,9.862-29.264A13.272,13.272,0,0,1,7133.359,815.282Z" transform="translate(-7042.532 -811.271)" fill="#ffdea4"/>
            <path id="Path_7218" data-name="Path 7218" d="M7115.93,827.542c-3.1,6.858-5.882,6.859-9.257,11.767a49.278,49.278,0,0,1,.541-8.665c.62-3.178,5.258-11.465,8.377-14.8C7118.174,816.822,7119.241,820.206,7115.93,827.542Z" transform="translate(-7022.597 -811.521)" fill="#cea249"/>
            <path id="Path_7219" data-name="Path 7219" d="M7088.615,850.532s.358-12.715,5.079-19.368,14.181-5.855,11.929-12.84-2.984-11.383-6.191-10.059c-15.727,6.5-17.344,20.92-16.524,29.412S7088.615,850.532,7088.615,850.532Z" transform="translate(-6997.321 -808.031)" fill="#edc469"/>
            <g id="Group_2376" data-name="Group 2376" transform="translate(85.416 0.003)">
              <path id="Path_7220" data-name="Path 7220" d="M7109.381,808.269a2.791,2.791,0,0,1,1.028-.232,79.27,79.27,0,0,0-7.176,5.724c-6.148,5.491-9.584,18.559-7.332,26a58.049,58.049,0,0,0,2.87,7.833c-.174,1.788-.207,2.939-.207,2.939s-4.889-4.363-5.708-12.854S7093.652,814.766,7109.381,808.269Z" transform="translate(-7092.686 -808.037)" fill="#ffdea4"/>
            </g>
          </g>
        </g>
      </g>
    </g>
    <g id="Group_2382" data-name="Group 2382" transform="translate(171.157 11.208)">
      <path id="Path_7222" data-name="Path 7222" d="M7055.037,784.647l.677,4.875a7.312,7.312,0,0,1-6.146,8.221,6.445,6.445,0,0,1-7.676-6.059c-.39-3.99,2.641-7.359,3.751-9.135C7048.172,778.5,7053.829,779.1,7055.037,784.647Z" transform="translate(-7041.327 -779.927)" fill="#ff6161"/>
      <path id="Path_7223" data-name="Path 7223" d="M7038.952,794.728a5.938,5.938,0,0,0,.366-1.242c.158-.808.588-1.973,1.724-1.159,1.651,1.183.564,5.441-1.583,5.4C7037.864,797.689,7038.513,795.733,7038.952,794.728Z" transform="translate(-7025.498 -785.344)" fill="#ff6161"/>
      <path id="Path_7224" data-name="Path 7224" d="M7065.578,791.372a5.855,5.855,0,0,1,0-1.291c.077-.818-.005-2.051-1.329-1.565-1.926.708-2.09,5.089-.01,5.605C7065.783,794.5,7065.715,792.453,7065.578,791.372Z" transform="translate(-7062.742 -783.715)" fill="#ff6161"/>
      <path id="Path_7225" data-name="Path 7225" d="M7057.226,800.033a15.482,15.482,0,0,1-4.856-.722,5.558,5.558,0,0,0,1.321,2.875C7054.688,803,7056.148,802.021,7057.226,800.033Z" transform="translate(-7048.587 -788.587)" fill="#fff"/>
      <g id="Group_2381" data-name="Group 2381" transform="translate(0.554 11.537)" style="mix-blend-mode: multiply;isolation: isolate">
        <path id="Path_7226" data-name="Path 7226" d="M7050.511,805.47a10.271,10.271,0,0,1-5.3-1.536,9.783,9.783,0,0,1-1.976-3.152c.006.074,0,.146.011.22a6.445,6.445,0,0,0,7.676,6.059,7.247,7.247,0,0,0,5.452-3.993A9.644,9.644,0,0,1,7050.511,805.47Z" transform="translate(-7043.235 -800.782)" fill="#ad263d"/>
      </g>
    </g>
    <path id="Path_7227" data-name="Path 7227" d="M6956.582,774.54a15.091,15.091,0,0,0,11.335,10.056c9.055,1.833,12.031,3.581,17.795,5.375,2.865.892,9.273,15.894,25.026,13.44,0,0-12.045-3.575-16.6-15.959-1.938-5.266-5.953-12.792-12.918-13.581s-10.576-4.7-13.489-7.249-9.309-2.881-11.146-.212S6956.582,774.54,6956.582,774.54Z" transform="translate(-6777.498 -761.851)" fill="#503629"/>
    <path id="Path_7228" data-name="Path 7228" d="M7052.328,880.648c-5.442,3.2-45.606,12.94-41.471,23.512,7.319,18.715,43.558-.978,55.186-7.686,15.677-9.044,21.564-20.979,24.833-33.26,3.065-11.522,2.9-22.225-3.957-22.129C7080.38,841.176,7065.542,872.879,7052.328,880.648Z" transform="translate(-6889.857 -796.042)" fill="#fff"/>
    <path id="Path_7229" data-name="Path 7229" d="M7027.268,990.582c-1.232,1.014-10.373,9.06-10.057,24.4.338,16.447,4.578,16.447.848,28.995s-2.528,22.89,4.246,35.268c6.256,11.429,19.542,28.4,20.565,46.863,1.946-.349,3.683-1,4.466-1.873,7.686-8.591-10.355-53.806-21.471-71.89C7021.922,1045.931,7025.545,993.259,7027.268,990.582Z" transform="translate(-6849.256 -862.835)" fill="#f1be48"/>
    <g id="Group_2383" data-name="Group 2383" transform="translate(120.91 45.904)">
      <path id="Path_7230" data-name="Path 7230" d="M7089.67,842.644a63.954,63.954,0,0,1-.452,13.72c-1.372,7.46-9.083,19.781-16.757,26.338s-13.214,13.339-21.918,16.052-31.085,2.035-34.7,3.052a25.154,25.154,0,0,0-5.276,2.777c.029.091.055.183.09.274,7.32,18.715,43.558-.978,55.186-7.686,15.676-9.044,21.564-20.979,24.833-33.26C7093.212,854.368,7093.53,845.393,7089.67,842.644Z" transform="translate(-7010.564 -842.644)" fill="#b8d2d8"/>
    </g>
    <path id="Path_7231" data-name="Path 7231" d="M7162.922,948.926c-.716-.7-9.779-3.649-9.664-.574.067,1.755-8.966,4.164-4.544,5.563a13.64,13.64,0,0,1,4.384,2.226c2.045,1.307,3.379.871,7.491.014C7162.605,955.735,7166.92,952.851,7162.922,948.926Z" transform="translate(-7037.391 -843.354)" fill="#ff6161"/>
  </g>
</svg>
