<svg xmlns="http://www.w3.org/2000/svg" width="502.323" height="329.878" viewBox="0 0 502.323 329.878">
  <g id="splash-lblue" transform="translate(87.672 -5055.957)">
    <g id="Group_1887" data-name="Group 1887" transform="translate(-123.34 5051.449)">
      <path id="Path_5301" data-name="Path 5301" d="M5581.742,966.262c-27.2-60.294,51.272-46.246,46.785-100.014s-19.584-86.764,24.566-92.562,70.459-41.86,97.465-35.779,47.331,20.562,70.083,9.2c17.964-8.971,33.372-31.925,65.227-33.548,34.4-1.754,54.686,18.98,64.719,24.349,25.282,13.528,68.512-2.435,90.255,26.244,15.141,19.971,13.125,63.8,23.259,87.116,10.113,23.267,24.271,61.685,3.635,104.034-22.9,46.993-91.881,55.643-138.844,38.82-18.436-6.6-35.292-19.589-54.709-20.653-20.239-1.109-38.738,10.9-57.053,20.187C5776.788,1014.1,5608.943,1026.557,5581.742,966.262Z" transform="translate(-5540.33 -676.116)" fill="#61b0bc" opacity="0.375"/>
    </g>
    <path id="Path_7074" data-name="Path 7074" d="M27.951,5.53C6.87-8.269-.474,6.481.024,20.052S12.871,37.709,20.417,40.572,37.035,45.753,40.8,39.046,49.032,19.329,27.951,5.53Z" transform="translate(285.457 5077.946) rotate(-30)" fill="#bedadf"/>
    <path id="Path_7075" data-name="Path 7075" d="M13.624,1.36C4.61-2.34-.235,1.89.008,9.451S4.5,19.526,8.179,21.121s9.492-.669,11.328-4.406S22.637,5.061,13.624,1.36Z" transform="matrix(-0.574, 0.819, -0.819, -0.574, 292.977, 5069.136)" fill="#bedadf"/>
  </g>
</svg>
