<svg xmlns="http://www.w3.org/2000/svg" width="502.323" height="327.25" viewBox="0 0 502.323 327.25">
  <g id="splash-blue" transform="translate(36.879 -1986.125)">
    <g id="Group_1887" data-name="Group 1887" transform="translate(-72.547 1959.176)">
      <path id="Path_5301" data-name="Path 5301" d="M5581.742,983.125c-27.2-64.316,51.272-49.33,46.785-106.686s-16.166-75.247,2.518-103.31,82.592-68.8,165.742-70.041,88.029,46.3,137.994,64.443,84.318-30.591,106.061,0c15.141,21.3,13.125,68.053,23.259,92.927,10.113,24.819,24.271,65.8,3.635,110.973-22.9,50.128-91.881,59.354-138.844,41.41-18.436-7.045-35.292-20.9-54.709-22.031-20.239-1.183-38.738,11.632-57.053,21.534C5776.788,1034.154,5608.943,1047.441,5581.742,983.125Z" transform="translate(-5540.33 -676.116)" fill="#61b0bc"/>
    </g>
    <path id="Path_6505" data-name="Path 6505" d="M27.951,5.53C6.87-8.269-.474,6.481.024,20.052S12.871,37.709,20.417,40.572,37.035,45.753,40.8,39.046,49.032,19.329,27.951,5.53Z" transform="matrix(-0.883, 0.469, -0.469, -0.883, 370.605, 2027.117)" fill="#61b0bc"/>
    <path id="Path_6506" data-name="Path 6506" d="M13.624,1.36C4.61-2.34-.235,1.89.008,9.451S4.5,19.526,8.179,21.121s9.492-.669,11.328-4.406S22.637,5.061,13.624,1.36Z" transform="matrix(0.602, -0.799, 0.799, 0.602, 367.92, 2010.822)" fill="#61b0bc"/>
  </g>
</svg>
