<svg xmlns="http://www.w3.org/2000/svg" width="493.075" height="425.979" viewBox="0 0 493.075 425.979">
  <g id="splash-lime" transform="translate(33.606 -3712.968)">
    <g id="splash-lime-2" data-name="splash-lime" transform="matrix(0.978, -0.208, 0.208, 0.978, -76.451, 3772.561)">
      <path id="Path_5301" data-name="Path 5301" d="M5580.451,922.521c-21.088-49.862,39.75-38.244,36.271-82.71s-4.364-70.171,29.864-74.966,7.493-61.215,70.642-48.636,73.166,74.7,120.71,44.378,98.786-38.372,133.54-14.049,26.087,65.145,33.944,84.429c7.84,19.242-15.395,126.7-31.393,161.726-17.753,38.863-60.521,89.548-153.021,52.92s-87.371-67.926-146.338-81.091S5601.54,972.383,5580.451,922.521Z" transform="translate(-5540.33 -676.116)" fill="#84bd00"/>
    </g>
    <path id="Path_7242" data-name="Path 7242" d="M13.624,1.36C4.61-2.34-.235,1.89.008,9.451S4.5,19.526,8.179,21.121s9.492-.669,11.328-4.406S22.637,5.061,13.624,1.36Z" transform="matrix(-0.574, 0.819, -0.819, -0.574, 48.092, 3789.227)" fill="#84bd00"/>
    <path id="Path_7243" data-name="Path 7243" d="M23.586,2.355C7.982-4.052-.407,3.272.015,16.362S7.791,33.8,14.16,36.565s16.433-1.159,19.611-7.628S39.189,8.761,23.586,2.355Z" transform="translate(-20.766 3820.361) rotate(-59)" fill="#84bd00"/>
  </g>
</svg>
