<svg xmlns="http://www.w3.org/2000/svg" width="150.559" height="49.641" viewBox="0 0 150.559 49.641">
  <g id="logo-white" transform="translate(-166.792 -12.047)">
    <path id="Path_206" data-name="Path 206" d="M220.332,37.935a5.27,5.27,0,0,0,1.453,4.258c3.581,3.623,7.72,2.617,11.407,1.921,2.134-.405,4.351.868,3.885,2.782-1.211,4.972-7.752,5.756-11.216,5.635a13.612,13.612,0,0,1-12.169-8.345c-2.4-5.251-2.164-17.925,11.519-22.451,3-.991,7.418-.148,9.52,2a5.784,5.784,0,0,1,1.478,5.015,10.375,10.375,0,0,1-2.673,6.029,11.1,11.1,0,0,1-6.667,3.248,19.428,19.428,0,0,1-6.154-.084,2.6,2.6,0,0,0-.384,0m1.114-4.478c.129.073.195.118.266.148,4.049,1.7,9.113-1.291,9.364-5.524.059-1-.279-1.271-1.382-1.119-4.221.577-6.506,3.212-8.248,6.5" transform="translate(35.925 7.284)" fill="#fff"/>
    <path id="Path_207" data-name="Path 207" d="M174.589,37.935a5.276,5.276,0,0,0,1.453,4.258c3.583,3.623,7.722,2.617,11.409,1.921,2.133-.4,4.349.868,3.885,2.782-1.211,4.972-7.752,5.756-11.216,5.635a13.615,13.615,0,0,1-12.171-8.345c-2.4-5.251-2.162-17.925,11.521-22.451,3-.991,7.416-.148,9.52,2a5.789,5.789,0,0,1,1.478,5.015,10.387,10.387,0,0,1-2.673,6.029,11.091,11.091,0,0,1-6.667,3.248,19.428,19.428,0,0,1-6.154-.084,2.625,2.625,0,0,0-.386,0m1.114-4.478c.13.073.2.118.268.148,4.049,1.7,9.113-1.291,9.364-5.524.059-1-.278-1.271-1.382-1.119-4.221.577-6.506,3.212-8.25,6.5" transform="translate(0 7.284)" fill="#fff"/>
    <path id="Path_208" data-name="Path 208" d="M189.64,30.565a28.251,28.251,0,0,1,2.551-1.778c2.351-1.294,6.168-4.178,8.859-2.4a5.006,5.006,0,0,1,1.957,5.151c-.753,2.608-2.717,2.251-4.917,2.528a10.568,10.568,0,0,0-3.855,1.305c-1.175.662-3.847,2.419-3.71,4.081.187,2.275.425,4.54.6,6.815a5.8,5.8,0,0,1-2.492,5.144c-1.341,1.064-2.741.7-4.112.293a2.739,2.739,0,0,1-2.059-2.28,50.112,50.112,0,0,1-.5-5q-.292-5.75-.462-11.514a22.743,22.743,0,0,1,.771-7.449,6.439,6.439,0,0,1,.778-1.675,2.577,2.577,0,0,1,4.263-.405,9.644,9.644,0,0,1,1.482,2.98,40.739,40.739,0,0,1,.844,4.2" transform="translate(11.535 8.153)" fill="#fff"/>
    <path id="Path_209" data-name="Path 209" d="M235.868,29.9a27.542,27.542,0,0,1,2.551-1.778c2.35-1.3,6.168-4.178,8.857-2.4a5,5,0,0,1,1.959,5.151c-.753,2.608-2.717,2.25-4.917,2.526a10.559,10.559,0,0,0-3.855,1.307c-1.175.664-3.849,2.419-3.71,4.081.187,2.273.423,4.54.6,6.815a5.8,5.8,0,0,1-2.492,5.144c-1.341,1.062-2.741.7-4.112.291a2.735,2.735,0,0,1-2.059-2.28,50.072,50.072,0,0,1-.5-5q-.292-5.75-.464-11.514A22.792,22.792,0,0,1,228.5,24.8a6.383,6.383,0,0,1,.778-1.675,2.576,2.576,0,0,1,4.263-.405,9.625,9.625,0,0,1,1.482,2.98,40.731,40.731,0,0,1,.845,4.2" transform="translate(47.841 7.631)" fill="#fff"/>
    <path id="Path_210" data-name="Path 210" d="M223.383,33.608a8.763,8.763,0,0,0-.8-1.55c-.712-1.093-2.11-2.353-3.46-1.466-1.278.841-1.08,3.73-1.178,5.056-.257,3.394-.794,6.172-3.637,8.375-2.159,1.675-5.265,2.458-7.549.491-1.468-1.262-2.442-4.1-1.25-5.847.812-1.191,3.1-2.094,4.342-2.735,3.289-1.7,6.7-3.273,6.879-7.481-3.455-.714-7.575.93-10.412,2.842-.844.568-1.635,1.212-2.533,1.882-.446-1.4-.907-2.744-1.307-4.108a46.812,46.812,0,0,0-3.253-9.105,2.8,2.8,0,0,0-2.869-1.612,2.665,2.665,0,0,0-2.475,2.151,10.568,10.568,0,0,0-.287,2.573,90.473,90.473,0,0,0,2.691,20.482A34.584,34.584,0,0,0,199.9,53.2a11.412,11.412,0,0,0,2.248,2.828c2.092,1.8,2.433-.246,3.756-1.132,1.525-1.019,3.864-.855,5.585-1.448a26.312,26.312,0,0,0,6.018-3.015c4.672-3.124,8.1-11.167,5.872-16.829" transform="translate(21.052 4.939)" fill="#fff"/>
    <path id="Path_211" data-name="Path 211" d="M256.433,46.2c-4.858-.105-5.686-2.741-5.161-9.543a23.174,23.174,0,0,1,4.476-1.419c3.26-.67,4.328-3.48,4.376-6.247.045-2.542-2.857-2.408-4.912-1.427-.875.418-2.121,1.012-3.265,1.56.232-1.805.5-3.612.711-5.417a3.173,3.173,0,0,0-.141-1.375,3.746,3.746,0,0,0-3.876-2.416,4.119,4.119,0,0,0-3.776,2.676,35.441,35.441,0,0,0-1.891,8.988,1.146,1.146,0,0,1-.375.366,4.085,4.085,0,0,0-2.939,3.585,3.991,3.991,0,0,0,2.576,3.444,1.317,1.317,0,0,1,.373.773c-.005,1.441.009,2.794.057,3.41A19.182,19.182,0,0,0,244,48.669a6.626,6.626,0,0,0,5.581,4.313c4.587.264,8.979-2.428,9.645-4.76.6-2.082-.259-1.967-2.8-2.023" transform="translate(57.228 6.175)" fill="#fff"/>
    <path id="Path_212" data-name="Path 212" d="M219.413,12.15c-.757-1.009-11.109,5.674-12.517,7.661-2.91,4.1-1.066,9.289,1.114,13.471,2.741-2.6,7.738-7.549,9.134-13.824,0,0,1.666,6.308-9.736,17.863-.543,1.219-1.155,2.592-1.6,3.6a.325.325,0,0,0,.523.362c7.09-6.6,11.157-10.2,12.831-14.265,3.564-8.647,1.31-13.46.254-14.869" transform="translate(30.317 0)" fill="#79b52d"/>
  </g>
</svg>
