<svg xmlns="http://www.w3.org/2000/svg" width="77.904" height="25.686" viewBox="0 0 77.904 25.686">
  <g id="logo" transform="translate(0 2)">
    <g id="Group_3385" data-name="Group 3385" transform="translate(0 -2)">
      <path id="Path_9043" data-name="Path 9043" d="M555.025,528.118a2.729,2.729,0,0,0,.752,2.2c1.853,1.874,3.994,1.354,5.9.993,1.1-.208,2.252.449,2.01,1.44-.625,2.572-4.009,2.979-5.8,2.916a7.046,7.046,0,0,1-6.3-4.319c-1.239-2.717-1.119-9.275,5.962-11.617a5.332,5.332,0,0,1,4.925,1.034,3,3,0,0,1,.765,2.594,5.375,5.375,0,0,1-1.383,3.12,5.738,5.738,0,0,1-3.45,1.681,10.048,10.048,0,0,1-3.184-.045,1.528,1.528,0,0,0-.2,0m.576-2.317c.067.038.1.06.138.077a3.579,3.579,0,0,0,4.844-2.859c.031-.519-.143-.657-.715-.58A5.553,5.553,0,0,0,555.6,525.8" transform="translate(-508.733 -510.953)" fill="#007262"/>
      <path id="Path_9044" data-name="Path 9044" d="M524.809,528.118a2.732,2.732,0,0,0,.751,2.2c1.854,1.874,4,1.354,5.9.993,1.1-.208,2.252.449,2.01,1.44-.625,2.572-4.011,2.979-5.8,2.916a7.044,7.044,0,0,1-6.3-4.319c-1.239-2.717-1.119-9.275,5.962-11.617a5.329,5.329,0,0,1,4.924,1.034,2.994,2.994,0,0,1,.766,2.594,5.384,5.384,0,0,1-1.383,3.12,5.738,5.738,0,0,1-3.45,1.681,10.038,10.038,0,0,1-3.183-.045,1.554,1.554,0,0,0-.2,0m.576-2.317c.067.038.1.06.138.077a3.579,3.579,0,0,0,4.844-2.859c.031-.519-.143-.657-.715-.58a5.553,5.553,0,0,0-4.268,3.362" transform="translate(-520.774 -510.953)" fill="#007262"/>
      <path id="Path_9045" data-name="Path 9045" d="M534.7,524.462a14.615,14.615,0,0,1,1.32-.919c1.217-.671,3.191-2.162,4.584-1.242a2.587,2.587,0,0,1,1.013,2.664c-.39,1.351-1.407,1.165-2.545,1.308a5.466,5.466,0,0,0-1.994.677c-.607.343-1.99,1.252-1.919,2.112.1,1.176.22,2.348.309,3.526a3,3,0,0,1-1.289,2.661,2.13,2.13,0,0,1-2.127.151,1.416,1.416,0,0,1-1.066-1.179,25.689,25.689,0,0,1-.257-2.586q-.151-2.975-.241-5.958a11.79,11.79,0,0,1,.4-3.854,3.351,3.351,0,0,1,.4-.867,1.332,1.332,0,0,1,2.205-.208,4.974,4.974,0,0,1,.768,1.541,20.944,20.944,0,0,1,.436,2.173" transform="translate(-516.908 -510.661)" fill="#007262"/>
      <path id="Path_9046" data-name="Path 9046" d="M565.235,524.024a14.364,14.364,0,0,1,1.32-.92c1.217-.671,3.191-2.162,4.584-1.242a2.589,2.589,0,0,1,1.012,2.666c-.39,1.349-1.407,1.164-2.545,1.308a5.442,5.442,0,0,0-1.994.675c-.607.343-1.991,1.252-1.919,2.112.1,1.176.22,2.349.309,3.526a3,3,0,0,1-1.289,2.663,2.133,2.133,0,0,1-2.127.15,1.414,1.414,0,0,1-1.066-1.179,25.7,25.7,0,0,1-.257-2.586q-.153-2.975-.241-5.958a11.787,11.787,0,0,1,.4-3.854,3.343,3.343,0,0,1,.4-.866,1.332,1.332,0,0,1,2.205-.21,4.99,4.99,0,0,1,.768,1.541,20.9,20.9,0,0,1,.436,2.175" transform="translate(-504.739 -510.836)" fill="#007262"/>
      <path id="Path_9047" data-name="Path 9047" d="M553.893,525.451a4.477,4.477,0,0,0-.413-.8c-.368-.566-1.091-1.218-1.79-.759-.661.435-.558,1.93-.61,2.617-.133,1.757-.411,3.193-1.882,4.334a3.064,3.064,0,0,1-3.906.253,2.545,2.545,0,0,1-.646-3.025,6.63,6.63,0,0,1,2.246-1.415c1.7-.88,3.466-1.694,3.561-3.871a7.715,7.715,0,0,0-5.388,1.471c-.436.294-.846.627-1.31.973-.231-.723-.47-1.419-.677-2.126a24.063,24.063,0,0,0-1.682-4.711,1.445,1.445,0,0,0-1.485-.834,1.377,1.377,0,0,0-1.28,1.112,5.481,5.481,0,0,0-.15,1.331,46.876,46.876,0,0,0,1.393,10.6,17.9,17.9,0,0,0,1.87,4.991,5.937,5.937,0,0,0,1.164,1.464c1.082.93,1.259-.129,1.944-.586.79-.529,2-.443,2.889-.75a13.592,13.592,0,0,0,3.114-1.561c2.418-1.617,4.191-5.779,3.039-8.707" transform="translate(-513.718 -511.738)" fill="#007262"/>
      <path id="Path_9048" data-name="Path 9048" d="M577.587,532.191c-2.513-.055-2.942-1.418-2.671-4.938a12.042,12.042,0,0,1,2.316-.734c1.687-.347,2.24-1.8,2.264-3.232.024-1.316-1.478-1.247-2.541-.738l-1.689.807c.12-.934.256-1.868.368-2.8a1.664,1.664,0,0,0-.073-.712,1.939,1.939,0,0,0-2.005-1.249,2.132,2.132,0,0,0-1.955,1.385,18.345,18.345,0,0,0-.978,4.65.6.6,0,0,1-.194.19,2.111,2.111,0,0,0-1.52,1.854,2.065,2.065,0,0,0,1.333,1.782.684.684,0,0,1,.193.4c0,.747,0,1.446.029,1.765a9.932,9.932,0,0,0,.694,2.852,3.426,3.426,0,0,0,2.888,2.232c2.372.137,4.644-1.257,4.99-2.463.308-1.078-.134-1.018-1.447-1.047" transform="translate(-501.593 -511.324)" fill="#007262"/>
      <path id="Path_9049" data-name="Path 9049" d="M553.527,513.447c-.392-.522-5.748,2.935-6.477,3.965-1.506,2.122-.552,4.807.576,6.97,1.418-1.347,4-3.906,4.725-7.153,0,0,.863,3.264-5.036,9.243l-.831,1.863a.169.169,0,0,0,.271.189c3.668-3.415,5.773-5.279,6.64-7.381,1.843-4.475.677-6.966.13-7.695" transform="translate(-510.612 -513.394)" fill="#7eaf00"/>
    </g>
  </g>
</svg>
