<svg xmlns="http://www.w3.org/2000/svg" width="72.959" height="71.018" viewBox="0 0 72.959 71.018">
  <g id="Logo" transform="translate(-503.52 -504.491)">
    <g id="Group_3383" data-name="Group 3383">
      <path id="Path_9040" data-name="Path 9040" d="M504.339,540.768a.819.819,0,0,1-.819-.818,35.46,35.46,0,0,1,60.533-25.074.819.819,0,1,1-1.158,1.158,33.822,33.822,0,0,0-57.737,23.916A.819.819,0,0,1,504.339,540.768Z" fill="#f07400"/>
    </g>
    <g id="Group_3384" data-name="Group 3384">
      <path id="Path_9041" data-name="Path 9041" d="M514.231,550.932c.049.133.1.269.148.409a1.215,1.215,0,0,1,.075.409.461.461,0,0,1-.112.322.842.842,0,0,1-.272.2,1.6,1.6,0,0,1-.334.111,1.53,1.53,0,0,1-.322.037.94.94,0,0,1-.818-.557,5.187,5.187,0,0,1-.52-1.387q-.2-.829-.334-1.758t-.26-1.671a4.428,4.428,0,0,1-.483,1.312,8.042,8.042,0,0,1-1.028,1.523,7.186,7.186,0,0,1-1.362,1.251,2.582,2.582,0,0,1-1.486.52,1.854,1.854,0,0,1-.978-.235,1.638,1.638,0,0,1-.582-.582,2.356,2.356,0,0,1-.272-.781,4.728,4.728,0,0,1-.075-.8,6.517,6.517,0,0,1,.409-2.019,11.466,11.466,0,0,1,1.115-2.34,8.412,8.412,0,0,1,1.634-1.944,2.968,2.968,0,0,1,1.969-.8,2.02,2.02,0,0,1,.507.075,5.82,5.82,0,0,1,.582.185,3.681,3.681,0,0,1,.57.272,5.447,5.447,0,0,1,.471.31,1.725,1.725,0,0,1,.569.941,9.76,9.76,0,0,1,.223,1.238q.172,1.239.272,2.242a15.214,15.214,0,0,0,.372,2.117l.148.916Zm-6.984-1.287a.048.048,0,0,0,.013.037.051.051,0,0,1,.012.037,1.317,1.317,0,0,0,.743-.433,8.036,8.036,0,0,0,.842-.978,12.08,12.08,0,0,0,.78-1.2,7.027,7.027,0,0,0,.532-1.126q.1-.223.236-.5t.272-.557a5.236,5.236,0,0,0,.223-.532,1.314,1.314,0,0,0,.087-.421c-.083-.033-.157-.066-.223-.1a.494.494,0,0,0-.223-.05,1.332,1.332,0,0,0-.966.421,4.761,4.761,0,0,0-.73.941,7.573,7.573,0,0,0-.508,1,5.844,5.844,0,0,1-.273.607,7.545,7.545,0,0,0-.582,1.337,4.443,4.443,0,0,0-.235,1.387Z" fill="#7eaf00"/>
      <path id="Path_9042" data-name="Path 9042" d="M517.711,551.106a.226.226,0,0,0,.025.1.227.227,0,0,1,.025.1.62.62,0,0,1-.334.582,1.387,1.387,0,0,1-.681.186,1.115,1.115,0,0,1-.991-.681,5.911,5.911,0,0,1-.569-1.585,12.233,12.233,0,0,1-.261-1.8q-.062-.891-.061-1.337,0-1.213-.013-2.167t-.012-1.993a25.506,25.506,0,0,1,.136-2.663,25.956,25.956,0,0,0,.136-2.711.844.844,0,0,1,.149-.52,2.277,2.277,0,0,1,.4-.4c.132,0,.293.009.483.025a1.872,1.872,0,0,1,.532.124,1.227,1.227,0,0,1,.421.273.666.666,0,0,1,.174.495,7.055,7.055,0,0,1-.124,1.3,6.966,6.966,0,0,0-.124,1.3q0,.942-.012,1.7t-.013,1.5q0,.643.025,1.226c.016.387.025.779.025,1.176q0,.422.012.8c.008.256.013.5.013.73a12.5,12.5,0,0,0,.21,2.155Q517.488,550.214,517.711,551.106Z" fill="#7eaf00"/>
    </g>
    <g id="Group_3386" data-name="Group 3386">
      <g id="Group_3385" data-name="Group 3385">
        <path id="Path_9043" data-name="Path 9043" d="M553.875,525.668a1.951,1.951,0,0,0,.538,1.575c1.325,1.34,2.856.968,4.22.71.79-.149,1.61.321,1.437,1.03-.447,1.839-2.867,2.13-4.149,2.085a5.038,5.038,0,0,1-4.5-3.088,6.239,6.239,0,0,1,4.263-8.307,3.813,3.813,0,0,1,3.522.739,2.143,2.143,0,0,1,.547,1.855,3.843,3.843,0,0,1-.989,2.231,4.1,4.1,0,0,1-2.467,1.2,7.183,7.183,0,0,1-2.277-.032,1.09,1.09,0,0,0-.142,0m.412-1.657c.048.027.072.043.1.055a2.559,2.559,0,0,0,3.464-2.044c.022-.371-.1-.47-.511-.415a3.971,3.971,0,0,0-3.052,2.4" fill="#007262"/>
        <path id="Path_9044" data-name="Path 9044" d="M523.659,525.668a1.954,1.954,0,0,0,.537,1.575c1.326,1.34,2.857.968,4.221.71.79-.149,1.61.321,1.437,1.03-.447,1.839-2.868,2.13-4.149,2.085a5.037,5.037,0,0,1-4.5-3.088,6.239,6.239,0,0,1,4.263-8.307,3.811,3.811,0,0,1,3.521.739,2.141,2.141,0,0,1,.548,1.855,3.85,3.85,0,0,1-.989,2.231,4.1,4.1,0,0,1-2.467,1.2,7.177,7.177,0,0,1-2.276-.032,1.108,1.108,0,0,0-.143,0m.412-1.657c.048.027.072.043.1.055a2.559,2.559,0,0,0,3.464-2.044c.022-.371-.1-.47-.511-.415a3.971,3.971,0,0,0-3.052,2.4" fill="#007262"/>
        <path id="Path_9045" data-name="Path 9045" d="M533.495,523.262a10.432,10.432,0,0,1,.944-.657c.87-.48,2.282-1.546,3.278-.888a1.85,1.85,0,0,1,.724,1.905c-.279.966-1.006.833-1.82.935a3.911,3.911,0,0,0-1.426.484c-.434.245-1.423.895-1.372,1.51.069.841.157,1.679.221,2.521a2.144,2.144,0,0,1-.922,1.9,1.523,1.523,0,0,1-1.521.108,1.012,1.012,0,0,1-.762-.843,18.35,18.35,0,0,1-.184-1.849q-.108-2.127-.172-4.26a8.432,8.432,0,0,1,.286-2.756,2.4,2.4,0,0,1,.288-.62.953.953,0,0,1,1.577-.149,3.556,3.556,0,0,1,.549,1.1,14.971,14.971,0,0,1,.312,1.554" fill="#007262"/>
        <path id="Path_9046" data-name="Path 9046" d="M564.032,522.824a10.267,10.267,0,0,1,.944-.658c.87-.48,2.282-1.546,3.278-.888a1.851,1.851,0,0,1,.724,1.906c-.279.965-1.006.832-1.82.935a3.891,3.891,0,0,0-1.426.483c-.434.245-1.424.9-1.372,1.51.069.841.157,1.68.221,2.521a2.146,2.146,0,0,1-.922,1.9,1.525,1.525,0,0,1-1.521.107,1.011,1.011,0,0,1-.762-.843,18.387,18.387,0,0,1-.184-1.849q-.109-2.127-.172-4.26a8.429,8.429,0,0,1,.286-2.756,2.389,2.389,0,0,1,.288-.619.952.952,0,0,1,1.577-.15,3.568,3.568,0,0,1,.549,1.1,14.942,14.942,0,0,1,.312,1.555" fill="#007262"/>
        <path id="Path_9047" data-name="Path 9047" d="M549.5,523.2a3.2,3.2,0,0,0-.295-.573c-.263-.4-.78-.871-1.28-.543-.473.311-.4,1.38-.436,1.871a3.811,3.811,0,0,1-1.346,3.1,2.191,2.191,0,0,1-2.793.181,1.82,1.82,0,0,1-.462-2.163,4.74,4.74,0,0,1,1.606-1.012c1.218-.629,2.478-1.211,2.546-2.768a5.516,5.516,0,0,0-3.853,1.052c-.312.21-.6.448-.937.7-.165-.517-.336-1.015-.484-1.52a17.208,17.208,0,0,0-1.2-3.369,1.033,1.033,0,0,0-1.062-.6.984.984,0,0,0-.915.795,3.92,3.92,0,0,0-.107.952,33.52,33.52,0,0,0,1,7.579,12.8,12.8,0,0,0,1.337,3.569,4.244,4.244,0,0,0,.832,1.047c.774.665.9-.092,1.39-.419a8.871,8.871,0,0,1,2.066-.536,9.715,9.715,0,0,0,2.227-1.116c1.729-1.156,3-4.132,2.173-6.226" fill="#007262"/>
        <path id="Path_9048" data-name="Path 9048" d="M575.114,528.315c-1.8-.039-2.1-1.014-1.91-3.531a8.611,8.611,0,0,1,1.656-.525,2.137,2.137,0,0,0,1.619-2.311c.017-.941-1.057-.892-1.817-.528l-1.208.577c.086-.668.183-1.336.263-2a1.19,1.19,0,0,0-.052-.509,1.386,1.386,0,0,0-1.434-.893,1.524,1.524,0,0,0-1.4.99,13.118,13.118,0,0,0-.7,3.325.429.429,0,0,1-.139.136,1.51,1.51,0,0,0-1.087,1.326,1.477,1.477,0,0,0,.953,1.274.489.489,0,0,1,.138.286c0,.534,0,1.034.021,1.262a7.1,7.1,0,0,0,.5,2.039,2.45,2.45,0,0,0,2.065,1.6c1.7.1,3.321-.9,3.568-1.761.22-.771-.1-.728-1.035-.749" fill="#007262"/>
        <path id="Path_9049" data-name="Path 9049" d="M551.46,513.432c-.28-.373-4.11,2.1-4.631,2.835-1.077,1.517-.395,3.437.412,4.984a10.86,10.86,0,0,0,3.379-5.115s.617,2.334-3.6,6.609l-.594,1.332a.121.121,0,0,0,.194.135c2.623-2.442,4.128-3.775,4.748-5.278,1.318-3.2.484-4.981.093-5.5" fill="#7eaf00"/>
      </g>
    </g>
    <g id="Group_3387" data-name="Group 3387">
      <path id="Path_9050" data-name="Path 9050" d="M526.594,556.82a41.291,41.291,0,0,1-1.351-3.909q-.715-2.383-1.541-5.816a57.2,57.2,0,0,0-3.115-9.82c.275-.53.509-.8.7-.8a.954.954,0,0,1,.509-.159,4.206,4.206,0,0,1,1.779.954q.6,1.366,1.129,2.955t1.033,3.433q.222.826.476,1.859t.493,2.1q.238,1.065.461,2.1t.413,1.891a43.781,43.781,0,0,1,.985-4.8q.636-2.415,1.24-4.418a67.992,67.992,0,0,1,2.86-7.564,1.148,1.148,0,0,1,1.112-.6h.254a.8.8,0,0,1,.287.064.851.851,0,0,1,.317.254.471.471,0,0,0,.223.128,2.318,2.318,0,0,1,.254.079.5.5,0,0,1,.207.143.505.505,0,0,1,.079.318,1.941,1.941,0,0,1-.159.635,79.822,79.822,0,0,0-3.527,8.676,47.288,47.288,0,0,0-1.653,6.2q-.445,2.1-.842,3.639a25.227,25.227,0,0,1-.811,2.622.874.874,0,0,1-.667.317A2.22,2.22,0,0,1,526.594,556.82Z" fill="#f07400"/>
      <path id="Path_9051" data-name="Path 9051" d="M544.025,546.78a10.947,10.947,0,0,1-1.145,2.05,9.327,9.327,0,0,1-1.446,1.621,6.187,6.187,0,0,1-1.684,1.065,4.753,4.753,0,0,1-1.859.381,3.982,3.982,0,0,1-1.51-.35,5.276,5.276,0,0,1-1.589-1.048,6.3,6.3,0,0,1-1.271-1.7,4.959,4.959,0,0,1-.525-2.336,8.958,8.958,0,0,1,.4-2.431,13.891,13.891,0,0,1,1.048-2.622,8.583,8.583,0,0,1,1.51-2.1,2.523,2.523,0,0,1,1.78-.858.908.908,0,0,1,.365.063c.1.043.2.1.318.159s.259.149.429.254a5.159,5.159,0,0,0,.7.35q.286.127.652.27c.243.1.535.2.874.3a3.682,3.682,0,0,1,1.589,1.017,6.1,6.1,0,0,1,1.017,1.51,6.479,6.479,0,0,1,.524,1.589,7.221,7.221,0,0,1,.143,1.255A3.464,3.464,0,0,1,544.025,546.78Zm-2.543-1.97a6.946,6.946,0,0,0-.524-2.05,1.12,1.12,0,0,0-1-.779.891.891,0,0,0-.493.239c-.2.159-.4.333-.6.524s-.392.366-.572.525-.3.238-.365.238a1.093,1.093,0,0,1-.6-.254,1.142,1.142,0,0,0-.477-.255.682.682,0,0,0-.556.334,3.079,3.079,0,0,0-.4.8,5.477,5.477,0,0,0-.239.985,6.14,6.14,0,0,0-.079.906,4.154,4.154,0,0,0,.254,1.493,4.825,4.825,0,0,0,.6,1.144,3.116,3.116,0,0,0,.715.731,1.137,1.137,0,0,0,.556.254,2.368,2.368,0,0,0,1.271-.429,5.367,5.367,0,0,0,1.224-1.1,6.585,6.585,0,0,0,.922-1.462,3.653,3.653,0,0,0,.365-1.525Z" fill="#f07400"/>
      <path id="Path_9052" data-name="Path 9052" d="M545.438,554.582v-.7q0-1.365.08-3.13t.27-3.957q.477-5.276.477-7.659c0-.551-.012-1.075-.032-1.573s-.053-.99-.1-1.478a1.423,1.423,0,0,1,1.049-.413q1.208,0,1.4.89c0,.212,0,.434.015.667s.016.488.016.763q0,1.239-.063,2.812t-.191,3.576q-.159,2.193-.207,3.909t-.047,2.987v.89a12.644,12.644,0,0,0,2.32-1.335q.793-.54,1.35-.9a7.152,7.152,0,0,1,.906-.525,4.177,4.177,0,0,0,.556-.063,4.066,4.066,0,0,1,.588-.064.979.979,0,0,1,.922.509,1.5,1.5,0,0,1,.191.635.8.8,0,0,1-.191.54l-3.718,2.638q-1.082.764-2.018,1.335a13.809,13.809,0,0,1-1.764.922.853.853,0,0,1-.382.095,1.044,1.044,0,0,1-.826-.572Z" fill="#f07400"/>
      <path id="Path_9053" data-name="Path 9053" d="M564.9,543.9a10.939,10.939,0,0,1-1.144,2.05,9.367,9.367,0,0,1-1.446,1.621,6.206,6.206,0,0,1-1.685,1.065,4.75,4.75,0,0,1-1.859.381,3.978,3.978,0,0,1-1.509-.35,5.266,5.266,0,0,1-1.589-1.048,6.3,6.3,0,0,1-1.272-1.7,4.971,4.971,0,0,1-.524-2.336,8.95,8.95,0,0,1,.4-2.431,13.829,13.829,0,0,1,1.049-2.622,8.559,8.559,0,0,1,1.51-2.1,2.521,2.521,0,0,1,1.779-.858.918.918,0,0,1,.366.063c.1.043.2.1.317.159s.26.149.43.255a5.226,5.226,0,0,0,.7.349q.286.128.651.27c.244.1.535.2.874.3a3.675,3.675,0,0,1,1.589,1.017,6.075,6.075,0,0,1,1.017,1.51,6.487,6.487,0,0,1,.525,1.589,7.323,7.323,0,0,1,.143,1.255A3.464,3.464,0,0,1,564.9,543.9Zm-2.543-1.97a6.946,6.946,0,0,0-.524-2.05,1.119,1.119,0,0,0-1-.779.894.894,0,0,0-.493.239c-.2.159-.4.333-.6.524s-.393.366-.572.525-.3.238-.366.238a1.086,1.086,0,0,1-.6-.254,1.131,1.131,0,0,0-.477-.255.682.682,0,0,0-.556.334,3.11,3.11,0,0,0-.4.8,5.477,5.477,0,0,0-.238.985,6.035,6.035,0,0,0-.08.906,4.175,4.175,0,0,0,.254,1.493,4.838,4.838,0,0,0,.6,1.144,3.114,3.114,0,0,0,.715.731,1.146,1.146,0,0,0,.556.255,2.362,2.362,0,0,0,1.272-.43,5.362,5.362,0,0,0,1.223-1.1,6.55,6.55,0,0,0,.922-1.462,3.653,3.653,0,0,0,.365-1.525Z" fill="#f07400"/>
    </g>
    <path id="Path_9054" data-name="Path 9054" d="M526.772,528.518" fill="none" stroke="#f07400" stroke-linecap="round" stroke-linejoin="round" stroke-width="0.432"/>
    <path id="Path_9055" data-name="Path 9055" d="M573.509,533.96" fill="none" stroke="#ffd400" stroke-linecap="round" stroke-linejoin="round" stroke-width="0.432"/>
    <path id="Path_9056" data-name="Path 9056" d="M528.946,542.113" fill="#f07400" stroke="#ffd400" stroke-linecap="round" stroke-linejoin="round" stroke-width="0.432"/>
    <path id="Path_9057" data-name="Path 9057" d="M571.865,552.325" fill="#f07400" stroke="#ffd400" stroke-linecap="round" stroke-linejoin="round" stroke-width="0.432"/>
    <g id="Group_3388" data-name="Group 3388">
      <path id="Path_9058" data-name="Path 9058" d="M543.038,567.212a.732.732,0,0,1-.106-1.457,25.894,25.894,0,0,0,18.824-12.986.732.732,0,0,1,1.278.716A27.35,27.35,0,0,1,543.147,567.2.661.661,0,0,1,543.038,567.212Z" fill="#f07400"/>
    </g>
    <g id="Group_3389" data-name="Group 3389">
      <path id="Path_9059" data-name="Path 9059" d="M515.017,523.768a.732.732,0,0,1-.6-1.159,30.035,30.035,0,0,1,9.492-8.575.732.732,0,0,1,.73,1.27,28.566,28.566,0,0,0-9.031,8.159A.734.734,0,0,1,515.017,523.768Z" fill="#f07400"/>
    </g>
    <g id="Group_3390" data-name="Group 3390">
      <path id="Path_9060" data-name="Path 9060" d="M512.221,528.559a.721.721,0,0,1-.308-.068.733.733,0,0,1-.356-.973c.3-.65.63-1.3.976-1.92a.732.732,0,1,1,1.282.708c-.329.595-.642,1.21-.929,1.83A.734.734,0,0,1,512.221,528.559Z" fill="#f07400"/>
    </g>
    <path id="Path_9061" data-name="Path 9061" d="M574.146,534.872a.732.732,0,1,0-1.449.215,33.963,33.963,0,0,1-63.605,20.884.732.732,0,1,0-1.294.685,35.241,35.241,0,0,0,4.506,6.584,35.661,35.661,0,0,0,19.671,11.547,35.157,35.157,0,0,0,7.09.722,35.691,35.691,0,0,0,5.26-.391,35.419,35.419,0,0,0,29.821-40.246Z" fill="#f07400"/>
  </g>
</svg>
